<?xml version="1.0" encoding="UTF-8"?>
<svg version="1.1" xmlns="http://www.w3.org/2000/svg" width="588" height="85">
<path d="M0 0 C194.04 0 388.08 0 588 0 C588 28.05 588 56.1 588 85 C393.96 85 199.92 85 0 85 C0 56.95 0 28.9 0 0 Z " fill="#FEFEFE" transform="translate(0,0)"/>
<path d="M0 0 C0.74016597 -0.00085442 1.48033195 -0.00170885 2.24292719 -0.00258917 C4.71183199 -0.00423033 7.18066816 0.00125499 9.64956665 0.00672913 C11.42382811 0.00701132 13.19808968 0.00685264 14.97235107 0.00628662 C19.78177 0.0059999 24.59116394 0.01187648 29.40057707 0.01886058 C34.42942395 0.02511487 39.45827141 0.02569956 44.48712158 0.02688599 C54.00673929 0.02999317 63.52634551 0.03819832 73.04595816 0.04823548 C85.91209494 0.06150642 98.77823486 0.06690147 111.64437675 0.07273769 C131.91125205 0.08213861 152.17810308 0.10206163 172.44497681 0.12025452 C172.44497681 28.17025452 172.44497681 56.22025452 172.44497681 85.12025452 C131.39857551 85.16055755 131.39857551 85.16055755 114.24575806 85.16908264 C102.38523935 85.17502461 90.52472774 85.18202346 78.66421509 85.19569397 C70.02766282 85.20564379 61.39111628 85.21210866 52.75455844 85.21434301 C48.17922118 85.21564961 43.6039003 85.21873226 39.02856827 85.22598457 C34.72604901 85.23274948 30.42355297 85.23487051 26.1210289 85.2333622 C24.53833643 85.23363831 22.95564321 85.23564065 21.37295532 85.23945999 C19.21912796 85.24440458 17.06538929 85.24324995 14.91156006 85.24050903 C13.10023685 85.24189172 13.10023685 85.24189172 11.25232124 85.24330235 C8.44497681 85.12025452 8.44497681 85.12025452 6.44497681 84.12025452 C4.54063912 84.1244307 2.6359776 84.1347284 0.73233032 84.18617249 C-13.04456009 84.5420277 -24.09100791 81.48792485 -34.36752319 71.74525452 C-43.78922646 61.63632112 -46.51553918 50.4659406 -46.10971069 36.94447327 C-45.33377613 27.00896604 -39.60006276 17.44802808 -32.10971069 11.02259827 C-21.82023556 3.47798312 -12.81883297 -0.05467795 0 0 Z " fill="#FEFEFE" transform="translate(415.5550231933594,-0.1202545166015625)"/>
<path d="M0 0 C1.3303125 0.86625 1.3303125 0.86625 2.6875 1.75 C11.04387605 9.88052804 17.06386296 20.8673434 17.25 32.625 C17.10490062 44.58118914 12.41072766 54.46248909 4.375 63.25 C-4.19888383 71.37955588 -15.63591176 75.40486763 -27.3125 75.3125 C-28.06088135 75.30686035 -28.8092627 75.3012207 -29.58032227 75.29541016 C-41.31608194 75.03882141 -51.2451431 70.7472994 -59.8125 62.625 C-69.23420327 52.51606661 -71.96051599 41.34568609 -71.5546875 27.82421875 C-70.77875294 17.88871152 -65.04503957 8.32777356 -57.5546875 1.90234375 C-39.42927117 -11.38786677 -18.92140985 -13.06978865 0 0 Z " fill="#5A29E4" transform="translate(441,9)"/>
<path d="M0 0 C1.86782768 0.01508275 3.73566722 0.02876476 5.60351562 0.04101562 C10.1318089 0.0737169 14.65951982 0.12529809 19.1875 0.1875 C19.2572286 8.3938652 19.31042659 16.60010514 19.34293652 24.80669403 C19.35854525 28.61798114 19.3796949 32.4290645 19.41381836 36.24023438 C19.4465842 39.92312096 19.464389 43.60581244 19.47213173 47.28883362 C19.47764453 48.68896045 19.48840926 50.08907746 19.50469017 51.48912048 C19.61146884 61.05805425 19.54342777 69.31451793 12.76953125 76.8046875 C1.76877246 86.42016555 -13.11901797 84.86316523 -26.8125 84.1875 C-35.83585367 83.0690591 -43.75207806 79.20471029 -51.8125 75.1875 C-51.21415275 71.04451333 -49.80585715 68.00555623 -47.75 64.375 C-47.20214844 63.39917969 -46.65429688 62.42335937 -46.08984375 61.41796875 C-45.45755859 60.31388672 -45.45755859 60.31388672 -44.8125 59.1875 C-43.94367187 59.59742188 -43.07484375 60.00734375 -42.1796875 60.4296875 C-41.02726563 60.96851563 -39.87484375 61.50734375 -38.6875 62.0625 C-37.55054688 62.59617188 -36.41359375 63.12984375 -35.2421875 63.6796875 C-28.41278802 66.6821342 -23.07943655 67.5020584 -15.6875 67.4375 C-14.79417969 67.44523437 -13.90085937 67.45296875 -12.98046875 67.4609375 C-11.68689453 67.45707031 -11.68689453 67.45707031 -10.3671875 67.453125 C-9.19905518 67.44974121 -9.19905518 67.44974121 -8.00732422 67.44628906 C-5.56943706 67.15884074 -3.92937548 66.40110296 -1.8125 65.1875 C-1.47869186 61.81313814 -1.47869186 61.81313814 -1.8125 58.1875 C-5.06578054 54.80006356 -9.41652305 53.94127435 -13.8125 52.75 C-15.3428292 52.31514165 -16.87277607 51.87893564 -18.40234375 51.44140625 C-19.15241699 51.22887207 -19.90249023 51.01633789 -20.67529297 50.79736328 C-40.56021138 45.1230971 -40.56021138 45.1230971 -46.8125 37.1875 C-49.82575475 30.85966502 -49.83871791 23.45488676 -47.5625 16.875 C-44.64264875 10.1741432 -40.30720126 6.31471889 -33.8125 3.1875 C-22.74840592 -0.6262117 -11.53658074 -0.16332618 0 0 Z " fill="#5A29E4" transform="translate(568.8125,-0.1875)"/>
<path d="M0 0 C5.28 0 10.56 0 16 0 C24.26071496 18.53596396 32.50040859 37.08123918 40.67681885 55.65457153 C41.47288392 57.46200949 42.26987481 59.26903997 43.06781006 61.07565308 C44.19107552 63.61959507 45.31083183 66.16505353 46.4296875 68.7109375 C46.76234619 69.46261703 47.09500488 70.21429657 47.43774414 70.98875427 C47.74687744 71.69419876 48.05601074 72.39964325 48.37451172 73.12646484 C48.64157928 73.7329184 48.90864685 74.33937195 49.18380737 74.96420288 C50.24002613 77.59868773 51.10244173 80.30732519 52 83 C45.73 83 39.46 83 33 83 C31.865625 80.628125 30.73125 78.25625 29.5625 75.8125 C29.20615479 75.07491455 28.84980957 74.3373291 28.48266602 73.57739258 C28.06005493 72.68250122 28.06005493 72.68250122 27.62890625 71.76953125 C27.34088135 71.16729736 27.05285645 70.56506348 26.75610352 69.94458008 C26 68 26 68 25 63 C8.665 63.495 8.665 63.495 -8 64 C-10.59031377 69.87766483 -10.59031377 69.87766483 -13.17553711 75.75756836 C-13.4978833 76.48596924 -13.82022949 77.21437012 -14.15234375 77.96484375 C-14.48226318 78.7137085 -14.81218262 79.46257324 -15.15209961 80.23413086 C-16 82 -16 82 -17 83 C-18.41570123 83.08651611 -19.835595 83.10704904 -21.25390625 83.09765625 C-22.10791016 83.09443359 -22.96191406 83.09121094 -23.84179688 83.08789062 C-24.73962891 83.07951172 -25.63746094 83.07113281 -26.5625 83.0625 C-27.46419922 83.05798828 -28.36589844 83.05347656 -29.29492188 83.04882812 C-31.53001314 83.03700225 -33.76497437 83.0205222 -36 83 C-34.73734377 79.05129662 -33.30965655 75.28453862 -31.59375 71.51171875 C-31.10567871 70.43229004 -30.61760742 69.35286133 -30.11474609 68.24072266 C-29.58187988 67.06815918 -29.04901367 65.8955957 -28.5 64.6875 C-27.33334667 62.10663332 -26.17004212 59.52426776 -25.0078125 56.94140625 C-24.6959903 56.24859558 -24.38416809 55.55578491 -24.06289673 54.84197998 C-19.77458967 45.29575893 -15.5777928 35.70908866 -11.375 26.125 C-10.98014404 25.22510345 -10.58528809 24.32520691 -10.1784668 23.39804077 C-9.04293955 20.80985785 -7.90800507 18.22141623 -6.7734375 15.6328125 C-6.43641815 14.8640831 -6.0993988 14.0953537 -5.75216675 13.30332947 C-5.43353668 12.57561844 -5.11490662 11.84790741 -4.78662109 11.09814453 C-4.51272552 10.47279816 -4.23882996 9.84745178 -3.95663452 9.20315552 C-2.62667594 6.14022446 -1.31538003 3.06922007 0 0 Z " fill="#5A29E4" transform="translate(36,1)"/>
<path d="M0 0 C17.20877046 -2.11665372 17.20877046 -2.11665372 23.16796875 2.40234375 C25.36901076 5.09345485 27.10291196 8.05371141 28.81982422 11.06982422 C30.93011175 14.52119642 33.5610763 17.56730336 36.125 20.6875 C41 26.69308682 41 26.69308682 41 29 C41.66 29 42.32 29 43 29 C43.22429687 28.47664063 43.44859375 27.95328125 43.6796875 27.4140625 C45.47878141 24.12459494 47.78911899 21.29149171 50.125 18.375 C50.85662354 17.45328003 50.85662354 17.45328003 51.60302734 16.51293945 C53.06528019 14.6725508 54.53234454 12.83608133 56 11 C56.8146875 9.97519531 57.629375 8.95039063 58.46875 7.89453125 C63.80585106 1.19414894 63.80585106 1.19414894 65 0 C66.41570123 -0.08651611 67.835595 -0.10704904 69.25390625 -0.09765625 C70.53491211 -0.09282227 70.53491211 -0.09282227 71.84179688 -0.08789062 C73.18854492 -0.07532227 73.18854492 -0.07532227 74.5625 -0.0625 C75.46419922 -0.05798828 76.36589844 -0.05347656 77.29492188 -0.04882812 C79.53001314 -0.03700225 81.76497437 -0.0205222 84 0 C81.56664013 4.34880869 78.6352421 8.08922458 75.5 11.9375 C74.4252949 13.26913889 73.35108794 14.60117993 72.27734375 15.93359375 C71.46112549 16.94462158 71.46112549 16.94462158 70.62841797 17.97607422 C68.08665408 21.13517807 65.57098938 24.31444432 63.0625 27.5 C62.62679687 28.05034912 62.19109375 28.60069824 61.7421875 29.16772461 C58.70428954 33.02877607 55.83303974 36.9861047 53 41 C54.64271218 44.71164158 56.94892687 47.68166296 59.4375 50.875 C59.87562012 51.43872314 60.31374023 52.00244629 60.76513672 52.58325195 C62.17288404 54.39189581 63.58597355 56.19626228 65 58 C65.46712402 58.5976416 65.93424805 59.1952832 66.41552734 59.81103516 C71.76595891 66.65624933 77.15161162 73.46881347 82.63671875 80.20703125 C84 82 84 82 84 83 C67.52880076 85.20261445 67.52880076 85.20261445 62.13427734 81.83544922 C58.84868903 78.68560352 56.53119386 74.88461516 54.22216797 70.98974609 C52.19533929 67.68997507 49.81228809 64.67848249 47.4375 61.625 C47.01903809 61.06014893 46.60057617 60.49529785 46.16943359 59.91333008 C45.16116265 58.57127656 44.08628235 57.2797299 43 56 C42.34 56 41.68 56 41 56 C39.06829798 58.40181983 37.24462949 60.81959949 35.4375 63.3125 C34.89158203 64.03566406 34.34566406 64.75882812 33.78320312 65.50390625 C31.32605074 68.76086029 28.95541018 71.97863274 26.91015625 75.51171875 C24.78862915 78.83067219 23.32029116 80.8473817 20 83 C13.41276701 84.27064076 6.63050318 83.68360631 0 83 C3.66842477 78.07548249 7.38068541 73.19326645 11.1875 68.375 C12.13933326 67.16667481 13.09115584 65.95834122 14.04296875 64.75 C14.52685059 64.13640625 15.01073242 63.5228125 15.50927734 62.890625 C18.00868935 59.72071891 20.50459992 56.54806464 23 53.375 C23.45656982 52.79540527 23.91313965 52.21581055 24.38354492 51.61865234 C25.5924445 50.08178132 26.79643446 48.54105183 28 47 C28.61875 46.29101562 29.2375 45.58203125 29.875 44.8515625 C31.21708836 43.08369481 31.21708836 43.08369481 30.72998047 41.09667969 C29.9345464 38.81200151 28.99442916 37.45061112 27.4453125 35.6015625 C26.65459351 34.64552124 26.65459351 34.64552124 25.84790039 33.67016602 C24.9950647 32.65780884 24.9950647 32.65780884 24.125 31.625 C22.93793733 30.18951674 21.75175505 28.75330506 20.56640625 27.31640625 C19.96844238 26.59469238 19.37047852 25.87297852 18.75439453 25.12939453 C12.09107382 17.04179597 5.6235316 8.854321 0 0 Z " fill="#5A28E4" transform="translate(140,1)"/>
<path d="M0 0 C6.15400087 3.75939973 9.87045781 9.14965853 12 16 C13.14919765 24.21575516 12.30133851 31.82269322 8 39 C4.34735236 43.67857289 0.52750385 46.73874843 -5 49 C-7.73101258 49.31123449 -10.15563434 49.47898512 -12.875 49.4375 C-13.58462891 49.42775146 -14.29425781 49.41800293 -15.02539062 49.40795898 C-23.60577704 49.11688102 -27.61565879 46.71126286 -33.375 40.5625 C-39.01282218 34.10483515 -39.62099817 28.19210239 -39.375 19.8046875 C-38.67189232 12.67107417 -35.86413079 7.41135694 -30.625 2.5625 C-21.41000528 -4.41795738 -10.34326755 -5.15204425 0 0 Z " fill="#FDFDFE" transform="translate(427,19)"/>
<path d="M0 0 C8.91 0 17.82 0 27 0 C27 18.15 27 36.3 27 55 C26.34 53.68 25.68 52.36 25 51 C20.01007655 41.97975377 11.4682734 38.86325794 2 36 C0.4173606 35.58604227 -1.16747525 35.18043059 -2.75390625 34.78125 C-3.59655029 34.56855469 -4.43919434 34.35585938 -5.30737305 34.13671875 C-6.98916434 33.71966905 -8.67421734 33.31551092 -10.36254883 32.92578125 C-15.08393387 31.77098675 -18.53425139 30.62359459 -22 27 C-22.6875 23.5 -22.6875 23.5 -22 20 C-19.08361424 16.65473398 -17.22959845 16.133586 -12.8359375 15.65625 C-1.88190539 15.36987008 6.45785412 17.87551425 16 23 C17.03290841 21.06891037 18.05098672 19.129882 19.0625 17.1875 C19.63097656 16.10855469 20.19945312 15.02960937 20.78515625 13.91796875 C22.36915789 11.01319757 22.36915789 11.01319757 21 8 C14.38567572 4.72683218 7.20177948 2.55332499 0 1 C0 0.67 0 0.34 0 0 Z " fill="#FCFBFE" transform="translate(561,0)"/>
<path d="M0 0 C0.1856213 8.76218816 0.32763441 17.5236966 0.41449738 26.28742409 C0.45619523 30.35720029 0.5127162 34.42562856 0.60351562 38.49462891 C0.69064742 42.42400654 0.73831479 46.35209076 0.75901794 50.28236008 C0.77376429 51.77921284 0.80256391 53.27599721 0.84584045 54.77229691 C0.90422712 56.87528747 0.91190358 58.9729854 0.90820312 61.07666016 C0.93485046 62.8686937 0.93485046 62.8686937 0.96203613 64.69692993 C0 68 0 68 -8 74 C-8 55.19 -8 36.38 -8 17 C-12.29 17 -16.58 17 -21 17 C-17.28341402 13.17881967 -13.3921903 9.67823353 -9.3125 6.25 C-8.73177734 5.75628906 -8.15105469 5.26257813 -7.55273438 4.75390625 C-1.91968108 0 -1.91968108 0 0 0 Z " fill="#6031E5" transform="translate(292,11)"/>
<path d="M0 0 C0 18.48 0 36.96 0 56 C4.29 56 8.58 56 13 56 C9.11337673 59.99026656 5.03492877 63.6812995 0.8125 67.3125 C0.18408203 67.86228516 -0.44433594 68.41207031 -1.09179688 68.97851562 C-5.76271351 73 -5.76271351 73 -8 73 C-8.16231022 64.22047334 -8.28662714 55.44146425 -8.3626852 46.66076374 C-8.39919317 42.58328005 -8.44869401 38.50682389 -8.52807617 34.42993164 C-8.60423051 30.4941063 -8.64600864 26.55926799 -8.6641407 22.62276268 C-8.67705861 21.12234137 -8.70228652 19.62197315 -8.7401104 18.12197304 C-9.02522034 6.34502993 -9.02522034 6.34502993 -6.4302063 2.94052124 C-2.41967077 0 -2.41967077 0 0 0 Z " fill="#6031E4" transform="translate(306,0)"/>
<path d="M0 0 C0.66 0 1.32 0 2 0 C3.83944626 3.95552103 5.67051553 7.91486285 7.5 11.875 C8.02464844 13.00292969 8.54929687 14.13085938 9.08984375 15.29296875 C9.58613281 16.36933594 10.08242188 17.44570313 10.59375 18.5546875 C11.05458984 19.54968262 11.51542969 20.54467773 11.99023438 21.56982422 C13 24 13 24 13 26 C5.08 26 -2.84 26 -11 26 C-9.71740753 22.15222258 -8.49349631 18.68569188 -6.8359375 15.0390625 C-6.43632813 14.15605469 -6.03671875 13.27304687 -5.625 12.36328125 C-5.2125 11.45964844 -4.8 10.55601563 -4.375 9.625 C-3.95476563 8.69816406 -3.53453125 7.77132813 -3.1015625 6.81640625 C-2.07035118 4.54305401 -1.03643137 2.27097594 0 0 Z " fill="#F7F5FD" transform="translate(43,23)"/>
<path d="M0 0 C0.33 0 0.66 0 1 0 C1 6.93 1 13.86 1 21 C-12.2 21 -25.4 21 -39 21 C-39 20.67 -39 20.34 -39 20 C-37.2984375 19.92652344 -37.2984375 19.92652344 -35.5625 19.8515625 C-34.04164602 19.7764586 -32.52081375 19.70091416 -31 19.625 C-30.25621094 19.5940625 -29.51242187 19.563125 -28.74609375 19.53125 C-19.60126291 19.05412839 -12.07073654 17.11034122 -5 11 C-2.43361278 7.73561186 -0.66103979 4.13149868 0 0 Z " fill="#F4F2FD" transform="translate(587,64)"/>
<path d="M0 0 C1.97119141 -0.34057617 1.97119141 -0.34057617 4.3515625 -0.29296875 C5.62773437 -0.2784668 5.62773437 -0.2784668 6.9296875 -0.26367188 C7.81914062 -0.23853516 8.70859375 -0.21339844 9.625 -0.1875 C10.97078125 -0.16719727 10.97078125 -0.16719727 12.34375 -0.14648438 C14.56309789 -0.11106925 16.78125188 -0.06168461 19 0 C18.67 0.99 18.34 1.98 18 3 C11.4 3 4.8 3 -2 3 C-1.34 2.01 -0.68 1.02 0 0 Z " fill="#764FE8" transform="translate(142,81)"/>
</svg>
