<?xml version="1.0" encoding="UTF-8"?>
<svg version="1.1" xmlns="http://www.w3.org/2000/svg" width="252" height="200">
<path d="M0 0 C83.16 0 166.32 0 252 0 C252 66 252 132 252 200 C168.84 200 85.68 200 0 200 C0 134 0 68 0 0 Z " fill="#7C11F9" transform="translate(0,0)"/>
<path d="M0 0 C59.71794872 0 59.71794872 0 71 10 C75.58890549 15.62140923 77.51489514 21.36189937 77.30859375 28.5703125 C76.37042995 35.956868 73.20028761 41.66797471 67.75 46.66015625 C65.62753839 48.28516592 63.57931545 49.29655033 61 50 C61.55816406 50.27457031 62.11632812 50.54914063 62.69140625 50.83203125 C71.11749667 55.09497716 77.57236539 58.76734944 81.1015625 67.828125 C83.36479609 75.81832359 82.82553384 84.25896918 79.3125 91.78515625 C74.83752521 99.3366762 68.25577599 103.33781136 60 106 C40.31167295 109.57969583 20.01110803 108 0 108 C0 72.36 0 36.72 0 0 Z " fill="#F5EDFC" transform="translate(87,46)"/>
<path d="M0 0 C0 31.02 0 62.04 0 94 C-16.5 94 -33 94 -50 94 C-50 93.67 -50 93.34 -50 93 C-48.2675 92.690625 -48.2675 92.690625 -46.5 92.375 C-40.09326164 90.75059648 -34.95939849 87.07737472 -31.5625 81.375 C-29.38202315 76.66517 -28.87346797 73.08588903 -28.7890625 67.8984375 C-27.74009475 19.51641879 -27.74009475 19.51641879 -14 6 C-9.69029659 2.73085235 -5.54951434 0 0 0 Z " fill="#FDFDFE" transform="translate(252,106)"/>
<path d="M0 0 C10.61806795 3.53935598 15.93288568 6.20722112 21 16 C27.53492247 31.64420833 28.27330606 47.32731263 28.48339844 64.10229492 C28.66557854 72.6274957 29.40163465 79.93683379 35.328125 86.61328125 C38.77770056 89.47449462 42.92144223 91.2101863 47 93 C47 93.33 47 93.66 47 94 C31.49 94 15.98 94 0 94 C0 62.98 0 31.96 0 0 Z " fill="#FDFCFD" transform="translate(0,106)"/>
<path d="M0 0 C15.84 0 31.68 0 48 0 C48 31.02 48 62.04 48 94 C39.33052474 91.83263119 34.12555291 89.7985522 29.1875 82.1640625 C20.17269223 65.73576151 19.55197731 46.76282218 19.64160156 28.41357422 C19.55030358 20.95942808 18.33308188 15.18544714 14 9 C9.83765602 4.98179551 5.66898847 2.41724712 0 1 C0 0.67 0 0.34 0 0 Z " fill="#FDFDFE" transform="translate(204,0)"/>
<path d="M0 0 C15.51 0 31.02 0 47 0 C45.32949879 1.11366747 43.64472804 2.20890523 41.9140625 3.2265625 C35.29403368 7.27088045 31.46461148 11.60616556 29 19 C28.87228469 21.03410434 28.79807971 23.07174393 28.75390625 25.109375 C28.72272705 26.33172852 28.69154785 27.55408203 28.65942383 28.81347656 C28.62743896 30.1125293 28.5954541 31.41158203 28.5625 32.75 C27.34468501 73.07498349 27.34468501 73.07498349 14.859375 87.328125 C10.11750896 91.59181968 6.36789149 93 0 93 C0 62.31 0 31.62 0 0 Z " fill="#FEFDFE" transform="translate(0,0)"/>
<path d="M0 0 C4.929375 -0.0825 9.85875 -0.165 14.9375 -0.25 C16.47398193 -0.28641602 18.01046387 -0.32283203 19.59350586 -0.36035156 C28.85803995 -0.43521648 35.70316373 0.41930311 43 6.5 C46.37055954 10.71319943 46.42126095 15.19490116 46.328125 20.46484375 C45.7727289 24.75593978 44.1678739 27.13754299 41 30 C32.81849892 34.97652664 24.10484209 34.47005953 14.875 34.25 C9.96625 34.1675 5.0575 34.085 0 34 C0 22.78 0 11.56 0 0 Z " fill="#7910F6" transform="translate(105,105)"/>
<path d="M0 0 C4.640625 -0.061875 9.28125 -0.12375 14.0625 -0.1875 C16.23791382 -0.22846802 16.23791382 -0.22846802 18.45727539 -0.27026367 C26.94116523 -0.32505927 32.4429858 -0.17860843 38.9375 5.625 C41.61756281 10.01055732 41.88066046 12.99547758 41 18 C39.90290094 22.09246819 38.53259729 25.01067414 34.90625 27.3515625 C29.18606126 30.00191662 23.78340844 31.1328682 17.48046875 31.09765625 C16.55903076 31.09515869 15.63759277 31.09266113 14.68823242 31.09008789 C13.53299072 31.08098389 12.37774902 31.07187988 11.1875 31.0625 C5.6496875 31.0315625 5.6496875 31.0315625 0 31 C0 20.77 0 10.54 0 0 Z " fill="#7E14F6" transform="translate(105,61)"/>
<path d="M0 0 C7.77528534 0.28797353 14.2102966 3.06012187 19.67578125 8.7421875 C25.22710966 16.11120751 25.83447771 24.02144233 25 33 C23.34784591 40.14284583 19.97655531 45.7029876 14 50 C4.81218274 55 4.81218274 55 1 55 C0.505 53.02 0.505 53.02 0 51 C0.66 51 1.32 51 2 51 C1.01 50.505 1.01 50.505 0 50 C0 49.01 0 48.02 0 47 C-4.62 47 -9.24 47 -14 47 C-13.67 46.01 -13.34 45.02 -13 44 C-25.87 43.505 -25.87 43.505 -39 43 C-39 42.67 -39 42.34 -39 42 C-38.11328613 41.9906543 -37.22657227 41.98130859 -36.31298828 41.97167969 C-32.97630147 41.92727759 -29.64082529 41.86549612 -26.3046875 41.79248047 C-24.86958271 41.76451136 -23.43433076 41.74317897 -21.99902344 41.72900391 C-7.48140071 41.6182086 -7.48140071 41.6182086 4.625 34.375 C6.92800193 28.72217708 6.91301585 22.93906778 5 17.125 C2.37600419 13.02500654 -0.54670749 11.7030406 -5 10 C-1.51677935 8.0095882 0.99709697 8 5 8 C4.34 7.34 3.68 6.68 3 6 C3.66 5.67 4.32 5.34 5 5 C4.34 4.67 3.68 4.34 3 4 C3 3.34 3 2.68 3 2 C2.01 2 1.02 2 0 2 C0 1.34 0 0.68 0 0 Z " fill="#F0E3F9" transform="translate(144,97)"/>
<path d="M0 0 C1.30238869 0.02997826 1.30238869 0.02997826 2.63108826 0.06056213 C3.61202957 0.08065842 4.59297089 0.1007547 5.6036377 0.12145996 C6.6702916 0.14849503 7.7369455 0.17553009 8.83592224 0.2033844 C9.92211349 0.22699539 11.00830475 0.25060638 12.12741089 0.27493286 C15.61240508 0.35178806 19.09718915 0.43571791 22.58201599 0.51979065 C24.93812534 0.57298947 27.29424509 0.62572998 29.65037537 0.67799377 C35.44022023 0.80743259 41.22990779 0.94268727 47.01951599 1.08229065 C47.01951599 1.41229065 47.01951599 1.74229065 47.01951599 2.08229065 C30.84951599 2.08229065 14.67951599 2.08229065 -1.98048401 2.08229065 C-1.98048401 37.72229065 -1.98048401 73.36229065 -1.98048401 110.08229065 C35.68464054 111.73880565 35.68464054 111.73880565 71.01951599 101.08229065 C71.01951599 103.06229065 71.01951599 105.04229065 71.01951599 107.08229065 C68.52886711 107.7693662 66.64065308 108.08229065 64.01951599 108.08229065 C61.97685317 108.65198431 61.97685317 108.65198431 59.89451599 109.45729065 C59.19068787 109.71252502 58.48685974 109.9677594 57.76170349 110.23072815 C55.82923186 110.95687344 55.82923186 110.95687344 55.01951599 113.08229065 C43.45096272 116.12266804 30.99090083 115.31394232 19.14451599 115.20729065 C17.18488518 115.19723461 15.22524934 115.18811343 13.26560974 115.1799469 C8.51678512 115.15815554 3.76820776 115.1237723 -0.98048401 115.08229065 C-2.71866511 112.06448926 -3.23006693 109.90194497 -3.22772217 106.43197632 C-3.23191666 105.50236588 -3.23611115 104.57275543 -3.24043274 103.61497498 C-3.23481323 102.60234589 -3.22919373 101.5897168 -3.22340393 100.54640198 C-3.22530228 99.4745314 -3.22720062 98.40266083 -3.22915649 97.29830933 C-3.23286292 93.75357259 -3.22216357 90.20904044 -3.21095276 86.6643219 C-3.209761 84.20620752 -3.20930779 81.74809268 -3.20956421 79.28997803 C-3.20799968 74.13942106 -3.19971083 68.98893364 -3.18629456 63.83839417 C-3.16927803 57.22018728 -3.16548098 50.60205665 -3.16623974 43.98383045 C-3.16596852 38.90969101 -3.16049553 33.83556841 -3.1532383 28.76143456 C-3.1500458 26.32006139 -3.14808288 23.87868631 -3.14734459 21.43731117 C-3.14518867 18.03483923 -3.13646152 14.63245004 -3.12574768 11.22999573 C-3.12620087 10.21129395 -3.12665405 9.19259216 -3.12712097 8.14302063 C-3.1207235 6.76129417 -3.1207235 6.76129417 -3.11419678 5.35165405 C-3.11252093 4.54659329 -3.11084509 3.74153254 -3.10911846 2.912076 C-2.92705578 0.32229058 -2.59248445 0.10771974 0 0 Z " fill="#6C08E4" transform="translate(88.98048400878906,43.91770935058594)"/>
<path d="M0 0 C-1.16059339 2.32118678 -2.24476787 4.07193319 -4 6 C-6.62890625 6.8359375 -6.62890625 6.8359375 -9.5625 7.375 C-12.49502119 8.00777856 -12.49502119 8.00777856 -15 9 C-16.31685277 11.9502491 -16.31685277 11.9502491 -17 15 C-18.155 15.45375 -19.31 15.9075 -20.5 16.375 C-24.34006709 17.67320709 -24.34006709 17.67320709 -25.4375 21.5625 C-26.85073961 30.1195882 -25.80915243 38.21378595 -24.33984375 46.703125 C-23.99180112 50.07953852 -24.39484005 52.6805197 -25 56 C-24.91571361 58.75051502 -24.91571361 58.75051502 -24.5625 61.375 C-24.46066406 62.24898437 -24.35882813 63.12296875 -24.25390625 64.0234375 C-24.17011719 64.67570312 -24.08632813 65.32796875 -24 66 C-24.99 66.495 -24.99 66.495 -26 67 C-26.433125 67.99 -26.433125 67.99 -26.875 69 C-28 71 -28 71 -30.125 71.75 C-30.74375 71.8325 -31.3625 71.915 -32 72 C-32 72.66 -32 73.32 -32 74 C-32.66 74 -33.32 74 -34 74 C-33.70996094 73.06994141 -33.70996094 73.06994141 -33.4140625 72.12109375 C-30.38075442 61.80484302 -29.03100876 51.6678461 -28.83203125 40.94140625 C-28.8057666 39.66894043 -28.77950195 38.39647461 -28.75244141 37.08544922 C-28.7099327 34.53396823 -28.68922325 31.98200824 -28.69287109 29.43017578 C-28.55914831 20.7684275 -27.26290883 13.65984775 -21.2590332 7.09692383 C-14.93664881 1.159947 -8.47303352 -0.51875715 0 0 Z " fill="#8E14F9" transform="translate(56,0)"/>
<path d="M0 0 C4.640625 -0.061875 9.28125 -0.12375 14.0625 -0.1875 C16.23791382 -0.22846802 16.23791382 -0.22846802 18.45727539 -0.27026367 C32.5502579 -0.36128717 32.5502579 -0.36128717 38.4375 5.375 C40.14191172 8.23841169 40.3735461 9.73147163 40 13 C38 11 38 11 37.58203125 9.01464844 C37.10492041 6.55567027 37.10492041 6.55567027 33.6875 4.765625 C28.23908959 2.27978775 22.87761364 2.56023705 17 2.75 C13.37 2.8325 9.74 2.915 6 3 C6.33 11.91 6.66 20.82 7 30 C4.69 30 2.38 30 0 30 C0 20.1 0 10.2 0 0 Z " fill="#700AE6" transform="translate(105,61)"/>
<path d="M0 0 C4.929375 -0.0825 9.85875 -0.165 14.9375 -0.25 C16.47398193 -0.28641602 18.01046387 -0.32283203 19.59350586 -0.36035156 C28.63443651 -0.43340959 36.18073936 0.20407155 43.0625 6.625 C45 9 45 9 45 11 C44.34 11 43.68 11 43 11 C42.67 11.66 42.34 12.32 42 13 C39.7522025 10.94766315 38.9977758 9.99332739 38 7 C33.96172549 5.52447662 30.30500622 4.62014651 26 5 C25.67 5.33 25.34 5.66 25 6 C23.58672053 6.15620555 22.1664541 6.25056173 20.74609375 6.31640625 C19.89208984 6.35830078 19.03808594 6.40019531 18.15820312 6.44335938 C17.26037109 6.48267578 16.36253906 6.52199219 15.4375 6.5625 C14.53580078 6.60568359 13.63410156 6.64886719 12.70507812 6.69335938 C10.47021515 6.79978142 8.23523692 6.90179988 6 7 C6 5 6 3 6 1 C4.35 1 2.7 1 1 1 C1 10.9 1 20.8 1 31 C0.67 31 0.34 31 0 31 C0 20.77 0 10.54 0 0 Z " fill="#7010E3" transform="translate(105,105)"/>
<path d="M0 0 C0.33 0 0.66 0 1 0 C1.08767743 4.49987562 1.14062009 8.999529 1.1875 13.5 C1.21263672 14.7684375 1.23777344 16.036875 1.26367188 17.34375 C1.33951995 27.05230317 0.45172552 34.13828626 -6.3359375 41.4609375 C-11.33996708 46.08907753 -16.30955292 47.53049494 -23 48 C-23.1875 45.125 -23.1875 45.125 -23 42 C-19.36804504 39.57869669 -17.61650652 39.78977215 -13.3125 39.875 C-12.13300781 39.89304688 -10.95351562 39.91109375 -9.73828125 39.9296875 C-8.83464844 39.95289063 -7.93101562 39.97609375 -7 40 C-7.020625 38.824375 -7.04125 37.64875 -7.0625 36.4375 C-7.06947261 32.52586533 -6.64250343 28.85502056 -6 25 C-4.68 24.67 -3.36 24.34 -2 24 C-1.34 16.08 -0.68 8.16 0 0 Z " fill="#680FEF" transform="translate(223,152)"/>
<path d="M0 0 C1.65 0 3.3 0 5 0 C7.85714286 18.21428571 7.85714286 18.21428571 4 24 C1.875 24.6875 1.875 24.6875 0 25 C-0.33 27.31 -0.66 29.62 -1 32 C-2.98 32 -4.96 32 -7 32 C-5 28 -5 28 -3.96484375 26.0546875 C-0.03745213 17.72204673 -0.19702345 9.04337627 0 0 Z " fill="#7011EC" transform="translate(169,112)"/>
<path d="M0 0 C0.33 0 0.66 0 1 0 C0.99723462 0.54684039 0.99446924 1.09368078 0.99162006 1.65709209 C0.92533658 14.96940846 0.87589952 28.28169588 0.84456348 41.59414196 C0.82890057 48.03198071 0.80765054 54.46970045 0.77368164 60.9074707 C0.74111101 67.11903874 0.7231517 73.33049222 0.71536827 79.54213905 C0.70982067 81.91323971 0.69898774 84.28433402 0.68280983 86.65538597 C0.66106653 89.97376482 0.65803184 93.29166892 0.65942383 96.61010742 C0.648638 97.59266006 0.63785217 98.57521271 0.6267395 99.58753967 C0.64933066 104.55709771 0.7623417 107.94802432 4 112 C3.01 112 2.02 112 1 112 C1 111.34 1 110.68 1 110 C0.01 110 -0.98 110 -2 110 C-2 110.66 -2 111.32 -2 112 C-2.66 112 -3.32 112 -4 112 C-4 111.01 -4 110.02 -4 109 C-3.34 109 -2.68 109 -2 109 C-2.495 106.525 -2.495 106.525 -3 104 C-2.34 104 -1.68 104 -1 104 C-1.00580078 102.74896484 -1.01160156 101.49792969 -1.01757812 100.20898438 C-1.07687646 80.55934115 -0.79659059 60.91451358 -0.53643799 41.26708984 C-0.47497948 36.59994951 -0.41530956 31.9327863 -0.35546875 27.265625 C-0.23868475 18.17706069 -0.11998686 9.08852255 0 0 Z " fill="#7517EB" transform="translate(84,48)"/>
<path d="M0 0 C15.84 0 31.68 0 48 0 C42.49701789 4.12723658 42.49701789 4.12723658 37.91748047 4.11352539 C36.65639969 4.11341209 36.65639969 4.11341209 35.36984253 4.11329651 C34.00727829 4.10555458 34.00727829 4.10555458 32.6171875 4.09765625 C31.68778351 4.0962413 30.75837952 4.09482635 29.80081177 4.09336853 C26.82550876 4.08776053 23.85028036 4.07520668 20.875 4.0625 C18.86067817 4.05748603 16.84635516 4.05292295 14.83203125 4.04882812 C9.88799198 4.0377885 4.94400865 4.02051849 0 4 C0 2.68 0 1.36 0 0 Z " fill="#7510E7" transform="translate(88,155)"/>
<path d="M0 0 C0 9.24 0 18.48 0 28 C-0.66 28 -1.32 28 -2 28 C-2 27.34 -2 26.68 -2 26 C-2.66 26 -3.32 26 -4 26 C-4 17.75 -4 9.5 -4 1 C-2 0 -2 0 0 0 Z " fill="#7E11F2" transform="translate(110,62)"/>
<path d="M0 0 C0.99 0 1.98 0 3 0 C3.33 1.65 3.66 3.3 4 5 C2.576875 6.0828125 2.576875 6.0828125 1.125 7.1875 C-1.6760505 9.51950666 -3.05325649 11.40237468 -4 15 C-4 15.99 -4 16.98 -4 18 C-7.96 18.495 -7.96 18.495 -12 19 C-12 18.34 -12 17.68 -12 17 C-13.98 17.99 -13.98 17.99 -16 19 C-16 18.34 -16 17.68 -16 17 C-17.32 16.67 -18.64 16.34 -20 16 C-19.40832031 15.81824219 -18.81664063 15.63648437 -18.20703125 15.44921875 C-10.21518121 12.90694998 -5.34170883 10.34750725 -1 3 C-0.67 2.01 -0.34 1.02 0 0 Z " fill="#8A1AF4" transform="translate(20,77)"/>
<path d="M0 0 C0.45375 0.66 0.9075 1.32 1.375 2 C1.91125 2.66 2.4475 3.32 3 4 C3.66 4 4.32 4 5 4 C5.33 3.34 5.66 2.68 6 2 C6 2.99 6 3.98 6 5 C5.34 5 4.68 5 4 5 C4.74250597 9.08378283 5.82923301 13.01939223 7 17 C7.33 17 7.66 17 8 17 C7.85930804 19.12534659 7.71229079 21.25027529 7.5625 23.375 C7.48128906 24.55835937 7.40007812 25.74171875 7.31640625 26.9609375 C7 30 7 30 6 32 C5.34 32 4.68 32 4 32 C3.67 31.34 3.34 30.68 3 30 C2.34 30.66 1.68 31.32 1 32 C0 29 0 29 1.4375 25.375 C3.56096473 19.99752219 4.15130773 15.02697991 2.0625 9.53515625 C1.3396173 7.98648047 0.58035364 6.45399775 -0.22265625 4.9453125 C-1 3 -1 3 0 0 Z " fill="#7110E7" transform="translate(160,56)"/>
<path d="M0 0 C0.1953125 6.0546875 0.1953125 6.0546875 0 8 C-2 10 -2 10 -4.06298828 10.22705078 C-5.30411377 10.21134033 -5.30411377 10.21134033 -6.5703125 10.1953125 C-7.46621094 10.18886719 -8.36210937 10.18242187 -9.28515625 10.17578125 C-10.22230469 10.15902344 -11.15945312 10.14226562 -12.125 10.125 C-13.06988281 10.11597656 -14.01476562 10.10695312 -14.98828125 10.09765625 C-17.32577292 10.07404522 -19.66276123 10.04111516 -22 10 C-22 9.67 -22 9.34 -22 9 C-20.329375 8.7215625 -20.329375 8.7215625 -18.625 8.4375 C-13.6815105 7.24789023 -10.18146829 4.52420638 -6.19921875 1.4609375 C-3.78289124 -0.144225 -2.85105433 0 0 0 Z M-4 2 C-3 4 -3 4 -3 4 Z " fill="#FCFCF5" transform="translate(224,190)"/>
<path d="M0 0 C2.95857409 -0.05379226 5.91617721 -0.09357093 8.875 -0.125 C9.71675781 -0.14175781 10.55851563 -0.15851562 11.42578125 -0.17578125 C12.23144531 -0.18222656 13.03710938 -0.18867187 13.8671875 -0.1953125 C14.98262939 -0.21102295 14.98262939 -0.21102295 16.12060547 -0.22705078 C18 -0 18 -0 20 2 C20.125 5.125 20.125 5.125 20 8 C19.01 8.33 18.02 8.66 17 9 C16.34 9.66 15.68 10.32 15 11 C14.484375 10.2575 13.96875 9.515 13.4375 8.75 C9.67632702 4.50662536 5.03445589 2.50618747 0 0 Z " fill="#F8F4F8" transform="translate(204,0)"/>
<path d="M0 0 C4.41661151 -0.05804281 8.83312496 -0.09361104 13.25 -0.125 C14.50425781 -0.14175781 15.75851563 -0.15851562 17.05078125 -0.17578125 C18.25605469 -0.18222656 19.46132812 -0.18867187 20.703125 -0.1953125 C21.81333008 -0.20578613 22.92353516 -0.21625977 24.06738281 -0.22705078 C26.93950942 -0.00468334 28.57223735 0.50718425 31 2 C27.45811722 3.09828769 24.1790238 3.11445011 20.484375 3.09765625 C19.23398438 3.09443359 17.98359375 3.09121094 16.6953125 3.08789062 C14.74238281 3.07532227 14.74238281 3.07532227 12.75 3.0625 C10.77386719 3.05573242 10.77386719 3.05573242 8.7578125 3.04882812 C5.50516259 3.03704316 2.25260416 3.02059011 -1 3 C-0.67 2.01 -0.34 1.02 0 0 Z " fill="#FCFBF9" transform="translate(105,57)"/>
<path d="M0 0 C-2.31364293 1.54242862 -4.38604485 2.7031573 -6.875 3.875 C-10.28951324 5.55075742 -13.1246375 7.48405782 -16 10 C-16.33 8.68 -16.66 7.36 -17 6 C-17 7.32 -17 8.64 -17 10 C-17.66 10 -18.32 10 -19 10 C-19.33 7.69 -19.66 5.38 -20 3 C-18.35 2.67 -16.7 2.34 -15 2 C-15 1.34 -15 0.68 -15 0 C-9.77254141 -1.2063366 -5.23471686 -0.75612577 0 0 Z " fill="#6D14F0" transform="translate(252,105)"/>
<path d="M0 0 C0 0.99 0 1.98 0 3 C0.165 4.155 0.33 5.31 0.5 6.5 C1 10 1 10 1 13 C-2.78819273 14.43410153 -5.06521279 13.51009497 -8.75 12.0625 C-9.73484375 11.68222656 -10.7196875 11.30195312 -11.734375 10.91015625 C-12.48203125 10.60980469 -13.2296875 10.30945313 -14 10 C-11 8 -11 8 -8.125 6.6875 C-4.76675135 4.87404573 -2.56995647 2.79671734 0 0 Z " fill="#7315E5" transform="translate(159,87)"/>
<path d="M0 0 C1.66666667 1.66666667 3.33333333 3.33333333 5 5 C5.886875 5.845625 6.77375 6.69125 7.6875 7.5625 C9.71171046 9.69612724 10.90335323 11.30823065 12 14 C9.69 14.66 7.38 15.32 5 16 C4.01 15.01 3.02 14.02 2 13 C2 13.99 2 14.98 2 16 C1.34 16 0.68 16 0 16 C0.2475 14.9790625 0.2475 14.9790625 0.5 13.9375 C1.30431092 9.21217334 1.47312965 4.60353017 0 0 Z " fill="#6F12F2" transform="translate(232,80)"/>
<path d="M0 0 C0.67546875 0.05800781 1.3509375 0.11601563 2.046875 0.17578125 C0.37637379 1.28944872 -1.30839696 2.38468648 -3.0390625 3.40234375 C-8.69643642 6.85855512 -11.96359916 10.25682055 -14.953125 16.17578125 C-15.283125 15.51578125 -15.613125 14.85578125 -15.953125 14.17578125 C-16.613125 13.84578125 -17.273125 13.51578125 -17.953125 13.17578125 C-16.48543476 11.20418402 -15.0119341 9.23911349 -13.515625 7.2890625 C-11.82969924 5.08869806 -11.82969924 5.08869806 -10.203125 2.17578125 C-6.96257151 -0.70471075 -4.19842596 -0.21234813 0 0 Z " fill="#F7EFF8" transform="translate(44.953125,-0.17578125)"/>
<path d="M0 0 C1.32 0 2.64 0 4 0 C5.5197276 6.3552245 4.1663492 10.91708727 2 17 C-0.2217036 12.55659281 -1.09063819 10.42165382 -0.5625 5.375 C-0.40974609 3.87066406 -0.40974609 3.87066406 -0.25390625 2.3359375 C-0.17011719 1.56507812 -0.08632812 0.79421875 0 0 Z " fill="#6B11EF" transform="translate(225,120)"/>
<path d="M0 0 C0.93423645 3.01031744 1.04449911 3.86650268 0 7 C0.09268505 9.06618749 0.09268505 9.06618749 0.4375 11.1875 C0.623125 12.445625 0.80875 13.70375 1 15 C0.34 15 -0.32 15 -1 15 C-1.86883706 13.42466914 -2.71959068 11.83935491 -3.5625 10.25 C-4.03816406 9.36828125 -4.51382812 8.4865625 -5.00390625 7.578125 C-6 5 -6 5 -5.83984375 2.734375 C-5.56269531 2.16203125 -5.28554688 1.5896875 -5 1 C-2 0 -2 0 0 0 Z " fill="#8816F5" transform="translate(23,112)"/>
<path d="M0 0 C1.98 0.495 1.98 0.495 4 1 C4 2.66666667 4 4.33333333 4 6 C3.34 6 2.68 6 2 6 C2 14.91 2 23.82 2 33 C1.01 33 0.02 33 -1 33 C-0.67 22.11 -0.34 11.22 0 0 Z " fill="#750EE5" transform="translate(106,106)"/>
<path d="M0 0 C0.33 0.66 0.66 1.32 1 2 C1.99 2.66 2.98 3.32 4 4 C3.34 4 2.68 4 2 4 C2 4.66 2 5.32 2 6 C1.01 6 0.02 6 -1 6 C-1 6.66 -1 7.32 -1 8 C-1.66 7.67 -2.32 7.34 -3 7 C-3.99 8.485 -3.99 8.485 -5 10 C-8.3 9.34 -11.6 8.68 -15 8 C-15 7.67 -15 7.34 -15 7 C-14.24074219 6.79503906 -13.48148438 6.59007813 -12.69921875 6.37890625 C-11.20841797 5.97478516 -11.20841797 5.97478516 -9.6875 5.5625 C-8.70136719 5.29566406 -7.71523437 5.02882813 -6.69921875 4.75390625 C-4.78482474 4.21920575 -2.88566385 3.62855462 -1 3 C-0.67 2.01 -0.34 1.02 0 0 Z " fill="#F3E8FC" transform="translate(143,84)"/>
<path d="M0 0 C0 0.99 0 1.98 0 3 C-0.66 3.66 -1.32 4.32 -2 5 C-1.01 5.66 -0.02 6.32 1 7 C0.67 7.66 0.34 8.32 0 9 C-5.28 9 -10.56 9 -16 9 C-16 8.67 -16 8.34 -16 8 C-14.845 7.79375 -13.69 7.5875 -12.5 7.375 C-7.43388236 6.14465714 -3.92380499 3.3185372 0 0 Z " fill="#F2E7F9" transform="translate(218,191)"/>
<path d="M0 0 C0 0.66 0 1.32 0 2 C-6.75 3.125 -6.75 3.125 -9 2 C-10.95774069 1.84621148 -12.92017352 1.75028537 -14.8828125 1.68359375 C-16.04941406 1.64169922 -17.21601562 1.59980469 -18.41796875 1.55664062 C-19.64128906 1.51732422 -20.86460938 1.47800781 -22.125 1.4375 C-23.35605469 1.39431641 -24.58710937 1.35113281 -25.85546875 1.30664062 C-28.90352853 1.20031296 -31.9516719 1.09828219 -35 1 C-35 0.67 -35 0.34 -35 0 C-30.65860566 -0.16800236 -26.31701785 -0.32851981 -21.97509766 -0.48217773 C-20.49878539 -0.53547011 -19.02254481 -0.59078903 -17.54638672 -0.64819336 C-15.42170666 -0.73046212 -13.29687349 -0.80538335 -11.171875 -0.87890625 C-9.2552002 -0.94960327 -9.2552002 -0.94960327 -7.29980469 -1.02172852 C-4.59337842 -1.00390727 -2.54687307 -0.83306311 0 0 Z " fill="#D6BBF6" transform="translate(140,139)"/>
<path d="M0 0 C0 0.66 0 1.32 0 2 C1.32 1.67 2.64 1.34 4 1 C4 2.32 4 3.64 4 5 C3.34 5 2.68 5 2 5 C1.67 5.33 1.34 5.66 1 6 C0.01 6.495 0.01 6.495 -1 7 C-3.1640625 6.22265625 -3.1640625 6.22265625 -5.625 5.0625 C-6.44226563 4.68222656 -7.25953125 4.30195312 -8.1015625 3.91015625 C-8.72804688 3.60980469 -9.35453125 3.30945313 -10 3 C-6.68152292 -0.06320961 -4.44849969 -0.3033068 0 0 Z " fill="#8D1CF9" transform="translate(12,104)"/>
<path d="M0 0 C0.33 0 0.66 0 1 0 C1.33 1.65 1.66 3.3 2 5 C2.99 5 3.98 5 5 5 C4.54961229 9.84166786 3.40027839 12.49668287 0 16 C-0.66 16 -1.32 16 -2 16 C-2 14 -2 14 -1 13 C-1 12.01 -1 11.02 -1 10 C-0.84739214 8.26953591 -0.67951995 6.54037955 -0.5 4.8125 C-0.4071875 3.91144531 -0.314375 3.01039062 -0.21875 2.08203125 C-0.1465625 1.39496094 -0.074375 0.70789063 0 0 Z " fill="#721BE4" transform="translate(146,119)"/>
<path d="M0 0 C2.9375 0.375 2.9375 0.375 6 1 C7.35439668 3.70879335 7.06501451 6.00933268 7 9 C6.34 9 5.68 9 5 9 C4.67 10.32 4.34 11.64 4 13 C3.54427083 10.98177083 3.08854167 8.96354167 2.6328125 6.9453125 C2.09525572 4.79280036 2.09525572 4.79280036 0 3 C0 2.01 0 1.02 0 0 Z " fill="#710EEF" transform="translate(144,115)"/>
<path d="M0 0 C2.79593448 2.65613776 3.90760109 3.96051225 4.25 7.8125 C4.1675 8.534375 4.085 9.25625 4 10 C2 8 2 8 1.60546875 6.01171875 C1.18151771 3.88361037 1.18151771 3.88361037 -0.63671875 2.76953125 C-4.76457518 0.84319825 -8.40667977 -0.54066798 -13 -1 C-13 -1.33 -13 -1.66 -13 -2 C-8.11057993 -3.68073815 -4.38195359 -2.37851343 0 0 Z " fill="#7213DD" transform="translate(141,64)"/>
<path d="M0 0 C5.65611463 -0.56561146 9.22642128 1.28608722 14 4 C14 4.33 14 4.66 14 5 C9.38 5 4.76 5 0 5 C0.66 4.34 1.32 3.68 2 3 C1.34 2.01 0.68 1.02 0 0 Z " fill="#F7F2F8" transform="translate(33,195)"/>
<path d="M0 0 C0.33 0 0.66 0 1 0 C1.33 3.63 1.66 7.26 2 11 C2.66 10.01 3.32 9.02 4 8 C4.33 10.64 4.66 13.28 5 16 C2.50638429 14.79618552 0.31856917 13.54571278 -2 12 C-1.34 8.04 -0.68 4.08 0 0 Z " fill="#EEE1F6" transform="translate(146,72)"/>
<path d="M0 0 C3.93673644 1.31224548 6.22719294 2.91910327 9 6 C5.7 6 2.4 6 -1 6 C-1 5.01 -1 4.02 -1 3 C-1.66 2.67 -2.32 2.34 -3 2 C-2.01 2 -1.02 2 0 2 C0 1.34 0 0.68 0 0 Z " fill="#7715F0" transform="translate(208,2)"/>
<path d="M0 0 C0.6875 1.6875 0.6875 1.6875 1 4 C-0.1875 6.75 -0.1875 6.75 -2 9 C-3.32 9 -4.64 9 -6 9 C-6.33 8.34 -6.66 7.68 -7 7 C-6.0625 4.375 -6.0625 4.375 -5 2 C-3.68 2 -2.36 2 -1 2 C-0.67 1.34 -0.34 0.68 0 0 Z " fill="#7411E7" transform="translate(144,78)"/>
<path d="M0 0 C7.59 0.33 15.18 0.66 23 1 C23 1.33 23 1.66 23 2 C17.06 2 11.12 2 5 2 C5 2.66 5 3.32 5 4 C3.02 3.34 1.04 2.68 -1 2 C-0.67 1.34 -0.34 0.68 0 0 Z " fill="#EEE5FB" transform="translate(105,140)"/>
<path d="M0 0 C0.391875 0.515625 0.78375 1.03125 1.1875 1.5625 C-2.125 3.1875 -2.125 3.1875 -5.8125 4.5625 C-6.8025 3.9025 -7.7925 3.2425 -8.8125 2.5625 C-6.8125 -0.4375 -6.8125 -0.4375 -4.375 -1.3125 C-1.8125 -1.4375 -1.8125 -1.4375 0 0 Z " fill="#F1E6FA" transform="translate(152.8125,91.4375)"/>
<path d="M0 0 C3.39417765 3.12621626 5.6062718 5.56541027 7 10 C6.01 9.67 5.02 9.34 4 9 C4 8.34 4 7.68 4 7 C3.34 7 2.68 7 2 7 C0.3125 5.75 0.3125 5.75 -1 4 C-0.6875 1.8125 -0.6875 1.8125 0 0 Z " fill="#ECD9F6" transform="translate(155,54)"/>
<path d="M0 0 C0.66 0.66 1.32 1.32 2 2 C1.625 5.625 1.625 5.625 1 9 C-0.98 9 -2.96 9 -5 9 C-3.50163895 5.88801935 -1.80066242 2.9465385 0 0 Z " fill="#6712DF" transform="translate(167,135)"/>
<path d="M0 0 C0.66 0.33 1.32 0.66 2 1 C2.25 6.625 2.25 6.625 0 10 C-0.66 10 -1.32 10 -2 10 C-2.17942163 6.05272412 -2.09350689 3.4019487 0 0 Z " fill="#6E10EF" transform="translate(227,70)"/>
<path d="M0 0 C0 0.99 0 1.98 0 3 C0.3062434 4.33981486 0.63451555 5.67511887 1 7 C0.34 6.67 -0.32 6.34 -1 6 C-1.33 6.66 -1.66 7.32 -2 8 C-3.98 8 -5.96 8 -8 8 C-5.33333333 5.33333333 -2.66666667 2.66666667 0 0 Z " fill="#6D16D9" transform="translate(159,87)"/>
<path d="M0 0 C4.92307692 4.30769231 4.92307692 4.30769231 5.3125 7.8125 C5.209375 8.534375 5.10625 9.25625 5 10 C4.34 9.67 3.68 9.34 3 9 C2.34 9.66 1.68 10.32 1 11 C1.020625 9.9275 1.04125 8.855 1.0625 7.75 C1.0142016 4.85209576 0.86844115 2.71387859 0 0 Z " fill="#751EF5" transform="translate(232,80)"/>
<path d="M0 0 C0.99 0 1.98 0 3 0 C2.34 2.64 1.68 5.28 1 8 C-0.32 7.67 -1.64 7.34 -3 7 C-2.38722388 4.03824877 -1.74627478 2.61941217 0 0 Z " fill="#F7FDF2" transform="translate(20,66)"/>
<path d="M0 0 C1.64666203 0.1135629 3.29236082 0.24117381 4.9375 0.375 C5.85402344 0.44460937 6.77054688 0.51421875 7.71484375 0.5859375 C8.84599609 0.79089844 8.84599609 0.79089844 10 1 C10.33 1.66 10.66 2.32 11 3 C6.545 3.495 6.545 3.495 2 4 C1.34 2.68 0.68 1.36 0 0 Z " fill="#F9F8F4" transform="translate(144,52)"/>
<path d="M0 0 C3.875 1.75 3.875 1.75 5 4 C4.01 4 3.02 4 2 4 C1.67 4.66 1.34 5.32 1 6 C-0.32 5.67 -1.64 5.34 -3 5 C-2.01 3.35 -1.02 1.7 0 0 Z " fill="#F3E8FA" transform="translate(11,111)"/>
<path d="M0 0 C2.475 0.99 2.475 0.99 5 2 C4.01 3.98 3.02 5.96 2 8 C1.67 7.01 1.34 6.02 1 5 C1.33 4.34 1.66 3.68 2 3 C0.68 3.33 -0.64 3.66 -2 4 C-1.34 2.68 -0.68 1.36 0 0 Z " fill="#F2E5FC" transform="translate(157,80)"/>
<path d="M0 0 C0.45375 0.66 0.9075 1.32 1.375 2 C1.91125 2.66 2.4475 3.32 3 4 C3.66 4 4.32 4 5 4 C5.33 3.34 5.66 2.68 6 2 C6 2.99 6 3.98 6 5 C5.34 5 4.68 5 4 5 C4.33 5.99 4.66 6.98 5 8 C4.01 8.66 3.02 9.32 2 10 C1.01 7.03 0.02 4.06 -1 1 C-0.67 0.67 -0.34 0.34 0 0 Z " fill="#731AE5" transform="translate(160,56)"/>
<path d="M0 0 C2.475 0.495 2.475 0.495 5 1 C5.33 1.99 5.66 2.98 6 4 C6.66 4 7.32 4 8 4 C7.67 5.32 7.34 6.64 7 8 C4.35247996 5.42215154 2.05567935 3.08351902 0 0 Z " fill="#7217E2" transform="translate(158,101)"/>
<path d="M0 0 C0.66 0.33 1.32 0.66 2 1 C2.99 1.33 3.98 1.66 5 2 C2.80044684 4.52948613 1.27129522 5.36684609 -2 6 C-2.99 6.495 -2.99 6.495 -4 7 C-2.92598892 4.08482708 -2.22189824 2.22189824 0 0 Z " fill="#8918F0" transform="translate(35,7)"/>
<path d="M0 0 C0.94875 0.04125 1.8975 0.0825 2.875 0.125 C2.875 1.445 2.875 2.765 2.875 4.125 C0.235 3.465 -2.405 2.805 -5.125 2.125 C-3.125 0.125 -3.125 0.125 0 0 Z " fill="#F1E5FC" transform="translate(249.125,89.875)"/>
<path d="M0 0 C0 1.32 0 2.64 0 4 C-2.64 3.67 -5.28 3.34 -8 3 C-5.36657694 0.36657694 -3.69534435 0 0 0 Z " fill="#ECDDFC" transform="translate(252,106)"/>
<path d="M0 0 C1.32 0.99 2.64 1.98 4 3 C3.67 3.99 3.34 4.98 3 6 C2.34 5.34 1.68 4.68 1 4 C0.01 4 -0.98 4 -2 4 C-2.66 3.34 -3.32 2.68 -4 2 C-2.68 1.34 -1.36 0.68 0 0 Z " fill="#831FF0" transform="translate(155,49)"/>
<path d="M0 0 C0.66 0.33 1.32 0.66 2 1 C1.8125 2.8125 1.8125 2.8125 1 5 C-1.5625 6.75 -1.5625 6.75 -4 8 C-2.87548273 5.0280615 -1.77706209 2.66559313 0 0 Z " fill="#F0E5F7" transform="translate(235,116)"/>
<path d="M0 0 C2 1 2 1 3 3 C2.21625 3.268125 1.4325 3.53625 0.625 3.8125 C-2.28114923 4.84814432 -2.28114923 4.84814432 -4 8 C-4.33 6.68 -4.66 5.36 -5 4 C-3.35 2.68 -1.7 1.36 0 0 Z " fill="#F0E8F9" transform="translate(242,109)"/>
<path d="M0 0 C-1.98 0.99 -1.98 0.99 -4 2 C-4 1.34 -4 0.68 -4 0 C-5.98 0.99 -5.98 0.99 -8 2 C-8 1.34 -8 0.68 -8 0 C-9.32 -0.33 -10.64 -0.66 -12 -1 C-7.48281619 -2.36884358 -4.41225737 -1.47075246 0 0 Z " fill="#972EF9" transform="translate(12,94)"/>
<path d="M0 0 C-0.99 1.485 -0.99 1.485 -2 3 C-4.64 2.67 -7.28 2.34 -10 2 C-10 1.67 -10 1.34 -10 1 C-8.71073008 0.63720544 -7.41846728 0.28503302 -6.125 -0.0625 C-5.40570313 -0.25972656 -4.68640625 -0.45695312 -3.9453125 -0.66015625 C-2 -1 -2 -1 0 0 Z " fill="#E9CEFB" transform="translate(138,90)"/>
<path d="M0 0 C1.32 0.33 2.64 0.66 4 1 C4 1.66 4 2.32 4 3 C2.68 3.33 1.36 3.66 0 4 C0 4.66 0 5.32 0 6 C-0.66 6 -1.32 6 -2 6 C-1.34 4.02 -0.68 2.04 0 0 Z " fill="#9124F9" transform="translate(24,68)"/>
<path d="M0 0 C2 3.75 2 3.75 2 6 C0.35 6.33 -1.3 6.66 -3 7 C-3 5.68 -3 4.36 -3 3 C-2.34 3 -1.68 3 -1 3 C-0.67 2.01 -0.34 1.02 0 0 Z " fill="#740FEF" transform="translate(220,17)"/>
<path d="M0 0 C2.35953094 2.35953094 2.49141413 3.77895617 3 7 C2.01 7 1.02 7 0 7 C0 5.68 0 4.36 0 3 C-0.66 3 -1.32 3 -2 3 C-2 2.34 -2 1.68 -2 1 C-1.34 0.67 -0.68 0.34 0 0 Z " fill="#801FF3" transform="translate(221,14)"/>
<path d="M0 0 C0.66 0 1.32 0 2 0 C3.02611949 1.65071396 4.02308143 3.31970006 5 5 C6.58245275 6.75149165 6.58245275 6.75149165 8 8 C7.01 8 6.02 8 5 8 C0 2.65116279 0 2.65116279 0 0 Z " fill="#7B23EB" transform="translate(31,186)"/>
<path d="M0 0 C1.3921875 0.0928125 1.3921875 0.0928125 2.8125 0.1875 C2.8125 0.8475 2.8125 1.5075 2.8125 2.1875 C-1.6425 2.6825 -1.6425 2.6825 -6.1875 3.1875 C-3.1875 0.1875 -3.1875 0.1875 0 0 Z " fill="#6A0AE7" transform="translate(134.1875,105.8125)"/>
<path d="M0 0 C1.2077558 3.62326739 0.54311128 4.64146369 -1 8 C-2.5625 6.1875 -2.5625 6.1875 -4 4 C-3.67 3.01 -3.34 2.02 -3 1 C-2.01 0.67 -1.02 0.34 0 0 Z " fill="#F8EEFC" transform="translate(21,72)"/>
<path d="M0 0 C0.33 1.32 0.66 2.64 1 4 C-0.65 4.33 -2.3 4.66 -4 5 C-4.33 3.68 -4.66 2.36 -5 1 C-3 0 -3 0 0 0 Z " fill="#E8DAF2" transform="translate(149,147)"/>
<path d="M0 0 C0 1.98 0 3.96 0 6 C-1.32 6.33 -2.64 6.66 -4 7 C-4 3 -4 3 -2.5625 1.25 C-1 0 -1 0 0 0 Z " fill="#6B0FE5" transform="translate(160,145)"/>
<path d="M0 0 C1.37562854 1.28965176 2.70766393 2.62689293 4 4 C4 4.66 4 5.32 4 6 C3.34 6 2.68 6 2 6 C1.67 6.66 1.34 7.32 1 8 C0.67 5.36 0.34 2.72 0 0 Z " fill="#7A26E1" transform="translate(146,110)"/>
<path d="M0 0 C0.99 0 1.98 0 3 0 C3.33 1.65 3.66 3.3 4 5 C2.68 5 1.36 5 0 5 C0 3.35 0 1.7 0 0 Z " fill="#8F19F7" transform="translate(20,77)"/>
<path d="M0 0 C0.99 0.33 1.98 0.66 3 1 C3 1.99 3 2.98 3 4 C2.34 4 1.68 4 1 4 C0.67 5.32 0.34 6.64 0 8 C-0.79953138 4.71303767 -1.09658936 3.28976808 0 0 Z " fill="#F6FBF6" transform="translate(26,13)"/>
</svg>
