<svg version="1.1" id="Layer_1" xmlns="http://www.w3.org/2000/svg" xmlns:xlink="http://www.w3.org/1999/xlink" x="0px" y="0px"
	 width="100%" viewBox="0 0 225 225" enable-background="new 0 0 225 225" xml:space="preserve">
<path fill="#FFFFFF" opacity="1.000000" stroke="none" 
	d="
M131.000000,226.000000 
	C87.333336,226.000000 44.166672,226.000000 1.000006,226.000000 
	C1.000004,151.000000 1.000004,76.000015 1.000002,1.000016 
	C75.999992,1.000011 150.999985,1.000011 225.999969,1.000005 
	C225.999985,75.999985 225.999985,150.999969 226.000000,225.999969 
	C194.500000,226.000000 163.000000,226.000000 131.000000,226.000000 
M93.068932,195.451172 
	C98.998276,198.804672 104.858223,202.292908 110.909531,205.409576 
	C112.288071,206.119614 114.702827,206.204834 116.008652,205.463867 
	C141.286133,191.120575 166.504684,176.671585 191.594467,162.003387 
	C193.296753,161.008194 194.833374,158.114471 194.848404,156.091812 
	C195.059052,127.768280 194.947983,99.442528 195.049927,71.117790 
	C195.061768,67.827911 193.856995,65.943985 191.007507,64.432541 
	C185.435730,61.477104 180.034027,58.200657 174.566650,55.048870 
	C154.856491,43.686493 135.159424,32.301250 115.404922,21.016502 
	C114.467812,20.481180 112.846581,20.409941 111.858742,20.842115 
	C109.436485,21.901842 107.189194,23.366629 104.887665,24.696415 
	C82.026512,37.905212 59.196182,51.167870 36.275692,64.272842 
	C33.344749,65.948631 31.925014,67.764030 31.940355,71.290527 
	C32.062824,99.448471 32.049519,127.607330 31.953121,155.765488 
	C31.942032,159.005264 33.048435,160.903198 35.886757,162.513641 
	C54.807896,173.249252 73.635391,184.149918 93.068932,195.451172 
z"/>
<path fill="#E7E9ED" opacity="1.000000" stroke="none" 
	d="
M92.781113,195.224075 
	C73.635391,184.149918 54.807896,173.249252 35.886757,162.513641 
	C33.048435,160.903198 31.942032,159.005264 31.953121,155.765488 
	C32.049519,127.607330 32.062824,99.448471 31.940355,71.290527 
	C31.925014,67.764030 33.344749,65.948631 36.275692,64.272842 
	C59.196182,51.167870 82.026512,37.905212 104.887665,24.696415 
	C107.189194,23.366629 109.436485,21.901842 111.858742,20.842115 
	C112.846581,20.409941 114.467812,20.481180 115.404922,21.016502 
	C135.159424,32.301250 154.856491,43.686493 174.566650,55.048870 
	C180.034027,58.200657 185.435730,61.477104 191.007507,64.432541 
	C193.856995,65.943985 195.061768,67.827911 195.049927,71.117790 
	C194.947983,99.442528 195.059052,127.768280 194.848404,156.091812 
	C194.833374,158.114471 193.296753,161.008194 191.594467,162.003387 
	C166.504684,176.671585 141.286133,191.120575 116.008652,205.463867 
	C114.702827,206.204834 112.288071,206.119614 110.909531,205.409576 
	C104.858223,202.292908 98.998276,198.804672 92.781113,195.224075 
M184.971497,104.247162 
	C184.981613,95.594452 184.647232,86.922287 185.134277,78.296509 
	C185.415131,73.322571 183.305115,70.874283 179.334122,68.608192 
	C158.449615,56.690224 137.721268,44.498093 116.798553,32.648613 
	C115.084183,31.677694 111.903030,31.769686 110.117073,32.715446 
	C102.210251,36.902542 94.573700,41.598515 86.821785,46.079948 
	C73.180878,53.965839 59.459576,61.717140 45.957180,69.832993 
	C44.095390,70.952049 42.229431,73.803841 42.173882,75.901344 
	C41.852448,88.038162 42.073532,100.189346 42.078426,113.212463 
	C42.035656,126.076706 41.899628,138.942230 42.076038,151.803467 
	C42.096546,153.298538 43.847404,154.769897 45.234497,156.772186 
	C67.007614,169.321793 88.754280,181.918030 110.613075,194.316559 
	C112.076942,195.146912 114.728516,195.154434 116.247543,194.390732 
	C122.039139,191.478973 127.623779,188.147079 133.229706,184.876114 
	C150.177414,174.987381 167.098923,165.053741 184.512878,154.941772 
	C184.642944,154.638657 184.772995,154.335556 185.028809,153.098297 
	C184.987244,138.085876 184.945679,123.073448 185.025513,107.350853 
	C184.991638,106.637131 184.957779,105.923409 184.971497,104.247162 
z"/>
<path fill="#FE777B" opacity="1.000000" stroke="none" 
	d="
M184.030640,155.137589 
	C167.098923,165.053741 150.177414,174.987381 133.229706,184.876114 
	C127.623779,188.147079 122.039139,191.478973 116.247543,194.390732 
	C114.728516,195.154434 112.076942,195.146912 110.613075,194.316559 
	C88.754280,181.918030 67.007614,169.321793 45.183479,156.174667 
	C52.465794,143.628052 59.313160,131.340240 67.316055,119.857803 
	C72.061272,113.049423 78.013924,106.510101 87.983734,107.169266 
	C88.330002,107.554558 88.540489,107.761543 88.864021,108.317741 
	C94.335587,119.694824 99.014175,131.122635 105.306236,141.579605 
	C110.919510,150.908478 118.756340,151.297211 126.124428,143.100830 
	C131.275238,137.370972 135.230118,130.520126 139.400909,123.967384 
	C144.078247,116.618774 148.786423,109.318733 157.048553,105.563217 
	C166.717529,101.168213 176.091003,101.963295 184.904099,108.061020 
	C184.945679,123.073448 184.987244,138.085876 184.755310,153.689941 
	C184.233994,154.515533 184.083603,154.800873 184.030640,155.137589 
z"/>
<path fill="#FFFFFF" opacity="1.000000" stroke="none" 
	d="
M88.773079,107.946045 
	C88.540489,107.761543 88.330002,107.554558 87.885765,106.841805 
	C83.966034,100.877243 80.879875,94.874069 76.506882,90.033409 
	C69.427597,82.197021 58.002155,83.088150 52.215626,91.996140 
	C48.118919,98.302757 45.428928,105.523163 42.110985,112.335663 
	C42.073532,100.189346 41.852448,88.038162 42.173882,75.901344 
	C42.229431,73.803841 44.095390,70.952049 45.957180,69.832993 
	C59.459576,61.717140 73.180878,53.965839 86.821785,46.079948 
	C94.573700,41.598515 102.210251,36.902542 110.117073,32.715446 
	C111.903030,31.769686 115.084183,31.677694 116.798553,32.648613 
	C137.721268,44.498093 158.449615,56.690224 179.334122,68.608192 
	C183.305115,70.874283 185.415131,73.322571 185.134277,78.296509 
	C184.647232,86.922287 184.981613,95.594452 184.659180,104.543472 
	C181.420807,101.254784 178.810333,97.343788 175.508255,94.147217 
	C166.384460,85.314911 154.509720,86.693916 147.635605,97.338417 
	C145.044800,101.350266 143.341797,105.927452 140.859665,110.019836 
	C138.659393,113.647499 135.940094,116.960365 133.268982,120.046234 
	C129.262054,112.124870 126.013519,104.200027 121.472420,97.102158 
	C114.941620,86.894371 105.745743,87.078133 98.919434,97.119148 
	C96.421295,100.793739 94.753738,105.032982 92.372467,108.954437 
	C90.949455,108.578163 89.861267,108.262108 88.773079,107.946045 
z"/>
<path fill="#FE819D" opacity="1.000000" stroke="none" 
	d="
M42.094707,112.774063 
	C45.428928,105.523163 48.118919,98.302757 52.215626,91.996140 
	C58.002155,83.088150 69.427597,82.197021 76.506882,90.033409 
	C80.879875,94.874069 83.966034,100.877243 87.727867,106.685989 
	C78.013924,106.510101 72.061272,113.049423 67.316055,119.857803 
	C59.313160,131.340240 52.465794,143.628052 44.964256,155.914703 
	C43.847404,154.769897 42.096546,153.298538 42.076038,151.803467 
	C41.899628,138.942230 42.035656,126.076706 42.094707,112.774063 
z"/>
<path fill="#FECD57" opacity="1.000000" stroke="none" 
	d="
M88.864021,108.317749 
	C89.861267,108.262108 90.949455,108.578163 92.564514,109.245758 
	C97.857445,113.439583 102.418777,117.576729 107.434601,121.059280 
	C116.322365,127.230194 126.373444,126.792366 133.449905,120.412193 
	C135.940094,116.960365 138.659393,113.647499 140.859665,110.019836 
	C143.341797,105.927452 145.044800,101.350266 147.635605,97.338417 
	C154.509720,86.693916 166.384460,85.314911 175.508255,94.147217 
	C178.810333,97.343788 181.420807,101.254784 184.635406,105.024734 
	C184.957779,105.923409 184.991638,106.637131 184.964813,107.705933 
	C176.091003,101.963295 166.717529,101.168213 157.048553,105.563217 
	C148.786423,109.318733 144.078247,116.618774 139.400909,123.967384 
	C135.230118,130.520126 131.275238,137.370972 126.124428,143.100830 
	C118.756340,151.297211 110.919510,150.908478 105.306236,141.579605 
	C99.014175,131.122635 94.335587,119.694824 88.864021,108.317749 
z"/>
<path fill="#FF6E72" opacity="1.000000" stroke="none" 
	d="
M184.271759,155.039673 
	C184.083603,154.800873 184.233994,154.515533 184.692413,154.157013 
	C184.772995,154.335556 184.642944,154.638657 184.271759,155.039673 
z"/>
<path fill="#37A2EB" opacity="1.000000" stroke="none" 
	d="
M133.268982,120.046234 
	C126.373444,126.792366 116.322365,127.230194 107.434601,121.059280 
	C102.418777,117.576729 97.857445,113.439583 92.899338,109.305969 
	C94.753738,105.032982 96.421295,100.793739 98.919434,97.119148 
	C105.745743,87.078133 114.941620,86.894371 121.472420,97.102158 
	C126.013519,104.200027 129.262054,112.124870 133.268982,120.046234 
z"/>
</svg>