<svg version="1.1" id="Layer_1" xmlns="http://www.w3.org/2000/svg" xmlns:xlink="http://www.w3.org/1999/xlink" x="0px" y="0px"
	 width="100%" viewBox="0 0 225 225" enable-background="new 0 0 225 225" xml:space="preserve">
<path fill="#FEFEFE" opacity="1.000000" stroke="none" 
	d="
M226.000000,108.000000 
	C226.000000,147.666672 226.000000,186.833328 226.000000,226.000000 
	C151.000000,226.000000 76.000000,226.000000 1.000000,226.000000 
	C1.000000,151.000000 1.000000,76.000000 1.000000,1.000000 
	C76.000000,1.000000 151.000000,1.000000 226.000000,1.000000 
	C226.000000,36.500000 226.000000,72.000000 226.000000,108.000000 
M170.680466,43.051155 
	C170.806335,42.718651 170.932205,42.386150 171.005142,42.026157 
	C171.005142,42.026157 171.063644,42.030224 171.519440,41.557941 
	C171.074493,40.302841 170.629547,39.047745 170.108124,37.842705 
	C170.108124,37.842705 170.181412,37.897331 170.060669,37.319767 
	C169.742722,37.095196 169.424759,36.870628 168.904068,36.025551 
	C161.655670,32.315525 154.407272,28.605497 146.609314,24.428946 
	C141.051758,23.006166 135.494202,21.583387 129.182541,19.899176 
	C123.926491,19.881386 118.670448,19.863598 112.858337,19.127405 
	C108.871567,19.346584 104.884796,19.565763 100.079269,19.722187 
	C98.223274,20.104908 96.367287,20.487631 94.257027,20.721264 
	C94.257027,20.721264 94.022087,20.899261 93.197693,20.854103 
	C88.091217,22.557768 82.984749,24.261433 77.435806,26.422358 
	C76.616913,26.589741 75.798027,26.757124 74.722939,26.365700 
	C71.237648,27.268288 67.741615,28.134232 64.288795,29.147484 
	C64.030457,29.223299 64.081268,30.352619 63.183929,30.999125 
	C59.021523,32.612087 54.859112,34.225044 50.696705,35.838005 
	C50.963600,36.141747 51.230495,36.445488 51.497391,36.749229 
	C49.464119,38.371384 47.578022,40.242012 45.361534,41.554829 
	C42.373428,43.324673 41.759697,45.262257 43.978203,48.439400 
	C43.978203,48.439400 43.951611,48.883060 43.335732,49.102730 
	C41.917305,50.414894 40.498878,51.727058 38.518177,52.777382 
	C37.408222,52.941113 35.735355,52.701324 35.281075,53.335060 
	C32.637909,57.022316 30.045700,60.790802 27.936014,64.795128 
	C27.012081,66.548813 27.271400,68.925903 26.476824,71.551109 
	C26.342159,73.033913 26.207495,74.516716 25.768240,76.647278 
	C24.201666,80.762222 22.635094,84.877159 20.727474,89.655052 
	C20.468973,91.110016 20.210472,92.564972 19.753351,94.277016 
	C19.753351,94.277016 19.848600,94.587608 19.365019,95.268280 
	C18.940565,104.171448 18.516111,113.074608 17.966677,122.835625 
	C18.678358,126.888115 19.390038,130.940613 20.044323,135.753555 
	C21.063803,139.165710 22.083282,142.577866 23.102890,146.718216 
	C24.583134,150.059311 26.063377,153.400391 26.854862,157.135010 
	C26.954988,159.300217 27.055117,161.465424 27.192226,164.430405 
	C28.815138,163.042969 29.429073,162.518112 30.396709,162.588654 
	C32.627861,165.929550 34.859016,169.270432 37.325573,172.963806 
	C38.312923,172.645325 39.507233,172.260071 41.468758,172.045807 
	C42.329815,173.563431 43.190868,175.081070 43.993633,176.495956 
	C46.182278,173.177170 47.829533,169.508072 50.519241,166.924088 
	C53.311962,164.241119 55.944172,161.894150 56.088181,157.181931 
	C56.426117,156.496124 56.764053,155.810333 57.710442,154.856400 
	C59.145412,153.247986 60.580383,151.639572 62.706844,149.869385 
	C65.166550,148.001221 68.450684,146.516617 66.214546,141.743988 
	C64.186623,137.102524 62.158703,132.461060 60.162983,127.027184 
	C59.387630,122.682655 58.612274,118.338127 57.973454,113.161461 
	C57.928993,111.759361 57.884533,110.357254 58.252357,108.243355 
	C59.767372,102.831001 61.282387,97.418648 62.986023,91.540489 
	C63.005032,91.374031 63.024036,91.207581 63.585445,90.672638 
	C65.153175,88.134575 66.720909,85.596512 68.940666,83.127235 
	C69.724724,83.267441 70.876488,83.813713 71.237526,83.486778 
	C76.433136,78.781906 81.549843,73.987976 86.589401,69.116028 
	C87.034294,68.685936 86.808281,67.561859 87.193825,66.159851 
	C89.121735,65.090019 91.049644,64.020195 93.691330,62.944450 
	C95.471619,62.302982 97.251907,61.661518 99.538895,61.045441 
	C99.688301,60.966225 99.837715,60.887009 100.655502,60.806458 
	C101.068413,60.652237 101.481316,60.498020 102.618851,60.491341 
	C104.552856,60.066357 106.486862,59.641373 108.867928,59.348110 
	C109.188866,59.369698 109.487228,59.297729 110.521660,59.447052 
	C113.034836,59.405636 115.548004,59.364220 118.729393,59.607731 
	C119.450615,59.622608 120.171837,59.637486 121.620102,60.006454 
	C127.075661,61.676655 132.531219,63.346855 138.532654,65.449692 
	C141.805801,67.095284 145.099106,70.284126 148.880280,65.064194 
	C149.997055,63.791161 151.113846,62.518131 152.250229,61.156452 
	C152.250229,61.156452 152.187012,61.221622 152.715897,61.075882 
	C152.871201,60.758228 153.026505,60.440575 153.068054,60.150826 
	C153.068054,60.150826 153.177826,60.191673 153.812943,60.058216 
	C154.591034,59.088444 155.369141,58.118671 156.110596,57.025665 
	C156.110596,57.025665 156.099319,57.153740 156.676575,57.137192 
	C157.035934,56.736412 157.395309,56.335636 158.036179,55.728294 
	C158.036179,55.728294 158.152679,55.399139 158.676682,55.147316 
	C158.855042,54.816940 159.033401,54.486561 159.171875,54.226028 
	C159.171875,54.226028 159.252090,54.231964 159.786987,54.137493 
	C160.130768,53.748497 160.474564,53.359497 161.360764,52.578407 
	C163.007172,50.788883 164.653564,48.999359 166.863007,47.053631 
	C167.615723,46.202942 168.368454,45.352249 169.661972,44.185741 
	C169.842133,43.825642 170.022293,43.465538 170.096039,43.115940 
	C170.096039,43.115940 170.147598,43.209614 170.680466,43.051155 
M147.032471,160.849823 
	C143.679428,158.866821 141.639755,161.530762 138.817032,162.596466 
	C126.368027,167.296539 113.531616,170.640686 100.102905,166.613220 
	C95.715057,165.297256 90.771744,164.562164 87.247803,161.974457 
	C83.280060,159.060883 80.898979,159.552719 77.895859,162.575653 
	C71.169151,169.346771 64.328690,176.005478 57.642395,182.815842 
	C55.349735,185.151062 54.062794,187.755035 57.431957,190.463333 
	C59.675091,192.266464 61.521969,194.681641 63.971001,196.077652 
	C66.678947,197.621246 70.144440,197.860016 72.805504,199.457504 
	C83.981247,206.166458 96.381523,208.374298 108.995583,208.908463 
	C131.119095,209.845306 151.530212,204.440826 169.234146,190.477570 
	C172.065216,188.244659 172.462158,186.518066 169.679932,183.778793 
	C164.246201,178.428986 159.147430,172.738968 154.283234,166.605591 
	C154.813416,165.268646 155.343597,163.931717 155.873779,162.594772 
	C153.160583,162.104065 150.447388,161.613358 147.032471,160.849823 
M103.582359,139.151840 
	C105.837601,139.692932 108.066177,140.428391 110.352623,140.742126 
	C121.451775,142.265182 132.860580,136.101486 138.025253,125.912224 
	C143.103836,115.892792 141.211899,103.532013 133.582397,95.276085 
	C127.662277,88.869881 120.348137,87.612808 111.968811,87.509407 
	C103.866165,87.409416 97.753532,90.463631 92.793930,96.096207 
	C80.497238,110.061409 85.327675,130.124969 103.582359,139.151840 
z"/>
<path fill="#200456" opacity="1.000000" stroke="none" 
	d="
M153.909988,167.189789 
	C159.147430,172.738968 164.246201,178.428986 169.679932,183.778793 
	C172.462158,186.518066 172.065216,188.244659 169.234146,190.477570 
	C151.530212,204.440826 131.119095,209.845306 108.995583,208.908463 
	C96.381523,208.374298 83.981247,206.166458 72.805504,199.457504 
	C70.144440,197.860016 66.678947,197.621246 63.971001,196.077652 
	C61.521969,194.681641 59.675091,192.266464 57.431957,190.463333 
	C54.062794,187.755035 55.349735,185.151062 57.642395,182.815842 
	C64.328690,176.005478 71.169151,169.346771 77.895859,162.575653 
	C80.898979,159.552719 83.280060,159.060883 87.247803,161.974457 
	C90.771744,164.562164 95.715057,165.297256 100.102905,166.613220 
	C113.531616,170.640686 126.368027,167.296539 138.817032,162.596466 
	C141.639755,161.530762 143.679428,158.866821 147.519806,161.294891 
	C149.974747,163.556580 151.942368,165.373184 153.909988,167.189789 
z"/>
<path fill="#200556" opacity="1.000000" stroke="none" 
	d="
M103.217682,139.013977 
	C85.327675,130.124969 80.497238,110.061409 92.793930,96.096207 
	C97.753532,90.463631 103.866165,87.409416 111.968811,87.509407 
	C120.348137,87.612808 127.662277,88.869881 133.582397,95.276085 
	C141.211899,103.532013 143.103836,115.892792 138.025253,125.912224 
	C132.860580,136.101486 121.451775,142.265182 110.352623,140.742126 
	C108.066177,140.428391 105.837601,139.692932 103.217682,139.013977 
z"/>
<path fill="#2AA6FC" opacity="1.000000" stroke="none" 
	d="
M158.152679,55.399139 
	C158.152679,55.399139 158.036179,55.728294 157.615295,55.866661 
	C156.829391,56.387932 156.464355,56.770832 156.099319,57.153736 
	C156.099319,57.153740 156.110596,57.025665 155.768494,57.064232 
	C154.676880,58.132423 153.927353,59.162048 153.177826,60.191673 
	C153.177826,60.191673 153.068054,60.150826 152.862305,60.216476 
	C152.500046,60.595291 152.343536,60.908455 152.187012,61.221622 
	C152.187012,61.221622 152.250229,61.156452 151.899811,61.145401 
	C150.384888,61.788883 149.220398,62.443413 148.002533,62.782829 
	C144.692093,61.607155 145.987946,58.133053 144.529419,56.433041 
	C141.209290,52.563194 137.522766,48.999325 133.887817,45.409649 
	C125.288269,36.917194 116.632004,28.482168 108.447823,20.016638 
	C110.402786,19.954838 111.908592,19.900324 113.414398,19.845810 
	C118.670448,19.863598 123.926491,19.881386 129.382263,20.243673 
	C129.014725,20.887548 128.447449,21.186924 127.880173,21.486301 
	C129.577682,24.148222 130.829819,27.279234 133.051727,29.388836 
	C141.539551,37.447632 150.339584,45.177605 159.054504,53.335693 
	C159.141327,53.837994 159.196701,54.034977 159.252090,54.231964 
	C159.252090,54.231964 159.171875,54.226028 158.901413,54.279186 
	C158.471527,54.687943 158.312103,55.043541 158.152679,55.399139 
z"/>
<path fill="#3291FB" opacity="1.000000" stroke="none" 
	d="
M94.022087,20.899261 
	C94.022087,20.899261 94.257027,20.721264 94.802460,20.831314 
	C95.901894,20.972248 96.455902,21.003134 97.018768,21.419392 
	C97.268044,22.391800 97.342621,23.185434 97.775398,23.532845 
	C100.936310,26.070236 104.425117,28.251913 107.329613,31.045736 
	C114.980400,38.404991 122.321533,46.085430 129.933411,53.486347 
	C132.056839,55.550938 132.632751,57.127956 129.663757,59.152725 
	C127.223755,59.191418 125.116928,59.081852 122.974915,58.683014 
	C122.291946,58.261688 121.644180,58.129631 120.664673,57.997124 
	C119.890717,57.994698 119.448502,57.992722 118.969482,57.639084 
	C118.126976,55.865944 117.573181,54.200253 116.472435,53.064793 
	C111.402870,47.835346 106.214722,42.719009 101.003120,37.629669 
	C96.489548,33.221977 91.887321,28.905064 87.221336,24.449728 
	C89.928879,23.036200 91.975487,21.967730 94.022087,20.899261 
z"/>
<path fill="#803BFD" opacity="1.000000" stroke="none" 
	d="
M62.015350,150.031158 
	C60.580383,151.639572 59.145412,153.247986 57.206223,154.707642 
	C50.017853,148.365585 42.591915,142.778763 36.879074,135.791321 
	C32.119854,129.970261 24.194305,126.753174 22.280474,118.537674 
	C22.202036,118.200966 20.791992,118.174461 19.962242,117.639572 
	C20.214645,114.969460 20.507151,112.663200 20.936949,109.274452 
	C24.160791,112.063644 26.387941,113.831299 28.432823,115.789322 
	C34.769203,121.856499 39.842892,129.507294 48.996536,132.386322 
	C49.332260,134.183411 49.666950,135.592926 50.044731,137.367340 
	C52.724728,138.821198 55.361633,139.910156 57.998569,141.332855 
	C57.997955,142.111542 57.997307,142.556503 57.774578,143.149780 
	C59.040115,145.542435 60.527733,147.786804 62.015350,150.031158 
z"/>
<path fill="#5B39FC" opacity="1.000000" stroke="none" 
	d="
M62.797401,92.006294 
	C61.282387,97.418648 59.767372,102.831001 57.807213,108.353119 
	C56.255367,106.503624 55.480103,104.232147 53.981899,102.641678 
	C48.794277,97.134613 43.254936,91.959229 38.056755,86.461594 
	C35.689285,83.957741 33.806873,80.995262 31.021797,77.346443 
	C30.319145,77.155205 28.195988,76.577362 26.072830,75.999519 
	C26.207495,74.516716 26.342159,73.033913 27.065102,71.188362 
	C29.754478,67.848473 31.855579,64.871330 33.929024,62.283951 
	C32.179096,66.365318 33.198067,69.157791 36.226452,71.837746 
	C40.184540,75.340439 43.888153,79.155502 47.480247,83.040512 
	C51.709373,87.614487 56.214230,91.536591 62.797401,92.006294 
z"/>
<path fill="#873EFD" opacity="1.000000" stroke="none" 
	d="
M20.002342,118.003433 
	C20.791992,118.174461 22.202036,118.200966 22.280474,118.537674 
	C24.194305,126.753174 32.119854,129.970261 36.879074,135.791321 
	C42.591915,142.778763 50.017853,148.365585 56.901997,154.841721 
	C56.764053,155.810333 56.426117,156.496124 55.678959,157.551498 
	C54.082783,158.933670 52.895828,159.946274 51.424599,160.964539 
	C50.761402,160.980942 50.382484,160.991669 50.131950,160.691986 
	C49.226814,158.892700 48.447262,157.091522 47.096333,155.992935 
	C45.356216,154.577881 42.670479,154.152481 41.260761,152.540909 
	C38.462021,149.341461 37.546295,144.132523 31.713734,144.513062 
	C31.425838,144.531845 30.855255,143.831177 30.810453,143.422318 
	C30.101068,136.948349 24.297306,136.997009 20.101719,134.993103 
	C19.390038,130.940613 18.678358,126.888115 18.324726,122.243729 
	C19.122633,120.435692 19.562489,119.219566 20.002342,118.003433 
M22.105518,131.352966 
	C22.374182,131.645706 22.642843,131.938461 22.911509,132.231201 
	C23.104574,131.699402 23.297640,131.167603 23.490702,130.635803 
	C23.078817,130.694504 22.666933,130.753204 22.105518,131.352966 
z"/>
<path fill="#4076FB" opacity="1.000000" stroke="none" 
	d="
M101.894226,60.343800 
	C101.481316,60.498020 101.068413,60.652237 100.209488,60.667969 
	C99.519722,60.693005 99.275955,60.856529 99.032196,61.020050 
	C97.251907,61.661518 95.471619,62.302982 93.155289,62.697220 
	C91.106705,60.703117 89.758270,58.773849 88.053802,57.240288 
	C79.753006,49.771778 71.356995,42.409096 62.998672,34.685097 
	C63.005650,33.929756 63.008644,33.498276 63.187065,32.890984 
	C63.642635,32.523491 63.856037,32.274597 64.341064,31.888485 
	C67.451340,30.564318 70.223244,29.320141 73.055710,28.414061 
	C80.304581,41.204872 93.323524,48.087627 102.040665,59.271004 
	C101.962982,59.770073 101.922440,60.056065 101.894226,60.343800 
z"/>
<path fill="#446AFB" opacity="1.000000" stroke="none" 
	d="
M62.994686,35.008957 
	C71.356995,42.409096 79.753006,49.771778 88.053802,57.240288 
	C89.758270,58.773849 91.106705,60.703117 92.798401,62.700172 
	C91.049644,64.020195 89.121735,65.090019 86.715645,66.498466 
	C85.017517,67.276611 83.797577,67.716141 82.182770,68.115509 
	C81.524803,68.057159 81.261719,68.038979 80.727951,67.820312 
	C74.425552,61.025398 68.429146,54.398045 62.334316,47.862484 
	C61.011173,46.443668 59.206783,45.477161 57.860802,44.075058 
	C56.725052,42.891956 55.932560,41.379333 54.970802,39.717888 
	C54.916096,39.230011 54.878723,39.036804 54.850693,38.852970 
	C54.860039,38.862343 54.883976,38.873646 55.243061,38.887089 
	C57.080338,37.629444 58.558525,36.358353 60.132683,34.977596 
	C60.228645,34.867928 60.519508,34.849491 60.931412,34.895744 
	C61.893776,34.964317 62.444229,34.986637 62.994686,35.008957 
z"/>
<path fill="#7438FC" opacity="1.000000" stroke="none" 
	d="
M57.996658,143.001480 
	C57.997307,142.556503 57.997955,142.111542 58.306774,141.171570 
	C60.775211,138.385818 59.161438,138.182068 57.196800,137.983536 
	C54.789944,137.740326 52.399296,137.336716 50.001640,137.002441 
	C49.666950,135.592926 49.332260,134.183411 48.990093,132.013611 
	C48.215069,130.295776 47.576580,129.186508 46.658710,128.405640 
	C41.325603,123.868553 35.773163,119.576675 30.611246,114.855957 
	C27.782829,112.269287 25.189278,109.237000 23.210546,105.969231 
	C21.600195,103.309814 21.062107,100.001114 20.204151,96.900352 
	C20.422703,96.724022 20.560675,96.576195 20.535868,96.540039 
	C20.413395,96.361526 20.247833,96.212570 20.038626,95.686226 
	C19.936056,95.075378 19.892328,94.831497 19.848600,94.587608 
	C19.848600,94.587608 19.753351,94.277016 20.178499,94.010010 
	C21.734951,93.496559 22.866255,93.250107 23.998005,93.437668 
	C22.688984,99.919334 26.322258,103.416504 30.488157,106.755760 
	C34.225433,109.751442 37.912273,112.830284 41.412777,116.096024 
	C45.875057,120.259048 50.021900,124.764954 54.565029,128.832275 
	C55.412910,129.591339 57.487900,128.979736 59.166824,129.154877 
	C59.601639,128.812576 59.866211,128.316086 60.130783,127.819595 
	C62.158703,132.461060 64.186623,137.102524 66.129250,142.465240 
	C65.359924,143.569885 64.627220,144.343079 64.000832,144.264877 
	C61.978390,144.012329 59.995064,143.446533 57.996658,143.001480 
z"/>
<path fill="#534DFA" opacity="1.000000" stroke="none" 
	d="
M68.288643,83.058449 
	C66.720909,85.596512 65.153175,88.134575 63.141102,90.596054 
	C56.957504,77.032997 46.364090,67.981270 34.827282,59.567154 
	C36.318943,57.174114 37.699696,55.106667 39.080452,53.039219 
	C40.498878,51.727058 41.917305,50.414894 43.652462,49.387024 
	C42.543255,53.460190 39.990116,57.732811 47.550468,57.484348 
	C48.059258,57.467628 48.588383,58.668175 49.140282,59.273167 
	C55.727680,66.494286 62.435921,73.570274 71.473618,78.005653 
	C70.354889,79.888367 69.321762,81.473404 68.288643,83.058449 
z"/>
<path fill="#29B3F9" opacity="1.000000" stroke="none" 
	d="
M159.023026,53.030373 
	C150.339584,45.177605 141.539551,37.447632 133.051727,29.388836 
	C130.829819,27.279234 129.577682,24.148222 127.880173,21.486301 
	C128.447449,21.186924 129.014725,20.887548 129.759323,20.374390 
	C135.494202,21.583387 141.051758,23.006166 146.535645,24.740097 
	C146.441803,26.785151 145.673569,29.210375 146.528534,30.135487 
	C150.635010,34.578903 155.092239,38.716545 159.635040,42.724606 
	C160.687744,43.653393 162.564148,43.648556 164.667328,44.245159 
	C164.940186,44.740623 165.620071,45.975227 166.299973,47.209835 
	C164.653564,48.999359 163.007172,50.788883 160.790588,52.781708 
	C159.821289,53.000134 159.422165,53.015255 159.023026,53.030373 
z"/>
<path fill="#4D57FB" opacity="1.000000" stroke="none" 
	d="
M71.559212,77.707985 
	C62.435921,73.570274 55.727680,66.494286 49.140282,59.273167 
	C48.588383,58.668175 48.059258,57.467628 47.550468,57.484348 
	C39.990116,57.732811 42.543255,53.460190 43.960403,49.277187 
	C43.951611,48.883060 43.978203,48.439400 44.224766,48.038780 
	C45.257473,46.943825 46.043617,46.249489 46.902821,45.925735 
	C48.979950,46.524647 50.984020,46.752972 53.190765,47.266586 
	C54.645378,49.583782 55.616066,51.875351 57.204845,53.596291 
	C61.125172,57.842709 65.145973,62.036503 69.488655,65.837563 
	C72.030746,68.062599 75.268044,69.493378 78.109077,71.597107 
	C76.465691,72.985207 74.905830,74.057663 72.965408,75.131241 
	C72.210732,75.889160 71.836609,76.645943 71.503082,77.473846 
	C71.543678,77.544960 71.559212,77.707985 71.559212,77.707985 
z"/>
<path fill="#6234FC" opacity="1.000000" stroke="none" 
	d="
M25.920536,76.323395 
	C28.195988,76.577362 30.319145,77.155205 31.021797,77.346443 
	C33.806873,80.995262 35.689285,83.957741 38.056755,86.461594 
	C43.254936,91.959229 48.794277,97.134613 53.981899,102.641678 
	C55.480103,104.232147 56.255367,106.503624 57.601070,108.709015 
	C57.884533,110.357254 57.928993,111.759361 57.562752,113.536400 
	C56.404736,113.560135 55.545338,113.344986 54.927784,112.836250 
	C49.900234,108.694679 44.891430,104.529175 39.942047,100.294830 
	C38.825706,99.339760 38.047428,97.998314 36.971092,96.986198 
	C32.715290,92.984337 28.402889,89.042679 24.466751,85.406853 
	C22.901058,87.058716 21.984787,88.025406 21.068518,88.992104 
	C22.635094,84.877159 24.201666,80.762222 25.920536,76.323395 
z"/>
<path fill="#3888FA" opacity="1.000000" stroke="none" 
	d="
M93.609894,20.876682 
	C91.975487,21.967730 89.928879,23.036200 87.221336,24.449728 
	C91.887321,28.905064 96.489548,33.221977 101.003120,37.629669 
	C106.214722,42.719009 111.402870,47.835346 116.472435,53.064793 
	C117.573181,54.200253 118.126976,55.865944 118.716309,57.644730 
	C118.331200,58.006176 118.162468,58.010311 117.544159,58.011398 
	C114.396187,58.003822 111.697784,57.999294 108.998978,57.611824 
	C108.542595,55.869522 108.453590,54.171318 107.566216,53.210308 
	C104.002823,49.351257 100.335922,45.561375 96.439796,42.042049 
	C90.366943,36.556507 84.076508,31.311842 77.878273,25.965099 
	C82.984749,24.261433 88.091217,22.557768 93.609894,20.876682 
z"/>
<path fill="#3B81FD" opacity="1.000000" stroke="none" 
	d="
M77.657043,26.193729 
	C84.076508,31.311842 90.366943,36.556507 96.439796,42.042049 
	C100.335922,45.561375 104.002823,49.351257 107.566216,53.210308 
	C108.453590,54.171318 108.542595,55.869522 108.634140,57.614395 
	C107.174126,58.321804 106.078529,58.643707 104.618095,58.988152 
	C103.523994,59.025848 102.794739,59.041008 102.065475,59.056171 
	C93.323524,48.087627 80.304581,41.204872 73.350670,28.327232 
	C74.049767,27.576376 74.514450,27.250443 74.979134,26.924507 
	C75.798027,26.757124 76.616913,26.589741 77.657043,26.193729 
z"/>
<path fill="#5742FB" opacity="1.000000" stroke="none" 
	d="
M34.716373,59.892746 
	C46.364090,67.981270 56.957504,77.032997 62.869904,90.780304 
	C63.024036,91.207581 63.005032,91.374031 62.891712,91.773392 
	C56.214230,91.536591 51.709373,87.614487 47.480247,83.040512 
	C43.888153,79.155502 40.184540,75.340439 36.226452,71.837746 
	C33.198067,69.157791 32.179096,66.365318 33.945549,61.994522 
	C34.231953,60.841137 34.474163,60.366940 34.716373,59.892746 
z"/>
<path fill="#9042FB" opacity="1.000000" stroke="none" 
	d="
M20.073021,135.373322 
	C24.297306,136.997009 30.101068,136.948349 30.810453,143.422318 
	C30.855255,143.831177 31.425838,144.531845 31.713734,144.513062 
	C37.546295,144.132523 38.462021,149.341461 41.260761,152.540909 
	C42.670479,154.152481 45.356216,154.577881 47.096333,155.992935 
	C48.447262,157.091522 49.226814,158.892700 49.949589,160.899292 
	C45.878338,164.489075 42.365868,160.916687 38.719616,161.015182 
	C35.693066,161.096954 32.610233,161.445557 31.797602,157.280045 
	C31.745241,157.011642 29.980558,157.077286 29.010546,156.613953 
	C29.652632,154.468307 30.296595,152.696228 30.594893,151.875366 
	C27.739216,149.632126 25.420990,147.811066 23.102762,145.990021 
	C22.083282,142.577866 21.063803,139.165710 20.073021,135.373322 
z"/>
<path fill="#6935FC" opacity="1.000000" stroke="none" 
	d="
M20.897995,89.323578 
	C21.984787,88.025406 22.901058,87.058716 24.466751,85.406853 
	C28.402889,89.042679 32.715290,92.984337 36.971092,96.986198 
	C38.047428,97.998314 38.825706,99.339760 39.942047,100.294830 
	C44.891430,104.529175 49.900234,108.694679 54.927784,112.836250 
	C55.545338,113.344986 56.404736,113.560135 57.494484,113.952469 
	C58.612274,118.338127 59.387630,122.682655 60.146881,127.423386 
	C59.866211,128.316086 59.601639,128.812576 59.159035,128.782440 
	C58.162010,127.408478 57.327778,126.575256 56.527107,125.710938 
	C54.696896,123.735245 52.163914,122.034050 51.221924,119.695480 
	C49.583984,115.629150 48.604568,111.546211 43.428417,110.482834 
	C42.481995,110.288406 41.848297,108.570122 41.070950,107.554710 
	C40.231304,106.457901 39.518024,105.228645 38.530056,104.287712 
	C35.420223,101.325981 32.299946,98.360229 28.991035,95.629517 
	C27.571203,94.457764 25.676504,93.861427 23.997559,93.003662 
	C22.866255,93.250107 21.734951,93.496559 20.277809,93.881470 
	C20.210472,92.564972 20.468973,91.110016 20.897995,89.323578 
z"/>
<path fill="#23BBF7" opacity="1.000000" stroke="none" 
	d="
M166.581482,47.131733 
	C165.620071,45.975227 164.940186,44.740623 164.667328,44.245159 
	C162.564148,43.648556 160.687744,43.653393 159.635040,42.724606 
	C155.092239,38.716545 150.635010,34.578903 146.528534,30.135487 
	C145.673569,29.210375 146.441803,26.785151 146.810425,24.973362 
	C154.407272,28.605497 161.655670,32.315525 169.071808,36.628014 
	C169.553497,37.452763 169.867462,37.675045 170.181412,37.897331 
	C170.181412,37.897331 170.108124,37.842705 170.110504,38.186131 
	C170.429794,39.696445 170.746719,40.863335 171.063629,42.030228 
	C171.063644,42.030224 171.005142,42.026157 170.791534,42.150337 
	C170.434479,42.586212 170.291031,42.897911 170.147583,43.209610 
	C170.147598,43.209614 170.096039,43.115940 169.854950,43.236053 
	C169.449631,43.737961 169.285400,44.119759 169.121170,44.501556 
	C168.368454,45.352249 167.615723,46.202942 166.581482,47.131733 
z"/>
<path fill="#7A3CF9" opacity="1.000000" stroke="none" 
	d="
M19.606810,94.927948 
	C19.892328,94.831497 19.936056,95.075378 20.013458,95.916977 
	C20.047132,96.514702 20.048527,96.980339 20.048527,96.980339 
	C21.062107,100.001114 21.600195,103.309814 23.210546,105.969231 
	C25.189278,109.237000 27.782829,112.269287 30.611246,114.855957 
	C35.773163,119.576675 41.325603,123.868553 46.658710,128.405640 
	C47.576580,129.186508 48.215069,130.295776 48.989052,131.626053 
	C39.842892,129.507294 34.769203,121.856499 28.432823,115.789322 
	C26.387941,113.831299 24.160791,112.063644 20.936949,109.274452 
	C20.507151,112.663200 20.214645,114.969460 19.962242,117.639572 
	C19.562489,119.219566 19.122633,120.435692 18.387218,121.814804 
	C18.516111,113.074608 18.940565,104.171448 19.606810,94.927948 
z"/>
<path fill="#9B4EF1" opacity="1.000000" stroke="none" 
	d="
M29.012423,156.987534 
	C29.980558,157.077286 31.745241,157.011642 31.797602,157.280045 
	C32.610233,161.445557 35.693066,161.096954 38.719616,161.015182 
	C42.365868,160.916687 45.878338,164.489075 49.821205,161.209686 
	C50.382484,160.991669 50.761402,160.980942 51.419331,161.301544 
	C48.032742,165.046875 44.367142,168.460846 40.701546,171.874802 
	C39.507233,172.260071 38.312923,172.645325 37.325573,172.963806 
	C34.859016,169.270432 32.627861,165.929550 30.217255,161.943695 
	C29.502661,160.043579 28.967525,158.788452 28.577442,157.396912 
	C28.722492,157.260513 29.012423,156.987534 29.012423,156.987534 
M41.594479,163.518341 
	C41.594479,163.518341 41.475979,163.591217 41.594479,163.518341 
z"/>
<path fill="#EDF3F6" opacity="1.000000" stroke="none" 
	d="
M46.829765,45.555153 
	C46.043617,46.249489 45.257473,46.943825 44.209679,47.817062 
	C41.759697,45.262257 42.373428,43.324673 45.361534,41.554829 
	C47.578022,40.242012 49.464119,38.371384 51.497391,36.749229 
	C51.230495,36.445488 50.963600,36.141747 50.696705,35.838005 
	C54.859112,34.225044 59.021523,32.612087 63.589088,31.239786 
	C63.994251,31.480448 64.002693,31.968479 64.002693,31.968479 
	C63.856037,32.274597 63.642635,32.523491 62.881516,32.958641 
	C61.773521,33.751236 61.146515,34.300362 60.519508,34.849491 
	C60.519508,34.849491 60.228645,34.867928 59.811310,35.049446 
	C57.890640,36.445190 56.387306,37.659420 54.883976,38.873646 
	C54.883976,38.873646 54.860039,38.862343 54.545807,38.900661 
	C53.513672,39.344704 52.795765,39.750423 51.943691,39.972889 
	C51.544193,40.187233 51.278862,40.584831 50.884277,41.252090 
	C50.124840,42.278652 49.494667,43.035557 48.919891,43.828938 
	C48.975285,43.865414 48.853748,43.828671 48.592293,43.913193 
	C47.830482,44.516865 47.330124,45.036011 46.829765,45.555153 
z"/>
<path fill="#E7ECF3" opacity="1.000000" stroke="none" 
	d="
M73.345970,75.130112 
	C74.905830,74.057663 76.465691,72.985207 78.101227,71.548996 
	C78.176895,71.185249 78.093193,71.134193 78.424438,71.125603 
	C79.023605,70.779716 79.291534,70.442421 79.802078,70.159859 
	C80.416222,69.920052 80.787750,69.625504 81.449570,69.205406 
	C82.019119,68.771790 82.298378,68.463730 82.577637,68.155670 
	C83.797577,67.716141 85.017517,67.276611 86.565674,66.798599 
	C86.808281,67.561859 87.034294,68.685936 86.589401,69.116028 
	C81.549843,73.987976 76.433136,78.781906 71.237526,83.486778 
	C70.876488,83.813713 69.724724,83.267441 68.614655,83.092842 
	C69.321762,81.473404 70.354889,79.888367 71.473618,78.005653 
	C71.559212,77.707985 71.543678,77.544960 71.833618,77.483643 
	C72.531029,76.658257 72.938499,75.894180 73.345970,75.130112 
z"/>
<path fill="#F2F1F7" opacity="1.000000" stroke="none" 
	d="
M34.827282,59.567154 
	C34.474163,60.366940 34.231953,60.841137 33.973209,61.604759 
	C31.855579,64.871330 29.754478,67.848473 27.323399,70.922760 
	C27.271400,68.925903 27.012081,66.548813 27.936014,64.795128 
	C30.045700,60.790802 32.637909,57.022316 35.281075,53.335060 
	C35.735355,52.701324 37.408222,52.941113 38.799316,52.908302 
	C37.699696,55.106667 36.318943,57.174114 34.827282,59.567154 
z"/>
<path fill="#F8F6F6" opacity="1.000000" stroke="none" 
	d="
M41.085152,171.960297 
	C44.367142,168.460846 48.032742,165.046875 51.703606,161.295898 
	C52.895828,159.946274 54.082783,158.933670 55.596153,157.828949 
	C55.944172,161.894150 53.311962,164.241119 50.519241,166.924088 
	C47.829533,169.508072 46.182278,173.177170 43.993633,176.495956 
	C43.190868,175.081070 42.329815,173.563431 41.085152,171.960297 
z"/>
<path fill="#7A3CF9" opacity="1.000000" stroke="none" 
	d="
M57.774578,143.149780 
	C59.995064,143.446533 61.978390,144.012329 64.000832,144.264877 
	C64.627220,144.343079 65.359924,143.569885 66.103607,142.813217 
	C68.450684,146.516617 65.166550,148.001221 62.361099,149.950272 
	C60.527733,147.786804 59.040115,145.542435 57.774578,143.149780 
z"/>
<path fill="#9B4EF1" opacity="1.000000" stroke="none" 
	d="
M23.102827,146.354126 
	C25.420990,147.811066 27.739216,149.632126 30.594893,151.875366 
	C30.296595,152.696228 29.652632,154.468307 29.010546,156.613953 
	C29.012423,156.987534 28.722492,157.260513 28.437876,157.253296 
	C27.994535,157.024139 27.791323,156.855942 27.543621,156.741486 
	C26.063377,153.400391 24.583134,150.059311 23.102827,146.354126 
z"/>
<path fill="#5299E6" opacity="1.000000" stroke="none" 
	d="
M123.010101,58.972286 
	C125.116928,59.081852 127.223755,59.191418 129.818451,59.461742 
	C132.346619,60.447563 134.386902,61.272625 137.295425,62.448795 
	C137.273987,62.393074 137.734390,63.589874 138.142670,64.844162 
	C138.090546,64.901642 137.986786,65.017059 137.986786,65.017059 
	C132.531219,63.346855 127.075661,61.676655 121.274948,59.641151 
	C120.929802,59.275848 120.988594,58.901100 121.324463,58.935097 
	C122.110252,58.970158 122.560181,58.971222 123.010101,58.972286 
z"/>
<path fill="#F6F6F5" opacity="1.000000" stroke="none" 
	d="
M154.096619,166.897690 
	C151.942368,165.373184 149.974747,163.556580 147.870667,161.431305 
	C150.447388,161.613358 153.160583,162.104065 155.873779,162.594788 
	C155.343597,163.931717 154.813416,165.268646 154.096619,166.897690 
z"/>
<path fill="#E6F2F7" opacity="1.000000" stroke="none" 
	d="
M64.341064,31.888485 
	C64.002693,31.968479 63.994251,31.480448 63.991310,31.236322 
	C64.081268,30.352619 64.030457,29.223299 64.288795,29.147484 
	C67.741615,28.134232 71.237648,27.268288 74.851036,26.645103 
	C74.514450,27.250443 74.049767,27.576376 73.290115,27.989140 
	C70.223244,29.320141 67.451340,30.564318 64.341064,31.888485 
z"/>
<path fill="#5299E6" opacity="1.000000" stroke="none" 
	d="
M148.285980,65.322327 
	C145.099106,70.284126 141.805801,67.095284 138.259720,65.233376 
	C137.986786,65.017059 138.090546,64.901642 138.527649,64.896431 
	C141.950912,64.902489 144.937088,64.913757 148.014969,65.023407 
	C148.106689,65.121780 148.285980,65.322327 148.285980,65.322327 
z"/>
<path fill="#F7EEF4" opacity="1.000000" stroke="none" 
	d="
M27.199242,156.938248 
	C27.791323,156.855942 27.994535,157.024139 28.292824,157.389709 
	C28.967525,158.788452 29.502661,160.043579 30.040403,161.645996 
	C29.429073,162.518112 28.815138,163.042969 27.192226,164.430405 
	C27.055117,161.465424 26.954988,159.300217 27.199242,156.938248 
z"/>
<path fill="#3291FB" opacity="1.000000" stroke="none" 
	d="
M113.136368,19.486609 
	C111.908592,19.900324 110.402786,19.954838 108.052795,20.014763 
	C105.137749,20.344227 103.066895,20.668278 100.978760,20.689894 
	C100.940346,20.186623 100.919189,19.985783 100.898026,19.784943 
	C104.884796,19.565763 108.871567,19.346584 113.136368,19.486609 
z"/>
<path fill="#4076FB" opacity="1.000000" stroke="none" 
	d="
M104.982933,58.965607 
	C106.078529,58.643707 107.174126,58.321804 108.634552,57.997337 
	C111.697784,57.999294 114.396187,58.003822 117.541656,58.212513 
	C117.988739,58.416676 117.971603,58.818928 117.522583,58.850864 
	C114.636719,58.965939 112.199867,59.049076 109.763023,59.132210 
	C109.487228,59.297729 109.188866,59.369698 108.216133,59.203270 
	C106.703873,59.027493 105.843399,58.996552 104.982933,58.965607 
z"/>
<path fill="#5299E6" opacity="1.000000" stroke="none" 
	d="
M148.055908,63.097939 
	C149.220398,62.443413 150.384888,61.788883 151.889999,61.189728 
	C151.113846,62.518131 149.997055,63.791161 148.583130,65.193260 
	C148.285980,65.322327 148.106689,65.121780 148.054413,64.720474 
	C148.020065,63.912086 148.037979,63.505013 148.055908,63.097939 
z"/>
<path fill="#5299E6" opacity="1.000000" stroke="none" 
	d="
M110.142342,59.289631 
	C112.199867,59.049076 114.636719,58.965939 117.557236,58.975487 
	C118.040901,59.068176 118.061180,59.322807 118.061180,59.322807 
	C115.548004,59.364220 113.034836,59.405636 110.142342,59.289631 
z"/>
<path fill="#5299E6" opacity="1.000000" stroke="none" 
	d="
M104.618095,58.988148 
	C105.843399,58.996552 106.703873,59.027493 107.992599,59.137413 
	C106.486862,59.641373 104.552856,60.066357 102.256538,60.417572 
	C101.922440,60.056065 101.962982,59.770073 102.040665,59.271004 
	C102.794739,59.041008 103.523994,59.025848 104.618095,58.988148 
z"/>
<path fill="#5299E6" opacity="1.000000" stroke="none" 
	d="
M153.495392,60.124947 
	C153.927353,59.162048 154.676880,58.132423 155.786835,57.125847 
	C155.369141,58.118671 154.591034,59.088444 153.495392,60.124947 
z"/>
<path fill="#3888FA" opacity="1.000000" stroke="none" 
	d="
M100.488647,19.753565 
	C100.919189,19.985783 100.940346,20.186623 100.580086,20.692696 
	C99.135750,21.009958 98.072830,21.021988 97.009903,21.034018 
	C96.455902,21.003134 95.901894,20.972248 94.929596,20.905857 
	C96.367287,20.487631 98.223274,20.104908 100.488647,19.753565 
z"/>
<path fill="#29B3F9" opacity="1.000000" stroke="none" 
	d="
M171.291534,41.794083 
	C170.746719,40.863335 170.429794,39.696445 170.148727,38.161102 
	C170.629547,39.047745 171.074493,40.302841 171.291534,41.794083 
z"/>
<path fill="#3B81FD" opacity="1.000000" stroke="none" 
	d="
M118.395287,59.465271 
	C118.061180,59.322807 118.040901,59.068176 118.006256,58.943550 
	C117.971603,58.818928 117.988739,58.416676 117.991241,58.215561 
	C118.162468,58.010311 118.331200,58.006176 118.753098,57.996395 
	C119.448502,57.992722 119.890717,57.994698 120.664452,58.223034 
	C120.995964,58.449394 120.988594,58.901100 120.988594,58.901100 
	C120.988594,58.901100 120.929802,59.275848 120.911430,59.464104 
	C120.171837,59.637486 119.450615,59.622608 118.395287,59.465271 
z"/>
<path fill="#5299E6" opacity="1.000000" stroke="none" 
	d="
M159.054504,53.335690 
	C159.422165,53.015255 159.821289,53.000134 160.519379,52.977753 
	C160.474564,53.359497 160.130768,53.748497 159.519531,54.184731 
	C159.196701,54.034977 159.141327,53.837994 159.054504,53.335690 
z"/>
<path fill="#5299E6" opacity="1.000000" stroke="none" 
	d="
M156.387939,57.145462 
	C156.464355,56.770832 156.829391,56.387932 157.474548,55.969940 
	C157.395309,56.335636 157.035934,56.736412 156.387939,57.145462 
z"/>
<path fill="#5299E6" opacity="1.000000" stroke="none" 
	d="
M158.414673,55.273228 
	C158.312103,55.043541 158.471527,54.687943 158.921356,54.244263 
	C159.033401,54.486561 158.855042,54.816940 158.414673,55.273228 
z"/>
<path fill="#29B3F9" opacity="1.000000" stroke="none" 
	d="
M169.391571,44.343647 
	C169.285400,44.119759 169.449631,43.737961 169.908157,43.230804 
	C170.022293,43.465538 169.842133,43.825642 169.391571,44.343647 
z"/>
<path fill="#29B3F9" opacity="1.000000" stroke="none" 
	d="
M170.414032,43.130383 
	C170.291031,42.897911 170.434479,42.586212 170.817993,42.164078 
	C170.932205,42.386150 170.806335,42.718651 170.414032,43.130383 
z"/>
<path fill="#29B3F9" opacity="1.000000" stroke="none" 
	d="
M170.121033,37.608547 
	C169.867462,37.675045 169.553497,37.452763 169.173172,36.938271 
	C169.424759,36.870628 169.742722,37.095196 170.121033,37.608547 
z"/>
<path fill="#5299E6" opacity="1.000000" stroke="none" 
	d="
M99.285545,61.032745 
	C99.275955,60.856529 99.519722,60.693005 99.875305,60.668640 
	C99.837715,60.887009 99.688301,60.966225 99.285545,61.032745 
z"/>
<path fill="#5299E6" opacity="1.000000" stroke="none" 
	d="
M152.451447,61.148750 
	C152.343536,60.908455 152.500046,60.595291 152.919189,60.202522 
	C153.026505,60.440575 152.871201,60.758228 152.451447,61.148750 
z"/>
<path fill="#2E9AFD" opacity="1.000000" stroke="none" 
	d="
M97.018768,21.419392 
	C98.072830,21.021988 99.135750,21.009958 100.597351,20.995129 
	C103.066895,20.668278 105.137749,20.344227 107.603638,20.022053 
	C116.632004,28.482168 125.288269,36.917194 133.887817,45.409649 
	C137.522766,48.999325 141.209290,52.563194 144.529419,56.433041 
	C145.987946,58.133053 144.692093,61.607155 148.002533,62.782825 
	C148.037979,63.505013 148.020065,63.912086 147.962708,64.622093 
	C144.937088,64.913757 141.950912,64.902489 138.579773,64.838943 
	C137.734390,63.589874 137.273987,62.393074 137.295425,62.448795 
	C134.386902,61.272625 132.346619,60.447563 130.151642,59.313484 
	C132.632751,57.127956 132.056839,55.550938 129.933411,53.486347 
	C122.321533,46.085430 114.980400,38.404991 107.329613,31.045736 
	C104.425117,28.251913 100.936310,26.070236 97.775398,23.532845 
	C97.342621,23.185434 97.268044,22.391800 97.018768,21.419392 
M135.586563,58.516899 
	C135.586563,58.516899 135.476822,58.582016 135.586563,58.516899 
z"/>
<path fill="#3888FA" opacity="1.000000" stroke="none" 
	d="
M121.324463,58.935097 
	C120.988594,58.901100 120.995964,58.449394 120.996185,58.223488 
	C121.644180,58.129631 122.291946,58.261688 122.974915,58.683014 
	C122.560181,58.971222 122.110252,58.970158 121.324463,58.935097 
z"/>
<path fill="#7A3CF9" opacity="1.000000" stroke="none" 
	d="
M50.044731,137.367340 
	C52.399296,137.336716 54.789944,137.740326 57.196800,137.983536 
	C59.161438,138.182068 60.775211,138.385818 58.306744,140.837860 
	C55.361633,139.910156 52.724728,138.821198 50.044731,137.367340 
z"/>
<path fill="#9042FB" opacity="1.000000" stroke="none" 
	d="
M22.180283,131.082428 
	C22.666933,130.753204 23.078817,130.694504 23.490704,130.635803 
	C23.297640,131.167603 23.104574,131.699402 22.911507,132.231201 
	C22.642843,131.938461 22.374182,131.645706 22.180283,131.082428 
z"/>
<path fill="#556BE9" opacity="1.000000" stroke="none" 
	d="
M60.931412,34.895744 
	C61.146515,34.300362 61.773521,33.751236 62.706085,33.134453 
	C63.008644,33.498276 63.005650,33.929756 62.998672,34.685097 
	C62.444229,34.986637 61.893776,34.964317 60.931412,34.895744 
z"/>
<path fill="#4860FD" opacity="1.000000" stroke="none" 
	d="
M81.159271,69.330956 
	C80.787750,69.625504 80.416222,69.920052 79.485825,70.218773 
	C78.649033,70.526695 78.371117,70.830444 78.093193,71.134193 
	C78.093193,71.134193 78.176895,71.185249 78.184753,71.233353 
	C75.268044,69.493378 72.030746,68.062599 69.488655,65.837563 
	C65.145973,62.036503 61.125172,57.842709 57.204845,53.596291 
	C55.616066,51.875351 54.645378,49.583782 53.158661,46.925049 
	C53.611969,44.203007 54.300056,42.107784 54.988144,40.012562 
	C55.932560,41.379333 56.725052,42.891956 57.860802,44.075058 
	C59.206783,45.477161 61.011173,46.443668 62.334316,47.862484 
	C68.429146,54.398045 74.425552,61.025398 80.758972,68.148834 
	C81.093559,68.895554 81.126419,69.113251 81.159271,69.330956 
z"/>
<path fill="#556BE9" opacity="1.000000" stroke="none" 
	d="
M54.970802,39.717888 
	C54.300056,42.107784 53.611969,44.203007 52.955986,46.639763 
	C50.984020,46.752972 48.979950,46.524647 46.902824,45.925739 
	C47.330124,45.036011 47.830482,44.516865 48.644733,44.174370 
	C49.061550,44.616539 49.164474,44.882050 49.267395,45.147560 
	C49.409874,45.012123 49.689026,44.775978 49.674492,44.756252 
	C49.426056,44.419102 49.141277,44.108727 48.864494,43.792461 
	C49.494667,43.035557 50.124840,42.278652 51.114815,41.193138 
	C51.779854,40.717106 51.980934,40.480980 52.077858,40.156147 
	C52.795765,39.750423 53.513672,39.344704 54.536461,38.891289 
	C54.878723,39.036804 54.916096,39.230011 54.970802,39.717888 
z"/>
<path fill="#556BE9" opacity="1.000000" stroke="none" 
	d="
M55.243061,38.887089 
	C56.387306,37.659420 57.890640,36.445190 59.715343,35.159115 
	C58.558525,36.358353 57.080338,37.629444 55.243061,38.887089 
z"/>
<path fill="#4D57FB" opacity="1.000000" stroke="none" 
	d="
M81.449570,69.205406 
	C81.126419,69.113251 81.093559,68.895554 81.029663,68.349327 
	C81.261719,68.038979 81.524803,68.057159 82.182770,68.115509 
	C82.298378,68.463730 82.019119,68.771790 81.449570,69.205406 
z"/>
<path fill="#6F35FE" opacity="1.000000" stroke="none" 
	d="
M23.998005,93.437675 
	C25.676504,93.861427 27.571203,94.457764 28.991035,95.629517 
	C32.299946,98.360229 35.420223,101.325981 38.530056,104.287712 
	C39.518024,105.228645 40.231304,106.457901 41.070950,107.554710 
	C41.848297,108.570122 42.481995,110.288406 43.428417,110.482834 
	C48.604568,111.546211 49.583984,115.629150 51.221924,119.695480 
	C52.163914,122.034050 54.696896,123.735245 56.527107,125.710938 
	C57.327778,126.575256 58.162010,127.408478 58.988792,128.628265 
	C57.487900,128.979736 55.412910,129.591339 54.565029,128.832275 
	C50.021900,124.764954 45.875057,120.259048 41.412777,116.096024 
	C37.912273,112.830284 34.225433,109.751442 30.488157,106.755760 
	C26.322258,103.416504 22.688984,99.919334 23.998005,93.437675 
z"/>
<path fill="#6935FC" opacity="1.000000" stroke="none" 
	d="
M20.204151,96.900352 
	C20.048527,96.980339 20.047132,96.514702 20.072300,96.283951 
	C20.247833,96.212570 20.413395,96.361526 20.535868,96.540039 
	C20.560675,96.576195 20.422703,96.724022 20.204151,96.900352 
z"/>
<path fill="#534DFA" opacity="1.000000" stroke="none" 
	d="
M72.965408,75.131241 
	C72.938499,75.894180 72.531029,76.658257 71.793015,77.412529 
	C71.836609,76.645943 72.210732,75.889160 72.965408,75.131241 
z"/>
<path fill="#9042FB" opacity="1.000000" stroke="none" 
	d="
M41.535229,163.554779 
	C41.475979,163.591217 41.594479,163.518341 41.535229,163.554779 
z"/>
<path fill="#FEFEFE" opacity="1.000000" stroke="none" 
	d="
M51.943691,39.972889 
	C51.980934,40.480980 51.779854,40.717106 51.244076,40.923477 
	C51.278862,40.584831 51.544193,40.187233 51.943691,39.972889 
z"/>
<path fill="#4D57FB" opacity="1.000000" stroke="none" 
	d="
M78.424438,71.125603 
	C78.371117,70.830444 78.649033,70.526695 79.243210,70.164032 
	C79.291534,70.442421 79.023605,70.779716 78.424438,71.125603 
z"/>
<path fill="#3291FB" opacity="1.000000" stroke="none" 
	d="
M135.531693,58.549458 
	C135.476822,58.582016 135.586563,58.516899 135.531693,58.549458 
z"/>
<path fill="#4860FD" opacity="1.000000" stroke="none" 
	d="
M48.919891,43.828938 
	C49.141277,44.108727 49.426056,44.419102 49.674492,44.756252 
	C49.689026,44.775978 49.409874,45.012123 49.267395,45.147560 
	C49.164474,44.882050 49.061550,44.616539 48.906189,44.089851 
	C48.853748,43.828671 48.975285,43.865414 48.919891,43.828938 
z"/>
</svg>