<?xml version="1.0" encoding="UTF-8"?>
<!DOCTYPE svg PUBLIC "-//W3C//DTD SVG 1.1//EN" "http://www.w3.org/Graphics/SVG/1.1/DTD/svg11.dtd">
<svg xmlns="http://www.w3.org/2000/svg" version="1.1" width="1119px" height="847px" style="shape-rendering:geometricPrecision; text-rendering:geometricPrecision; image-rendering:optimizeQuality; fill-rule:evenodd; clip-rule:evenodd" xmlns:xlink="http://www.w3.org/1999/xlink">
<g><path style="opacity:1" fill="#fefffe" d="M -0.5,-0.5 C 372.5,-0.5 745.5,-0.5 1118.5,-0.5C 1118.5,2.16667 1118.5,4.83333 1118.5,7.5C 745.5,7.5 372.5,7.5 -0.5,7.5C -0.5,4.83333 -0.5,2.16667 -0.5,-0.5 Z"/></g>
<g><path style="opacity:1" fill="#fefefe" d="M -0.5,7.5 C 372.5,7.5 745.5,7.5 1118.5,7.5C 1118.5,287.167 1118.5,566.833 1118.5,846.5C 745.5,846.5 372.5,846.5 -0.5,846.5C -0.5,667.5 -0.5,488.5 -0.5,309.5C 142.833,309.5 286.167,309.5 429.5,309.5C 429.5,301.167 429.5,292.833 429.5,284.5C 439.167,284.5 448.833,284.5 458.5,284.5C 458.833,192.665 458.499,100.998 457.5,9.5C 311.833,9.5 166.167,9.5 20.5,9.5C 19.5064,18.6517 19.1731,27.985 19.5,37.5C 12.8333,37.5 6.16667,37.5 -0.5,37.5C -0.5,27.5 -0.5,17.5 -0.5,7.5 Z"/></g>
<g><path style="opacity:1" fill="#eeeeef" d="M 20.5,9.5 C 20.5,100.833 20.5,192.167 20.5,283.5C 166.167,283.5 311.833,283.5 457.5,283.5C 457.5,192.167 457.5,100.833 457.5,9.5C 458.499,100.998 458.833,192.665 458.5,284.5C 448.833,284.5 439.167,284.5 429.5,284.5C 429.5,292.833 429.5,301.167 429.5,309.5C 286.167,309.5 142.833,309.5 -0.5,309.5C -0.5,218.833 -0.5,128.167 -0.5,37.5C 6.16667,37.5 12.8333,37.5 19.5,37.5C 19.1731,27.985 19.5064,18.6517 20.5,9.5 Z"/></g>
<g><path style="opacity:1" fill="#403e57" d="M 20.5,9.5 C 166.167,9.5 311.833,9.5 457.5,9.5C 457.5,100.833 457.5,192.167 457.5,283.5C 311.833,283.5 166.167,283.5 20.5,283.5C 20.5,192.167 20.5,100.833 20.5,9.5 Z"/></g>
<g><path style="opacity:1" fill="#fdfdfd" d="M 22.5,11.5 C 167.167,11.5 311.833,11.5 456.5,11.5C 456.5,101.5 456.5,191.5 456.5,281.5C 447.5,281.5 438.5,281.5 429.5,281.5C 429.5,200.167 429.5,118.833 429.5,37.5C 293.833,37.5 158.167,37.5 22.5,37.5C 22.5,28.8333 22.5,20.1667 22.5,11.5 Z"/></g>
<g><path style="opacity:1" fill="#f1f1f1" d="M 22.5,11.5 C 22.5,20.1667 22.5,28.8333 22.5,37.5C 158.167,37.5 293.833,37.5 429.5,37.5C 429.5,118.833 429.5,200.167 429.5,281.5C 293.5,281.5 157.5,281.5 21.5,281.5C 21.1673,191.332 21.5006,101.332 22.5,11.5 Z"/></g>
<g><path style="opacity:1" fill="#55198b" d="M 239.5,52.5 C 239.5,83.8333 239.5,115.167 239.5,146.5C 224.52,172.45 210.02,198.783 196,225.5C 195.292,226.381 194.458,227.047 193.5,227.5C 165.66,211.193 149.826,186.86 146,154.5C 144.586,107.608 165.419,75.1076 208.5,57C 213.476,55.56 218.476,54.2266 223.5,53C 228.823,52.5006 234.156,52.334 239.5,52.5 Z"/></g>
<g><path style="opacity:1" fill="#3f3d56" d="M 239.5,52.5 C 291.225,55.7228 322.392,82.7228 333,133.5C 336.012,164.305 326.846,190.639 305.5,212.5C 283.833,190.167 261.833,168.167 239.5,146.5C 239.5,115.167 239.5,83.8333 239.5,52.5 Z"/></g>
<g><path style="opacity:1" fill="#302f42" d="M 931.5,160.5 C 931.768,157.881 931.435,155.381 930.5,153C 929.271,152.219 927.938,151.719 926.5,151.5C 917.136,155.982 912.636,152.982 913,142.5C 909.545,139.721 906.879,136.388 905,132.5C 904.253,129.147 904.753,125.98 906.5,123C 905.66,121.233 904.327,119.899 902.5,119C 894.594,118.291 886.761,118.791 879,120.5C 876.498,120.662 874.331,119.995 872.5,118.5C 867.285,114.401 864.451,109.068 864,102.5C 876.22,88.4207 891.72,82.5873 910.5,85C 924.79,86.6241 935.29,93.7908 942,106.5C 945.172,116.366 945.838,126.366 944,136.5C 941.268,143.363 938.934,150.363 937,157.5C 935.736,159.607 933.903,160.607 931.5,160.5 Z"/></g>
<g><path style="opacity:1" fill="#feb8b8" d="M 872.5,118.5 C 874.331,119.995 876.498,120.662 879,120.5C 886.761,118.791 894.594,118.291 902.5,119C 904.327,119.899 905.66,121.233 906.5,123C 904.753,125.98 904.253,129.147 905,132.5C 906.879,136.388 909.545,139.721 913,142.5C 912.636,152.982 917.136,155.982 926.5,151.5C 927.938,151.719 929.271,152.219 930.5,153C 931.435,155.381 931.768,157.881 931.5,160.5C 927.335,164.17 925.335,168.837 925.5,174.5C 924.71,173.391 924.21,172.058 924,170.5C 912.602,181.041 899.436,184.041 884.5,179.5C 872.229,173.666 864.729,163.999 862,150.5C 861.249,145.428 861.582,140.428 863,135.5C 865.188,129.18 868.355,123.514 872.5,118.5 Z"/></g>
<g><path style="opacity:1" fill="#585a89" d="M 239.5,146.5 C 261.833,168.167 283.833,190.167 305.5,212.5C 282.631,234.399 255.297,243.232 223.5,239C 212.633,237.214 202.633,233.381 193.5,227.5C 194.458,227.047 195.292,226.381 196,225.5C 210.02,198.783 224.52,172.45 239.5,146.5 Z"/></g>
<g><path style="opacity:1" fill="#e4a6a6" d="M 925.5,174.5 C 925.629,176.216 925.962,177.883 926.5,179.5C 926.449,189.927 925.783,200.26 924.5,210.5C 904.856,224.692 890.523,220.692 881.5,198.5C 881.5,194.5 881.5,190.5 881.5,186.5C 882.736,184.351 883.736,182.018 884.5,179.5C 899.436,184.041 912.602,181.041 924,170.5C 924.21,172.058 924.71,173.391 925.5,174.5 Z"/></g>
<g><path style="opacity:1" fill="#575a89" d="M 881.5,186.5 C 881.5,190.5 881.5,194.5 881.5,198.5C 874.91,220.52 869.077,242.853 864,265.5C 856.568,282.033 848.402,298.033 839.5,313.5C 835.485,317.356 831.985,321.689 829,326.5C 819.221,333.706 813.221,343.373 811,355.5C 808.68,367.39 807.347,379.39 807,391.5C 800.095,410.303 792.928,428.97 785.5,447.5C 782.387,454.878 778.72,461.878 774.5,468.5C 774.5,437.5 774.5,406.5 774.5,375.5C 776.531,368.905 778.697,362.238 781,355.5C 785.471,348.043 789.471,340.376 793,332.5C 800.559,302.29 803.725,271.623 802.5,240.5C 792.625,239.652 783.292,236.985 774.5,232.5C 774.5,228.167 774.5,223.833 774.5,219.5C 760.5,219.5 746.5,219.5 732.5,219.5C 739.426,203.222 734.759,192.222 718.5,186.5C 729.876,186.181 741.043,184.514 752,181.5C 761.912,183.416 771.912,184.416 782,184.5C 788.306,184.708 794.472,184.041 800.5,182.5C 803.473,183.068 806.307,184.068 809,185.5C 815.637,183.732 822.137,181.566 828.5,179C 836.805,177.273 845.138,177.273 853.5,179C 862.744,181.803 872.077,184.303 881.5,186.5 Z"/></g>
<g><path style="opacity:1" fill="#575a89" d="M 926.5,179.5 C 938.709,181.215 950.709,184.048 962.5,188C 966.833,190.333 971.167,192.667 975.5,195C 983.482,197.216 991.149,200.216 998.5,204C 1007.94,221.053 1015.61,238.886 1021.5,257.5C 1021.31,259.577 1020.81,261.577 1020,263.5C 1016.53,267.11 1014.7,271.443 1014.5,276.5C 1019.45,285.407 1023.62,294.741 1027,304.5C 1027.67,306.167 1027.67,307.833 1027,309.5C 1024.59,314.572 1023.09,319.905 1022.5,325.5C 1024.48,329.011 1026.31,332.678 1028,336.5C 1028.83,343.234 1028.5,349.901 1027,356.5C 1021.67,366.5 1016.33,376.5 1011,386.5C 1010.56,384.134 1010.06,381.801 1009.5,379.5C 1005.13,365.993 996.127,361.493 982.5,366C 979.547,375.421 976.714,384.921 974,394.5C 970.601,397.729 967.435,401.062 964.5,404.5C 963.657,398.957 961.657,393.957 958.5,389.5C 953.293,373.084 945.459,358.084 935,344.5C 926.753,316.797 922.753,288.463 923,259.5C 922.378,243.132 922.878,226.799 924.5,210.5C 925.783,200.26 926.449,189.927 926.5,179.5 Z"/></g>
<g><path style="opacity:1" fill="#f5b7b8" d="M 718.5,186.5 C 734.759,192.222 739.426,203.222 732.5,219.5C 732.167,220.167 731.833,220.833 731.5,221.5C 730.89,222.391 730.557,223.391 730.5,224.5C 725.521,231.988 718.521,235.154 709.5,234C 704.957,231.09 702.29,226.924 701.5,221.5C 701.672,220.508 701.338,219.842 700.5,219.5C 641.833,219.5 583.167,219.5 524.5,219.5C 582.998,218.501 641.664,218.168 700.5,218.5C 699.031,210.763 699.197,203.096 701,195.5C 705.872,190.423 711.705,187.423 718.5,186.5 Z"/></g>
<g><path style="opacity:1" fill="#55198a" d="M 881.5,198.5 C 890.523,220.692 904.856,224.692 924.5,210.5C 922.878,226.799 922.378,243.132 923,259.5C 922.753,288.463 926.753,316.797 935,344.5C 945.459,358.084 953.293,373.084 958.5,389.5C 955.225,395.548 950.891,400.715 945.5,405C 927.839,404.706 910.173,404.706 892.5,405C 882.563,407.805 872.563,410.305 862.5,412.5C 858.154,412.666 853.821,412.499 849.5,412C 846.694,410.695 845.86,408.528 847,405.5C 851.966,394.58 852.966,383.247 850,371.5C 846.081,352.232 842.581,332.899 839.5,313.5C 848.402,298.033 856.568,282.033 864,265.5C 869.077,242.853 874.91,220.52 881.5,198.5 Z"/></g>
<g><path style="opacity:1" fill="#47455d" d="M 524.5,219.5 C 583.167,219.5 641.833,219.5 700.5,219.5C 642.5,220.167 584.5,220.833 526.5,221.5C 526.5,229.833 526.5,238.167 526.5,246.5C 526.5,328.167 526.5,409.833 526.5,491.5C 608.668,491.833 690.668,491.499 772.5,490.5C 772.5,484.5 772.5,478.5 772.5,472.5C 772.5,444.167 772.5,415.833 772.5,387.5C 772.5,335.5 772.5,283.5 772.5,231.5C 772.5,228.167 772.5,224.833 772.5,221.5C 758.833,221.5 745.167,221.5 731.5,221.5C 731.833,220.833 732.167,220.167 732.5,219.5C 746.5,219.5 760.5,219.5 774.5,219.5C 774.5,223.833 774.5,228.167 774.5,232.5C 774.5,280.167 774.5,327.833 774.5,375.5C 774.5,406.5 774.5,437.5 774.5,468.5C 774.5,476.833 774.5,485.167 774.5,493.5C 765.833,493.5 757.167,493.5 748.5,493.5C 673.833,493.5 599.167,493.5 524.5,493.5C 524.5,411.167 524.5,328.833 524.5,246.5C 524.5,237.5 524.5,228.5 524.5,219.5 Z"/></g>
<g><path style="opacity:1" fill="#9594a2" d="M 700.5,219.5 C 701.338,219.842 701.672,220.508 701.5,221.5C 643.167,221.5 584.833,221.5 526.5,221.5C 584.5,220.833 642.5,220.167 700.5,219.5 Z"/></g>
<g><path style="opacity:1" fill="#fefefe" d="M 526.5,221.5 C 584.833,221.5 643.167,221.5 701.5,221.5C 702.29,226.924 704.957,231.09 709.5,234C 718.521,235.154 725.521,231.988 730.5,224.5C 731.429,225.315 732.429,226.148 733.5,227C 738.167,227.333 742.833,227.667 747.5,228C 752.211,232.38 757.211,236.38 762.5,240C 764.833,240.667 767.167,240.667 769.5,240C 770.437,237.051 771.437,234.217 772.5,231.5C 772.5,283.5 772.5,335.5 772.5,387.5C 765.58,415.308 763.08,443.641 765,472.5C 767.434,474.989 769.934,474.989 772.5,472.5C 772.5,478.5 772.5,484.5 772.5,490.5C 764.5,490.5 756.5,490.5 748.5,490.5C 748.5,487.833 748.5,485.167 748.5,482.5C 748.5,481.5 748.5,480.5 748.5,479.5C 748.5,478.167 748.5,476.833 748.5,475.5C 748.5,474.833 748.5,474.167 748.5,473.5C 748.5,472.167 748.5,470.833 748.5,469.5C 748.5,468.833 748.5,468.167 748.5,467.5C 747.924,459.889 748.59,452.556 750.5,445.5C 750.5,445.167 750.5,444.833 750.5,444.5C 748.509,378.714 747.842,312.714 748.5,246.5C 682.5,246.5 616.5,246.5 550.5,246.5C 549.833,234.5 549.167,234.5 548.5,246.5C 541.167,246.5 533.833,246.5 526.5,246.5C 526.5,238.167 526.5,229.833 526.5,221.5 Z"/></g>
<g><path style="opacity:1" fill="#595c8a" d="M 731.5,221.5 C 745.167,221.5 758.833,221.5 772.5,221.5C 772.5,224.833 772.5,228.167 772.5,231.5C 771.437,234.217 770.437,237.051 769.5,240C 767.167,240.667 764.833,240.667 762.5,240C 757.211,236.38 752.211,232.38 747.5,228C 742.833,227.667 738.167,227.333 733.5,227C 732.429,226.148 731.429,225.315 730.5,224.5C 730.557,223.391 730.89,222.391 731.5,221.5 Z"/></g>
<g><path style="opacity:1" fill="#591f8d" d="M 37.5,226.5 C 43.5,226.5 49.5,226.5 55.5,226.5C 55.5,232.5 55.5,238.5 55.5,244.5C 49.5,244.5 43.5,244.5 37.5,244.5C 37.5,238.5 37.5,232.5 37.5,226.5 Z"/></g>
<g><path style="opacity:1" fill="#434159" d="M 63.5,226.5 C 69.5,226.5 75.5,226.5 81.5,226.5C 81.5,232.5 81.5,238.5 81.5,244.5C 75.5,244.5 69.5,244.5 63.5,244.5C 63.5,238.5 63.5,232.5 63.5,226.5 Z"/></g>
<g><path style="opacity:1" fill="#5a5d8b" d="M 89.5,226.5 C 95.5,226.5 101.5,226.5 107.5,226.5C 107.5,232.5 107.5,238.5 107.5,244.5C 101.5,244.5 95.5,244.5 89.5,244.5C 89.5,238.5 89.5,232.5 89.5,226.5 Z"/></g>
<g><path style="opacity:1" fill="#525066" d="M 348.5,230.5 C 373.167,230.5 397.833,230.5 422.5,230.5C 422.5,231.5 422.5,232.5 422.5,233.5C 397.833,233.5 373.167,233.5 348.5,233.5C 348.5,232.5 348.5,231.5 348.5,230.5 Z"/></g>
<g><path style="opacity:1" fill="#fdfefe" d="M 774.5,232.5 C 783.292,236.985 792.625,239.652 802.5,240.5C 803.725,271.623 800.559,302.29 793,332.5C 789.471,340.376 785.471,348.043 781,355.5C 778.697,362.238 776.531,368.905 774.5,375.5C 774.5,327.833 774.5,280.167 774.5,232.5 Z"/></g>
<g><path style="opacity:1" fill="#3e3d56" d="M 550.5,246.5 C 550.5,312.167 550.5,377.833 550.5,443.5C 611.998,444.499 673.664,444.832 735.5,444.5C 740.5,444.5 745.5,444.5 750.5,444.5C 750.5,444.833 750.5,445.167 750.5,445.5C 683.167,445.5 615.833,445.5 548.5,445.5C 548.5,379.167 548.5,312.833 548.5,246.5C 549.167,234.5 549.833,234.5 550.5,246.5 Z"/></g>
<g><path style="opacity:1" fill="#525066" d="M 348.5,239.5 C 373.167,239.5 397.833,239.5 422.5,239.5C 422.5,240.5 422.5,241.5 422.5,242.5C 397.833,242.5 373.167,242.5 348.5,242.5C 348.5,241.5 348.5,240.5 348.5,239.5 Z"/></g>
<g><path style="opacity:1" fill="#f2f2f2" d="M 524.5,246.5 C 524.5,328.833 524.5,411.167 524.5,493.5C 599.167,493.5 673.833,493.5 748.5,493.5C 748.5,501.833 748.5,510.167 748.5,518.5C 665.833,518.5 583.167,518.5 500.5,518.5C 500.5,427.833 500.5,337.167 500.5,246.5C 508.5,246.5 516.5,246.5 524.5,246.5 Z"/></g>
<g><path style="opacity:1" fill="#eeeeef" d="M 526.5,246.5 C 533.833,246.5 541.167,246.5 548.5,246.5C 548.5,312.833 548.5,379.167 548.5,445.5C 615.833,445.5 683.167,445.5 750.5,445.5C 748.59,452.556 747.924,459.889 748.5,467.5C 679.167,468.167 679.167,468.833 748.5,469.5C 748.5,470.833 748.5,472.167 748.5,473.5C 679.167,474.167 679.167,474.833 748.5,475.5C 748.5,476.833 748.5,478.167 748.5,479.5C 731.167,479.5 713.833,479.5 696.5,479.5C 696.5,480.5 696.5,481.5 696.5,482.5C 713.833,482.5 731.167,482.5 748.5,482.5C 748.5,485.167 748.5,487.833 748.5,490.5C 756.5,490.5 764.5,490.5 772.5,490.5C 690.668,491.499 608.668,491.833 526.5,491.5C 526.5,409.833 526.5,328.167 526.5,246.5 Z"/></g>
<g><path style="opacity:1" fill="#f1f1f1" d="M 550.5,246.5 C 616.5,246.5 682.5,246.5 748.5,246.5C 747.842,312.714 748.509,378.714 750.5,444.5C 745.5,444.5 740.5,444.5 735.5,444.5C 735.5,444.167 735.5,443.833 735.5,443.5C 735.5,384.5 735.5,325.5 735.5,266.5C 720.5,266.5 705.5,266.5 690.5,266.5C 690.5,325.5 690.5,384.5 690.5,443.5C 683.833,443.5 677.167,443.5 670.5,443.5C 670.5,403.5 670.5,363.5 670.5,323.5C 655.5,323.5 640.5,323.5 625.5,323.5C 625.5,363.5 625.5,403.5 625.5,443.5C 618.833,443.5 612.167,443.5 605.5,443.5C 605.5,419.833 605.5,396.167 605.5,372.5C 590.5,372.5 575.5,372.5 560.5,372.5C 560.5,396.167 560.5,419.833 560.5,443.5C 557.167,443.5 553.833,443.5 550.5,443.5C 550.5,377.833 550.5,312.167 550.5,246.5 Z"/></g>
<g><path style="opacity:1" fill="#514f66" d="M 348.5,248.5 C 373.167,248.5 397.833,248.5 422.5,248.5C 422.5,249.5 422.5,250.5 422.5,251.5C 397.833,251.5 373.167,251.5 348.5,251.5C 348.5,250.5 348.5,249.5 348.5,248.5 Z"/></g>
<g><path style="opacity:1" fill="#54198b" d="M 735.5,443.5 C 720.5,443.5 705.5,443.5 690.5,443.5C 690.5,384.5 690.5,325.5 690.5,266.5C 705.5,266.5 720.5,266.5 735.5,266.5C 735.5,325.5 735.5,384.5 735.5,443.5 Z"/></g>
<g><path style="opacity:1" fill="#f7f8fa" d="M 966.5,299.5 C 967.79,300.058 968.623,301.058 969,302.5C 969.603,308.981 971.769,314.814 975.5,320C 973.656,322.561 973.156,325.394 974,328.5C 976.429,334.223 979.929,339.057 984.5,343C 983.454,346.051 981.621,348.551 979,350.5C 978.667,353.5 978.333,356.5 978,359.5C 975.054,350.942 971.054,342.942 966,335.5C 965.358,323.486 965.524,311.486 966.5,299.5 Z"/></g>
<g><path style="opacity:1" fill="#4e517b" d="M 839.5,313.5 C 842.581,332.899 846.081,352.232 850,371.5C 852.966,383.247 851.966,394.58 847,405.5C 845.86,408.528 846.694,410.695 849.5,412C 853.821,412.499 858.154,412.666 862.5,412.5C 861.432,413.434 860.099,413.768 858.5,413.5C 856.97,425.373 854.47,437.04 851,448.5C 850.832,455.163 850.999,461.829 851.5,468.5C 843.847,465.561 836.18,462.728 828.5,460C 812.451,461.243 798.118,457.076 785.5,447.5C 792.928,428.97 800.095,410.303 807,391.5C 807.347,379.39 808.68,367.39 811,355.5C 813.221,343.373 819.221,333.706 829,326.5C 831.985,321.689 835.485,317.356 839.5,313.5 Z"/></g>
<g><path style="opacity:1" fill="#3e3d56" d="M 670.5,443.5 C 655.5,443.5 640.5,443.5 625.5,443.5C 625.5,403.5 625.5,363.5 625.5,323.5C 640.5,323.5 655.5,323.5 670.5,323.5C 670.5,363.5 670.5,403.5 670.5,443.5 Z"/></g>
<g><path style="opacity:1" fill="#fcb7b8" d="M 1009.5,379.5 C 1003.77,387.954 998.767,396.954 994.5,406.5C 994.863,407.183 995.196,407.85 995.5,408.5C 994.504,408.414 993.671,408.748 993,409.5C 989.02,420.138 983.52,429.805 976.5,438.5C 973.379,440.448 970.379,442.615 967.5,445C 960.307,448.681 953.473,448.181 947,443.5C 943.601,436.855 944.268,430.521 949,424.5C 953.617,417.386 958.784,410.719 964.5,404.5C 967.435,401.062 970.601,397.729 974,394.5C 976.714,384.921 979.547,375.421 982.5,366C 996.127,361.493 1005.13,365.993 1009.5,379.5 Z"/></g>
<g><path style="opacity:1" fill="#585a89" d="M 625.5,443.5 C 640.5,443.5 655.5,443.5 670.5,443.5C 677.167,443.5 683.833,443.5 690.5,443.5C 705.5,443.5 720.5,443.5 735.5,443.5C 735.5,443.833 735.5,444.167 735.5,444.5C 673.664,444.832 611.998,444.499 550.5,443.5C 553.833,443.5 557.167,443.5 560.5,443.5C 560.5,419.833 560.5,396.167 560.5,372.5C 575.5,372.5 590.5,372.5 605.5,372.5C 605.5,396.167 605.5,419.833 605.5,443.5C 612.167,443.5 618.833,443.5 625.5,443.5 Z"/></g>
<g><path style="opacity:1" fill="#4d4b62" d="M 378.5,663.5 C 303.833,663.5 229.167,663.5 154.5,663.5C 154.5,581.167 154.5,498.833 154.5,416.5C 154.5,407.5 154.5,398.5 154.5,389.5C 237.833,389.5 321.167,389.5 404.5,389.5C 404.5,480.833 404.5,572.167 404.5,663.5C 395.833,663.5 387.167,663.5 378.5,663.5 Z"/></g>
<g><path style="opacity:1" fill="#2f2e41" d="M 958.5,389.5 C 961.657,393.957 963.657,398.957 964.5,404.5C 958.784,410.719 953.617,417.386 949,424.5C 944.268,430.521 943.601,436.855 947,443.5C 953.473,448.181 960.307,448.681 967.5,445C 970.379,442.615 973.379,440.448 976.5,438.5C 981.161,450.815 985.828,463.148 990.5,475.5C 988.243,499.226 985.409,522.893 982,546.5C 981.667,554.5 981.333,562.5 981,570.5C 975.604,580.236 975.104,590.236 979.5,600.5C 977.243,613.764 976.077,627.097 976,640.5C 986.212,658.038 997.212,675.038 1009,691.5C 1011.5,694 1014,696.5 1016.5,699C 1020.49,699.499 1024.49,699.666 1028.5,699.5C 1028.33,700.822 1028.66,701.989 1029.5,703C 1039.79,702.991 1049.79,704.657 1059.5,708C 1062.77,708.96 1064.44,711.127 1064.5,714.5C 1061.22,730.201 1057.72,745.867 1054,761.5C 1052.18,771.415 1051.18,781.415 1051,791.5C 1049.7,796.09 1047.87,800.423 1045.5,804.5C 1040.79,812.875 1033.79,818.209 1024.5,820.5C 1019.13,820.295 1015.63,817.629 1014,812.5C 1013.5,809.183 1013.33,805.85 1013.5,802.5C 1013.6,796.058 1014.93,789.891 1017.5,784C 1013.26,772.029 1009.76,759.863 1007,747.5C 1006.19,744.802 1006.69,742.468 1008.5,740.5C 1016.72,738.821 1023.88,735.154 1030,729.5C 1030.49,722.725 1029.82,716.058 1028,709.5C 1024.29,721.686 1017.12,731.019 1006.5,737.5C 1001.95,738.116 997.95,736.949 994.5,734C 990.134,729.439 986.634,724.272 984,718.5C 979.333,713.833 974.667,709.167 970,704.5C 967.337,722.464 965.337,740.464 964,758.5C 961.959,759.423 959.792,759.756 957.5,759.5C 948.096,759.513 939.096,757.513 930.5,753.5C 928.012,751.944 927.012,749.611 927.5,746.5C 928.546,739.677 929.546,732.844 930.5,726C 929.296,721.578 928.463,717.078 928,712.5C 927.667,695.833 927.333,679.167 927,662.5C 914.519,649.338 900.352,638.505 884.5,630C 875.529,623.366 868.362,615.199 863,605.5C 861.793,600.878 860.793,596.211 860,591.5C 855.553,550.577 852.72,509.577 851.5,468.5C 850.999,461.829 850.832,455.163 851,448.5C 854.47,437.04 856.97,425.373 858.5,413.5C 860.099,413.768 861.432,413.434 862.5,412.5C 872.563,410.305 882.563,407.805 892.5,405C 910.173,404.706 927.839,404.706 945.5,405C 950.891,400.715 955.225,395.548 958.5,389.5 Z"/></g>
<g><path style="opacity:1" fill="#fefefe" d="M 402.5,660.5 C 394.5,660.5 386.5,660.5 378.5,660.5C 378.5,579.167 378.5,497.833 378.5,416.5C 304.5,416.5 230.5,416.5 156.5,416.5C 156.5,408.167 156.5,399.833 156.5,391.5C 238.5,391.5 320.5,391.5 402.5,391.5C 402.5,481.167 402.5,570.833 402.5,660.5 Z"/></g>
<g><path style="opacity:1" fill="#5a5d8b" d="M 772.5,387.5 C 772.5,415.833 772.5,444.167 772.5,472.5C 769.934,474.989 767.434,474.989 765,472.5C 763.08,443.641 765.58,415.308 772.5,387.5 Z"/></g>
<g><path style="opacity:1" fill="#595b8a" d="M 995.5,408.5 C 1004.31,435.776 1010.98,463.609 1015.5,492C 1015.33,494.167 1015.17,496.333 1015,498.5C 1013.06,500.978 1010.9,501.145 1008.5,499C 1006.67,497.167 1004.83,495.333 1003,493.5C 999.057,487.259 994.891,481.259 990.5,475.5C 985.828,463.148 981.161,450.815 976.5,438.5C 983.52,429.805 989.02,420.138 993,409.5C 993.671,408.748 994.504,408.414 995.5,408.5 Z"/></g>
<g><path style="opacity:1" fill="#f2f2f2" d="M 154.5,416.5 C 154.5,498.833 154.5,581.167 154.5,663.5C 229.167,663.5 303.833,663.5 378.5,663.5C 378.5,671.833 378.5,680.167 378.5,688.5C 295.833,688.5 213.167,688.5 130.5,688.5C 130.5,597.833 130.5,507.167 130.5,416.5C 138.5,416.5 146.5,416.5 154.5,416.5 Z"/></g>
<g><path style="opacity:1" fill="#f0f0f1" d="M 156.5,416.5 C 230.5,416.5 304.5,416.5 378.5,416.5C 378.5,497.833 378.5,579.167 378.5,660.5C 386.5,660.5 394.5,660.5 402.5,660.5C 320.668,661.499 238.668,661.833 156.5,661.5C 156.5,579.833 156.5,498.167 156.5,416.5 Z"/></g>
<g><path style="opacity:1" fill="#561b8c" d="M 279.5,438.5 C 279.5,445.5 279.5,452.5 279.5,459.5C 278.209,459.263 277.209,459.596 276.5,460.5C 247.74,463.094 227.906,477.76 217,504.5C 209.091,533.601 216.258,558.267 238.5,578.5C 235.254,585.069 230.921,590.736 225.5,595.5C 197.612,571.341 187.112,541.008 194,504.5C 205.106,468.725 228.939,446.892 265.5,439C 270.155,438.501 274.821,438.334 279.5,438.5 Z"/></g>
<g><path style="opacity:1" fill="#403e57" d="M 279.5,438.5 C 317.716,439.891 344.882,457.891 361,492.5C 373.223,527.88 367.057,559.547 342.5,587.5C 336.773,582.776 331.773,577.442 327.5,571.5C 345.266,550.832 349.766,527.499 341,501.5C 328.177,474.176 306.677,460.509 276.5,460.5C 277.209,459.596 278.209,459.263 279.5,459.5C 279.5,452.5 279.5,445.5 279.5,438.5 Z"/></g>
<g><path style="opacity:1" fill="#f1f1f1" d="M 276.5,460.5 C 306.677,460.509 328.177,474.176 341,501.5C 349.766,527.499 345.266,550.832 327.5,571.5C 306.911,591.056 282.911,596.556 255.5,588C 249.483,585.328 243.816,582.161 238.5,578.5C 216.258,558.267 209.091,533.601 217,504.5C 227.906,477.76 247.74,463.094 276.5,460.5 Z"/></g>
<g><path style="opacity:1" fill="#54198b" d="M 559.5,461.5 C 559.5,465.833 559.5,470.167 559.5,474.5C 555.167,474.5 550.833,474.5 546.5,474.5C 546.5,470.167 546.5,465.833 546.5,461.5C 550.833,461.5 555.167,461.5 559.5,461.5 Z"/></g>
<g><path style="opacity:1" fill="#46445c" d="M 565.5,461.5 C 570.167,461.5 574.833,461.5 579.5,461.5C 579.5,465.833 579.5,470.167 579.5,474.5C 574.833,474.5 570.167,474.5 565.5,474.5C 565.5,470.167 565.5,465.833 565.5,461.5 Z"/></g>
<g><path style="opacity:1" fill="#565a89" d="M 585.5,461.5 C 589.833,461.5 594.167,461.5 598.5,461.5C 598.5,465.833 598.5,470.167 598.5,474.5C 594.167,474.5 589.833,474.5 585.5,474.5C 585.5,470.167 585.5,465.833 585.5,461.5 Z"/></g>
<g><path style="opacity:1" fill="#525066" d="M 748.5,467.5 C 748.5,468.167 748.5,468.833 748.5,469.5C 679.167,468.833 679.167,468.167 748.5,467.5 Z"/></g>
<g><path style="opacity:1" fill="#bfacd0" d="M 559.5,461.5 C 560.486,465.97 560.819,470.637 560.5,475.5C 555.637,475.819 550.97,475.486 546.5,474.5C 550.833,474.5 555.167,474.5 559.5,474.5C 559.5,470.167 559.5,465.833 559.5,461.5 Z"/></g>
<g><path style="opacity:1" fill="#424058" d="M 748.5,473.5 C 748.5,474.167 748.5,474.833 748.5,475.5C 679.167,474.833 679.167,474.167 748.5,473.5 Z"/></g>
<g><path style="opacity:1" fill="#656377" d="M 748.5,479.5 C 748.5,480.5 748.5,481.5 748.5,482.5C 731.167,482.5 713.833,482.5 696.5,482.5C 696.5,481.5 696.5,480.5 696.5,479.5C 713.833,479.5 731.167,479.5 748.5,479.5 Z"/></g>
<g><path style="opacity:1" fill="#8a8a94" d="M 926.5,535.5 C 925.833,535.167 925.167,534.833 924.5,534.5C 924.211,531.351 924.711,528.351 926,525.5C 926.498,528.817 926.665,532.15 926.5,535.5 Z"/></g>
<g><path style="opacity:1" fill="#f6f6f7" d="M 924.5,534.5 C 925.167,534.833 925.833,535.167 926.5,535.5C 926.833,556.177 926.5,576.844 925.5,597.5C 924.914,597.291 924.414,596.957 924,596.5C 923.587,593.768 922.92,591.101 922,588.5C 922.219,583.515 922.219,578.515 922,573.5C 919.106,566.744 917.773,559.744 918,552.5C 921.993,547.215 924.16,541.215 924.5,534.5 Z"/></g>
<g><path style="opacity:1" fill="#595b8a" d="M 327.5,571.5 C 331.773,577.442 336.773,582.776 342.5,587.5C 317.895,610.739 288.895,618.572 255.5,611C 244.434,607.635 234.434,602.469 225.5,595.5C 230.921,590.736 235.254,585.069 238.5,578.5C 243.816,582.161 249.483,585.328 255.5,588C 282.911,596.556 306.911,591.056 327.5,571.5 Z"/></g>
<g><path style="opacity:1" fill="#54198b" d="M 181.5,631.5 C 181.5,635.833 181.5,640.167 181.5,644.5C 177.167,644.5 172.833,644.5 168.5,644.5C 168.5,640.167 168.5,635.833 168.5,631.5C 172.833,631.5 177.167,631.5 181.5,631.5 Z"/></g>
<g><path style="opacity:1" fill="#565a89" d="M 207.5,631.5 C 211.833,631.5 216.167,631.5 220.5,631.5C 220.5,635.833 220.5,640.167 220.5,644.5C 216.167,644.5 211.833,644.5 207.5,644.5C 207.5,640.167 207.5,635.833 207.5,631.5 Z"/></g>
<g><path style="opacity:1" fill="#4c4a61" d="M 318.5,637.5 C 335.846,637.167 353.179,637.5 370.5,638.5C 361.833,638.833 353.167,639.167 344.5,639.5C 335.473,639.498 326.807,638.831 318.5,637.5 Z"/></g>
<g><path style="opacity:1" fill="#bba6ce" d="M 181.5,631.5 C 182.486,635.97 182.819,640.637 182.5,645.5C 177.637,645.819 172.97,645.486 168.5,644.5C 172.833,644.5 177.167,644.5 181.5,644.5C 181.5,640.167 181.5,635.833 181.5,631.5 Z"/></g>
<g><path style="opacity:1" fill="#9695a2" d="M 188.5,631.5 C 188.5,635.833 188.5,640.167 188.5,644.5C 192.5,644.5 196.5,644.5 200.5,644.5C 200.5,640.167 200.5,635.833 200.5,631.5C 201.486,635.97 201.819,640.637 201.5,645.5C 196.833,645.5 192.167,645.5 187.5,645.5C 187.181,640.637 187.514,635.97 188.5,631.5 Z"/></g>
<g><path style="opacity:1" fill="#3e3d56" d="M 188.5,631.5 C 192.5,631.5 196.5,631.5 200.5,631.5C 200.5,635.833 200.5,640.167 200.5,644.5C 196.5,644.5 192.5,644.5 188.5,644.5C 188.5,640.167 188.5,635.833 188.5,631.5 Z"/></g>
<g><path style="opacity:1" fill="#44425a" d="M 318.5,643.5 C 335.846,643.167 353.179,643.5 370.5,644.5C 361.833,644.833 353.167,645.167 344.5,645.5C 335.473,645.498 326.807,644.831 318.5,643.5 Z"/></g>
<g><path style="opacity:1" fill="#656377" d="M 318.5,649.5 C 335.833,649.5 353.167,649.5 370.5,649.5C 370.5,650.5 370.5,651.5 370.5,652.5C 353.167,652.5 335.833,652.5 318.5,652.5C 318.5,651.5 318.5,650.5 318.5,649.5 Z"/></g>
<g><path style="opacity:1" fill="#fcfcfc" d="M 1006.5,737.5 C 1006.43,739.027 1007.09,740.027 1008.5,740.5C 1006.69,742.468 1006.19,744.802 1007,747.5C 1009.76,759.863 1013.26,772.029 1017.5,784C 1014.93,789.891 1013.6,796.058 1013.5,802.5C 997.167,802.5 980.833,802.5 964.5,802.5C 962.777,800.747 961.277,798.747 960,796.5C 957.695,788.787 955.528,781.121 953.5,773.5C 953.5,768.833 953.5,764.167 953.5,759.5C 954.833,759.5 956.167,759.5 957.5,759.5C 959.792,759.756 961.959,759.423 964,758.5C 965.337,740.464 967.337,722.464 970,704.5C 974.667,709.167 979.333,713.833 984,718.5C 986.634,724.272 990.134,729.439 994.5,734C 997.95,736.949 1001.95,738.116 1006.5,737.5 Z"/></g>
<g><path style="opacity:1" fill="#555886" d="M 1008.5,740.5 C 1007.09,740.027 1006.43,739.027 1006.5,737.5C 1017.12,731.019 1024.29,721.686 1028,709.5C 1029.82,716.058 1030.49,722.725 1030,729.5C 1023.88,735.154 1016.72,738.821 1008.5,740.5 Z"/></g>
<g><path style="opacity:1" fill="#575987" d="M 930.5,753.5 C 939.096,757.513 948.096,759.513 957.5,759.5C 956.167,759.5 954.833,759.5 953.5,759.5C 953.5,764.167 953.5,768.833 953.5,773.5C 951.513,772.836 949.846,771.669 948.5,770C 946.256,769.094 943.923,768.594 941.5,768.5C 936.9,769.034 932.567,770.367 928.5,772.5C 929.74,766.245 930.407,759.912 930.5,753.5 Z"/></g>
<g><path style="opacity:1" fill="#2f2e41" d="M 953.5,773.5 C 955.528,781.121 957.695,788.787 960,796.5C 961.277,798.747 962.777,800.747 964.5,802.5C 972.424,808.173 973.59,815.173 968,823.5C 965.228,825.761 962.062,827.261 958.5,828C 949.167,828.667 939.833,828.667 930.5,828C 928.919,827.293 927.419,826.46 926,825.5C 925.667,820.833 925.333,816.167 925,811.5C 921.466,809.478 919.966,806.478 920.5,802.5C 922.06,793.864 923.56,785.198 925,776.5C 926.376,775.295 927.542,773.962 928.5,772.5C 932.567,770.367 936.9,769.034 941.5,768.5C 943.923,768.594 946.256,769.094 948.5,770C 949.846,771.669 951.513,772.836 953.5,773.5 Z"/></g>
<g><path style="opacity:1" fill="#403e57" d="M 920.5,802.5 C 919.966,806.478 921.466,809.478 925,811.5C 925.333,816.167 925.667,820.833 926,825.5C 927.419,826.46 928.919,827.293 930.5,828C 939.833,828.667 949.167,828.667 958.5,828C 962.062,827.261 965.228,825.761 968,823.5C 973.59,815.173 972.424,808.173 964.5,802.5C 980.833,802.5 997.167,802.5 1013.5,802.5C 1013.33,805.85 1013.5,809.183 1014,812.5C 1015.63,817.629 1019.13,820.295 1024.5,820.5C 1033.79,818.209 1040.79,812.875 1045.5,804.5C 1065.24,806.298 1084.9,809.465 1104.5,814C 1108.47,815.143 1111.47,817.476 1113.5,821C 1112.13,822.873 1110.47,824.54 1108.5,826C 1099.02,829.08 1089.36,831.413 1079.5,833C 1005.49,841.658 931.494,841.658 857.5,833C 847.997,831.3 838.663,828.967 829.5,826C 823.992,823.845 823.325,820.845 827.5,817C 836.405,813.08 845.739,810.413 855.5,809C 877.137,806.003 898.804,803.837 920.5,802.5 Z"/></g>
</svg>
