<?xml version="1.0" encoding="UTF-8"?>
<svg version="1.1" xmlns="http://www.w3.org/2000/svg" width="224" height="224">
<path d="M0 0 C73.92 0 147.84 0 224 0 C224 73.92 224 147.84 224 224 C150.08 224 76.16 224 0 224 C0 150.08 0 76.16 0 0 Z " fill="#3448C5" transform="translate(0,0)"/>
<path d="M0 0 C9.80820748 6.70546118 16.65670331 15.1048023 21.3125 26 C22.98382897 29.49009386 22.98382897 29.49009386 25.99609375 31.74609375 C27.51051373 32.21065586 29.04095258 32.62563278 30.58203125 32.9921875 C33.28058026 33.69843134 35.48313706 34.74244006 37.9375 36.0625 C38.66839844 36.45308594 39.39929688 36.84367187 40.15234375 37.24609375 C42 38.625 42 38.625 43.00390625 40.66015625 C43.82203675 42.7829161 43.82203675 42.7829161 45.89453125 43.48046875 C49.08848857 45.21670158 50.02753883 47.75800821 51.6875 50.9375 C52.28949219 52.06800781 52.89148438 53.19851562 53.51171875 54.36328125 C57.44067357 62.97398276 56.90745657 72.56594603 53.9140625 81.40625 C50.12380073 90.60654352 41.16404341 98.73443026 32 102.625 C31.01 102.625 30.02 102.625 29 102.625 C28.45993365 98.50449376 28.21827422 94.72377842 29 90.625 C31.05615883 88.62156319 33.14876033 87.52108073 35.6640625 86.15234375 C39.9394841 83.35687578 41.63602341 79.43515898 43 74.625 C44.12732706 65.40937488 43.06123904 59.12682211 37.875 51.5 C32.76722606 45.84658849 26.94983635 43.45033988 19.4375 42.8125 C17.62585448 42.728816 15.81326321 42.6587494 14 42.625 C13.63648438 41.490625 13.27296875 40.35625 12.8984375 39.1875 C7.82794031 23.81233402 0.65128415 13.42474417 -14 5.625 C-25.55679101 0.90794244 -40.01318292 1.53415829 -51.703125 5.5546875 C-61.33312608 9.94572573 -70.36279618 17.61936673 -74.1484375 27.67578125 C-76 30.625 -76 30.625 -79.29296875 31.875 C-80.57816406 32.1225 -81.86335938 32.37 -83.1875 32.625 C-92.0388825 34.60032048 -98.01940612 38.09251258 -102.96875 45.80078125 C-107.71778359 54.20153385 -108.22682624 62.76499661 -106.53125 72.24609375 C-104.64194525 78.73495589 -100.95641823 84.82544108 -95.125 88.375 C-92.3351468 91.32896221 -92.69216833 92.87890904 -92.6875 96.875 C-92.76779131 98.79281519 -92.86452535 100.71029156 -93 102.625 C-97.01711753 101.76974272 -99.64833243 100.01904826 -103 97.625 C-103.804375 97.08875 -104.60875 96.5525 -105.4375 96 C-113.50199197 88.52559281 -118.81667293 78.33683958 -119.30859375 67.28125 C-119.77941336 53.56746179 -117.7187954 44.96079946 -108.6875 34.25 C-102.91724509 28.23891642 -97.3782714 24.25848793 -89.375 21.875 C-83.74360479 19.99525751 -81.7274676 17.15504257 -78.6640625 12.21875 C-61.56157332 -14.43865097 -24.59565371 -14.63626452 0 0 Z " fill="#F8F9FD" transform="translate(144,64.375)"/>
<path d="M0 0 C3.6769071 2.07055067 5.98941415 4.03735646 8.59765625 7.37890625 C10.69079181 9.79854763 13.14372612 11.71954396 15.64453125 13.703125 C16.09183594 14.13109375 16.53914063 14.5590625 17 15 C17 15.66 17 16.32 17 17 C15.68 17 14.36 17 13 17 C13.06878651 22.78452712 13.15670867 28.5683251 13.26245117 34.35229492 C13.29572486 36.32031171 13.32374915 38.28842449 13.34643555 40.2565918 C13.37993678 43.08423812 13.43224963 45.91100282 13.48828125 48.73828125 C13.49467117 49.61962234 13.5010611 50.50096344 13.50764465 51.40901184 C13.53733589 52.6399482 13.53733589 52.6399482 13.56762695 53.89575195 C13.57873001 54.61745071 13.58983307 55.33914948 13.60127258 56.0827179 C14.10688139 58.51393952 15.2138941 59.34059951 17 61 C17 61.66 17 62.32 17 63 C13.25026094 63.11622939 9.50098536 63.1872595 5.75 63.25 C4.68652344 63.28351563 3.62304688 63.31703125 2.52734375 63.3515625 C1.50253906 63.36445313 0.47773437 63.37734375 -0.578125 63.390625 C-1.52075195 63.41157227 -2.46337891 63.43251953 -3.43457031 63.45410156 C-6.75525307 62.86631417 -7.89287283 61.56794931 -10 59 C-11.69196504 55.61606992 -11.11986549 51.77522209 -11.09765625 48.0546875 C-11.0962413 47.1696756 -11.09482635 46.2846637 -11.09336853 45.37283325 C-11.0877614 42.54018809 -11.07520771 39.70762136 -11.0625 36.875 C-11.05748592 34.95703239 -11.05292285 33.03906354 -11.04882812 31.12109375 C-11.03778966 26.41403218 -11.02052025 21.7070294 -11 17 C-12.32 17 -13.64 17 -15 17 C-13.67879172 14.06769807 -12.25361803 12.01335101 -9.9609375 9.765625 C-9.38085938 9.19199219 -8.80078125 8.61835937 -8.203125 8.02734375 C-7.59984375 7.44082031 -6.9965625 6.85429688 -6.375 6.25 C-5.76398438 5.64800781 -5.15296875 5.04601562 -4.5234375 4.42578125 C-3.02011376 2.94594695 -1.51065144 1.47235324 0 0 Z " fill="#F8F9FD" transform="translate(75,106)"/>
<path d="M0 0 C2.4471086 0.93682412 3.70106661 2.05797481 5.53466797 3.921875 C6.15341797 4.54578125 6.77216797 5.1696875 7.40966797 5.8125 C8.04388672 6.46734375 8.67810547 7.1221875 9.33154297 7.796875 C9.98123047 8.45171875 10.63091797 9.1065625 11.30029297 9.78125 C16.08154297 14.64285714 16.08154297 14.64285714 16.08154297 15.796875 C14.43154297 15.796875 12.78154297 15.796875 11.08154297 15.796875 C11.12587706 20.10263246 11.19589504 24.40700097 11.2890625 28.71191406 C11.31717407 30.17436205 11.33843728 31.6369592 11.35253906 33.09960938 C11.37410715 35.21040669 11.42081953 37.31942929 11.47216797 39.4296875 C11.49311523 40.69699707 11.5140625 41.96430664 11.53564453 43.27001953 C12.1958848 47.53559684 13.47671698 49.42512289 16.08154297 52.796875 C12.16526634 52.94210434 8.24968144 53.03092257 4.33154297 53.109375 C3.22037109 53.15126953 2.10919922 53.19316406 0.96435547 53.23632812 C-0.64052734 53.26049805 -0.64052734 53.26049805 -2.27783203 53.28515625 C-3.75461426 53.32443237 -3.75461426 53.32443237 -5.26123047 53.36450195 C-7.91845703 52.796875 -7.91845703 52.796875 -10.24658203 50.734375 C-12.36400937 47.01403538 -12.37708185 44.57558224 -12.30908203 40.30859375 C-12.30342224 39.60539505 -12.29776245 38.90219635 -12.29193115 38.1776886 C-12.26965472 35.94587252 -12.21948076 33.71570039 -12.16845703 31.484375 C-12.14838047 29.96551809 -12.13013171 28.44663584 -12.11376953 26.92773438 C-12.0698206 23.21691955 -12.00085624 19.5070579 -11.91845703 15.796875 C-13.56845703 15.796875 -15.21845703 15.796875 -16.91845703 15.796875 C-13.50083804 11.67820596 -9.97351345 7.68374451 -6.29345703 3.796875 C-5.55869141 3.013125 -4.82392578 2.229375 -4.06689453 1.421875 C-1.91845703 -0.203125 -1.91845703 -0.203125 0 0 Z " fill="#FCFCFE" transform="translate(111.91845703125,116.203125)"/>
<path d="M0 0 C4.29597139 1.64990206 7.00517646 4.81742807 10.125 8.0625 C13.69553366 12.0044894 13.69553366 12.0044894 18 15 C18 15.66 18 16.32 18 17 C16.35 17 14.7 17 13 17 C13.05201794 20.56367709 13.14712681 24.12495681 13.25 27.6875 C13.26417969 28.69490234 13.27835938 29.70230469 13.29296875 30.74023438 C13.47312058 36.80400655 13.47312058 36.80400655 16.046875 42.20703125 C16.69140625 42.79871094 17.3359375 43.39039063 18 44 C14.10473501 44.1746354 10.2104781 44.28096492 6.3125 44.375 C5.20970703 44.42527344 4.10691406 44.47554687 2.97070312 44.52734375 C-4.72463812 44.66683634 -4.72463812 44.66683634 -7.87426758 43.02001953 C-10.90068958 40.01991424 -11.29906546 36.97410298 -11.48828125 32.8203125 C-11.45531154 30.92125716 -11.3960621 29.02250245 -11.3125 27.125 C-11.28994141 26.15046875 -11.26738281 25.1759375 -11.24414062 24.171875 C-11.18550753 21.77964485 -11.10351153 19.3906385 -11 17 C-12.65 17 -14.3 17 -16 17 C-11.01595832 10.96668638 -5.58084697 5.4815829 0 0 Z " fill="#F9F9FD" transform="translate(146,125)"/>
</svg>
