<?xml version="1.0" encoding="UTF-8"?>
<!DOCTYPE svg PUBLIC "-//W3C//DTD SVG 1.1//EN" "http://www.w3.org/Graphics/SVG/1.1/DTD/svg11.dtd">
<svg xmlns="http://www.w3.org/2000/svg" version="1.1" width="225px" height="225px" style="shape-rendering:geometricPrecision; text-rendering:geometricPrecision; image-rendering:optimizeQuality; fill-rule:evenodd; clip-rule:evenodd" xmlns:xlink="http://www.w3.org/1999/xlink">
<g><path style="opacity:1" fill="#fefefe" d="M -0.5,-0.5 C 74.5,-0.5 149.5,-0.5 224.5,-0.5C 224.5,35.8333 224.5,72.1667 224.5,108.5C 222.53,104.422 219.53,101.256 215.5,99C 202.833,98.3333 190.167,98.3333 177.5,99C 173.333,100.5 170.5,103.333 169,107.5C 168.333,133.5 168.333,159.5 169,185.5C 170.406,190.573 173.572,194.073 178.5,196C 189.833,196.667 201.167,196.667 212.5,196C 219.013,194.652 223.013,190.819 224.5,184.5C 224.5,197.833 224.5,211.167 224.5,224.5C 149.5,224.5 74.5,224.5 -0.5,224.5C -0.5,211.167 -0.5,197.833 -0.5,184.5C 0.779046,189.957 4.11238,193.79 9.5,196C 21.5,196.667 33.5,196.667 45.5,196C 50,194.167 53.1667,191 55,186.5C 55.6667,150.833 55.6667,115.167 55,79.5C 52.9927,74.1622 49.1594,70.9956 43.5,70C 32.5,69.3333 21.5,69.3333 10.5,70C 5.38182,71.6266 1.71515,74.7933 -0.5,79.5C -0.5,52.8333 -0.5,26.1667 -0.5,-0.5 Z"/></g>
<g><path style="opacity:1" fill="#5182c1" d="M 94.5,27.5 C 105.838,27.3335 117.172,27.5001 128.5,28C 133.91,29.7425 137.744,33.2425 140,38.5C 140.667,87.1667 140.667,135.833 140,184.5C 138.167,190.333 134.333,194.167 128.5,196C 117.167,196.667 105.833,196.667 94.5,196C 89.2425,193.744 85.7425,189.91 84,184.5C 83.3333,135.833 83.3333,87.1667 84,38.5C 86.3566,33.6455 89.8566,29.9788 94.5,27.5 Z"/></g>
<g><path style="opacity:1" fill="#ffd403" d="M -0.5,184.5 C -0.5,149.5 -0.5,114.5 -0.5,79.5C 1.71515,74.7933 5.38182,71.6266 10.5,70C 21.5,69.3333 32.5,69.3333 43.5,70C 49.1594,70.9956 52.9927,74.1622 55,79.5C 55.6667,115.167 55.6667,150.833 55,186.5C 53.1667,191 50,194.167 45.5,196C 33.5,196.667 21.5,196.667 9.5,196C 4.11238,193.79 0.779046,189.957 -0.5,184.5 Z"/></g>
<g><path style="opacity:1" fill="#ae0f0a" d="M 224.5,108.5 C 224.5,133.833 224.5,159.167 224.5,184.5C 223.013,190.819 219.013,194.652 212.5,196C 201.167,196.667 189.833,196.667 178.5,196C 173.572,194.073 170.406,190.573 169,185.5C 168.333,159.5 168.333,133.5 169,107.5C 170.5,103.333 173.333,100.5 177.5,99C 190.167,98.3333 202.833,98.3333 215.5,99C 219.53,101.256 222.53,104.422 224.5,108.5 Z"/></g>
</svg>
