<?xml version="1.0" encoding="UTF-8"?>
<!DOCTYPE svg PUBLIC "-//W3C//DTD SVG 1.1//EN" "http://www.w3.org/Graphics/SVG/1.1/DTD/svg11.dtd">
<svg xmlns="http://www.w3.org/2000/svg" version="1.1" width="225px" height="225px" style="shape-rendering:geometricPrecision; text-rendering:geometricPrecision; image-rendering:optimizeQuality; fill-rule:evenodd; clip-rule:evenodd" xmlns:xlink="http://www.w3.org/1999/xlink">
<g><path style="opacity:1" fill="#fefdfd" d="M -0.5,-0.5 C 74.5,-0.5 149.5,-0.5 224.5,-0.5C 224.5,74.5 224.5,149.5 224.5,224.5C 149.5,224.5 74.5,224.5 -0.5,224.5C -0.5,149.5 -0.5,74.5 -0.5,-0.5 Z"/></g>
<g><path style="opacity:1" fill="#ee342e" d="M 98.5,6.5 C 142.511,4.92058 176.677,22.2539 201,58.5C 208.613,71.5055 213.113,85.5055 214.5,100.5C 211.388,117.123 203.388,130.956 190.5,142C 179.735,151.213 167.735,157.379 154.5,160.5C 175.307,115.968 168.64,76.1342 134.5,41C 116.564,25.016 95.5645,16.016 71.5,14C 80.2561,10.1298 89.2561,7.62982 98.5,6.5 Z"/></g>
<g><path style="opacity:1" fill="#8d2675" d="M 58.5,22.5 C 86.1,21.1977 110.1,29.6977 130.5,48C 92.6724,51.2016 64.1724,69.035 45,101.5C 31.3356,132.118 31.0023,162.784 44,193.5C 14.9401,169.024 2.27339,137.691 6,99.5C 9.32566,70.6731 22.159,47.1731 44.5,29C 48.8772,25.9748 53.5439,23.8081 58.5,22.5 Z"/></g>
<g><path style="opacity:1" fill="#f3b01d" d="M 44.5,125.5 C 70.8169,163.231 106.817,178.064 152.5,170C 178.212,163.606 198.378,149.439 213,127.5C 206.404,167.441 184.237,194.941 146.5,210C 125.879,217.032 104.879,218.366 83.5,214C 74.2018,211.91 66.0351,207.744 59,201.5C 43.3402,178.201 38.5068,152.867 44.5,125.5 Z"/></g>
</svg>
