<svg version="1.1" id="Layer_1" xmlns="http://www.w3.org/2000/svg" xmlns:xlink="http://www.w3.org/1999/xlink" x="0px" y="0px"
	 width="100%" viewBox="0 0 204 192" enable-background="new 0 0 204 192" xml:space="preserve">
<path fill="#024E8E" opacity="1.000000" stroke="none" 
	d="
M140.000000,193.000000 
	C115.645775,193.000000 91.291542,193.000000 66.228493,192.757278 
	C47.406960,182.068146 29.216307,171.752502 11.257342,161.048141 
	C8.221693,159.238754 6.184073,155.754944 4.073564,153.084412 
	C17.210068,145.881668 29.959829,138.641861 42.695137,131.376740 
	C42.929241,131.243179 42.991352,130.808121 43.440678,130.686310 
	C44.616905,132.072800 45.510689,133.269989 46.351845,134.503113 
	C67.868736,166.046692 109.790230,174.174393 141.449585,152.824051 
	C149.900406,147.125015 156.604614,139.718658 162.227142,130.613174 
	C151.748505,124.867012 141.897446,119.465004 131.856384,113.775894 
	C130.308151,112.598335 128.982193,111.653419 127.586380,110.826408 
	C119.707123,106.157928 111.811096,101.517746 104.135513,96.607246 
	C113.576714,90.889191 122.803169,85.431816 132.386292,79.966034 
	C141.771698,74.791679 150.814529,69.649963 159.807724,64.422798 
	C160.721451,63.891712 161.336319,62.846470 162.458435,62.107639 
	C175.894958,54.774677 188.962891,47.373894 202.304871,40.188416 
	C203.385956,42.269150 204.192978,44.134575 205.000000,46.000000 
	C205.000000,80.020897 205.000000,114.041786 204.687408,148.696838 
	C202.664368,155.040070 198.791641,158.944168 193.790085,161.847229 
	C175.869934,172.248520 157.931519,182.618301 140.000000,193.000000 
M161.185120,85.368584 
	C159.570328,85.368584 157.955536,85.368584 155.705902,85.368584 
	C157.657028,92.441322 153.730453,93.729431 148.420502,93.153595 
	C148.420502,96.334473 148.420502,99.043488 148.420502,102.094231 
	C151.068771,102.094231 153.332489,102.094231 155.766937,102.094231 
	C155.916031,104.337143 156.043579,106.255821 156.166351,108.102531 
	C158.818939,108.102531 161.167801,108.102531 163.864380,108.102531 
	C162.445450,101.740669 166.037018,100.595627 170.955566,100.816978 
	C170.955566,98.170631 170.955566,95.753845 170.955566,93.240677 
	C168.439026,93.056282 166.180664,92.890793 164.818710,92.791000 
	C163.738708,89.927063 162.887024,87.668587 161.185120,85.368584 
M190.084076,108.518608 
	C190.999466,106.201866 191.914856,103.885124 192.596924,102.158859 
	C194.798141,101.696808 197.031860,101.227943 199.120026,100.789619 
	C199.120026,97.969536 199.120026,95.681168 199.120026,93.197273 
	C196.683456,93.051422 194.444916,92.917427 192.184357,92.782112 
	C192.003372,90.232140 191.844986,88.000427 191.679092,85.663101 
	C189.013702,85.663101 186.775284,85.663101 184.328690,85.663101 
	C184.108154,88.179939 183.912155,90.417007 183.707306,92.754959 
	C181.227356,92.941032 178.990097,93.108894 176.377029,93.304955 
	C176.518234,96.353065 176.642883,99.043549 176.767990,101.744286 
	C179.533859,101.948990 181.624832,102.103745 183.759399,102.261726 
	C183.947205,104.346130 184.107254,106.122322 184.305939,108.327339 
	C186.026260,108.406342 187.638809,108.480392 190.084076,108.518608 
z"/>
<path fill="#669AD2" opacity="1.000000" stroke="none" 
	d="
M202.030823,39.973114 
	C188.962891,47.373894 175.894958,54.774677 162.130554,61.997986 
	C160.547028,60.616833 159.672974,59.403324 158.770966,58.210949 
	C142.844467,37.157497 121.872704,27.165598 95.417618,29.911167 
	C49.503349,34.676258 21.996008,82.938828 41.046661,124.996201 
	C41.856361,126.783745 42.443104,128.672272 43.133709,130.513748 
	C42.991352,130.808121 42.929241,131.243179 42.695137,131.376740 
	C29.959829,138.641861 17.210068,145.881668 3.783929,152.928513 
	C2.404048,151.155304 1.702025,149.577652 1.000001,148.000000 
	C1.000000,113.979103 1.000000,79.958214 1.287754,45.271523 
	C3.363460,38.932823 6.931507,34.877605 12.160134,31.958525 
	C24.361620,25.146576 36.461952,18.151121 48.539021,11.119671 
	C54.103680,7.879844 59.517685,4.381257 65.000000,0.999999 
	C90.020897,1.000000 115.041786,1.000000 140.656036,1.316492 
	C155.687439,9.989651 170.224060,18.182423 184.517990,26.778713 
	C190.772171,30.539938 198.543243,32.476418 202.030823,39.973114 
z"/>
<path fill="#FDFDFE" opacity="1.000000" stroke="none" 
	d="
M1.000001,148.468658 
	C1.702025,149.577652 2.404048,151.155304 3.395706,152.888855 
	C6.184073,155.754944 8.221693,159.238754 11.257342,161.048141 
	C29.216307,171.752502 47.406960,182.068146 65.759834,192.757278 
	C44.419861,193.000000 22.839724,193.000000 1.000000,193.000000 
	C1.000000,178.313461 1.000000,163.625381 1.000001,148.468658 
z"/>
<path fill="#FDFDFE" opacity="1.000000" stroke="none" 
	d="
M140.468658,193.000000 
	C157.931519,182.618301 175.869934,172.248520 193.790085,161.847229 
	C198.791641,158.944168 202.664368,155.040070 204.687408,149.165497 
	C205.000000,163.607544 205.000000,178.215103 205.000000,193.000000 
	C183.646103,193.000000 162.291702,193.000000 140.468658,193.000000 
z"/>
<path fill="#FDFEFE" opacity="1.000000" stroke="none" 
	d="
M202.304871,40.188416 
	C198.543243,32.476418 190.772171,30.539938 184.517990,26.778713 
	C170.224060,18.182423 155.687439,9.989651 141.124695,1.316492 
	C162.247345,1.000000 183.494690,1.000000 205.000000,1.000000 
	C205.000000,15.686555 205.000000,30.374619 205.000000,45.531342 
	C204.192978,44.134575 203.385956,42.269150 202.304871,40.188416 
z"/>
<path fill="#FEFEFF" opacity="1.000000" stroke="none" 
	d="
M64.531342,0.999999 
	C59.517685,4.381257 54.103680,7.879844 48.539021,11.119671 
	C36.461952,18.151121 24.361620,25.146576 12.160134,31.958525 
	C6.931507,34.877605 3.363460,38.932823 1.287754,44.802864 
	C1.000000,30.392998 1.000000,15.785997 1.000000,1.000000 
	C22.020555,1.000000 43.041618,1.000000 64.531342,0.999999 
z"/>
<path fill="#FDFEFE" opacity="1.000000" stroke="none" 
	d="
M43.440678,130.686310 
	C42.443104,128.672272 41.856361,126.783745 41.046661,124.996201 
	C21.996008,82.938828 49.503349,34.676258 95.417618,29.911167 
	C121.872704,27.165598 142.844467,37.157497 158.770966,58.210949 
	C159.672974,59.403324 160.547028,60.616833 161.761963,61.930168 
	C161.336319,62.846470 160.721451,63.891712 159.807724,64.422798 
	C150.814529,69.649963 141.771698,74.791679 132.317047,79.627853 
	C128.482620,75.785507 125.540276,71.594322 121.585182,68.877426 
	C104.127792,56.885300 79.418449,64.486755 71.599945,84.157425 
	C67.687294,94.001328 67.563629,103.849747 73.805489,113.436340 
	C81.056404,126.360283 92.373352,131.333206 106.259575,130.375275 
	C117.528648,129.597885 126.251373,123.929451 132.046402,114.062996 
	C141.897446,119.465004 151.748505,124.867012 162.227142,130.613174 
	C156.604614,139.718658 149.900406,147.125015 141.449585,152.824051 
	C109.790230,174.174393 67.868736,166.046692 46.351845,134.503113 
	C45.510689,133.269989 44.616905,132.072800 43.440678,130.686310 
z"/>
<path fill="#669AD2" opacity="1.000000" stroke="none" 
	d="
M73.741310,113.087013 
	C67.563629,103.849747 67.687294,94.001328 71.599945,84.157425 
	C79.418449,64.486755 104.127792,56.885300 121.585182,68.877426 
	C125.540276,71.594322 128.482620,75.785507 131.960388,79.636253 
	C122.803169,85.431816 113.576714,90.889191 103.793808,96.687462 
	C100.082748,98.834297 96.963631,100.705986 93.766121,102.432487 
	C87.113167,106.024719 80.418709,109.540062 73.741310,113.087013 
z"/>
<path fill="#034583" opacity="1.000000" stroke="none" 
	d="
M73.805489,113.436340 
	C80.418709,109.540062 87.113167,106.024719 93.766121,102.432487 
	C96.963631,100.705986 100.082748,98.834297 103.579071,96.948135 
	C111.811096,101.517746 119.707123,106.157928 127.586380,110.826408 
	C128.982193,111.653419 130.308151,112.598335 131.856384,113.775894 
	C126.251373,123.929451 117.528648,129.597885 106.259575,130.375275 
	C92.373352,131.333206 81.056404,126.360283 73.805489,113.436340 
z"/>
<path fill="#F1F3F8" opacity="1.000000" stroke="none" 
	d="
M161.610229,85.389343 
	C162.887024,87.668587 163.738708,89.927063 164.818710,92.791000 
	C166.180664,92.890793 168.439026,93.056282 170.955566,93.240677 
	C170.955566,95.753845 170.955566,98.170631 170.955566,100.816978 
	C166.037018,100.595627 162.445450,101.740669 163.864380,108.102531 
	C161.167801,108.102531 158.818939,108.102531 156.166351,108.102531 
	C156.043579,106.255821 155.916031,104.337143 155.766937,102.094231 
	C153.332489,102.094231 151.068771,102.094231 148.420502,102.094231 
	C148.420502,99.043488 148.420502,96.334473 148.420502,93.153595 
	C153.730453,93.729431 157.657028,92.441322 155.705902,85.368584 
	C157.955536,85.368584 159.570328,85.368584 161.610229,85.389343 
z"/>
<path fill="#EFF2F7" opacity="1.000000" stroke="none" 
	d="
M189.667709,108.536530 
	C187.638809,108.480392 186.026260,108.406342 184.305939,108.327339 
	C184.107254,106.122322 183.947205,104.346130 183.759399,102.261726 
	C181.624832,102.103745 179.533859,101.948990 176.767990,101.744286 
	C176.642883,99.043549 176.518234,96.353065 176.377029,93.304955 
	C178.990097,93.108894 181.227356,92.941032 183.707306,92.754959 
	C183.912155,90.417007 184.108154,88.179939 184.328690,85.663101 
	C186.775284,85.663101 189.013702,85.663101 191.679092,85.663101 
	C191.844986,88.000427 192.003372,90.232140 192.184357,92.782112 
	C194.444916,92.917427 196.683456,93.051422 199.120026,93.197273 
	C199.120026,95.681168 199.120026,97.969536 199.120026,100.789619 
	C197.031860,101.227943 194.798141,101.696808 192.596924,102.158859 
	C191.914856,103.885124 190.999466,106.201866 189.667709,108.536530 
z"/>
</svg>