<svg version="1.1" id="Layer_1" xmlns="http://www.w3.org/2000/svg" xmlns:xlink="http://www.w3.org/1999/xlink" x="0px" y="0px"
	 width="100%" viewBox="0 0 512 512" enable-background="new 0 0 512 512" xml:space="preserve">
<path fill="#000000" opacity="1.000000" stroke="none" 
	d="
M1.000000,195.000000 
	C1.000000,130.000000 1.000000,65.500000 1.000000,1.000000 
	C171.666672,1.000000 342.333344,1.000000 513.000000,1.000000 
	C513.000000,171.666672 513.000000,342.333344 513.000000,513.000000 
	C342.333344,513.000000 171.666672,513.000000 1.000000,513.000000 
	C1.000000,407.166656 1.000000,301.333344 1.000000,195.000000 
M426.969635,186.140915 
	C427.313721,182.242752 427.667328,178.345413 427.999451,174.446228 
	C428.388885,169.874435 428.768890,165.301804 429.136627,160.728210 
	C430.040649,149.484833 430.935303,138.240692 432.231903,126.245049 
	C433.155457,117.007141 434.068298,107.768143 435.006378,98.531708 
	C435.632843,92.363747 436.456421,86.210114 436.865997,80.028473 
	C437.042328,77.367775 436.393860,74.652435 436.013458,71.177666 
	C434.781555,62.269848 426.888123,54.137886 418.470367,54.079929 
	C394.647369,53.915894 370.821899,54.112061 346.069733,54.026230 
	C321.379364,54.073009 296.688965,54.119785 271.070801,54.025772 
	C244.046722,54.072838 217.022644,54.119907 189.070801,54.025894 
	C158.804062,54.016216 128.535355,54.202477 98.271622,53.896534 
	C86.811043,53.780674 77.088409,63.917336 77.129059,75.029716 
	C77.154648,82.021729 78.444504,89.009125 79.022568,96.889198 
	C79.350578,102.315491 79.538681,107.755028 80.050949,113.163864 
	C80.459534,117.477943 81.263283,121.754601 81.982796,126.962936 
	C81.988319,128.930405 81.818428,130.917191 82.032425,132.861725 
	C82.662033,138.582657 83.443939,144.286819 84.022530,150.903000 
	C85.403900,166.933945 86.785263,182.964905 88.020782,199.878250 
	C88.343025,202.623047 88.740440,205.361420 88.975182,208.113678 
	C90.393188,224.739594 91.773979,241.368698 93.023819,258.852966 
	C93.683250,266.629730 94.235390,274.417603 95.040825,282.179199 
	C95.555466,287.138489 96.444695,292.058929 97.023216,297.908661 
	C98.737617,317.271057 100.452026,336.633423 102.022774,356.886536 
	C102.346909,360.301361 102.733101,363.711609 102.983360,367.131836 
	C103.689232,376.778534 103.909813,386.484985 105.151222,396.060364 
	C106.094040,403.332550 108.656807,410.258179 115.178963,415.672821 
	C120.055283,418.445831 124.669426,421.942047 129.867844,423.826630 
	C138.191788,426.844391 146.901245,428.800354 155.451157,431.192963 
	C167.275482,434.501953 179.102982,437.799622 191.335434,441.763000 
	C192.157516,441.855164 193.012741,441.831696 193.796768,442.056549 
	C209.084213,446.441101 224.402374,450.725189 239.628510,455.314331 
	C247.802444,457.777954 256.198242,459.332642 264.437836,457.543274 
	C277.123138,454.788452 289.578949,450.952850 302.090973,447.429688 
	C329.777527,439.633667 357.478851,431.885071 385.090515,423.830444 
	C396.549408,420.487793 405.085327,412.807861 407.530029,401.238770 
	C409.953369,389.770874 409.835815,377.765991 411.003540,365.164581 
	C411.334167,363.258606 411.810059,361.364594 411.967957,359.444427 
	C412.425507,353.880402 412.713715,348.302643 413.143921,342.736115 
	C414.013275,331.486938 414.932526,320.241638 416.232330,308.243042 
	C416.820496,302.431885 417.467926,296.625916 417.979492,290.808014 
	C418.452118,285.432953 418.723328,280.040314 419.182373,274.663879 
	C420.027039,264.770966 420.944397,254.884293 421.967133,244.131119 
	C422.313477,239.398148 422.628204,234.662567 423.015747,229.932968 
	C423.349701,225.857498 423.783417,221.790314 424.143402,217.716843 
	C425.048309,207.477631 425.936462,197.236923 426.969635,186.140915 
z"/>
<path fill="#027CDA" opacity="1.000000" stroke="none" 
	d="
M410.832672,365.996643 
	C409.835815,377.765991 409.953369,389.770874 407.530029,401.238770 
	C405.085327,412.807861 396.549408,420.487793 385.090515,423.830444 
	C357.478851,431.885071 329.777527,439.633667 302.090973,447.429688 
	C289.578949,450.952850 277.123138,454.788452 264.437836,457.543274 
	C256.198242,459.332642 247.802444,457.777954 239.628510,455.314331 
	C224.402374,450.725189 209.084213,446.441101 193.796768,442.056549 
	C193.012741,441.831696 192.157516,441.855164 191.347443,441.146851 
	C192.338867,439.936768 193.252274,439.162537 194.307678,438.775909 
	C209.291519,433.286774 224.266525,427.770813 239.307358,422.441132 
	C245.073532,420.397827 251.000626,418.808655 256.893433,417.457336 
	C257.097778,426.700409 257.091980,426.680176 265.307800,424.326813 
	C296.276184,415.456238 327.210876,406.464417 358.241150,397.815643 
	C368.393463,394.985992 375.501617,389.597656 378.294434,378.917511 
	C389.388489,374.561951 400.110565,370.279297 410.832672,365.996643 
z"/>
<path fill="#1791E8" opacity="1.000000" stroke="none" 
	d="
M93.167221,257.996735 
	C91.773979,241.368698 90.393188,224.739594 88.975182,208.113678 
	C88.740440,205.361420 88.343025,202.623047 88.452187,199.466736 
	C90.987701,198.952713 93.276520,199.357574 95.167313,198.669174 
	C113.813324,191.880615 132.393265,184.910583 150.995224,178.429108 
	C151.299362,181.334564 152.021027,183.838379 151.816559,186.264099 
	C151.338120,191.940384 153.930496,193.139557 159.160141,193.105301 
	C191.756439,192.891861 224.354767,192.990021 256.967590,193.454651 
	C256.951874,200.634033 256.920990,207.343643 256.428406,214.043518 
	C238.918518,214.026184 221.870300,214.014923 204.822083,214.012634 
	C197.040207,214.011581 197.040207,214.019623 196.635559,222.079620 
	C170.445602,231.467392 144.656754,240.872894 118.781479,250.034286 
	C110.359436,253.016190 101.711716,255.360687 93.167221,257.996735 
z"/>
<path fill="#1F99ED" opacity="1.000000" stroke="none" 
	d="
M271.998596,54.166565 
	C296.688965,54.119785 321.379364,54.073009 346.487000,54.441948 
	C345.005585,56.268631 343.306488,58.216846 341.177490,59.007565 
	C319.533661,67.046158 297.808472,74.865379 276.149323,82.863220 
	C274.592682,83.438026 273.375183,84.931259 271.533813,86.010750 
	C267.784790,86.033920 264.499634,86.123726 261.219757,86.029419 
	C258.388519,85.948013 256.843903,87.048843 256.531616,90.016449 
	C254.369095,90.430923 252.530670,90.655418 250.833694,91.270332 
	C221.792633,101.793846 192.749634,112.312881 163.762375,122.983147 
	C159.366333,124.601334 155.247147,126.971573 150.625122,128.995392 
	C149.500839,128.998306 148.751328,128.999756 147.623322,129.031006 
	C129.732422,135.417313 112.251244,141.862488 94.680000,148.051956 
	C91.359032,149.221786 87.680016,149.375168 84.166214,149.997559 
	C83.443939,144.286819 82.662033,138.582657 82.032425,132.861725 
	C81.818428,130.917191 81.988319,128.930405 82.262756,126.347809 
	C95.615143,120.795357 108.640709,115.729500 121.768372,110.943657 
	C170.243103,93.271622 218.759262,75.713097 267.217682,57.996521 
	C269.035126,57.332054 270.414886,55.470348 271.998596,54.166565 
z"/>
<path fill="#0680DD" opacity="1.000000" stroke="none" 
	d="
M256.854370,417.012573 
	C251.000626,418.808655 245.073532,420.397827 239.307358,422.441132 
	C224.266525,427.770813 209.291519,433.286774 194.307678,438.775909 
	C193.252274,439.162537 192.338867,439.936768 191.144287,440.816406 
	C179.102982,437.799622 167.275482,434.501953 155.451157,431.192963 
	C146.901245,428.800354 138.191788,426.844391 129.867844,423.826630 
	C124.669426,421.942047 120.055283,418.445831 115.386688,415.211365 
	C117.662125,414.133698 119.766647,413.619202 121.792023,412.886078 
	C152.393219,401.808685 183.000839,390.748230 213.540375,379.503052 
	C215.629135,378.733978 217.189865,376.530792 219.397522,375.005737 
	C227.419876,377.292450 235.036911,379.581390 242.663330,381.838593 
	C247.410477,383.243591 252.171860,384.600525 256.947754,386.448608 
	C256.930573,396.949615 256.892487,406.981110 256.854370,417.012573 
z"/>
<path fill="#0B85E0" opacity="1.000000" stroke="none" 
	d="
M218.996155,374.994598 
	C217.189865,376.530792 215.629135,378.733978 213.540375,379.503052 
	C183.000839,390.748230 152.393219,401.808685 121.792023,412.886078 
	C119.766647,413.619202 117.662125,414.133698 115.244003,414.899231 
	C108.656807,410.258179 106.094040,403.332550 105.151222,396.060364 
	C103.909813,386.484985 103.689232,376.778534 102.983360,367.131836 
	C102.733101,363.711609 102.346909,360.301361 102.506897,356.441315 
	C106.972008,355.007141 111.072563,354.350891 114.912949,352.970734 
	C130.317947,347.434570 145.642303,341.673981 161.153351,336.382385 
	C161.541336,341.215515 162.028442,345.668518 161.925476,350.107849 
	C161.837311,353.910156 163.316895,355.851929 166.930862,356.878021 
	C172.027557,358.324982 177.034378,360.105103 182.036575,361.865112 
	C194.369522,366.204437 206.677902,370.613556 218.996155,374.994598 
z"/>
<path fill="#229CEF" opacity="1.000000" stroke="none" 
	d="
M271.534698,54.096169 
	C270.414886,55.470348 269.035126,57.332054 267.217682,57.996521 
	C218.759262,75.713097 170.243103,93.271622 121.768372,110.943657 
	C108.640709,115.729500 95.615143,120.795357 82.217163,125.890274 
	C81.263283,121.754601 80.459534,117.477943 80.050949,113.163864 
	C79.538681,107.755028 79.350578,102.315491 79.469254,96.532860 
	C82.817146,96.026268 85.947479,96.534874 88.582298,95.618614 
	C105.401337,89.769753 122.120148,83.631615 138.854660,77.541176 
	C155.275269,71.564980 171.651276,65.465096 188.104675,59.581192 
	C191.400513,58.402573 191.889206,56.856274 189.998566,54.166973 
	C217.022644,54.119907 244.046722,54.072838 271.534698,54.096169 
z"/>
<path fill="#148EE6" opacity="1.000000" stroke="none" 
	d="
M93.095520,258.424866 
	C101.711716,255.360687 110.359436,253.016190 118.781479,250.034286 
	C144.656754,240.872894 170.445602,231.467392 196.638062,222.522644 
	C197.670929,235.925323 198.333786,248.962143 198.649750,262.087341 
	C194.146149,263.856506 190.030899,265.650177 185.824738,267.196533 
	C174.007385,271.541138 162.148682,275.773163 150.313522,280.069489 
	C135.307861,285.516693 120.342918,291.079651 105.274269,296.346191 
	C102.798180,297.211609 99.879898,296.811829 97.165985,296.996765 
	C96.444695,292.058929 95.555466,287.138489 95.040825,282.179199 
	C94.235390,274.417603 93.683250,266.629730 93.095520,258.424866 
z"/>
<path fill="#108AE3" opacity="1.000000" stroke="none" 
	d="
M97.094604,297.452698 
	C99.879898,296.811829 102.798180,297.211609 105.274269,296.346191 
	C120.342918,291.079651 135.307861,285.516693 150.313522,280.069489 
	C162.148682,275.773163 174.007385,271.541138 185.824738,267.196533 
	C190.030899,265.650177 194.146149,263.856506 198.652191,262.530029 
	C199.315933,265.850861 199.586243,268.822784 199.955200,271.782440 
	C200.490112,276.073273 199.242416,278.252869 194.322525,278.090576 
	C185.020462,277.783783 175.700958,277.991669 166.388763,278.010406 
	C159.315277,278.024658 158.824661,278.319763 159.044098,285.267242 
	C159.578278,302.180603 160.331482,319.087097 160.996460,335.996338 
	C145.642303,341.673981 130.317947,347.434570 114.912949,352.970734 
	C111.072563,354.350891 106.972008,355.007141 102.578735,355.995972 
	C100.452026,336.633423 98.737617,317.271057 97.094604,297.452698 
z"/>
<path fill="#1D97EC" opacity="1.000000" stroke="none" 
	d="
M272.000000,85.997459 
	C273.375183,84.931259 274.592682,83.438026 276.149323,82.863220 
	C297.808472,74.865379 319.533661,67.046158 341.177490,59.007565 
	C343.306488,58.216846 345.005585,56.268631 346.950806,54.512001 
	C370.821899,54.112061 394.647369,53.915894 418.470367,54.079929 
	C426.888123,54.137886 434.781555,62.269848 435.713593,71.658661 
	C425.280853,76.038559 415.177734,80.017944 404.997101,83.787819 
	C401.904999,84.932831 399.655975,86.356354 399.681274,89.864197 
	C395.520905,88.469902 391.665466,86.238892 387.794128,86.210892 
	C349.197571,85.931740 310.598419,86.015877 272.000000,85.997459 
z"/>
<path fill="#1D97EC" opacity="1.000000" stroke="none" 
	d="
M84.094376,150.450287 
	C87.680016,149.375168 91.359032,149.221786 94.680000,148.051956 
	C112.251244,141.862488 129.732422,135.417313 147.622314,129.498108 
	C148.997177,145.954300 149.994553,161.973145 150.991928,177.991989 
	C132.393265,184.910583 113.813324,191.880615 95.167313,198.669174 
	C93.276520,199.357574 90.987701,198.952713 88.525116,199.025528 
	C86.785263,182.964905 85.403900,166.933945 84.094376,150.450287 
z"/>
<path fill="#249EF0" opacity="1.000000" stroke="none" 
	d="
M189.534683,54.096436 
	C191.889206,56.856274 191.400513,58.402573 188.104675,59.581192 
	C171.651276,65.465096 155.275269,71.564980 138.854660,77.541176 
	C122.120148,83.631615 105.401337,89.769753 88.582298,95.618614 
	C85.947479,96.534874 82.817146,96.026268 79.541573,96.087555 
	C78.444504,89.009125 77.154648,82.021729 77.129059,75.029716 
	C77.088409,63.917336 86.811043,53.780674 98.271622,53.896534 
	C128.535355,54.202477 158.804062,54.016216 189.534683,54.096436 
z"/>
<path fill="#0B85E0" opacity="1.000000" stroke="none" 
	d="
M421.831451,244.995026 
	C420.944397,254.884293 420.027039,264.770966 419.182373,274.663879 
	C418.723328,280.040314 418.452118,285.432953 417.979492,290.808014 
	C417.467926,296.625916 416.820496,302.431885 415.664307,308.653015 
	C412.326691,310.073120 409.576172,311.139954 406.783783,312.082581 
	C398.879730,314.750610 390.958527,317.367767 383.022522,319.552551 
	C384.702301,299.738190 386.403625,280.376312 388.405640,260.872833 
	C391.400330,258.705811 393.831940,256.075531 396.838745,254.771103 
	C405.039825,251.213181 413.483734,248.214966 421.831451,244.995026 
z"/>
<path fill="#148EE6" opacity="1.000000" stroke="none" 
	d="
M431.833679,126.996841 
	C430.935303,138.240692 430.040649,149.484833 429.136627,160.728210 
	C428.768890,165.301804 428.388885,169.874435 427.999451,174.446228 
	C427.667328,178.345413 427.313721,182.242752 426.568604,186.664124 
	C415.185059,191.464005 404.202515,195.740677 393.186462,199.594025 
	C394.803711,181.450241 396.454529,163.729782 398.449951,145.973740 
	C399.726379,145.212036 400.658173,144.485901 401.589996,143.759781 
	C400.685120,142.833359 399.780212,141.906921 398.876495,140.649048 
	C398.904358,139.876495 398.931030,139.435379 399.343689,138.965637 
	C401.790009,138.304718 403.893829,137.786560 405.903107,137.020416 
	C414.561768,133.718872 423.192688,130.344620 431.833679,126.996841 
z"/>
<path fill="#108AE3" opacity="1.000000" stroke="none" 
	d="
M393.220001,200.017334 
	C404.202515,195.740677 415.185059,191.464005 426.499451,187.092072 
	C425.936462,197.236923 425.048309,207.477631 424.143402,217.716843 
	C423.783417,221.790314 423.349701,225.857498 423.015747,229.932968 
	C422.628204,234.662567 422.313477,239.398148 421.899292,244.563065 
	C413.483734,248.214966 405.039825,251.213181 396.838745,254.771103 
	C393.831940,256.075531 391.400330,258.705811 388.373413,260.429749 
	C389.766968,240.091293 391.493500,220.054306 393.220001,200.017334 
z"/>
<path fill="#0680DD" opacity="1.000000" stroke="none" 
	d="
M383.044067,320.005005 
	C390.958527,317.367767 398.879730,314.750610 406.783783,312.082581 
	C409.576172,311.139954 412.326691,310.073120 415.463745,309.028870 
	C414.932526,320.241638 414.013275,331.486938 413.143921,342.736115 
	C412.713715,348.302643 412.425507,353.880402 411.967957,359.444427 
	C411.810059,361.364594 411.334167,363.258606 410.918091,365.580627 
	C400.110565,370.279297 389.388489,374.561951 378.291443,378.462280 
	C379.321838,361.720062 380.727112,345.360138 382.344482,328.916565 
	C382.441864,328.222626 382.327179,327.612305 382.235168,326.616089 
	C382.519928,324.155121 382.782013,322.080078 383.044067,320.005005 
z"/>
<path fill="#1791E8" opacity="1.000000" stroke="none" 
	d="
M432.032806,126.620941 
	C423.192688,130.344620 414.561768,133.718872 405.903107,137.020416 
	C403.893829,137.786560 401.790009,138.304718 399.337219,138.506622 
	C399.857666,127.059235 401.064056,116.055145 401.550262,105.019333 
	C401.768646,100.062218 400.547028,95.041664 399.978821,90.049896 
	C399.655975,86.356354 401.904999,84.932831 404.997101,83.787819 
	C415.177734,80.017944 425.280853,76.038559 435.766907,72.050781 
	C436.393860,74.652435 437.042328,77.367775 436.865997,80.028473 
	C436.456421,86.210114 435.632843,92.363747 435.006378,98.531708 
	C434.068298,107.768143 433.155457,117.007141 432.032806,126.620941 
z"/>
<path fill="#35C1F1" opacity="1.000000" stroke="none" 
	d="
M399.681274,89.864197 
	C400.547028,95.041664 401.768646,100.062218 401.550262,105.019333 
	C401.064056,116.055145 399.857666,127.059235 398.951233,138.535263 
	C398.931030,139.435379 398.904358,139.876495 398.700256,140.968155 
	C398.383698,143.082245 398.244507,144.545776 398.105347,146.009308 
	C396.454529,163.729782 394.803711,181.450241 393.186462,199.594025 
	C391.493500,220.054306 389.766968,240.091293 388.072693,260.571350 
	C386.403625,280.376312 384.702301,299.738190 383.022552,319.552551 
	C382.782013,322.080078 382.519928,324.155121 382.184082,326.946838 
	C382.117645,328.109100 382.125000,328.554657 382.132385,329.000244 
	C380.727112,345.360138 379.321838,361.720062 377.919525,378.535156 
	C375.501617,389.597656 368.393463,394.985992 358.241150,397.815643 
	C327.210876,406.464417 296.276184,415.456238 265.307800,424.326813 
	C257.091980,426.680176 257.097778,426.700409 256.893433,417.457336 
	C256.892487,406.981110 256.930573,396.949615 257.011292,386.476196 
	C257.053894,386.034241 257.185852,386.074860 257.568817,386.044159 
	C258.283569,385.981140 258.635040,386.008972 258.944366,385.907928 
	C288.719330,376.183685 318.507385,366.498627 348.217529,356.580078 
	C349.800842,356.051514 351.675568,353.622345 351.804596,351.953522 
	C352.765015,339.528473 353.314972,327.071808 354.000732,314.625427 
	C354.713989,301.680298 355.370697,288.731598 356.167694,275.791595 
	C357.393250,255.892410 358.754730,236.001617 359.986389,216.102798 
	C360.777039,203.329086 361.374725,190.543365 362.174500,177.770264 
	C363.046539,163.843201 364.209259,149.932648 364.933044,135.998688 
	C365.294220,129.045303 364.979187,129.008041 358.075592,129.003967 
	C324.410706,128.984146 290.745789,128.976440 257.046814,128.978500 
	C257.012756,128.992554 256.945435,129.022675 256.962463,128.552094 
	C256.960175,115.390404 256.940887,102.699287 256.921570,90.008163 
	C256.843903,87.048843 258.388519,85.948013 261.219757,86.029419 
	C264.499634,86.123726 267.784790,86.033920 271.533813,86.010750 
	C310.598419,86.015877 349.197571,85.931740 387.794128,86.210892 
	C391.665466,86.238892 395.520905,88.469902 399.681274,89.864197 
z"/>
<path fill="#0F83D8" opacity="1.000000" stroke="none" 
	d="
M161.153366,336.382385 
	C160.331482,319.087097 159.578278,302.180603 159.044098,285.267242 
	C158.824661,278.319763 159.315277,278.024658 166.388763,278.010406 
	C175.700958,277.991669 185.020462,277.783783 194.322525,278.090576 
	C199.242416,278.252869 200.490112,276.073273 199.955200,271.782440 
	C199.586243,268.822784 199.315933,265.850861 198.999084,262.441681 
	C198.333786,248.962143 197.670929,235.925323 197.005569,222.445465 
	C197.040207,214.019623 197.040207,214.011581 204.822083,214.012634 
	C221.870300,214.014923 238.918518,214.026184 256.473755,214.026428 
	C256.980774,214.019058 257.066071,213.973129 257.040100,214.405823 
	C256.970337,216.572098 256.926514,218.305695 256.421478,220.032013 
	C238.249893,220.024750 220.539581,220.024750 202.309052,220.024750 
	C203.243271,236.571030 204.270035,252.102097 204.898438,267.649292 
	C205.067307,271.827057 206.533478,273.099274 210.544235,273.058014 
	C226.007736,272.898895 241.473740,272.983215 256.959961,273.397400 
	C256.954498,275.218567 256.927887,276.619110 256.438812,278.016235 
	C246.317780,278.012817 236.659073,277.984039 227.000778,278.034851 
	C224.843933,278.046204 222.521759,277.931213 222.632050,281.305847 
	C222.854874,288.123779 222.891220,294.947601 223.045929,301.768036 
	C223.142685,306.034790 224.857162,308.748077 229.363968,310.055634 
	C238.632645,312.744812 247.744019,315.976166 256.951019,319.403564 
	C256.962341,321.221466 256.942780,322.620270 256.527832,324.004761 
	C245.230804,320.427246 234.364441,316.749908 223.408905,313.360901 
	C219.420120,312.126984 217.756897,309.961823 217.938217,305.760071 
	C218.167526,300.446014 218.036255,295.104279 217.798096,289.786255 
	C217.630371,286.041016 216.096558,283.827667 211.596405,283.908020 
	C197.447556,284.160645 183.290451,284.093109 169.138657,283.946136 
	C165.185898,283.905090 163.651871,285.457001 163.994675,289.276611 
	C164.380402,293.574646 164.716476,297.878357 164.989685,302.184998 
	C165.641251,312.455688 166.270279,322.727997 166.852463,333.002808 
	C167.104950,337.458679 167.682983,341.967285 167.256134,346.368805 
	C166.887787,350.167145 168.207611,351.978333 171.545746,353.027863 
	C179.484802,355.523956 187.420288,358.033875 195.325882,360.633423 
	C215.886230,367.394135 236.429718,374.206116 256.996338,381.419983 
	C257.070435,383.253143 257.128143,384.664001 257.185852,386.074860 
	C257.185852,386.074860 257.053894,386.034241 256.990356,386.006653 
	C252.171860,384.600525 247.410477,383.243591 242.663330,381.838593 
	C235.036911,379.581390 227.419876,377.292450 219.397522,375.005737 
	C206.677902,370.613556 194.369522,366.204437 182.036575,361.865112 
	C177.034378,360.105103 172.027557,358.324982 166.930862,356.878021 
	C163.316895,355.851929 161.837311,353.910156 161.925476,350.107849 
	C162.028442,345.668518 161.541336,341.215515 161.153366,336.382385 
z"/>
<path fill="#1B8FE0" opacity="1.000000" stroke="none" 
	d="
M150.995224,178.429108 
	C149.994553,161.973145 148.997177,145.954300 148.000824,129.468338 
	C148.751328,128.999756 149.500839,128.998306 151.093750,128.997894 
	C186.939911,129.006851 221.942673,129.014771 256.945435,129.022675 
	C256.945435,129.022675 257.012756,128.992554 257.024963,129.401611 
	C257.000763,131.217987 256.964386,132.625320 256.466797,134.024231 
	C224.012375,134.014603 192.019119,134.012909 160.025848,134.014084 
	C158.859695,134.014114 157.391098,133.604828 156.595367,134.155243 
	C155.265152,135.075424 153.357880,136.682770 153.436569,137.886917 
	C154.400299,152.632858 155.913055,167.344894 156.751709,182.095947 
	C157.034637,187.072174 158.980362,188.105560 163.483994,188.083008 
	C194.643341,187.926910 225.803772,187.992950 256.979065,188.408569 
	C257.035583,190.236298 257.076904,191.643112 257.075989,193.035660 
	C257.033752,193.021408 256.952423,192.984879 256.952423,192.984879 
	C224.354767,192.990021 191.756439,192.891861 159.160141,193.105301 
	C153.930496,193.139557 151.338120,191.940384 151.816559,186.264099 
	C152.021027,183.838379 151.299362,181.334564 150.995224,178.429108 
z"/>
<path fill="#35C1F1" opacity="1.000000" stroke="none" 
	d="
M256.935425,214.036148 
	C256.920990,207.343643 256.951874,200.634033 256.967590,193.454651 
	C256.952423,192.984879 257.033752,193.021408 257.532532,193.021637 
	C271.078461,193.021851 284.125641,193.021851 297.474823,193.021851 
	C297.166962,198.752655 296.918579,203.526337 296.651764,208.298981 
	C296.415100,212.532837 294.436432,214.226929 289.951630,214.099121 
	C278.997467,213.786972 268.028870,213.982178 257.066071,213.973129 
	C257.066071,213.973129 256.980774,214.019058 256.935425,214.036148 
z"/>
<path fill="#1D97EC" opacity="1.000000" stroke="none" 
	d="
M256.962463,128.552094 
	C221.942673,129.014771 186.939911,129.006851 151.468536,128.996460 
	C155.247147,126.971573 159.366333,124.601334 163.762375,122.983147 
	C192.749634,112.312881 221.792633,101.793846 250.833694,91.270332 
	C252.530670,90.655418 254.369095,90.430923 256.531616,90.016449 
	C256.940887,102.699287 256.960175,115.390404 256.962463,128.552094 
z"/>
<path fill="#1791E8" opacity="1.000000" stroke="none" 
	d="
M398.449951,145.973740 
	C398.244507,144.545776 398.383698,143.082245 398.699097,141.299606 
	C399.780212,141.906921 400.685120,142.833359 401.589996,143.759781 
	C400.658173,144.485901 399.726379,145.212036 398.449951,145.973740 
z"/>
<path fill="#0B85E0" opacity="1.000000" stroke="none" 
	d="
M382.344482,328.916565 
	C382.125000,328.554657 382.117645,328.109100 382.161377,327.332764 
	C382.327179,327.612305 382.441864,328.222626 382.344482,328.916565 
z"/>
<path fill="#33B8E6" opacity="1.000000" stroke="none" 
	d="
M256.927979,134.032654 
	C256.964386,132.625320 257.000763,131.217987 257.059021,129.387543 
	C290.745789,128.976440 324.410706,128.984146 358.075592,129.003967 
	C364.979187,129.008041 365.294220,129.045303 364.933044,135.998688 
	C364.209259,149.932648 363.046539,163.843201 362.174500,177.770264 
	C361.374725,190.543365 360.777039,203.329086 359.986389,216.102798 
	C358.754730,236.001617 357.393250,255.892410 356.167694,275.791595 
	C355.370697,288.731598 354.713989,301.680298 354.000732,314.625427 
	C353.314972,327.071808 352.765015,339.528473 351.804596,351.953522 
	C351.675568,353.622345 349.800842,356.051514 348.217529,356.580078 
	C318.507385,366.498627 288.719330,376.183685 258.944366,385.907928 
	C258.635040,386.008972 258.283569,385.981140 257.568848,386.044159 
	C257.128143,384.664001 257.070435,383.253143 257.048462,381.431946 
	C257.084167,381.021637 257.189178,381.042175 257.536041,380.945892 
	C285.237213,371.851135 312.552765,362.731476 339.979736,353.960266 
	C345.231049,352.280884 347.268005,349.376678 347.028412,344.174622 
	C346.890869,341.187317 346.954224,338.177887 347.134430,335.190948 
	C348.393768,314.316315 349.722229,293.445862 350.997711,272.572205 
	C351.747040,260.309113 352.365875,248.037689 353.175110,235.778702 
	C354.388489,217.398224 355.805634,199.030945 356.968079,180.647430 
	C357.816742,167.225479 358.308746,153.781158 359.131226,140.357300 
	C359.519043,134.027115 359.701538,134.010452 353.468353,134.006927 
	C321.338379,133.988754 289.208435,133.986084 257.041321,133.992996 
	C257.004211,134.007996 256.928009,134.032654 256.927979,134.032654 
z"/>
<path fill="#117CCA" opacity="1.000000" stroke="none" 
	d="
M257.032043,381.009644 
	C236.429718,374.206116 215.886230,367.394135 195.325882,360.633423 
	C187.420288,358.033875 179.484802,355.523956 171.545746,353.027863 
	C168.207611,351.978333 166.887787,350.167145 167.256134,346.368805 
	C167.682983,341.967285 167.104950,337.458679 166.852463,333.002808 
	C166.270279,322.727997 165.641251,312.455688 164.989685,302.184998 
	C164.716476,297.878357 164.380402,293.574646 163.994675,289.276611 
	C163.651871,285.457001 165.185898,283.905090 169.138657,283.946136 
	C183.290451,284.093109 197.447556,284.160645 211.596405,283.908020 
	C216.096558,283.827667 217.630371,286.041016 217.798096,289.786255 
	C218.036255,295.104279 218.167526,300.446014 217.938217,305.760071 
	C217.756897,309.961823 219.420120,312.126984 223.408905,313.360901 
	C234.364441,316.749908 245.230804,320.427246 256.584106,324.236023 
	C257.035797,324.481567 257.152679,324.943115 257.123840,325.372406 
	C257.053802,327.232361 257.012604,328.663025 256.582458,330.137970 
	C242.959976,325.732941 229.746124,321.223419 216.476517,316.884460 
	C213.776337,316.001587 212.940735,314.529144 212.995728,311.802521 
	C213.145645,304.370026 213.047272,296.932556 213.047272,289.403931 
	C197.724579,289.403931 183.867188,289.403931 169.977493,289.403931 
	C169.903183,290.463135 169.793045,291.126404 169.819748,291.784119 
	C170.547913,309.727417 171.258514,327.671722 172.120285,345.608704 
	C172.164703,346.533508 173.352173,347.854187 174.298904,348.205719 
	C178.119812,349.624573 182.069153,350.692719 185.945847,351.967072 
	C209.633118,359.753448 233.313461,367.560913 256.999207,375.765991 
	C257.064575,377.794525 257.126862,379.418335 257.189178,381.042175 
	C257.189178,381.042175 257.084167,381.021637 257.032043,381.009644 
z"/>
<path fill="#108AE3" opacity="1.000000" stroke="none" 
	d="
M256.920135,318.984406 
	C247.744019,315.976166 238.632645,312.744812 229.363968,310.055634 
	C224.857162,308.748077 223.142685,306.034790 223.045929,301.768036 
	C222.891220,294.947601 222.854874,288.123779 222.632050,281.305847 
	C222.521759,277.931213 224.843933,278.046204 227.000778,278.034851 
	C236.659073,277.984039 246.317780,278.012817 256.505127,278.005951 
	C257.033936,277.999054 257.161926,277.971771 257.119110,278.441559 
	C257.109863,292.279663 257.143433,305.648010 257.112915,319.007538 
	C257.048798,318.998749 256.920135,318.984406 256.920135,318.984406 
z"/>
<path fill="#117CCA" opacity="1.000000" stroke="none" 
	d="
M256.938812,272.976746 
	C241.473740,272.983215 226.007736,272.898895 210.544235,273.058014 
	C206.533478,273.099274 205.067307,271.827057 204.898438,267.649292 
	C204.270035,252.102097 203.243271,236.571030 202.309052,220.024750 
	C220.539581,220.024750 238.249893,220.024750 256.481537,220.011810 
	C257.002869,219.998871 257.120636,219.955902 257.090057,220.359879 
	C257.037384,222.109802 257.015289,223.455750 256.530334,224.877075 
	C240.158630,224.952469 224.249756,224.952469 207.900391,224.952469 
	C208.671783,239.551468 209.404205,253.412689 210.175797,268.015411 
	C226.115997,268.015411 241.550934,268.015411 256.997925,268.434082 
	C257.052399,270.250153 257.094818,271.647552 257.087952,273.026978 
	C257.038696,273.008942 256.938812,272.976746 256.938812,272.976746 
z"/>
<path fill="#33B8E6" opacity="1.000000" stroke="none" 
	d="
M257.040100,214.405823 
	C268.028870,213.982178 278.997467,213.786972 289.951630,214.099121 
	C294.436432,214.226929 296.415100,212.532837 296.651764,208.298981 
	C296.918579,203.526337 297.166962,198.752655 297.474823,193.021851 
	C284.125641,193.021851 271.078461,193.021851 257.574768,193.035889 
	C257.076904,191.643112 257.035583,190.236298 257.017029,188.419983 
	C257.039856,188.010452 257.115143,188.035538 257.572815,188.025497 
	C271.335144,188.011642 284.640320,188.074661 297.943970,187.959366 
	C301.491180,187.928619 303.287140,189.104080 303.005676,192.848618 
	C302.446472,200.287109 301.933411,207.729401 301.457825,215.173721 
	C301.214996,218.974869 299.196259,220.106140 295.536560,220.056427 
	C282.733154,219.882523 269.926239,219.968582 257.120636,219.955902 
	C257.120636,219.955902 257.002869,219.998871 256.942810,220.019073 
	C256.926514,218.305695 256.970337,216.572098 257.040100,214.405823 
z"/>
<path fill="#33B8E6" opacity="1.000000" stroke="none" 
	d="
M257.152679,324.943115 
	C257.152679,324.943115 257.035797,324.481567 256.979492,324.250305 
	C256.942780,322.620270 256.962341,321.221466 256.951019,319.403564 
	C256.920135,318.984406 257.048798,318.998749 257.461853,318.919128 
	C267.354095,315.689911 276.893890,312.704681 286.261993,309.253571 
	C288.162018,308.553619 290.536591,306.236481 290.764771,304.422394 
	C291.612091,297.686188 291.533905,290.839722 292.041992,284.052521 
	C292.377075,279.576935 290.829651,277.781097 286.127899,277.916443 
	C276.480042,278.194122 266.818085,277.982178 257.161926,277.971771 
	C257.161926,277.971771 257.033936,277.999054 256.967590,278.009338 
	C256.927887,276.619110 256.954498,275.218567 256.959961,273.397400 
	C256.938812,272.976746 257.038696,273.008942 257.543396,273.015320 
	C268.676697,273.014832 279.305328,273.003479 289.933960,273.002625 
	C298.222534,273.001984 298.787781,273.824951 297.876984,282.295563 
	C297.063263,289.862701 296.115906,297.472504 296.173309,305.056335 
	C296.212036,310.178375 294.325165,312.514069 289.727081,313.980896 
	C278.813843,317.462280 268.004181,321.268280 257.152679,324.943115 
z"/>
<path fill="#1783D0" opacity="1.000000" stroke="none" 
	d="
M257.001862,187.999054 
	C225.803772,187.992950 194.643341,187.926910 163.483994,188.083008 
	C158.980362,188.105560 157.034637,187.072174 156.751709,182.095947 
	C155.913055,167.344894 154.400299,152.632858 153.436569,137.886917 
	C153.357880,136.682770 155.265152,135.075424 156.595367,134.155243 
	C157.391098,133.604828 158.859695,134.014114 160.025848,134.014084 
	C192.019119,134.012909 224.012375,134.014603 256.466827,134.024231 
	C256.928009,134.032654 257.004211,134.007996 257.020935,134.388153 
	C257.022095,136.343216 257.006531,137.918152 256.534485,139.596558 
	C223.848877,139.700043 191.619781,139.700043 158.804016,139.700043 
	C159.899734,154.308609 160.933060,168.085358 161.993164,182.219055 
	C174.994049,182.219055 187.287872,182.186127 199.581451,182.226669 
	C218.718521,182.289780 237.855408,182.402832 256.989227,182.888702 
	C257.029114,184.866974 257.072144,186.451263 257.115143,188.035538 
	C257.115143,188.035538 257.039856,188.010452 257.001862,187.999054 
z"/>
<path fill="#37AED9" opacity="1.000000" stroke="none" 
	d="
M256.990967,139.493073 
	C257.006531,137.918152 257.022095,136.343216 257.058044,134.373138 
	C289.208435,133.986084 321.338379,133.988754 353.468353,134.006927 
	C359.701538,134.010452 359.519043,134.027115 359.131226,140.357300 
	C358.308746,153.781158 357.816742,167.225479 356.968079,180.647430 
	C355.805634,199.030945 354.388489,217.398224 353.175110,235.778702 
	C352.365875,248.037689 351.747040,260.309113 350.997711,272.572205 
	C349.722229,293.445862 348.393768,314.316315 347.134430,335.190948 
	C346.954224,338.177887 346.890869,341.187317 347.028412,344.174622 
	C347.268005,349.376678 345.231049,352.280884 339.979736,353.960266 
	C312.552765,362.731476 285.237213,371.851135 257.536041,380.945892 
	C257.126862,379.418335 257.064575,377.794525 257.001129,375.639832 
	C256.999969,375.108948 256.998688,374.856537 257.372742,374.919037 
	C284.444214,366.260529 311.121094,357.475616 337.865936,348.902649 
	C341.059662,347.878906 341.305817,345.872803 341.463226,343.304382 
	C342.949585,319.051270 344.459961,294.799622 345.962280,270.547516 
	C348.205444,234.335785 350.455292,198.124481 352.683868,161.911850 
	C353.128601,154.684952 353.490479,147.452942 353.913727,139.804611 
	C341.323242,139.804611 329.362854,139.772919 317.402649,139.811707 
	C297.266663,139.876999 277.130829,139.987045 256.999390,139.931946 
	C257.003876,139.785599 256.990967,139.493073 256.990967,139.493073 
z"/>
<path fill="#D5DFE9" opacity="1.000000" stroke="none" 
	d="
M256.998047,375.235138 
	C233.313461,367.560913 209.633118,359.753448 185.945847,351.967072 
	C182.069153,350.692719 178.119812,349.624573 174.298904,348.205719 
	C173.352173,347.854187 172.164703,346.533508 172.120285,345.608704 
	C171.258514,327.671722 170.547913,309.727417 169.819748,291.784119 
	C169.793045,291.126404 169.903183,290.463135 169.977493,289.403931 
	C183.867188,289.403931 197.724579,289.403931 213.047272,289.403931 
	C213.047272,296.932556 213.145645,304.370026 212.995728,311.802521 
	C212.940735,314.529144 213.776337,316.001587 216.476517,316.884460 
	C229.746124,321.223419 242.959976,325.732941 256.605133,330.330811 
	C257.016754,330.479370 257.018402,330.867798 257.012878,331.279053 
	C257.004456,346.079071 257.001587,360.467804 256.998688,374.856537 
	C256.998688,374.856537 256.999969,375.108948 256.998047,375.235138 
z"/>
<path fill="#37AED9" opacity="1.000000" stroke="none" 
	d="
M257.123840,325.372375 
	C268.004181,321.268280 278.813843,317.462280 289.727081,313.980896 
	C294.325165,312.514069 296.212036,310.178375 296.173309,305.056335 
	C296.115906,297.472504 297.063263,289.862701 297.876984,282.295563 
	C298.787781,273.824951 298.222534,273.001984 289.933960,273.002625 
	C279.305328,273.003479 268.676697,273.014832 257.592651,273.033325 
	C257.094818,271.647552 257.052399,270.250153 257.021515,268.255615 
	C257.033020,267.658478 256.999573,267.299988 257.446960,267.445251 
	C273.129272,267.590546 288.364197,267.590546 303.992798,267.590546 
	C302.960876,282.814789 301.843750,297.060486 301.137268,311.326477 
	C300.965515,314.794830 299.717285,316.172119 296.596130,317.211884 
	C283.356445,321.622437 270.203217,326.292542 257.018402,330.867798 
	C257.018402,330.867798 257.016754,330.479370 256.994080,330.286530 
	C257.012604,328.663025 257.053802,327.232361 257.123840,325.372375 
z"/>
<path fill="#35C1F1" opacity="1.000000" stroke="none" 
	d="
M257.119110,278.441559 
	C266.818085,277.982178 276.480042,278.194122 286.127899,277.916443 
	C290.829651,277.781097 292.377075,279.576935 292.041992,284.052521 
	C291.533905,290.839722 291.612091,297.686188 290.764771,304.422394 
	C290.536591,306.236481 288.162018,308.553619 286.261993,309.253571 
	C276.893890,312.704681 267.354095,315.689911 257.525940,318.927917 
	C257.143433,305.648010 257.109863,292.279663 257.119110,278.441559 
z"/>
<path fill="#D5DFE9" opacity="1.000000" stroke="none" 
	d="
M257.009460,267.836945 
	C241.550934,268.015411 226.115997,268.015411 210.175797,268.015411 
	C209.404205,253.412689 208.671783,239.551468 207.900391,224.952469 
	C224.249756,224.952469 240.158630,224.952469 256.531891,224.979431 
	C256.996277,225.006409 256.995605,225.211227 256.993469,225.666534 
	C256.994080,239.847900 256.996826,253.573944 256.999573,267.299988 
	C256.999573,267.299988 257.033020,267.658478 257.009460,267.836945 
z"/>
<path fill="#37AED9" opacity="1.000000" stroke="none" 
	d="
M257.572815,188.025497 
	C257.072144,186.451263 257.029114,184.866974 256.995972,182.744598 
	C257.005829,182.206482 256.995667,181.918137 257.454224,182.021362 
	C274.823303,182.124588 291.733856,182.124588 309.308197,182.124588 
	C308.191986,196.866394 307.135162,210.824203 306.045837,225.211227 
	C289.221100,225.211227 273.108337,225.211227 256.995605,225.211227 
	C256.995605,225.211227 256.996277,225.006409 256.994751,224.904053 
	C257.015289,223.455750 257.037384,222.109802 257.090057,220.359863 
	C269.926239,219.968582 282.733154,219.882523 295.536560,220.056427 
	C299.196259,220.106140 301.214996,218.974869 301.457825,215.173721 
	C301.933411,207.729401 302.446472,200.287109 303.005676,192.848618 
	C303.287140,189.104080 301.491180,187.928619 297.943970,187.959366 
	C284.640320,188.074661 271.335144,188.011642 257.572815,188.025497 
z"/>
<path fill="#D6E0E9" opacity="1.000000" stroke="none" 
	d="
M256.999084,182.350601 
	C237.855408,182.402832 218.718521,182.289780 199.581451,182.226669 
	C187.287872,182.186127 174.994049,182.219055 161.993164,182.219055 
	C160.933060,168.085358 159.899734,154.308609 158.804016,139.700043 
	C191.619781,139.700043 223.848877,139.700043 256.534485,139.596558 
	C256.990967,139.493073 257.003876,139.785599 256.998840,140.395615 
	C256.994385,154.643127 256.995026,168.280640 256.995667,181.918137 
	C256.995667,181.918137 257.005829,182.206482 256.999084,182.350601 
z"/>
<path fill="#FEFFFF" opacity="1.000000" stroke="none" 
	d="
M257.454224,182.021362 
	C256.995026,168.280640 256.994385,154.643127 256.994354,140.541962 
	C277.130829,139.987045 297.266663,139.876999 317.402649,139.811707 
	C329.362854,139.772919 341.323242,139.804611 353.913727,139.804611 
	C353.490479,147.452942 353.128601,154.684952 352.683868,161.911850 
	C350.455292,198.124481 348.205444,234.335785 345.962280,270.547516 
	C344.459961,294.799622 342.949585,319.051270 341.463226,343.304382 
	C341.305817,345.872803 341.059662,347.878906 337.865936,348.902649 
	C311.121094,357.475616 284.444214,366.260529 257.372742,374.919037 
	C257.001587,360.467804 257.004456,346.079071 257.012878,331.279083 
	C270.203217,326.292542 283.356445,321.622437 296.596130,317.211884 
	C299.717285,316.172119 300.965515,314.794830 301.137268,311.326477 
	C301.843750,297.060486 302.960876,282.814789 303.992798,267.590546 
	C288.364197,267.590546 273.129272,267.590546 257.446960,267.445251 
	C256.996826,253.573944 256.994080,239.847900 256.993469,225.666534 
	C273.108337,225.211227 289.221100,225.211227 306.045837,225.211227 
	C307.135162,210.824203 308.191986,196.866394 309.308197,182.124588 
	C291.733856,182.124588 274.823303,182.124588 257.454224,182.021362 
z"/>
</svg>