<svg version="1.1" id="Layer_1" xmlns="http://www.w3.org/2000/svg" xmlns:xlink="http://www.w3.org/1999/xlink" x="0px" y="0px"
	 width="100%" viewBox="0 0 304 160" enable-background="new 0 0 304 160" xml:space="preserve">
<path fill="#000000" opacity="1.000000" stroke="none" 
	d="
M135.531342,1.000000 
	C129.955795,6.264985 122.843224,9.562778 115.731667,13.172908 
	C105.839264,18.194712 97.186005,25.258677 90.426765,34.492847 
	C84.576393,42.485367 79.241440,50.549786 77.597961,60.542133 
	C77.538063,60.906292 76.913841,61.177635 76.289459,61.721416 
	C74.208969,58.825111 73.434364,55.680325 75.762207,53.134106 
	C77.678551,51.037998 78.415100,48.667263 79.570969,46.310169 
	C80.956024,43.485714 81.998093,41.347553 79.593506,38.258968 
	C78.175934,36.438164 78.140625,33.425327 82.471909,33.467625 
	C87.812508,33.519794 96.925415,25.086811 97.584663,19.973051 
	C97.907936,17.465467 96.934380,16.111670 94.201500,16.488453 
	C92.892303,16.668953 91.508331,17.099274 90.271545,16.851297 
	C87.524368,16.300482 83.921814,20.880417 81.817604,14.717119 
	C80.923988,12.099710 77.440338,10.268963 77.727699,6.472672 
	C77.866417,4.640166 76.482323,3.084236 75.195480,1.299765 
	C80.022095,1.000000 85.044182,1.000000 90.472656,1.298087 
	C92.541428,3.781698 101.735031,5.637082 103.626190,4.152541 
	C104.786255,3.241897 104.373474,2.110554 104.000000,1.000000 
	C114.354225,1.000000 124.708458,1.000000 135.531342,1.000000 
z"/>
<path fill="#000000" opacity="1.000000" stroke="none" 
	d="
M212.531342,1.000000 
	C211.991928,2.975479 213.235077,4.097630 214.584854,5.178232 
	C219.616989,9.206869 221.232864,15.358622 224.175873,20.682074 
	C224.360458,21.015976 224.103394,21.594055 223.989700,22.617443 
	C221.452820,20.561867 218.899506,19.359879 216.060303,18.673246 
	C213.709473,18.104715 211.464798,17.587591 209.462311,19.328947 
	C207.287170,21.220472 210.177063,22.874977 209.841293,25.408022 
	C206.815445,23.555618 203.966827,22.027885 201.350739,20.172316 
	C190.631424,12.569180 178.778732,7.557743 165.977798,4.888628 
	C163.715317,4.416882 162.896286,3.399851 162.133636,1.309617 
	C178.687561,1.000000 195.375122,1.000000 212.531342,1.000000 
z"/>
<path fill="#000000" opacity="1.000000" stroke="none" 
	d="
M178.463181,161.000000 
	C181.287598,155.837219 187.120331,154.419815 192.086853,152.043701 
	C197.787460,149.316406 202.885071,145.868683 207.982315,142.144806 
	C204.588470,147.636826 200.529190,152.369888 194.421677,154.751953 
	C191.650177,155.832886 190.386780,157.475861 190.899399,160.700043 
	C186.975449,161.000000 182.950912,161.000000 178.463181,161.000000 
z"/>
<path fill="#000000" opacity="1.000000" stroke="none" 
	d="
M105.635559,143.419495 
	C93.246620,131.689514 83.051758,118.963715 78.754852,102.345810 
	C74.301834,85.124153 75.646126,68.355255 82.930191,52.202862 
	C91.243340,33.768509 105.332291,20.916534 123.594429,12.842127 
	C129.563080,10.203151 135.865494,8.033175 143.129990,11.211364 
	C148.265182,13.457994 154.689789,11.356975 160.393570,12.947577 
	C161.757248,13.327868 163.686584,12.898501 163.981155,14.921093 
	C164.261780,16.847914 162.922791,17.969599 161.356277,18.762758 
	C158.956223,19.977943 156.431519,20.960142 153.725266,20.924835 
	C144.751434,20.807760 135.760086,21.610998 126.802612,20.064571 
	C124.782211,19.715769 124.114761,18.648287 123.236763,16.944857 
	C118.972160,19.292540 114.467255,20.840078 111.853813,25.430258 
	C110.004303,28.678684 106.507759,30.336035 103.435051,32.328472 
	C100.386230,34.305428 99.128014,39.983719 100.851608,43.922333 
	C102.578789,47.869114 105.936066,47.980114 109.280640,46.945709 
	C112.289299,46.015198 115.739151,46.204208 118.158585,46.693806 
	C126.290184,48.339302 134.244949,45.747627 142.296356,46.858440 
	C146.293198,47.409866 149.926437,48.819992 154.503036,49.547302 
	C151.757874,52.402683 153.064804,54.386013 154.840347,56.679031 
	C160.035583,63.388409 164.912018,70.343750 170.051392,77.097679 
	C172.236160,79.968803 172.651276,82.327484 170.269836,85.508682 
	C164.390152,93.362846 158.279694,101.156891 153.467239,109.657417 
	C150.304276,115.244347 146.515182,117.440292 140.533203,117.397072 
	C138.791473,117.384491 136.840561,117.998528 135.337357,118.907288 
	C131.661346,121.129601 127.810318,121.329239 123.763763,120.702606 
	C122.447975,120.498856 121.136162,120.208702 119.812202,120.128380 
	C112.172325,119.664879 104.793503,124.320786 102.382996,131.110947 
	C101.601707,133.311737 102.705032,134.943710 104.112831,136.493866 
	C106.861565,139.520584 109.566208,142.587326 112.735153,146.137161 
	C109.501808,146.488846 107.794968,144.813263 105.635559,143.419495 
M146.933868,103.373291 
	C147.804382,101.581184 148.866318,99.853401 149.495819,97.980293 
	C150.241943,95.760147 149.523346,93.817390 146.989349,93.509407 
	C143.040222,93.029434 139.234314,92.514702 136.745422,97.238693 
	C133.277237,103.821419 126.865936,103.750458 120.557793,102.984276 
	C114.502708,102.248833 110.663185,98.698975 108.665878,93.007233 
	C107.291878,89.091713 107.792534,86.588348 112.732864,86.374535 
	C115.561981,86.252075 118.360764,86.073280 121.196716,86.287498 
	C129.675919,86.927963 138.168396,86.680916 146.660980,86.609047 
	C149.660446,86.583664 150.814423,85.481598 150.791443,82.480354 
	C150.759460,78.300240 150.458664,74.274742 149.098358,70.221771 
	C145.660934,59.980263 138.832977,53.423298 128.311920,51.557732 
	C117.331490,49.610718 107.740913,52.999229 100.964935,62.086967 
	C97.431938,66.825310 94.802773,72.282875 96.005959,78.608948 
	C97.071457,74.921982 98.631729,71.437004 100.106789,67.941345 
	C104.223206,58.186108 117.315010,52.029877 127.736023,53.322586 
	C140.392075,54.892544 148.319351,68.579063 149.320221,79.339386 
	C149.749359,83.953125 148.102356,85.241707 143.814590,85.184517 
	C132.991959,85.040176 122.161667,85.351479 111.342697,85.110191 
	C106.909546,85.011322 105.775742,86.769440 106.305519,90.769127 
	C107.386383,98.929665 113.029442,104.273331 121.213997,104.908592 
	C128.780869,105.495918 135.482559,104.526222 139.620148,96.979721 
	C141.021835,94.423225 144.023666,94.145050 146.253632,95.480835 
	C148.786469,96.998032 146.929413,99.328308 146.124893,101.214455 
	C145.676163,102.266472 145.004318,103.279366 144.233795,104.129288 
	C137.690216,111.347153 129.342178,114.259308 119.930710,112.808929 
	C109.564507,111.211418 101.570953,106.062637 98.719223,95.110901 
	C97.885834,91.910393 97.041504,88.712723 96.202194,85.513756 
	C93.943733,98.680618 103.042053,110.809196 118.764053,116.551346 
	C124.904831,118.794144 141.399307,111.385170 146.933868,103.373291 
M126.294182,77.805550 
	C128.628098,77.805550 130.962021,77.805550 133.295944,77.805550 
	C133.268768,77.278717 133.241577,76.751877 133.214401,76.225044 
	C126.593063,76.225044 119.970764,76.294022 113.350723,76.201477 
	C108.717369,76.136711 107.603394,74.259888 109.833527,70.284950 
	C113.003143,64.635506 117.884285,62.044407 124.375610,62.668365 
	C130.553131,63.262154 134.800232,66.281036 137.293762,72.151703 
	C138.087204,74.019775 136.166855,76.015671 137.942856,77.628815 
	C139.631378,77.156738 139.688004,76.070778 139.577408,74.835754 
	C138.942062,67.739639 132.196747,61.594349 124.619156,61.230980 
	C114.803329,60.760277 108.307426,65.293190 106.676468,73.470810 
	C106.094833,76.387154 107.044891,77.576790 109.858498,77.614418 
	C115.022781,77.683472 120.187065,77.753159 126.294182,77.805550 
z"/>
<path fill="#000000" opacity="1.000000" stroke="none" 
	d="
M168.401794,106.358887 
	C163.184128,113.869774 162.102539,114.334351 154.809860,112.380943 
	C154.489197,110.121696 156.205856,108.813538 157.307755,107.245529 
	C162.568741,99.759109 167.813126,92.260223 173.163040,84.837563 
	C174.894943,82.434639 174.736191,80.574562 172.926117,78.165947 
	C167.931015,71.519089 163.218094,64.659256 158.432037,57.856590 
	C156.056808,54.480549 156.676376,53.267109 160.748688,52.873379 
	C164.687698,52.492535 167.234940,54.245968 169.462128,57.439220 
	C173.235260,62.849030 176.200378,68.874702 181.694107,74.283592 
	C185.338531,69.198479 188.859299,64.476280 192.173126,59.613060 
	C196.160950,53.760700 199.834076,52.030960 205.605988,53.858433 
	C204.755264,57.929832 201.556000,60.572571 199.402191,63.782040 
	C196.166290,68.603951 192.798508,73.369370 189.090698,77.829514 
	C187.145813,80.169029 187.453583,81.548584 189.117889,83.799500 
	C195.254730,92.099358 201.135468,100.588409 207.132660,108.991943 
	C207.817032,109.950912 208.495850,110.864296 208.288345,112.099419 
	C201.533478,114.515343 199.085739,113.635437 195.371078,108.084610 
	C190.954208,101.484451 186.337662,95.017914 181.210358,87.633232 
	C176.717102,94.175888 172.645096,100.105156 168.401794,106.358887 
z"/>
<path fill="#000000" opacity="1.000000" stroke="none" 
	d="
M198.552246,27.362625 
	C195.690811,23.964396 191.020691,23.646618 188.344437,20.433262 
	C187.109634,18.950678 185.411682,19.165142 183.716614,19.537062 
	C179.687164,20.421177 175.797943,18.929777 171.827576,18.741268 
	C170.648880,18.685308 169.567947,18.078417 169.591110,16.207241 
	C171.593674,14.361499 177.188095,16.372866 175.542801,10.511963 
	C183.518326,10.829572 189.599503,14.368842 194.866577,18.388958 
	C203.396957,24.899790 211.644135,31.895016 217.858948,40.961094 
	C221.122467,45.721874 222.859222,51.084358 225.214508,56.197521 
	C226.660355,59.336349 225.450806,62.287846 222.426712,63.842442 
	C219.466217,65.364349 217.421631,67.628288 215.604080,70.231720 
	C214.510040,71.798828 213.063126,72.747940 211.281357,73.431702 
	C203.800720,76.302429 202.358063,78.655182 203.025558,86.551155 
	C203.176743,88.339737 203.366516,90.125046 203.558365,92.117958 
	C199.669281,93.413185 197.269226,91.651939 195.304886,88.997147 
	C193.922821,87.129295 192.866577,85.014740 191.435455,83.190269 
	C189.750366,81.042007 190.368317,79.573578 191.891678,77.525436 
	C197.421326,70.090843 204.780655,63.981213 208.309326,55.089748 
	C208.610855,54.329998 208.889832,53.561298 209.087967,53.037930 
	C208.545853,50.802219 206.516891,51.420700 205.160172,50.345070 
	C205.638443,47.188587 204.437622,44.051258 203.842529,40.848503 
	C202.964737,36.124390 202.964249,30.961933 198.552246,27.362625 
z"/>
<path fill="#000000" opacity="1.000000" stroke="none" 
	d="
M165.028900,117.026962 
	C169.571930,109.574692 174.064713,102.091087 178.681931,94.685081 
	C180.618378,91.579048 182.421814,92.141502 184.221527,95.065292 
	C187.969559,101.154243 191.896729,107.132675 195.721313,113.174858 
	C197.194641,115.502449 198.796814,117.096100 201.799072,115.387253 
	C203.482010,114.429352 205.362244,114.895576 207.178116,115.234558 
	C208.615036,115.502792 210.269577,116.169052 211.243057,114.498344 
	C212.171356,112.905128 211.675827,111.256187 210.723892,109.787720 
	C209.097305,107.278549 207.380753,104.826561 205.801071,102.288872 
	C205.359436,101.579384 205.483047,100.706078 206.563904,99.805687 
	C209.312988,102.684608 211.180557,106.737923 215.902618,107.054390 
	C217.941391,107.191025 219.823303,107.707970 221.246735,105.611420 
	C222.045471,104.434952 223.319031,103.800072 224.729553,104.549484 
	C226.544540,105.513771 225.921402,107.109467 225.416306,108.501328 
	C221.701736,118.737320 216.872345,128.252365 208.578262,135.703079 
	C202.775116,140.916153 197.398621,146.627136 190.604752,150.627869 
	C188.392410,151.930649 186.216324,153.663040 181.651611,152.030533 
	C189.581192,148.256027 191.002075,139.160828 199.798508,137.287308 
	C203.515549,136.495636 204.407806,131.501587 205.737091,128.069733 
	C206.904709,125.055191 204.122559,123.616692 202.033707,121.810394 
	C197.521759,117.908699 191.933807,115.667526 187.547119,111.426384 
	C184.887115,108.854622 179.885757,109.453491 176.965668,111.917015 
	C173.534821,114.811409 169.737808,115.814621 165.344116,116.853714 
	C165.001587,116.999779 165.028900,117.026962 165.028900,117.026962 
z"/>
<path fill="#000000" opacity="1.000000" stroke="none" 
	d="
M219.327454,37.732193 
	C216.545135,34.478310 213.993561,31.500734 211.196838,28.237089 
	C213.751587,26.910328 215.469971,27.821377 216.348251,29.309969 
	C220.268509,35.954418 227.727036,39.281895 231.522659,46.129059 
	C234.945786,52.304241 238.704773,58.039074 235.698410,65.606407 
	C234.786453,67.901886 235.472168,70.835663 237.292221,72.560257 
	C239.317871,74.479675 237.892197,75.672661 236.898544,77.348648 
	C242.194992,78.261208 241.333237,82.005798 240.803772,85.432236 
	C240.410767,87.975533 238.217468,88.190178 236.179016,88.280396 
	C234.061447,88.374115 234.140198,86.678162 233.693817,85.239021 
	C232.369598,80.969711 234.465302,76.570930 233.258698,72.407150 
	C229.810272,60.507252 225.919754,48.758846 219.327454,37.732193 
z"/>
<path fill="#000000" opacity="1.000000" stroke="none" 
	d="
M169.671326,53.414612 
	C169.025864,51.496807 169.301193,50.364830 171.293716,50.659912 
	C172.264023,50.803608 173.277298,51.123871 174.114395,51.625656 
	C180.273468,55.317612 186.430099,57.896454 193.049698,51.848366 
	C188.961090,58.113274 186.921295,65.266716 180.736847,70.642021 
	C176.959625,64.789711 173.389343,59.258011 169.671326,53.414612 
z"/>
<path fill="#000000" opacity="1.000000" stroke="none" 
	d="
M213.167938,135.069305 
	C222.112091,124.840485 228.886139,113.803604 230.950821,100.192078 
	C233.873459,101.651672 233.482788,103.153557 233.372406,104.647339 
	C232.804443,112.334457 230.493988,120.424011 226.287476,125.796188 
	C222.277390,130.917511 217.901596,137.652985 210.159195,140.296982 
	C210.049377,137.509430 211.972687,136.699600 213.167938,135.069305 
z"/>
<path fill="#000000" opacity="1.000000" stroke="none" 
	d="
M229.768921,90.525024 
	C228.816162,93.878792 229.890228,97.239784 227.346420,99.854622 
	C227.393784,90.015175 225.524216,80.186913 227.904312,70.374634 
	C231.569702,76.668839 229.724487,83.466377 229.768921,90.525024 
z"/>
<path fill="#000000" opacity="1.000000" stroke="none" 
	d="
M84.563583,130.857422 
	C80.209099,125.990799 77.443710,120.907043 78.890633,114.284508 
	C83.610733,120.630402 85.699379,128.367798 91.059441,134.910492 
	C86.599724,135.888245 85.910530,133.172806 84.563583,130.857422 
z"/>
<path fill="#000000" opacity="1.000000" stroke="none" 
	d="
M75.761963,100.864845 
	C72.786140,102.951057 71.304459,100.776627 70.421585,98.809021 
	C69.458969,96.663666 67.272881,94.764618 68.216156,91.983513 
	C73.893616,90.216606 75.369217,91.885262 75.761963,100.864845 
z"/>
<path fill="#000000" opacity="1.000000" stroke="none" 
	d="
M164.988663,116.985550 
	C164.794830,120.110847 163.096069,121.796791 159.999100,122.013527 
	C158.399689,122.125450 156.595566,122.557411 155.611862,120.693535 
	C155.008575,119.550453 155.381775,118.429459 156.166901,117.488625 
	C157.294312,116.137596 158.507706,115.317123 160.444000,116.228622 
	C161.587219,116.766792 162.981812,116.770966 164.646133,117.021126 
	C165.028900,117.026962 165.001587,116.999779 164.988663,116.985550 
z"/>
</svg>