<?xml version="1.0" encoding="UTF-8"?>
<svg version="1.1" xmlns="http://www.w3.org/2000/svg" width="225" height="225">
<path d="M0 0 C74.25 0 148.5 0 225 0 C225 74.25 225 148.5 225 225 C150.75 225 76.5 225 0 225 C0 150.75 0 76.5 0 0 Z " fill="#BA4A95" transform="translate(0,0)"/>
<path d="M0 0 C0 73.92 0 147.84 0 224 C-110.64337561 231.16770985 -110.64337561 231.16770985 -134.81310844 209.94210625 C-139.38394544 205.73501563 -143.53633117 201.22596822 -147.5625 196.5 C-148.40392485 195.51348009 -148.40392485 195.51348009 -149.26234818 194.50703049 C-156.09872066 186.39334971 -162.307706 177.95253842 -168 169 C-166.71375689 166.17657804 -165.3710241 164.12118241 -163.1798315 161.93094254 C-162.60170584 161.34821807 -162.02358017 160.76549361 -161.42793554 160.16511083 C-160.79243687 159.53475572 -160.15693821 158.90440062 -159.50218201 158.25494385 C-158.48999787 157.23913809 -158.48999787 157.23913809 -157.45736557 156.202811 C-155.19042556 153.93022601 -152.91639453 151.66487225 -150.64233398 149.39941406 C-149.01764378 147.7736512 -147.39338656 146.14745554 -145.76953125 144.52085876 C-141.35487797 140.10135236 -136.9339905 135.68813054 -132.51184344 131.276124 C-127.89256221 126.66561233 -123.27853971 122.04984355 -118.66383362 117.43475342 C-110.9154436 109.68730033 -103.1632144 101.94370636 -95.40844727 94.20263672 C-87.42239216 86.23068041 -79.43985927 78.25521901 -71.46118164 70.27587891 C-70.96941822 69.78407553 -70.4776548 69.29227215 -69.97098946 68.78556564 C-69.48009054 68.29462637 -68.98919162 67.8036871 -68.48341697 67.29787087 C-59.86707908 58.68087891 -51.24784852 50.06678791 -42.62703133 41.45427704 C-38.95120831 37.78199439 -35.27624474 34.10885477 -31.6019268 30.43506622 C-27.28122758 26.11536764 -22.95800097 21.7982146 -18.63275909 17.48306465 C-17.04071252 15.89395175 -15.44952426 14.30397844 -13.85923195 12.71310997 C-11.6987345 10.55212579 -9.53521337 8.39421702 -7.37083435 6.23712158 C-6.41424027 5.2782046 -6.41424027 5.2782046 -5.43832105 4.29991555 C-1.11417869 0 -1.11417869 0 0 0 Z " fill="#58519C" transform="translate(225,1)"/>
<path d="M0 0 C74.25 0 148.5 0 225 0 C221.46985769 4.11849936 218.10892384 8.0173203 214.31918335 11.8347168 C213.43322983 12.72927078 212.54727631 13.62382477 211.63447571 14.54548645 C210.67093314 15.51346214 209.70732313 16.4813707 208.74365234 17.44921875 C207.71461538 18.48617231 206.68575572 19.52330184 205.65705872 20.56059265 C202.30372564 23.93992272 198.9451354 27.31400124 195.5859375 30.6875 C194.42641215 31.85239052 193.26689298 33.0172872 192.10737991 34.18218994 C187.28829483 39.0228532 182.46779247 43.86209764 177.64356041 48.69763184 C170.73839395 55.61908826 163.84190043 62.5489391 156.95701826 69.49057484 C152.1069966 74.37921051 147.24750862 79.258305 142.38079226 84.13032055 C139.47597736 87.03879488 136.57552626 89.95133435 133.68510056 92.87411499 C130.97247074 95.61668208 128.24836659 98.34729298 125.51482201 101.06900978 C124.5123159 102.07129408 123.51410623 103.07789638 122.52049065 104.08899498 C121.16749165 105.46450273 119.79761026 106.82334439 118.42684937 108.18115234 C117.28261033 109.3303566 117.28261033 109.3303566 116.11525536 110.5027771 C114 112 114 112 112.01438713 112.0067749 C109.28355812 110.64192796 107.50186015 108.87327381 105.34295654 106.71044922 C104.41190094 105.78496277 103.48084534 104.85947632 102.52157593 103.90594482 C101.496988 102.87233446 100.47254838 101.83857706 99.44824219 100.8046875 C98.36455881 99.72179493 97.28022237 98.63955555 96.19528198 97.55792236 C93.25073933 94.61851649 90.31562364 91.66985834 87.38222408 88.71933746 C84.3149995 85.63709156 81.23968558 82.56293739 78.16534424 79.48779297 C73.00558496 74.32434069 67.85149812 69.15528245 62.70117188 63.98242188 C56.08108532 57.33343029 49.4517334 50.69375754 42.81940842 44.05697632 C37.12682649 38.36042096 31.43851411 32.65960777 25.75088596 26.95810699 C23.91744138 25.12055645 22.08340503 23.28359809 20.24929047 21.44671631 C17.37404702 18.56659399 14.50147018 15.68383779 11.63098526 12.79897308 C10.57401328 11.73746357 9.5161841 10.67680685 8.45746231 9.61704254 C7.01901906 8.17686419 5.58395915 6.73330887 4.14910889 5.28955078 C3.34312634 4.48059357 2.53714378 3.67163635 1.70673752 2.83816528 C0 1 0 1 0 0 Z " fill="#FEFDFE" transform="translate(0,0)"/>
<path d="M0 0 C3.89905264 1.59634816 6.36393329 4.11649777 9.31933594 7.07641602 C9.83685928 7.59204102 10.35438263 8.10766602 10.8875885 8.63891602 C12.59143797 10.33907008 14.28799664 12.04630016 15.984375 13.75390625 C17.16656633 14.93728982 18.3491277 16.12030382 19.53204346 17.30296326 C22.00640804 19.77889038 24.47738025 22.25813731 26.94580078 24.73999023 C30.11744256 27.92866794 33.29567413 31.11067649 36.47622299 34.29046726 C38.91621978 36.73073522 41.35360741 39.17359482 43.79010773 41.61735344 C44.96175 42.79218733 46.13400727 43.9664082 47.30687714 45.14001656 C48.9398712 46.77516634 50.56953697 48.41355824 52.19824219 50.05297852 C53.59245392 51.45290794 53.59245392 51.45290794 55.01483154 52.88111877 C57 55 57 55 57 56 C20.04 56 -16.92 56 -55 56 C-51.31435491 51.70008072 -47.79795806 47.67412915 -43.82080078 43.70727539 C-43.34199966 43.22832825 -42.86319855 42.7493811 -42.36988831 42.25592041 C-40.81405925 40.70077834 -39.25473784 39.14919135 -37.6953125 37.59765625 C-36.60507635 36.50928861 -35.51506331 35.42069743 -34.42526245 34.33189392 C-31.57688206 31.48730465 -28.72550996 28.64573319 -25.87347412 25.80480957 C-22.95548 22.89710335 -20.04036696 19.98651176 -17.125 17.07617188 C-11.41946016 11.38130919 -5.71075206 5.68963588 0 0 Z " fill="#FDFDFE" transform="translate(168,169)"/>
<path d="M0 0 C3.89905264 1.59634816 6.36393329 4.11649777 9.31933594 7.07641602 C9.83685928 7.59204102 10.35438263 8.10766602 10.8875885 8.63891602 C12.59143797 10.33907008 14.28799664 12.04630016 15.984375 13.75390625 C17.16656633 14.93728982 18.3491277 16.12030382 19.53204346 17.30296326 C22.00640804 19.77889038 24.47738025 22.25813731 26.94580078 24.73999023 C30.11744256 27.92866794 33.29567413 31.11067649 36.47622299 34.29046726 C38.91621978 36.73073522 41.35360741 39.17359482 43.79010773 41.61735344 C44.96175 42.79218733 46.13400727 43.9664082 47.30687714 45.14001656 C48.9398712 46.77516634 50.56953697 48.41355824 52.19824219 50.05297852 C53.59245392 51.45290794 53.59245392 51.45290794 55.01483154 52.88111877 C57 55 57 55 57 56 C20.04 56 -16.92 56 -55 56 C-51.31435491 51.70008072 -47.79795806 47.67412915 -43.82080078 43.70727539 C-43.34199966 43.22832825 -42.86319855 42.7493811 -42.36988831 42.25592041 C-40.81405925 40.70077834 -39.25473784 39.14919135 -37.6953125 37.59765625 C-36.60507635 36.50928861 -35.51506331 35.42069743 -34.42526245 34.33189392 C-31.57688206 31.48730465 -28.72550996 28.64573319 -25.87347412 25.80480957 C-22.95548 22.89710335 -20.04036696 19.98651176 -17.125 17.07617188 C-11.41946016 11.38130919 -5.71075206 5.68963588 0 0 Z " fill="#FEFDFE" transform="translate(55,169)"/>
<path d="M0 0 C0 36.63 0 73.26 0 111 C-4.29991928 107.31435491 -8.32587085 103.79795806 -12.29272461 99.82080078 C-12.77167175 99.34199966 -13.2506189 98.86319855 -13.74407959 98.36988831 C-15.29922166 96.81405925 -16.85080865 95.25473784 -18.40234375 93.6953125 C-19.49071139 92.60507635 -20.57930257 91.51506331 -21.66810608 90.42526245 C-24.51269535 87.57688206 -27.35426681 84.72550996 -30.19519043 81.87347412 C-33.10289665 78.95548 -36.01348824 76.04036696 -38.92382812 73.125 C-44.61869081 67.41946016 -50.31036412 61.71075206 -56 56 C-50.6310585 49.48110123 -44.70230846 43.55642411 -38.73046875 37.59765625 C-37.64270175 36.50921464 -36.55508315 35.42062471 -35.46760559 34.33189392 C-33.20243515 32.06525765 -30.93548679 29.80041916 -28.66723633 27.53686523 C-25.75391151 24.62927813 -22.84515429 21.71716913 -19.93767834 18.80373478 C-17.69966038 16.56211584 -15.45928188 14.32286844 -13.21816444 12.08434868 C-12.14367502 11.0105277 -11.0699317 9.93595964 -9.99693871 8.86064339 C-8.50580975 7.36699113 -7.01154177 5.87655404 -5.51635742 4.38696289 C-4.66619553 3.53759659 -3.81603363 2.68823029 -2.94010925 1.81312561 C-1 0 -1 0 0 0 Z " fill="#5170B3" transform="translate(225,113)"/>
</svg>
