<?xml version="1.0" encoding="UTF-8"?>
<svg version="1.1" xmlns="http://www.w3.org/2000/svg" width="225" height="225">
<path d="M0 0 C74.25 0 148.5 0 225 0 C225 74.25 225 148.5 225 225 C150.75 225 76.5 225 0 225 C0 150.75 0 76.5 0 0 Z " fill="#FEFEFD" transform="translate(0,0)"/>
<path d="M0 0 C4.9655139 3.02311428 8.74835643 7.02409282 12.82672119 11.13816833 C14.22773071 12.53370186 14.22773071 12.53370186 15.65704346 13.95742798 C18.20914036 16.50014926 20.75177134 19.05214325 23.2925005 21.60621715 C25.9559912 24.28105282 28.62721995 26.94814136 31.29736328 29.61633301 C35.7778693 34.09595725 40.25236806 38.58151291 44.72320557 43.07078552 C49.89060616 48.25937131 55.06680017 53.4390528 60.24791932 58.61393732 C65.23640063 63.59672327 70.21919068 68.58516147 75.19921112 73.57640266 C77.31703591 75.69886918 79.43672964 77.81944289 81.55792999 79.93853569 C84.51800659 82.8963782 87.46965718 85.86249147 90.42047119 88.82957458 C91.30152527 89.70815125 92.18257935 90.58672791 93.09033203 91.4919281 C93.89216919 92.30085007 94.69400635 93.10977203 95.5201416 93.94320679 C96.56759237 94.99373686 96.56759237 94.99373686 97.63620377 96.06548977 C100.34895981 99.17760302 101.29536643 101.29860917 101.67730713 105.42356873 C100.94379116 113.932354 95.1398255 118.70193292 89.38287354 124.41868591 C88.46387772 125.34293869 87.5448819 126.26719147 86.59803772 127.2194519 C84.08634095 129.74478229 81.56529901 132.26058241 79.04201937 134.774333 C76.39864218 137.41009534 73.7626145 140.05319173 71.12539673 142.69511414 C66.69723535 147.12872679 62.26280095 151.55599132 57.82476807 155.97972107 C52.69711 161.09104378 47.58036236 166.21309776 42.46912825 171.3408401 C38.07539719 175.74819189 33.67583831 180.14966199 29.27136934 184.54628301 C26.64291849 187.17006188 24.01652462 189.79581355 21.3953743 192.42688751 C18.47396641 195.3585829 15.5404364 198.2778479 12.60552979 201.19602966 C11.73989914 202.067733 10.87426849 202.93943634 9.98240662 203.83755493 C8.7795829 205.02768944 8.7795829 205.02768944 7.55245972 206.24186707 C6.86040247 206.93279324 6.16834522 207.62371941 5.45531654 208.33558273 C2.12077357 211.06794326 -0.81887705 211.95951609 -5.07269287 212.42356873 C-13.15370018 211.57293638 -18.5484632 204.42561059 -24.00531006 198.95310974 C-24.92956284 198.0339679 -25.85381561 197.11482605 -26.80607605 196.16783142 C-29.32914158 193.65810141 -31.84582147 191.1420611 -34.36095715 188.62438703 C-36.46417519 186.52009627 -38.57036891 184.41879624 -40.67651391 182.31743568 C-45.6444199 177.36060452 -50.60700364 172.39848897 -55.56634521 167.43309021 C-60.6791258 162.31426126 -65.80103503 157.20469817 -70.92746425 152.09954125 C-75.33469698 147.7099239 -79.73610135 143.31452187 -84.13290715 138.9144606 C-86.75643592 136.28911985 -89.38213543 133.66604791 -92.01351166 131.04857063 C-94.94505989 128.13193118 -97.8643637 125.20332726 -100.78265381 122.27342224 C-102.09020882 120.97733284 -102.09020882 120.97733284 -103.42417908 119.65505981 C-104.21760208 118.8546225 -105.01102509 118.05418518 -105.82849121 117.22949219 C-106.51941738 116.53873376 -107.21034355 115.84797533 -107.92220688 115.13628483 C-110.65636199 111.80401026 -111.54623625 108.86400442 -112.01019287 104.61106873 C-111.28429744 97.71506209 -106.12112164 93.24835198 -101.39788818 88.58421326 C-100.78282913 87.96886215 -100.16777008 87.35351105 -99.53407288 86.71951294 C-97.51519581 84.70202081 -95.48934441 82.69169134 -93.46331787 80.68138123 C-92.05612245 79.2779189 -90.64937014 77.87401216 -89.24304199 76.46968079 C-85.55181363 72.78606548 -81.85461731 69.10849769 -78.15612793 65.43217468 C-74.37858581 61.67514116 -70.60674359 57.91239481 -66.83441162 54.15013123 C-59.44022624 46.77735469 -52.03972082 39.41095708 -44.63519287 32.04856873 C-43.51433453 33.00330585 -42.39432497 33.95903951 -41.27467346 34.91519165 C-40.33897884 35.71336697 -40.33897884 35.71336697 -39.38438129 36.52766705 C-37.34110959 38.30427117 -35.41848974 40.1673356 -33.52191162 42.09934998 C-32.83161865 42.79737732 -32.14132568 43.49540466 -31.43011475 44.21458435 C-30.73466553 44.92292419 -30.03921631 45.63126404 -29.32269287 46.36106873 C-27.91225262 47.79694523 -26.49960137 49.23065431 -25.08441162 50.66184998 C-24.46912598 51.28873718 -23.85384033 51.91562439 -23.21990967 52.56150818 C-21.6873866 54.14160657 -21.6873866 54.14160657 -19.63519287 55.04856873 C-19.68159912 55.91739685 -19.72800537 56.78622498 -19.77581787 57.68138123 C-20.05618509 64.89161668 -20.05618509 64.89161668 -17.94769287 71.67356873 C-15.79209763 74.14990891 -15.79209763 74.14990891 -13.03208923 75.34118652 C-10.63519287 77.04856873 -10.63519287 77.04856873 -9.99354553 79.62228394 C-9.98655136 80.65168594 -9.97955719 81.68108795 -9.97235107 82.74168396 C-9.95336258 83.90977097 -9.93437408 85.07785797 -9.91481018 86.28134155 C-9.92179428 87.54386246 -9.92877838 88.80638336 -9.93597412 90.10716248 C-9.92881882 91.40299759 -9.92166351 92.6988327 -9.91429138 94.03393555 C-9.90240825 96.77713679 -9.90912045 99.51952688 -9.92840576 102.26268005 C-9.95127895 105.77518862 -9.92453922 109.28527591 -9.8833437 112.79754543 C-9.85158553 116.15090324 -9.86476272 119.50366423 -9.87347412 122.85716248 C-9.85055046 124.74790749 -9.85055046 124.74790749 -9.8271637 126.67684937 C-9.87053083 129.91512846 -9.9542102 132.88234424 -10.63519287 136.04856873 C-13.56561279 138.74412537 -13.56561279 138.74412537 -16.63519287 140.04856873 C-20.22311606 143.99528423 -20.13818898 148.21456376 -19.98675537 153.32200623 C-19.33497654 158.37691315 -17.3082415 161.47691698 -13.57269287 164.98606873 C-8.37480037 166.8661575 -2.76815138 167.049532 2.52886963 165.35716248 C5.46083317 163.86622782 7.33080518 162.09353904 9.30230713 159.48606873 C11.22397021 153.26892346 11.55866395 147.43628238 8.61480713 141.54856873 C6.56440542 139.03591044 6.56440542 139.03591044 4.25256348 137.7406311 C2.36480713 136.04856873 2.36480713 136.04856873 1.88378906 133.52386475 C1.89711273 132.01495918 1.89711273 132.01495918 1.91070557 130.47557068 C1.91100769 129.33461441 1.91130981 128.19365814 1.91162109 127.01812744 C1.93226624 125.78680588 1.95291138 124.55548431 1.97418213 123.28684998 C1.97984192 122.02592026 1.98550171 120.76499054 1.99133301 119.46585083 C2.00994656 116.11661605 2.04587147 112.76847156 2.09014893 109.41954041 C2.13109856 106.0010571 2.14934325 102.58246108 2.16949463 99.1638031 C2.21364502 92.45842323 2.28062071 85.75355893 2.36480713 79.04856873 C7.43206468 83.37693339 12.45548067 87.72286013 17.30230713 92.29856873 C17.98615479 92.90313904 18.67000244 93.50770935 19.37457275 94.13059998 C24.15886487 98.70937305 24.15886487 98.70937305 24.76104736 102.62522888 C24.73199463 105.29075623 24.73199463 105.29075623 24.49713135 107.75511169 C24.27619998 111.58431697 25.44913836 113.74569154 27.36480713 117.04856873 C31.67171264 121.14012896 35.19385511 122.43923258 41.17340088 122.31809998 C45.11762821 121.83298111 48.24649433 120.51148393 51.36480713 118.04856873 C54.18799563 114.39269823 55.25212369 110.98223152 55.80230713 106.42356873 C55.11723342 101.13871437 53.36380407 97.70783473 49.36480713 94.23606873 C45.41817208 91.358314 43.53474583 91.01522238 38.89996338 91.62669373 C33.15437527 91.67263337 30.2059024 89.1527439 26.16378784 85.26670837 C25.18875498 84.28956092 24.2228849 83.30319307 23.26593018 82.30833435 C21.80825285 80.80470189 20.30320832 79.36547158 18.784729 77.92356873 C14.00242115 73.19701984 10.8236137 69.45204725 10.32574463 62.53684998 C10.34814209 61.57045593 10.37053955 60.60406189 10.39361572 59.60838318 C10.35099732 55.82148486 8.84102927 53.80778769 6.36480713 51.04856873 C3.06332473 48.00815078 0.80080751 47.7809641 -3.61566162 47.58763123 C-12.5520592 46.37977337 -17.18095093 40.73564895 -22.94769287 34.42356873 C-23.99387211 33.32208843 -25.04268715 32.22310534 -26.09417725 31.12669373 C-28.63885263 28.46206032 -31.14630823 25.76551341 -33.63519287 23.04856873 C-32.16217919 19.64539919 -30.25256719 17.40851501 -27.64300537 14.79075623 C-26.85538818 14.00056091 -26.067771 13.2103656 -25.25628662 12.39622498 C-24.43257568 11.58024841 -23.60886475 10.76427185 -22.76019287 9.92356873 C-21.94421631 9.09985779 -21.12823975 8.27614685 -20.28753662 7.42747498 C-19.10224365 6.24604919 -19.10224365 6.24604919 -17.89300537 5.04075623 C-16.81236816 3.96350281 -16.81236816 3.96350281 -15.7098999 2.86448669 C-10.90992825 -1.33675938 -6.12694925 -2.21212314 0 0 Z " fill="#F05132" transform="translate(117.63519287109375,6.9514312744140625)"/>
</svg>
