<?xml version="1.0" encoding="UTF-8"?>
<svg version="1.1" xmlns="http://www.w3.org/2000/svg" width="225" height="225">
<path d="M0 0 C74.25 0 148.5 0 225 0 C225 74.25 225 148.5 225 225 C150.75 225 76.5 225 0 225 C0 150.75 0 76.5 0 0 Z " fill="#2088FF" transform="translate(0,0)"/>
<path d="M0 0 C56.43 0 112.86 0 171 0 C171 36.63 171 73.26 171 111 C169.91374436 108.82748873 168.83649572 106.64994001 167.80859375 104.44921875 C164.34263818 97.46793503 160.67703898 93.05474166 154 89 C153.41992188 88.64035156 152.83984375 88.28070313 152.2421875 87.91015625 C144.79897412 84.28868248 133.78300851 84.63429325 125.921875 86.87890625 C116.47969342 91.26691395 110.73413946 98.40233576 107 108 C106.67 109.65 106.34 111.3 106 113 C99.4 113 92.8 113 86 113 C85.525625 111.22625 85.05125 109.4525 84.5625 107.625 C81.66511222 99.01416683 76.30537407 92.6491037 68.5625 87.875 C60.56695757 84.37147593 50.11266617 84.45738521 41.828125 86.95703125 C39.36569873 88.13228015 37.21957949 89.41899001 35 91 C33.9275 91.70125 32.855 92.4025 31.75 93.125 C26.74292427 98.35967008 23.10946833 104.79498212 22 112 C12.05884272 112.53816791 6.80236464 112.25664139 -0.75 105.5625 C-4.23133602 101.59764508 -6 99.36751589 -6 94 C-5.22398438 93.86464844 -4.44796875 93.72929688 -3.6484375 93.58984375 C9.39063199 90.9913657 21.8954748 85.99326686 30 75 C35.38807039 66.04528612 38.19258717 58.2954282 38.25 47.875 C38.270625 46.96234375 38.29125 46.0496875 38.3125 45.109375 C38.37716082 33.7614008 34.16031799 23.01629524 26.5625 14.46875 C19.04382514 7.40119563 10.13260612 2.82924925 0 1 C0 0.67 0 0.34 0 0 Z " fill="#FEFEFF" transform="translate(54,0)"/>
<path d="M0 0 C0.75998291 0.41789795 1.51996582 0.8357959 2.30297852 1.26635742 C3.29740967 1.81138916 4.29184082 2.3564209 5.31640625 2.91796875 C6.30326416 3.4596167 7.29012207 4.00126465 8.30688477 4.55932617 C15.03699916 8.15958046 21.48774619 8.53808148 29 9 C29.1959375 9.76183594 29.391875 10.52367188 29.59375 11.30859375 C32.14563261 20.11918843 35.67245495 26.61859013 43.56640625 31.62890625 C51.609316 35.83615114 59.86399646 37.49138975 68.8125 35.31640625 C78.73312062 31.99575407 85.14332712 27.29705952 90 18 C90.99 15.03 91.98 12.06 93 9 C99.6 9 106.2 9 113 9 C113.70125 11.000625 114.4025 13.00125 115.125 15.0625 C118.91672017 24.77351666 123.0727697 28.92128717 132.21875 33.8359375 C141.14549602 37.57213176 149.88048702 36.33084883 158.8046875 33.390625 C165.87437084 30.3138435 171.20767493 25.18397037 174.29296875 18.09765625 C175.51815145 14.46272195 176.3359993 10.77431978 177 7 C177.33 7 177.66 7 178 7 C178 41.65 178 76.3 178 112 C141.04 112 104.08 112 66 112 C68.23132501 110.88433749 70.47788231 109.79442298 72.76953125 108.80859375 C80.19867397 105.46118798 84.8415846 102.05228343 89 95 C89.35835938 94.39671875 89.71671875 93.7934375 90.0859375 93.171875 C93.49090949 85.98707172 93.05249067 76.66729495 91.34375 69.08984375 C88.18749926 60.28771346 82.39647893 53.96924459 74 50 C66.30072167 46.97095631 56.90853416 46.48099071 48.9453125 48.9453125 C46.47395399 50.13967725 44.25975726 51.44587576 42 53 C40.9275 53.70125 39.855 54.4025 38.75 55.125 C33.74292427 60.35967008 30.10946833 66.79498212 29 74 C20.57532474 74.70205627 15.83938918 72.45720908 8.875 68 C3.84887732 63.49253961 0.58046739 56.44717878 -0.52508545 49.88171387 C-0.68734179 46.64915133 -0.6772345 43.46958432 -0.5859375 40.234375 C-0.57744781 39.07496399 -0.56895813 37.91555298 -0.56021118 36.7210083 C-0.52695777 33.06300983 -0.45172695 29.40731806 -0.375 25.75 C-0.34486436 23.2513342 -0.31749493 20.75263341 -0.29296875 18.25390625 C-0.22725886 12.16850036 -0.12719529 6.08441502 0 0 Z " fill="#FDFDFF" transform="translate(47,113)"/>
<path d="M0 0 C0.33 0 0.66 0 1 0 C1.14695313 0.90878906 1.14695313 0.90878906 1.296875 1.8359375 C3.68704629 15.22913869 8.80355986 25.78033789 20.0625 33.9375 C25.78547713 37.67101954 31.52424997 39.85649056 38 42 C38.00546844 43.35397636 38.00546844 43.35397636 38.01104736 44.73530579 C38.04906584 53.28217526 38.10607464 61.82866852 38.18390274 70.3752718 C38.22324994 74.76818043 38.25550046 79.16089243 38.27099609 83.55395508 C38.28624742 87.80119176 38.32084088 92.0478874 38.36830902 96.29488182 C38.38303609 97.90736347 38.39103598 99.51992241 38.39188385 101.13247108 C38.40497425 113.55622051 39.71441703 124.10322134 47.9375 133.9921875 C54.21247628 140.10078183 62.26065763 143.68252056 70.8125 145.125 C72.27623047 145.37636719 72.27623047 145.37636719 73.76953125 145.6328125 C74.50558594 145.75398437 75.24164063 145.87515625 76 146 C76.1959375 146.76183594 76.391875 147.52367187 76.59375 148.30859375 C79.13323174 157.07637339 82.63815275 163.75906122 90.63671875 168.59375 C92.33724948 169.44773915 94.05772184 170.26390015 95.80078125 171.02734375 C98 172 98 172 101 174 C67.67 174 34.34 174 0 174 C0 116.58 0 59.16 0 0 Z " fill="#FDFEFF" transform="translate(0,51)"/>
<path d="M0 0 C6.67023802 5.98611104 11.65742597 15.09497019 12.1484375 24.046875 C12.41484064 37.30655152 10.69689246 45.72742828 1.25 55.609375 C-8.30667996 64.49218651 -17.0891197 66.4733341 -29.76171875 66.18359375 C-39.14403302 65.70806531 -46.53042507 61.3662857 -53.1875 54.875 C-60.49956673 45.85465567 -63.89027908 36.46135775 -63.1875 24.875 C-62.04325684 14.33295642 -56.82715615 5.30987296 -48.6953125 -1.40234375 C-32.33337165 -12.64162088 -15.96880329 -10.64586886 0 0 Z " fill="#FBFDFF" transform="translate(72.1875,18.125)"/>
<path d="M0 0 C1.12039673 0.01244751 1.12039673 0.01244751 2.26342773 0.02514648 C11.31116649 0.30074698 18.22281556 3.07221319 24.86328125 9.30859375 C31.96235737 17.5933828 33.85273755 25.69250008 33.78515625 36.23828125 C33.7837413 37.07465622 33.78232635 37.91103119 33.78086853 38.77275085 C33.77529184 41.431871 33.76274365 44.0909055 33.75 46.75 C33.74498199 48.55794149 33.74041961 50.3658843 33.73632812 52.17382812 C33.72533004 56.59508484 33.7080815 61.01627793 33.6875 65.4375 C28.31645991 65.53714824 22.94597014 65.60933292 17.57421875 65.65722656 C15.75088108 65.67721364 13.92760644 65.70441286 12.10449219 65.73925781 C-0.76059787 65.97880494 -11.05577077 65.60359967 -21.4921875 57.1953125 C-27.42756388 51.46372587 -30.03481371 45.48692364 -31.3125 37.4375 C-32.405625 37.499375 -33.49875 37.56125 -34.625 37.625 C-38.3125 37.4375 -38.3125 37.4375 -40.3125 36.25 C-41.3125 34.4375 -41.3125 34.4375 -41.0625 31.8125 C-40.3125 29.4375 -40.3125 29.4375 -39.3125 28.4375 C-36.64191149 28.29634839 -33.98817762 28.39502893 -31.3125 28.4375 C-31.27125 27.303125 -31.23 26.16875 -31.1875 25 C-30.07391285 16.4675147 -23.89973362 10.66474777 -17.75390625 5.1640625 C-12.02410239 1.11194521 -6.83587206 -0.09812996 0 0 Z " fill="#7AB8FF" transform="translate(191.3125,159.5625)"/>
<path d="M0 0 C5.60275283 3.2369071 9.97642732 8.06667471 12.91015625 13.80078125 C14.4261916 21.83576863 14.68783133 29.08115139 10.15234375 36.140625 C4.61103369 42.89995249 -1.67979132 45.56417687 -10.27734375 46.55078125 C-16.35247432 46.36203933 -21.7929712 43.42106216 -26.328125 39.50390625 C-31.06159244 34.38283478 -33.138803 29.047648 -33.90234375 22.17578125 C-33.6271764 15.51935214 -30.18573814 8.7065839 -25.46484375 4.11328125 C-18.20028307 -1.70158883 -8.841185 -3.18058478 0 0 Z " fill="#FAFCFF" transform="translate(117.46484375,169.88671875)"/>
<path d="M0 0 C6.48628201 4.4786233 10.50966272 8.34787868 13.375 15.75 C14.29004931 23.29915682 13.48170402 29.16076891 9.625 35.8125 C4.81196929 41.49869115 -0.97832574 45.06413306 -8.375 46.08984375 C-14.95471525 46.41111891 -20.15314212 44.29373859 -25.5625 40.6875 C-29.99246945 36.59736382 -32.95005658 31.85926418 -33.7890625 25.84375 C-34.01946598 17.5492248 -32.85036227 11.20587646 -27.1875 5 C-19.72119305 -1.81300509 -9.54934231 -3.35995377 0 0 Z " fill="#F9FBFF" transform="translate(202.375,95.1875)"/>
<path d="M0 0 C5.3822931 3.27113503 9.51011408 7.73196743 11.3671875 13.80859375 C12.75422487 20.95061949 12.85706397 27.06756539 9.25 33.5390625 C4.74424628 40.1284629 -0.28846325 43.57718699 -8.1875 45.1015625 C-15.30595424 45.9184343 -20.23239194 44.05168443 -26.1875 40.1015625 C-32.14155517 34.95885657 -34.76823517 28.87494599 -35.625 21.1640625 C-35.34983265 14.50763339 -31.90839439 7.69486515 -27.1875 3.1015625 C-19.22896575 -3.02430288 -9.26084932 -4.12879532 0 0 Z " fill="#FAFCFF" transform="translate(119.1875,95.8984375)"/>
<path d="M0 0 C5.78070424 4.82609253 8.62292706 10.4765206 9.50390625 17.96484375 C8.7839317 25.28458505 6.84865924 31.70700703 1.31640625 36.77734375 C-5.03880737 41.66687157 -10.90374662 43.78013054 -18.87109375 42.77734375 C-26.29283399 41.03025526 -31.59675277 37.12339466 -35.74609375 30.77734375 C-39.03922839 24.39356495 -39.07197519 17.28997278 -37.2421875 10.4140625 C-34.4937186 4.06670158 -29.16263221 -0.50207933 -23.12109375 -3.66015625 C-14.31788434 -5.18378865 -7.55872079 -5.15643071 0 0 Z " fill="#FDFEFF" transform="translate(206.87109375,173.22265625)"/>
<path d="M0 0 C3.49048842 1.5421882 6.65446781 3.52477262 9.875 5.5625 C10.72191406 6.07619141 11.56882812 6.58988281 12.44140625 7.11914062 C28.26678703 16.87368237 28.26678703 16.87368237 30.25 22.625 C29.95901154 26.55334422 29.3671041 27.87021402 27 31 C24.44470247 33.02997175 21.71546444 34.72999066 18.9375 36.4375 C18.17324707 36.91614502 17.40899414 37.39479004 16.62158203 37.88793945 C15.10491635 38.83549409 13.58544758 39.77857927 12.06298828 40.71679688 C10.32457977 41.79810754 8.61039678 42.91822458 6.90234375 44.046875 C3.20836256 46.4448226 0.56004861 47.89900763 -3.8125 48.6875 C-7.88738648 47.80860292 -9.40923199 46.20036049 -12 43 C-13.53521713 39.92956574 -13.20460647 36.69571396 -13.23828125 33.32421875 C-13.246353 32.56204544 -13.25442474 31.79987213 -13.26274109 31.01460266 C-13.27657975 29.39981357 -13.28730289 27.78499526 -13.29516602 26.17016602 C-13.31236192 23.70727667 -13.35624507 21.24573594 -13.40039062 18.78320312 C-13.41051935 17.21355153 -13.41903489 15.64388853 -13.42578125 14.07421875 C-13.44328934 13.34071701 -13.46079742 12.60721527 -13.47883606 11.85148621 C-13.46335918 8.18064249 -13.1104628 6.17090605 -11.09838867 3.05786133 C-7.70991052 -0.26517327 -4.61332412 -0.83168279 0 0 Z " fill="#2189FF" transform="translate(41,23)"/>
<path d="M0 0 C13.53 0 27.06 0 41 0 C41 0.33 41 0.66 41 1 C40.27296875 1.13535156 39.5459375 1.27070313 38.796875 1.41015625 C26.48611942 4.04592059 16.27460873 9.51027402 9 20 C5.21476329 26.40448532 2.40593653 32.68913003 1 40 C0.67 40 0.34 40 0 40 C0 26.8 0 13.6 0 0 Z " fill="#FCFDFF" transform="translate(0,0)"/>
<path d="M0 0 C5.39984085 2.15993634 9.91839748 4.9051462 14.8125 8 C15.69615234 8.5465625 16.57980469 9.093125 17.49023438 9.65625 C18.32490234 10.1821875 19.15957031 10.708125 20.01953125 11.25 C20.78370361 11.72953125 21.54787598 12.2090625 22.33520508 12.703125 C22.8845874 13.13109375 23.43396973 13.5590625 24 14 C24 14.66 24 15.32 24 16 C22.11987305 17.40454102 22.11987305 17.40454102 19.51171875 19.00390625 C18.57779297 19.57947266 17.64386719 20.15503906 16.68164062 20.74804688 C15.69357422 21.34681641 14.70550781 21.94558594 13.6875 22.5625 C12.71103516 23.16513672 11.73457031 23.76777344 10.72851562 24.38867188 C3.43503695 28.85498768 3.43503695 28.85498768 0 30 C0 20.1 0 10.2 0 0 Z " fill="#F3F8FF" transform="translate(37,32)"/>
<path d="M0 0 C1 1 1 1 1.28393555 3.29736328 C0.74633675 8.41449026 -3.6632792 11.41705646 -7.1875 14.875 C-7.95642578 15.67164062 -8.72535156 16.46828125 -9.51757812 17.2890625 C-10.26845703 18.03671875 -11.01933594 18.784375 -11.79296875 19.5546875 C-12.4789917 20.24030762 -13.16501465 20.92592773 -13.87182617 21.63232422 C-16 23 -16 23 -18.62304688 22.81982422 C-21.56214332 21.80611367 -23.12158618 20.44503984 -25.3125 18.25 C-26.00988281 17.57453125 -26.70726562 16.8990625 -27.42578125 16.203125 C-29.32173962 13.5497242 -29.4191939 12.19436365 -29 9 C-27.75 7.125 -27.75 7.125 -26 6 C-23.34305562 6.16605902 -22.23616321 6.78913999 -20.25 8.5625 C-19.63125 9.2740625 -19.63125 9.2740625 -19 10 C-15.57719483 8.53417985 -13.43519517 6.61937745 -10.875 3.9375 C-6.97075137 -0.13617829 -5.64239297 -1.44676743 0 0 Z " fill="#2189FF" transform="translate(205,107)"/>
<path d="M0 0 C0.89460938 0.25394531 1.78921875 0.50789063 2.7109375 0.76953125 C3.68359375 3.24609375 3.68359375 3.24609375 3.7109375 6.76953125 C1.59464165 9.96627241 -1.09151507 12.50157674 -3.8515625 15.14453125 C-4.92760742 16.24861328 -4.92760742 16.24861328 -6.02539062 17.375 C-11.29681047 22.55511905 -11.29681047 22.55511905 -15.54296875 23.47265625 C-20.47606107 22.20956006 -23.36938504 18.80491673 -26.2890625 14.76953125 C-26.8515625 11.33203125 -26.8515625 11.33203125 -26.2890625 8.76953125 C-25.2890625 7.76953125 -25.2890625 7.76953125 -22.4140625 7.51953125 C-19.2890625 7.76953125 -19.2890625 7.76953125 -17.4140625 9.26953125 C-17.0428125 9.76453125 -16.6715625 10.25953125 -16.2890625 10.76953125 C-11.6247114 8.85946892 -8.96985381 5.28145495 -5.703125 1.5703125 C-3.2890625 -0.23046875 -3.2890625 -0.23046875 0 0 Z " fill="#1E87FF" transform="translate(118.2890625,106.23046875)"/>
<path d="M0 0 C0.33 0 0.66 0 1 0 C1 9.57 1 19.14 1 29 C-7.91 29 -16.82 29 -26 29 C-23.5067231 27.3378154 -21.55260795 26.38429444 -18.8125 25.3125 C-11.51647593 22.09226788 -5.99761986 17.42714049 -2.7421875 10.06640625 C-1.55199856 6.75266968 -0.73773275 3.44275283 0 0 Z " fill="#FBFCFF" transform="translate(224,196)"/>
<path d="M0 0 C2.3125 1.625 2.3125 1.625 4 4 C4.61195145 7.6717087 4.48706506 9.28813568 2.375 12.375 C0 14 0 14 -3 14.5625 C-6 14 -6 14 -8.4375 11.875 C-10 9 -10 9 -10 5.875 C-8.2672175 0.89325032 -5.23199164 -0.91559854 0 0 Z " fill="#238AFF" transform="translate(120,185)"/>
<path d="M0 0 C3.40524375 0.68104875 4.52547983 1.6479153 6.5 4.5 C7 8.0625 7 8.0625 6.5 11.5 C4.9375 13.5 4.9375 13.5 2.5 14.5 C-3.82727273 14.17272727 -3.82727273 14.17272727 -6.5 11.5 C-6.93662786 7.5703493 -7.09751439 5.36307634 -4.8125 2.0625 C-2.5 0.5 -2.5 0.5 0 0 Z " fill="#1E89FF" transform="translate(98.5,184.5)"/>
<path d="M0 0 C1.98 0.495 1.98 0.495 4 1 C3.34 2.32 2.68 3.64 2 5 C1.01 4.67 0.02 4.34 -1 4 C-0.67 2.68 -0.34 1.36 0 0 Z " fill="#E5EFFF" transform="translate(116,190)"/>
<path d="M0 0 C0.33 0.66 0.66 1.32 1 2 C-0.11375 2.309375 -1.2275 2.61875 -2.375 2.9375 C-5.7945155 3.82326483 -5.7945155 3.82326483 -8 5 C-7.625 3.0625 -7.625 3.0625 -7 1 C-4.53721199 -0.231394 -2.7204945 -0.07159196 0 0 Z " fill="#2F91FF" transform="translate(101,185)"/>
<path d="M0 0 C1.98 0.495 1.98 0.495 4 1 C4 1.99 4 2.98 4 4 C2.35 4 0.7 4 -1 4 C-0.67 2.68 -0.34 1.36 0 0 Z " fill="#E9F2FF" transform="translate(97,190)"/>
</svg>
