<svg version="1.1" id="Layer_1" xmlns="http://www.w3.org/2000/svg" xmlns:xlink="http://www.w3.org/1999/xlink" x="0px" y="0px"
	 width="100%" viewBox="0 0 225 225" enable-background="new 0 0 225 225" xml:space="preserve">
<path fill="#FEFEFE" opacity="1.000000" stroke="none" 
	d="
M126.000000,226.000000 
	C84.000000,226.000000 42.500004,226.000000 1.000005,226.000000 
	C1.000004,151.000000 1.000004,76.000015 1.000002,1.000016 
	C75.999992,1.000010 150.999985,1.000010 225.999969,1.000005 
	C225.999985,75.999985 225.999985,150.999969 226.000000,225.999969 
	C192.833328,226.000000 159.666672,226.000000 126.000000,226.000000 
M44.875408,176.617706 
	C54.337563,186.963287 65.509491,194.865005 78.545143,200.068878 
	C82.650688,201.707809 84.988022,200.276276 85.122902,195.936646 
	C85.272125,191.135635 85.156990,186.326416 85.156990,181.336823 
	C82.989090,181.559967 81.231644,181.829514 79.465706,181.908142 
	C68.393478,182.401047 60.814476,177.238037 57.864792,166.700195 
	C56.215527,160.808136 54.294170,155.390182 47.332775,152.991547 
	C51.164833,149.717789 54.479393,150.741074 57.059422,153.054276 
	C60.114403,155.793304 62.676586,159.127350 65.213135,162.389511 
	C70.046127,168.605011 75.462303,170.933197 82.077057,168.904968 
	C83.518265,168.463058 84.989342,166.955093 85.716270,165.558060 
	C88.235298,160.716980 90.432411,155.708405 92.768707,150.727982 
	C90.388954,149.966995 86.998329,149.113327 83.787834,147.814453 
	C72.479950,143.239594 62.968430,136.678726 58.952900,124.349579 
	C54.654182,111.150955 58.438190,99.569267 65.807152,88.546852 
	C66.984856,86.785255 67.364136,84.111443 67.225479,81.915344 
	C66.694611,73.507347 65.508430,65.091293 69.538696,57.052559 
	C78.597992,58.129448 86.089066,61.724895 93.030861,66.901207 
	C94.539803,68.026382 97.183235,68.467110 99.081497,68.093079 
	C109.040390,66.130852 118.896568,66.328087 128.841888,68.174980 
	C130.719147,68.523590 133.322632,67.964592 134.824402,66.819214 
	C141.839142,61.469193 149.417755,57.830959 159.785172,57.075111 
	C159.785172,65.501907 160.263794,73.602585 159.548065,81.596321 
	C159.264374,84.764816 159.715836,86.815498 161.473618,89.180428 
	C167.873657,97.791115 171.031998,107.444168 169.501007,118.196953 
	C167.240097,134.076477 156.610382,142.636673 142.603622,148.003296 
	C139.478073,149.200836 136.250320,150.131638 132.789932,151.277908 
	C139.456131,158.110260 141.881485,165.999893 141.845413,174.816467 
	C141.818817,181.314041 141.829361,187.811859 141.843124,194.309509 
	C141.858429,201.533661 144.494598,203.210312 151.131729,200.241028 
	C189.890656,182.901260 211.643417,143.779526 206.192261,101.216202 
	C199.200577,46.624355 146.132126,9.803550 92.805557,22.544430 
	C22.801487,39.269928 -3.359560,122.234413 44.875408,176.617706 
z"/>
<path fill="#020202" opacity="1.000000" stroke="none" 
	d="
M44.629349,176.361786 
	C-3.359560,122.234413 22.801487,39.269928 92.805557,22.544430 
	C146.132126,9.803550 199.200577,46.624355 206.192261,101.216202 
	C211.643417,143.779526 189.890656,182.901260 151.131729,200.241028 
	C144.494598,203.210312 141.858429,201.533661 141.843124,194.309509 
	C141.829361,187.811859 141.818817,181.314041 141.845413,174.816467 
	C141.881485,165.999893 139.456131,158.110260 132.789932,151.277908 
	C136.250320,150.131638 139.478073,149.200836 142.603622,148.003296 
	C156.610382,142.636673 167.240097,134.076477 169.501007,118.196953 
	C171.031998,107.444168 167.873657,97.791115 161.473618,89.180428 
	C159.715836,86.815498 159.264374,84.764816 159.548065,81.596321 
	C160.263794,73.602585 159.785172,65.501907 159.785172,57.075111 
	C149.417755,57.830959 141.839142,61.469193 134.824402,66.819214 
	C133.322632,67.964592 130.719147,68.523590 128.841888,68.174980 
	C118.896568,66.328087 109.040390,66.130852 99.081497,68.093079 
	C97.183235,68.467110 94.539803,68.026382 93.030861,66.901207 
	C86.089066,61.724895 78.597992,58.129448 69.538696,57.052559 
	C65.508430,65.091293 66.694611,73.507347 67.225479,81.915344 
	C67.364136,84.111443 66.984856,86.785255 65.807152,88.546852 
	C58.438190,99.569267 54.654182,111.150955 58.952900,124.349579 
	C62.968430,136.678726 72.479950,143.239594 83.787834,147.814453 
	C86.998329,149.113327 90.388954,149.966995 92.768707,150.727982 
	C90.432411,155.708405 88.235298,160.716980 85.716270,165.558060 
	C84.989342,166.955093 83.518265,168.463058 82.077057,168.904968 
	C75.462303,170.933197 70.046127,168.605011 65.213135,162.389511 
	C62.676586,159.127350 60.114403,155.793304 57.059422,153.054276 
	C54.479393,150.741074 51.164833,149.717789 47.332775,152.991547 
	C54.294170,155.390182 56.215527,160.808136 57.864792,166.700195 
	C60.814476,177.238037 68.393478,182.401047 79.465706,181.908142 
	C81.231644,181.829514 82.989090,181.559967 85.156990,181.336823 
	C85.156990,186.326416 85.272125,191.135635 85.122902,195.936646 
	C84.988022,200.276276 82.650688,201.707809 78.545143,200.068878 
	C65.509491,194.865005 54.337563,186.963287 44.629349,176.361786 
z"/>
</svg>