<svg version="1.1" id="Layer_1" xmlns="http://www.w3.org/2000/svg" xmlns:xlink="http://www.w3.org/1999/xlink" x="0px" y="0px"
	 width="100%" viewBox="0 0 512 512" enable-background="new 0 0 512 512" xml:space="preserve">
<path fill="#000000" opacity="1.000000" stroke="none" 
	d="
M513.000000,203.000000 
	C513.000000,306.641479 513.000000,409.782959 513.000000,512.962219 
	C342.400177,512.962219 171.800339,512.962219 1.100256,512.962219 
	C1.100256,342.441895 1.100256,171.883682 1.100256,1.162741 
	C171.666534,1.162741 342.333252,1.162741 513.000000,1.162741 
	C513.000000,68.199615 513.000000,135.349808 513.000000,203.000000 
M417.968689,292.105713 
	C418.640778,285.098846 419.405487,278.099426 419.966766,271.083710 
	C421.407379,253.077301 422.757690,235.063675 424.847229,216.561203 
	C425.227509,211.978012 425.634583,207.396851 425.982971,202.811249 
	C427.002869,189.387177 427.987274,175.960388 429.012115,162.536697 
	C429.336945,158.282181 429.757935,154.035080 430.113281,149.782791 
	C431.026520,138.853638 431.927551,127.923462 433.001404,116.159737 
	C433.665802,110.502861 434.368164,104.850121 434.984467,99.188019 
	C435.674164,92.851662 436.316101,86.509720 436.925110,80.165047 
	C438.118347,67.733955 431.476318,54.949203 418.314636,54.223637 
	C402.256134,53.338375 386.106293,54.110695 369.068176,54.028034 
	C278.833588,54.015900 188.598816,54.090187 98.364677,53.883320 
	C86.958839,53.857174 76.849838,64.045135 77.088448,75.521042 
	C77.220726,81.882675 78.382675,88.218750 78.980118,94.575783 
	C80.024117,105.684517 81.029648,116.797203 81.980537,127.914276 
	C83.408165,144.605026 84.774727,161.300995 86.020775,178.858688 
	C86.344154,181.104828 86.767067,183.341827 86.974800,185.598602 
	C88.339340,200.422699 89.686111,215.248566 90.983032,230.078705 
	C92.408699,246.381210 93.774544,262.688934 95.021591,279.867981 
	C95.345139,282.454437 95.739815,285.034302 95.979889,287.628479 
	C97.007034,298.727966 98.016418,309.829254 98.980171,320.934387 
	C100.399284,337.286194 101.774010,353.641846 103.024055,370.868378 
	C103.690697,379.378784 103.984612,387.940216 105.141121,396.383514 
	C106.077499,403.219635 109.092308,409.249023 113.903122,414.554626 
	C121.498123,422.930786 131.786255,424.620636 142.282318,427.721924 
	C151.327835,430.200317 160.379333,432.657135 169.417374,435.162415 
	C181.243805,438.440582 193.059616,441.757080 205.284836,445.728790 
	C216.712601,448.898468 228.199356,451.872559 239.550385,455.296600 
	C249.541245,458.310364 259.626984,459.335052 269.665924,456.588562 
	C290.077515,451.004242 310.350616,444.915222 330.696625,439.089478 
	C348.393829,434.022217 366.070953,428.876709 383.837341,424.062347 
	C395.144592,420.998260 403.035156,414.193604 406.829529,403.310760 
	C408.513672,398.480408 408.538208,393.036652 409.068329,387.846039 
	C410.083527,377.906128 410.921600,367.948120 411.968292,357.132965 
	C412.640198,351.451385 413.459991,345.782654 413.955627,340.085724 
	C415.320709,324.395813 416.550018,308.694122 417.968689,292.105713 
z"/>
<path fill="#EE9001" opacity="1.000000" stroke="none" 
	d="
M86.167259,177.994751 
	C84.774727,161.300995 83.408165,144.605026 81.980537,127.914276 
	C81.029648,116.797203 80.024117,105.684517 78.980118,94.575783 
	C78.382675,88.218750 77.220726,81.882675 77.088448,75.521042 
	C76.849838,64.045135 86.958839,53.857174 98.364677,53.883320 
	C188.598816,54.090187 278.833588,54.015900 369.398956,54.402260 
	C367.975006,55.962505 366.371979,57.560661 364.442139,58.270851 
	C344.906769,65.459953 325.314423,72.494095 305.751984,79.609940 
	C304.386749,80.106552 303.132111,80.907188 301.972809,81.492371 
	C306.017853,83.145142 309.509521,84.571808 312.532440,85.999413 
	C295.646301,86.334038 279.229614,86.828934 262.811127,86.900337 
	C258.064301,86.920982 256.855743,88.737411 256.931580,93.112762 
	C257.138855,105.067802 257.005402,117.028755 256.537476,128.989151 
	C222.479980,128.994339 188.891586,129.067520 155.304169,128.920731 
	C150.633423,128.900314 148.574448,130.216629 148.944519,135.127106 
	C149.492737,142.401337 149.662842,149.704071 149.658936,157.096741 
	C146.740295,163.938568 140.201187,164.622894 134.629135,166.700119 
	C123.401276,170.885818 112.092270,174.855209 100.886116,179.097137 
	C95.711693,181.055832 90.694504,183.525375 86.167259,177.994751 
z"/>
<path fill="#E56901" opacity="1.000000" stroke="none" 
	d="
M411.833191,357.997620 
	C410.921600,367.948120 410.083527,377.906128 409.068329,387.846039 
	C408.538208,393.036652 408.513672,398.480408 406.829529,403.310760 
	C403.035156,414.193604 395.144592,420.998260 383.837341,424.062347 
	C366.070953,428.876709 348.393829,434.022217 330.696625,439.089478 
	C310.350616,444.915222 290.077515,451.004242 269.665924,456.588562 
	C259.626984,459.335052 249.541245,458.310364 239.550385,455.296600 
	C228.199356,451.872559 216.712601,448.898468 205.437378,445.245117 
	C210.282135,444.156128 215.205002,444.260590 219.626999,442.823639 
	C239.733139,436.290192 259.729675,429.412781 279.691772,422.447357 
	C284.606537,420.732452 289.243805,418.222260 294.376862,415.979248 
	C296.811768,415.261261 298.871826,414.618439 300.946198,414.025696 
	C320.572540,408.417236 340.161194,402.670837 359.845459,397.273315 
	C370.565552,394.333832 376.533142,387.635590 377.960785,376.725586 
	C378.298889,374.141754 378.591156,371.551971 379.308502,368.961243 
	C381.470642,368.578217 383.296387,368.388092 384.975616,367.787903 
	C393.948334,364.580933 402.884430,361.271576 411.833191,357.997620 
z"/>
<path fill="#E77201" opacity="1.000000" stroke="none" 
	d="
M141.877029,427.049194 
	C131.786255,424.620636 121.498123,422.930786 113.903122,414.554626 
	C109.092308,409.249023 106.077499,403.219635 105.141121,396.383514 
	C103.984612,387.940216 103.690697,379.378784 103.485153,370.420715 
	C105.563019,369.615784 107.248672,369.443848 108.786049,368.872803 
	C126.534164,362.280243 144.259827,355.627197 162.004517,349.385864 
	C161.906204,354.204224 164.430786,356.066650 168.403320,357.376770 
	C194.969803,366.138306 221.469742,375.101654 247.978134,384.376160 
	C246.491257,386.272766 245.293350,388.537598 243.502380,389.200714 
	C217.365051,398.878479 191.128830,408.288605 164.962875,417.889832 
	C157.193405,420.740723 149.568298,423.985138 141.877029,427.049194 
z"/>
<path fill="#EC8501" opacity="1.000000" stroke="none" 
	d="
M86.094017,178.426727 
	C90.694504,183.525375 95.711693,181.055832 100.886116,179.097137 
	C112.092270,174.855209 123.401276,170.885818 134.629135,166.700119 
	C140.201187,164.622894 146.740295,163.938568 149.674927,157.523224 
	C150.351120,162.756500 150.624008,167.669556 151.013580,172.573318 
	C151.634262,180.386032 152.332626,188.192566 152.998779,196.469360 
	C153.997482,217.288467 154.995560,237.639969 155.639343,258.072510 
	C143.004898,262.772461 130.789673,267.575317 118.420616,271.942474 
	C110.790466,274.636505 102.925819,276.666351 95.166451,278.994385 
	C93.774544,262.688934 92.408699,246.381210 90.983032,230.078705 
	C89.686111,215.248566 88.339340,200.422699 86.974800,185.598602 
	C86.767067,183.341827 86.344154,181.104828 86.094017,178.426727 
z"/>
<path fill="#E97B01" opacity="1.000000" stroke="none" 
	d="
M95.094025,279.431183 
	C102.925819,276.666351 110.790466,274.636505 118.420616,271.942474 
	C130.789673,267.575317 143.004898,262.772461 155.641815,258.477234 
	C156.333160,260.868744 156.667786,262.936584 157.002441,265.472473 
	C157.689331,280.378632 158.214203,294.826813 159.114136,309.251587 
	C159.837494,320.846100 161.015015,332.412262 161.767807,344.075409 
	C161.693283,344.776215 161.841965,345.392578 161.990875,346.381744 
	C161.991226,347.499756 161.991348,348.244995 161.991455,348.990234 
	C144.259827,355.627197 126.534164,362.280243 108.786049,368.872803 
	C107.248672,369.443848 105.563019,369.615784 103.556938,369.984497 
	C101.774010,353.641846 100.399284,337.286194 98.980171,320.934387 
	C98.016418,309.829254 97.007034,298.727966 95.979889,287.628479 
	C95.739815,285.034302 95.345139,282.454437 95.094025,279.431183 
z"/>
<path fill="#ED8A01" opacity="1.000000" stroke="none" 
	d="
M313.001221,85.998474 
	C309.509521,84.571808 306.017853,83.145142 301.972809,81.492371 
	C303.132111,80.907188 304.386749,80.106552 305.751984,79.609940 
	C325.314423,72.494095 344.906769,65.459953 364.442139,58.270851 
	C366.371979,57.560661 367.975006,55.962505 369.862854,54.471306 
	C386.106293,54.110695 402.256134,53.338375 418.314636,54.223637 
	C431.476318,54.949203 438.118347,67.733955 436.925110,80.165047 
	C436.316101,86.509720 435.674164,92.851662 434.984467,99.188019 
	C434.368164,104.850121 433.665802,110.502861 432.556793,116.615509 
	C421.197723,122.312775 408.520142,123.648712 399.014038,131.580139 
	C400.005829,119.936752 401.214264,108.739067 401.903229,97.509506 
	C402.260498,91.685776 399.683563,88.538506 394.068268,86.949677 
	C391.563019,86.240829 388.842804,86.047050 386.219025,86.039948 
	C361.813202,85.973915 337.407196,85.999474 313.001221,85.998474 
z"/>
<path fill="#E66D01" opacity="1.000000" stroke="none" 
	d="
M142.079681,427.385559 
	C149.568298,423.985138 157.193405,420.740723 164.962875,417.889832 
	C191.128830,408.288605 217.365051,398.878479 243.502380,389.200714 
	C245.293350,388.537598 246.491257,386.272766 248.321503,384.462952 
	C251.107193,385.116760 253.536392,386.060455 256.128113,387.388245 
	C256.525574,389.902252 256.944489,392.030457 256.963409,394.162231 
	C257.043121,403.135651 257.097839,412.111511 256.965546,421.083588 
	C256.904236,425.242004 258.318970,426.336517 262.387054,425.105408 
	C272.877563,421.930725 283.461853,419.066132 294.008667,416.077698 
	C289.243805,418.222260 284.606537,420.732452 279.691772,422.447357 
	C259.729675,429.412781 239.733139,436.290192 219.626999,442.823639 
	C215.205002,444.260590 210.282135,444.156128 205.234955,444.909302 
	C193.059616,441.757080 181.243805,438.440582 169.417374,435.162415 
	C160.379333,432.657135 151.327835,430.200317 142.079681,427.385559 
z"/>
<path fill="#EA7F01" opacity="1.000000" stroke="none" 
	d="
M399.015259,132.012604 
	C408.520142,123.648712 421.197723,122.312775 432.472839,117.032494 
	C431.927551,127.923462 431.026520,138.853638 430.113281,149.782791 
	C429.757935,154.035080 429.336945,158.282181 429.012115,162.536697 
	C427.987274,175.960388 427.002869,189.387177 425.982971,202.811249 
	C425.634583,207.396851 425.227509,211.978012 424.120728,216.870514 
	C421.518768,217.820694 419.647064,218.473022 417.767090,219.100449 
	C408.854919,222.074783 399.940460,225.042343 391.017181,227.558289 
	C391.337799,222.477356 391.615356,217.845978 392.008392,213.224411 
	C393.103607,200.346466 394.256348,187.473419 395.368500,174.596909 
	C396.594421,160.403030 397.800537,146.207443 399.015259,132.012604 
z"/>
<path fill="#E87601" opacity="1.000000" stroke="none" 
	d="
M391.026825,228.012299 
	C399.940460,225.042343 408.854919,222.074783 417.767090,219.100449 
	C419.647064,218.473022 421.518768,217.820694 423.769165,217.116394 
	C422.757690,235.063675 421.407379,253.077301 419.966766,271.083710 
	C419.405487,278.099426 418.640778,285.098846 417.600891,292.681274 
	C415.183960,294.876007 413.369202,297.082642 411.044128,298.010284 
	C402.131836,301.566162 393.055695,304.711365 384.027527,307.561035 
	C384.777222,297.391449 385.486481,287.666016 386.315704,277.950867 
	C387.509247,263.966766 388.790009,249.990097 390.253479,235.924652 
	C390.332123,235.221375 390.190826,234.603699 390.076843,233.607971 
	C390.411682,231.490707 390.719269,229.751511 391.026825,228.012299 
z"/>
<path fill="#E76F01" opacity="1.000000" stroke="none" 
	d="
M384.040680,308.009827 
	C393.055695,304.711365 402.131836,301.566162 411.044128,298.010284 
	C413.369202,297.082642 415.183960,294.876007 417.533081,293.126953 
	C416.550018,308.694122 415.320709,324.395813 413.955627,340.085724 
	C413.459991,345.782654 412.640198,351.451385 411.900757,357.565308 
	C402.884430,361.271576 393.948334,364.580933 384.975616,367.787903 
	C383.296387,368.388092 381.470642,368.578217 379.324005,368.502930 
	C380.637238,348.035461 382.338959,328.022644 384.040680,308.009827 
z"/>
<path fill="#F09601" opacity="1.000000" stroke="none" 
	d="
M384.027527,307.561035 
	C382.338959,328.022644 380.637238,348.035461 378.920013,368.506592 
	C378.591156,371.551971 378.298889,374.141754 377.960785,376.725586 
	C376.533142,387.635590 370.565552,394.333832 359.845459,397.273315 
	C340.161194,402.670837 320.572540,408.417236 300.946198,414.025696 
	C298.871826,414.618439 296.811768,415.261261 294.376862,415.979248 
	C283.461853,419.066132 272.877563,421.930725 262.387054,425.105408 
	C258.318970,426.336517 256.904236,425.242004 256.965546,421.083588 
	C257.097839,412.111511 257.043121,403.135651 256.963409,394.162231 
	C256.944489,392.030457 256.525574,389.902252 256.285889,387.205261 
	C256.501251,386.401978 256.742767,386.190308 257.405304,385.991577 
	C258.790009,385.831604 259.820496,385.821198 260.753845,385.514893 
	C289.706848,376.012482 318.642395,366.456909 347.605682,356.986176 
	C351.088104,355.847443 351.975525,353.563904 352.056610,350.170868 
	C352.259125,341.700775 352.649475,333.230286 353.186188,324.774048 
	C354.384979,305.884796 355.751038,287.006226 356.987885,268.119263 
	C357.997009,252.710693 358.815277,237.288940 359.923187,221.887772 
	C360.428497,214.863464 359.904449,214.007553 352.949890,214.005005 
	C320.974701,213.993240 288.999512,213.994019 257.018677,213.522888 
	C257.015594,206.373962 257.018188,199.692459 257.488098,193.008698 
	C290.593079,193.003845 323.230865,192.961304 355.868225,193.051147 
	C359.780548,193.061905 361.934967,192.396332 362.180511,187.711777 
	C362.736237,177.110916 364.040833,166.551758 364.834869,155.960205 
	C365.488586,147.240280 365.845856,138.498169 366.377319,129.001221 
	C329.493713,129.001221 293.248077,129.001221 257.001465,128.999969 
	C257.000488,128.998734 257.006897,128.987366 257.006897,128.987366 
	C257.005402,117.028755 257.138855,105.067802 256.931580,93.112762 
	C256.855743,88.737411 258.064301,86.920982 262.811127,86.900337 
	C279.229614,86.828934 295.646301,86.334038 312.532440,85.999413 
	C337.407196,85.999474 361.813202,85.973915 386.219025,86.039948 
	C388.842804,86.047050 391.563019,86.240829 394.068268,86.949677 
	C399.683563,88.538506 402.260498,91.685776 401.903229,97.509506 
	C401.214264,108.739067 400.005829,119.936752 399.014038,131.580139 
	C397.800537,146.207443 396.594421,160.403030 395.368500,174.596909 
	C394.256348,187.473419 393.103607,200.346466 392.008392,213.224411 
	C391.615356,217.845978 391.337799,222.477356 391.017181,227.558289 
	C390.719269,229.751511 390.411682,231.490707 390.064301,233.945282 
	C390.027496,235.110504 390.030548,235.560394 390.033569,236.010269 
	C388.790009,249.990097 387.509247,263.966766 386.315704,277.950867 
	C385.486481,287.666016 384.777222,297.391449 384.027527,307.561035 
z"/>
<path fill="#E28501" opacity="1.000000" stroke="none" 
	d="
M152.998138,196.001724 
	C152.332626,188.192566 151.634262,180.386032 151.013580,172.573318 
	C150.624008,167.669556 150.351120,162.756500 150.009888,157.421143 
	C149.662842,149.704071 149.492737,142.401337 148.944519,135.127106 
	C148.574448,130.216629 150.633423,128.900314 155.304169,128.920731 
	C188.891586,129.067520 222.479980,128.994339 256.537476,128.989151 
	C257.006897,128.987366 257.000488,128.998734 257.000977,129.416046 
	C257.001770,131.220398 257.002106,132.607452 256.533508,133.996155 
	C224.814514,133.999969 193.564468,134.001221 162.314407,134.007172 
	C160.818924,134.007446 159.064560,133.567581 157.895065,134.196335 
	C156.507095,134.942551 154.606277,136.681015 154.672989,137.893402 
	C155.592743,154.603195 156.813217,171.296432 157.656174,188.157684 
	C155.900970,190.881653 154.449554,193.441681 152.998138,196.001724 
z"/>
<path fill="#DF7601" opacity="1.000000" stroke="none" 
	d="
M257.005798,386.003143 
	C256.742767,386.190308 256.501251,386.401978 256.123383,386.821136 
	C253.536392,386.060455 251.107193,385.116760 248.334656,384.086304 
	C221.469742,375.101654 194.969803,366.138306 168.403320,357.376770 
	C164.430786,356.066650 161.906204,354.204224 162.004517,349.385864 
	C161.991348,348.244995 161.991226,347.499756 161.992706,346.045349 
	C161.993225,344.887817 161.992126,344.439392 161.991028,343.990997 
	C161.015015,332.412262 159.837494,320.846100 159.114136,309.251587 
	C158.214203,294.826813 157.689331,280.378632 157.312317,265.312561 
	C158.757568,262.457581 159.892990,260.230530 161.228882,258.361359 
	C161.622116,261.190826 161.944214,263.660370 161.982910,266.134369 
	C162.089554,272.950562 162.058456,272.987366 169.083679,272.989838 
	C198.388062,273.000214 227.692444,272.997040 256.998291,273.415100 
	C256.997498,275.220856 256.995239,276.610352 256.524750,278.000610 
	C245.936035,278.004486 235.814713,278.081696 225.695404,277.972626 
	C221.886551,277.931580 220.749146,279.643951 221.125198,283.203430 
	C221.854858,290.109711 222.135986,297.075867 223.186859,303.927673 
	C223.482101,305.852722 225.467575,308.407166 227.265991,309.065186 
	C237.074493,312.653961 247.066635,315.740906 256.998230,319.416443 
	C256.996918,321.224487 256.993011,322.616516 256.589722,323.996460 
	C244.349121,320.101562 232.469635,316.327179 220.721146,312.181549 
	C219.432312,311.726776 218.328705,309.213440 218.110550,307.529083 
	C217.259018,300.954681 217.024384,294.294708 216.013992,287.750916 
	C215.794418,286.328796 213.333603,284.208557 211.874191,284.183136 
	C196.899414,283.922607 181.916473,283.927948 166.942108,284.203217 
	C165.616165,284.227570 163.365524,286.585541 163.229340,288.019684 
	C162.921356,291.263214 163.752930,294.601196 163.969727,297.910645 
	C165.022079,313.974701 166.053741,330.040283 167.023941,346.109467 
	C167.265305,350.107208 169.070084,352.437714 173.028046,353.576721 
	C180.380005,355.692535 187.649765,358.102570 194.919403,360.494476 
	C215.628159,367.308350 236.319641,374.174713 257.019257,381.435608 
	C257.015656,383.234894 257.010742,384.619019 257.005798,386.003143 
z"/>
<path fill="#E07D01" opacity="1.000000" stroke="none" 
	d="
M161.028427,258.003479 
	C159.892990,260.230530 158.757568,262.457581 157.312256,264.844482 
	C156.667786,262.936584 156.333160,260.868744 155.996094,258.396179 
	C154.995560,237.639969 153.997482,217.288467 152.998779,196.469360 
	C154.449554,193.441681 155.900970,190.881653 157.668243,188.159454 
	C157.984100,187.997284 157.997559,188.002823 157.995422,188.470856 
	C158.343689,199.547394 158.544022,210.163727 159.094421,220.761856 
	C159.497543,228.523941 160.360367,236.262146 161.016525,244.474945 
	C161.019302,249.293762 161.023865,253.648621 161.028427,258.003479 
z"/>
<path fill="#E77201" opacity="1.000000" stroke="none" 
	d="
M161.767822,344.075409 
	C161.992126,344.439392 161.993225,344.887817 161.992493,345.672607 
	C161.841965,345.392578 161.693283,344.776215 161.767822,344.075409 
z"/>
<path fill="#EA7F01" opacity="1.000000" stroke="none" 
	d="
M390.253479,235.924652 
	C390.030548,235.560394 390.027496,235.110504 390.036987,234.323334 
	C390.190826,234.603699 390.332123,235.221375 390.253479,235.924652 
z"/>
<path fill="#E58F01" opacity="1.000000" stroke="none" 
	d="
M257.405304,385.991577 
	C257.010742,384.619019 257.015656,383.234894 257.029816,381.432922 
	C257.039032,381.015076 257.061768,381.012756 257.421814,380.927734 
	C285.461884,371.748230 313.124725,362.600677 340.841736,353.620453 
	C344.695770,352.371765 346.759583,350.289154 346.953735,346.235779 
	C347.605438,332.631744 348.274841,319.028290 349.016663,305.428955 
	C349.686035,293.157806 350.419800,280.889862 351.197357,268.625061 
	C352.090057,254.543030 353.196472,240.473083 353.937836,226.383575 
	C354.262085,220.221512 353.789459,220.007996 347.451416,220.003708 
	C317.312561,219.983261 287.173676,219.983917 257.026245,219.551727 
	C257.007721,217.420853 256.997742,215.715317 256.995758,214.004639 
	C257.003723,213.999512 257.024323,213.990311 257.024323,213.990311 
	C288.999512,213.994019 320.974701,213.993240 352.949890,214.005005 
	C359.904449,214.007553 360.428497,214.863464 359.923187,221.887772 
	C358.815277,237.288940 357.997009,252.710693 356.987885,268.119263 
	C355.751038,287.006226 354.384979,305.884796 353.186188,324.774048 
	C352.649475,333.230286 352.259125,341.700775 352.056610,350.170868 
	C351.975525,353.563904 351.088104,355.847443 347.605682,356.986176 
	C318.642395,366.456909 289.706848,376.012482 260.753845,385.514893 
	C259.820496,385.821198 258.790009,385.831604 257.405304,385.991577 
z"/>
<path fill="#E58F01" opacity="1.000000" stroke="none" 
	d="
M257.002441,133.994507 
	C257.002106,132.607452 257.001770,131.220398 257.001953,129.417282 
	C293.248077,129.001221 329.493713,129.001221 366.377319,129.001221 
	C365.845856,138.498169 365.488586,147.240280 364.834869,155.960205 
	C364.040833,166.551758 362.736237,177.110916 362.180511,187.711777 
	C361.934967,192.396332 359.780548,193.061905 355.868225,193.051147 
	C323.230865,192.961304 290.593079,193.003845 257.478302,193.003479 
	C257.001160,193.000504 256.984131,192.992065 256.988647,192.575165 
	C257.010620,190.767731 257.028137,189.377197 257.509125,187.985443 
	C276.295868,187.983582 294.619141,187.983551 312.942413,187.982101 
	C325.935272,187.981079 338.928101,187.980667 351.920959,187.973694 
	C354.330231,187.972397 356.715698,187.998062 356.940735,184.614731 
	C357.227356,180.306107 357.665894,176.007782 357.979553,171.700699 
	C358.739624,161.263306 359.320801,150.810410 360.258972,140.389404 
	C360.822296,134.132584 360.979401,134.026123 354.476196,134.024155 
	C321.994049,134.014359 289.511902,134.024643 257.022034,134.020340 
	C257.014313,134.012817 257.002441,133.994507 257.002441,133.994507 
z"/>
<path fill="#EC8501" opacity="1.000000" stroke="none" 
	d="
M257.010956,193.005737 
	C257.018188,199.692459 257.015594,206.373962 257.018677,213.522888 
	C257.024323,213.990311 257.003723,213.999512 256.528503,214.001083 
	C245.239075,214.000534 234.421616,213.846024 223.612320,214.075516 
	C219.606415,214.160568 217.727966,212.641678 217.466125,208.806168 
	C217.228683,205.328537 217.463654,201.742584 216.673996,198.397079 
	C215.573349,193.734085 217.592270,192.920441 221.547211,192.959030 
	C233.358505,193.074249 245.171692,192.995239 256.984131,192.992065 
	C256.984131,192.992065 257.001160,193.000504 257.010956,193.005737 
z"/>
<path fill="#D47C02" opacity="1.000000" stroke="none" 
	d="
M157.972031,187.995514 
	C156.813217,171.296432 155.592743,154.603195 154.672989,137.893402 
	C154.606277,136.681015 156.507095,134.942551 157.895065,134.196335 
	C159.064560,133.567581 160.818924,134.007446 162.314407,134.007172 
	C193.564468,134.001221 224.814514,133.999969 256.533508,133.996155 
	C257.002441,133.994507 257.014313,134.012817 257.020844,134.413300 
	C257.023895,136.388062 257.020416,137.962341 256.556396,139.628174 
	C224.217209,139.719711 192.338623,139.719711 160.001114,139.719711 
	C160.182022,143.131821 160.365875,145.908585 160.470337,148.688309 
	C160.937729,161.125580 161.382477,173.563690 161.546204,186.114197 
	C160.170517,186.818878 159.084045,187.410858 157.997559,188.002823 
	C157.997559,188.002823 157.984100,187.997284 157.972031,187.995514 
z"/>
<path fill="#CF6D05" opacity="1.000000" stroke="none" 
	d="
M257.028473,381.017761 
	C236.319641,374.174713 215.628159,367.308350 194.919403,360.494476 
	C187.649765,358.102570 180.380005,355.692535 173.028046,353.576721 
	C169.070084,352.437714 167.265305,350.107208 167.023941,346.109467 
	C166.053741,330.040283 165.022079,313.974701 163.969727,297.910645 
	C163.752930,294.601196 162.921356,291.263214 163.229340,288.019684 
	C163.365524,286.585541 165.616165,284.227570 166.942108,284.203217 
	C181.916473,283.927948 196.899414,283.922607 211.874191,284.183136 
	C213.333603,284.208557 215.794418,286.328796 216.013992,287.750916 
	C217.024384,294.294708 217.259018,300.954681 218.110550,307.529083 
	C218.328705,309.213440 219.432312,311.726776 220.721146,312.181549 
	C232.469635,316.327179 244.349121,320.101562 256.598816,324.238342 
	C257.007263,324.492340 257.041962,324.976196 257.033142,325.404327 
	C256.993225,327.257721 256.962128,328.683014 256.544067,330.147827 
	C242.932022,325.733704 229.727081,321.218353 216.464874,316.878021 
	C213.787888,316.001923 213.039139,314.542358 212.886353,311.843750 
	C212.458466,304.285614 211.658936,296.748505 211.012711,289.280151 
	C196.600906,289.280151 182.847382,289.280151 168.515259,289.280151 
	C169.911407,308.139618 171.197998,326.692108 172.831711,345.214020 
	C172.953690,346.596893 175.356720,348.370605 177.043228,348.934906 
	C203.669540,357.843689 230.352264,366.583954 257.017761,375.765350 
	C257.029541,377.782776 257.045654,379.397766 257.061768,381.012756 
	C257.061768,381.012756 257.039032,381.015076 257.028473,381.017761 
z"/>
<path fill="#E97B01" opacity="1.000000" stroke="none" 
	d="
M256.995605,319.000427 
	C247.066635,315.740906 237.074493,312.653961 227.265991,309.065186 
	C225.467575,308.407166 223.482101,305.852722 223.186859,303.927673 
	C222.135986,297.075867 221.854858,290.109711 221.125198,283.203430 
	C220.749146,279.643951 221.886551,277.931580 225.695404,277.972626 
	C235.814713,278.081696 245.936035,278.004486 256.537903,278.002197 
	C257.019257,278.002991 257.046906,278.007324 257.035065,278.475128 
	C257.035828,292.290314 257.048401,305.637665 257.044708,318.989258 
	C257.028442,318.993500 256.995605,319.000427 256.995605,319.000427 
z"/>
<path fill="#CF6D05" opacity="1.000000" stroke="none" 
	d="
M161.228882,258.361359 
	C161.023865,253.648621 161.019302,249.293762 161.366486,244.448212 
	C163.084213,243.641876 164.450211,243.326202 165.897644,243.454269 
	C166.351471,250.365433 166.903778,256.829529 167.023560,263.301636 
	C167.087601,266.762085 168.301758,267.841309 171.747833,267.787018 
	C183.541229,267.601257 195.339447,267.681244 207.135605,267.723969 
	C223.741226,267.784058 240.346649,267.901367 256.966492,268.411743 
	C256.994904,270.221130 257.009003,271.613007 257.013733,273.002930 
	C257.004333,273.000946 256.996826,272.998840 256.996826,272.998840 
	C227.692444,272.997040 198.388062,273.000214 169.083679,272.989838 
	C162.058456,272.987366 162.089554,272.950562 161.982910,266.134369 
	C161.944214,263.660370 161.622116,261.190826 161.228882,258.361359 
z"/>
<path fill="#E58F01" opacity="1.000000" stroke="none" 
	d="
M257.041962,324.976196 
	C257.041962,324.976196 257.007263,324.492340 256.998169,324.250427 
	C256.993011,322.616516 256.996918,321.224487 256.998230,319.416443 
	C256.995605,319.000427 257.028442,318.993500 257.405151,318.912659 
	C267.104218,315.748688 276.496429,312.853699 285.695831,309.439209 
	C287.781769,308.664978 290.437012,306.255341 290.699951,304.310455 
	C291.630951,297.424133 291.551331,290.407013 292.029816,283.451508 
	C292.314758,279.309357 290.590515,277.863129 286.504822,277.943024 
	C276.688873,278.135071 266.866608,278.006531 257.046906,278.007324 
	C257.046906,278.007324 257.019257,278.002991 257.006104,278.001404 
	C256.995239,276.610352 256.997498,275.220856 256.998291,273.415100 
	C256.996826,272.998840 257.004333,273.000946 257.479797,273.001831 
	C268.609528,273.002258 279.263824,272.998749 289.918091,273.002197 
	C298.205750,273.004883 298.765137,273.847595 297.870514,282.343079 
	C297.036682,290.260834 296.305450,298.214081 296.120911,306.165436 
	C296.023682,310.353973 294.682678,312.436279 290.654144,313.705353 
	C279.384918,317.255371 268.237488,321.192078 257.041962,324.976196 
z"/>
<path fill="#D27603" opacity="1.000000" stroke="none" 
	d="
M165.816208,243.010529 
	C164.450211,243.326202 163.084213,243.641876 161.368256,243.984268 
	C160.360367,236.262146 159.497543,228.523941 159.094421,220.761856 
	C158.544022,210.163727 158.343689,199.547394 157.995422,188.470856 
	C159.084045,187.410858 160.170517,186.818878 161.613251,186.547882 
	C161.984665,188.034744 161.940781,189.204819 162.023758,190.365860 
	C163.278107,207.914780 164.549118,225.462509 165.816208,243.010529 
z"/>
<path fill="#D78705" opacity="1.000000" stroke="none" 
	d="
M257.421814,380.927734 
	C257.045654,379.397766 257.029541,377.782776 257.035950,375.652100 
	C257.058472,375.136383 257.010620,374.911957 257.394226,374.966156 
	C283.975555,366.432678 310.144501,357.754883 336.404663,349.362549 
	C340.001678,348.213013 341.390869,346.640930 341.596191,342.922760 
	C342.963501,318.163727 344.526642,293.415466 346.027008,268.663757 
	C346.899872,254.263870 347.774323,239.864090 348.665558,225.176086 
	C317.846924,225.176086 287.417145,225.176086 257.020020,225.089386 
	C257.052612,225.002701 257.027527,224.819138 257.026245,224.418091 
	C257.015320,222.680679 257.005615,221.344299 257.004150,219.999908 
	C257.012390,219.991882 257.034821,219.977051 257.034821,219.977051 
	C287.173676,219.983917 317.312561,219.983261 347.451416,220.003708 
	C353.789459,220.007996 354.262085,220.221512 353.937836,226.383575 
	C353.196472,240.473083 352.090057,254.543030 351.197357,268.625061 
	C350.419800,280.889862 349.686035,293.157806 349.016663,305.428955 
	C348.274841,319.028290 347.605438,332.631744 346.953735,346.235779 
	C346.759583,350.289154 344.695770,352.371765 340.841736,353.620453 
	C313.124725,362.600677 285.461884,371.748230 257.421814,380.927734 
z"/>
<path fill="#E07D01" opacity="1.000000" stroke="none" 
	d="
M256.988647,192.575165 
	C245.171692,192.995239 233.358505,193.074249 221.547211,192.959030 
	C217.592270,192.920441 215.573349,193.734085 216.673996,198.397079 
	C217.463654,201.742584 217.228683,205.328537 217.466125,208.806168 
	C217.727966,212.641678 219.606415,214.160568 223.612320,214.075516 
	C234.421616,213.846024 245.239075,214.000534 256.520538,214.006210 
	C256.997742,215.715317 257.007721,217.420853 257.026245,219.551727 
	C257.034821,219.977051 257.012390,219.991882 256.535950,219.995941 
	C243.735550,219.997986 231.407410,219.811279 219.089859,220.091431 
	C214.618057,220.193161 212.615875,218.550522 212.345444,214.285492 
	C211.914566,207.489807 211.563782,200.686111 210.960648,193.905243 
	C210.544785,189.229874 212.543625,187.850388 217.035126,187.919937 
	C230.354904,188.126160 243.680191,187.977264 257.010437,187.976440 
	C257.017548,187.985687 257.045624,187.986679 257.045654,187.986679 
	C257.028137,189.377197 257.010620,190.767731 256.988647,192.575165 
z"/>
<path fill="#D88C12" opacity="1.000000" stroke="none" 
	d="
M257.016968,139.536636 
	C257.020416,137.962341 257.023895,136.388062 257.028564,134.420807 
	C289.511902,134.024643 321.994049,134.014359 354.476196,134.024155 
	C360.979401,134.026123 360.822296,134.132584 360.258972,140.389404 
	C359.320801,150.810410 358.739624,161.263306 357.979553,171.700699 
	C357.665894,176.007782 357.227356,180.306107 356.940735,184.614731 
	C356.715698,187.998062 354.330231,187.972397 351.920959,187.973694 
	C338.928101,187.980667 325.935272,187.981079 312.942413,187.982101 
	C294.619141,187.983551 276.295868,187.983582 257.509094,187.985443 
	C257.045624,187.986679 257.017548,187.985687 257.016815,187.584061 
	C257.022339,185.610596 257.028595,184.038773 257.033508,182.336960 
	C257.032166,182.206985 256.999054,181.949142 257.459290,182.040802 
	C289.147583,182.132462 320.375641,182.132462 351.856110,182.132462 
	C352.933746,167.777374 353.970093,153.972610 355.032379,139.822205 
	C350.482452,139.822205 346.672699,139.813766 342.863007,139.823547 
	C314.240570,139.897018 285.618134,139.974075 257.012146,139.922119 
	C257.028625,139.794250 257.016968,139.536636 257.016968,139.536636 
z"/>
<path fill="#D6DFE7" opacity="1.000000" stroke="none" 
	d="
M165.897644,243.454254 
	C164.549118,225.462509 163.278107,207.914780 162.023758,190.365860 
	C161.940781,189.204819 161.984665,188.034744 161.902466,186.435181 
	C161.382477,173.563690 160.937729,161.125580 160.470337,148.688309 
	C160.365875,145.908585 160.182022,143.131821 160.001114,139.719711 
	C192.338623,139.719711 224.217209,139.719711 256.556396,139.628174 
	C257.016968,139.536636 257.028625,139.794250 257.010803,140.387634 
	C256.994995,154.637054 256.997040,168.293106 256.999054,181.949142 
	C256.999054,181.949142 257.032166,182.206985 256.572571,182.244598 
	C239.188766,182.282227 222.264603,182.282227 204.724213,182.282227 
	C205.826675,196.861160 206.882935,210.829163 207.940857,224.819138 
	C224.782730,224.819138 240.905136,224.819138 257.027527,224.819138 
	C257.027527,224.819138 257.052612,225.002701 257.019470,225.546997 
	C256.977875,239.856369 256.969421,253.621445 256.995605,267.538971 
	C257.030273,267.691437 256.952148,267.994202 256.952148,267.994202 
	C240.346649,267.901367 223.741226,267.784058 207.135605,267.723969 
	C195.339447,267.681244 183.541229,267.601257 171.747833,267.787018 
	C168.301758,267.841309 167.087601,266.762085 167.023560,263.301636 
	C166.903778,256.829529 166.351471,250.365433 165.897644,243.454254 
z"/>
<path fill="#D6DFE7" opacity="1.000000" stroke="none" 
	d="
M257.040253,375.249634 
	C230.352264,366.583954 203.669540,357.843689 177.043228,348.934906 
	C175.356720,348.370605 172.953690,346.596893 172.831711,345.214020 
	C171.197998,326.692108 169.911407,308.139618 168.515259,289.280151 
	C182.847382,289.280151 196.600906,289.280151 211.012711,289.280151 
	C211.658936,296.748505 212.458466,304.285614 212.886353,311.843750 
	C213.039139,314.542358 213.787888,316.001923 216.464874,316.878021 
	C229.727081,321.218353 242.932022,325.733704 256.583008,330.321136 
	C257.008881,330.454895 256.967224,330.807648 256.973419,331.224792 
	C256.989960,346.065277 257.000275,360.488617 257.010620,374.911957 
	C257.010620,374.911957 257.058472,375.136383 257.040253,375.249634 
z"/>
<path fill="#D78705" opacity="1.000000" stroke="none" 
	d="
M257.033142,325.404358 
	C268.237488,321.192078 279.384918,317.255371 290.654144,313.705353 
	C294.682678,312.436279 296.023682,310.353973 296.120911,306.165436 
	C296.305450,298.214081 297.036682,290.260834 297.870514,282.343079 
	C298.765137,273.847595 298.205750,273.004883 289.918091,273.002197 
	C279.263824,272.998749 268.609528,273.002258 257.489197,273.003815 
	C257.009003,271.613007 256.994904,270.221130 256.966492,268.411743 
	C256.952148,267.994202 257.030273,267.691437 257.449463,267.666992 
	C273.091492,267.642548 288.314301,267.642548 303.678680,267.642548 
	C303.767914,268.979218 303.883759,269.618408 303.841858,270.247070 
	C302.891449,284.500519 302.031311,298.762115 300.795532,312.991058 
	C300.669861,314.437988 298.500946,316.340759 296.881104,316.924652 
	C283.630066,321.701019 270.284241,326.214355 256.967224,330.807617 
	C256.967224,330.807648 257.008881,330.454895 256.969971,330.281586 
	C256.962128,328.683014 256.993225,327.257721 257.033142,325.404358 
z"/>
<path fill="#F09601" opacity="1.000000" stroke="none" 
	d="
M257.035065,278.475128 
	C266.866608,278.006531 276.688873,278.135071 286.504822,277.943024 
	C290.590515,277.863129 292.314758,279.309357 292.029816,283.451508 
	C291.551331,290.407013 291.630951,297.424133 290.699951,304.310455 
	C290.437012,306.255341 287.781769,308.664978 285.695831,309.439209 
	C276.496429,312.853699 267.104218,315.748688 257.421387,318.908447 
	C257.048401,305.637665 257.035828,292.290314 257.035065,278.475128 
z"/>
<path fill="#FFFFFE" opacity="1.000000" stroke="none" 
	d="
M256.973419,331.224792 
	C270.284241,326.214355 283.630066,321.701019 296.881104,316.924652 
	C298.500946,316.340759 300.669861,314.437988 300.795532,312.991058 
	C302.031311,298.762115 302.891449,284.500519 303.841858,270.247070 
	C303.883759,269.618408 303.767914,268.979218 303.678680,267.642548 
	C288.314301,267.642548 273.091492,267.642548 257.414795,267.514526 
	C256.969421,253.621445 256.977875,239.856369 256.986877,225.633698 
	C287.417145,225.176086 317.846924,225.176086 348.665558,225.176086 
	C347.774323,239.864090 346.899872,254.263870 346.027008,268.663757 
	C344.526642,293.415466 342.963501,318.163727 341.596191,342.922760 
	C341.390869,346.640930 340.001678,348.213013 336.404663,349.362549 
	C310.144501,357.754883 283.975555,366.432678 257.394226,374.966156 
	C257.000275,360.488617 256.989960,346.065277 256.973419,331.224792 
z"/>
<path fill="#D27603" opacity="1.000000" stroke="none" 
	d="
M257.026245,224.418091 
	C240.905136,224.819138 224.782730,224.819138 207.940857,224.819138 
	C206.882935,210.829163 205.826675,196.861160 204.724213,182.282227 
	C222.264603,182.282227 239.188766,182.282227 256.573914,182.374573 
	C257.028595,184.038773 257.022339,185.610596 257.009705,187.574829 
	C243.680191,187.977264 230.354904,188.126160 217.035126,187.919937 
	C212.543625,187.850388 210.544785,189.229874 210.960648,193.905243 
	C211.563782,200.686111 211.914566,207.489807 212.345444,214.285492 
	C212.615875,218.550522 214.618057,220.193161 219.089859,220.091431 
	C231.407410,219.811279 243.735550,219.997986 256.527710,220.003967 
	C257.005615,221.344299 257.015320,222.680679 257.026245,224.418091 
z"/>
<path fill="#FFFFFE" opacity="1.000000" stroke="none" 
	d="
M257.459290,182.040802 
	C256.997040,168.293106 256.994995,154.637054 256.994324,140.515503 
	C285.618134,139.974075 314.240570,139.897018 342.863007,139.823547 
	C346.672699,139.813766 350.482452,139.822205 355.032379,139.822205 
	C353.970093,153.972610 352.933746,167.777374 351.856110,182.132462 
	C320.375641,182.132462 289.147583,182.132462 257.459290,182.040802 
z"/>
</svg>