<svg version="1.1" id="Layer_1" xmlns="http://www.w3.org/2000/svg" xmlns:xlink="http://www.w3.org/1999/xlink" x="0px" y="0px"
	 width="100%" viewBox="0 0 1024 1024" enable-background="new 0 0 1024 1024" xml:space="preserve">
<path fill="#F7DF1E" opacity="1.000000" stroke="none" 
	d="
M901.000000,1025.000000 
	C600.666687,1025.000000 300.833344,1025.000000 1.000000,1025.000000 
	C1.000000,683.666687 1.000000,342.333344 1.000000,1.000000 
	C342.333344,1.000000 683.666687,1.000000 1025.000000,1.000000 
	C1025.000000,342.333344 1025.000000,683.666687 1025.000000,1025.000000 
	C983.833313,1025.000000 942.666687,1025.000000 901.000000,1025.000000 
M803.894470,857.543640 
	C752.340698,865.867554 714.895691,845.186279 688.988342,800.952393 
	C662.663330,816.242065 636.824280,831.249512 610.810730,846.358276 
	C611.503906,847.794739 612.025146,848.986694 612.638489,850.129272 
	C627.802551,878.379089 649.062683,900.841370 676.637390,917.232910 
	C708.359131,936.089539 743.122986,943.854370 779.614807,944.769226 
	C808.495911,945.493347 836.780640,941.879089 863.776489,931.001221 
	C896.468201,917.828186 921.528625,896.421265 935.507202,863.368774 
	C944.538574,842.013855 946.499390,819.598694 944.951416,796.752197 
	C942.660950,762.946533 930.011047,733.935730 904.768799,710.809265 
	C889.793335,697.089111 873.017395,685.925110 854.791077,677.220581 
	C830.056702,665.407898 804.877075,654.530457 779.954712,643.107117 
	C767.534424,637.414124 755.452820,631.185181 745.568176,621.347412 
	C728.576355,604.436218 727.561462,562.537354 763.880432,552.110413 
	C786.723755,545.552307 813.092041,550.515198 830.552002,573.242249 
	C834.792908,578.762512 838.554810,584.650757 842.699707,590.603516 
	C867.518188,574.657471 892.345459,558.705750 917.192810,542.741150 
	C897.618347,508.277557 871.143372,482.963318 832.757385,472.337036 
	C803.900269,464.348602 774.535889,463.414185 745.166077,469.086182 
	C682.201355,481.246277 640.454163,528.184143 639.527771,590.615540 
	C639.022461,624.677185 647.235107,655.909058 670.049561,682.214661 
	C684.210510,698.542603 701.244873,711.417114 720.474487,720.905029 
	C744.005981,732.515442 768.127380,742.932129 792.014526,753.819275 
	C806.550903,760.444702 821.252014,766.801758 833.522034,777.370789 
	C855.206360,796.048950 854.471680,828.242126 831.961060,845.553406 
	C823.905090,851.748596 814.626770,855.318665 803.894470,857.543640 
M498.500031,471.121246 
	C486.585114,471.121246 474.670197,471.121246 462.380829,471.121246 
	C462.380829,473.822449 462.380798,475.797638 462.380798,477.772858 
	C462.380768,583.097961 462.413513,688.423096 462.317657,793.748169 
	C462.310120,802.054932 461.968872,810.441040 460.795807,818.649231 
	C458.858582,832.204346 454.104156,844.535889 441.518585,852.037415 
	C422.234375,863.531799 391.237518,861.112183 375.207275,845.489563 
	C366.874634,837.368713 360.739258,826.977722 353.733368,817.521790 
	C351.892914,815.037659 350.507233,812.216614 348.833527,809.417908 
	C322.529541,825.344788 296.680664,840.996033 270.657501,856.752930 
	C286.464111,889.675171 309.307098,915.246704 342.595245,929.867371 
	C386.098785,948.974854 430.900848,949.686462 475.680542,934.962708 
	C512.182739,922.960510 536.401978,897.768005 549.147766,861.506042 
	C556.480774,840.643555 558.709167,819.031616 558.719116,797.116028 
	C558.767700,690.291016 558.741516,583.466003 558.741760,476.640991 
	C558.741760,474.883148 558.741760,473.125305 558.741760,471.546234 
	C557.642334,471.296906 557.318848,471.159668 556.995239,471.159332 
	C537.830200,471.139465 518.665100,471.130890 498.500031,471.121246 
z"/>
<path fill="#010100" opacity="1.000000" stroke="none" 
	d="
M804.302856,857.426514 
	C814.626770,855.318665 823.905090,851.748596 831.961060,845.553406 
	C854.471680,828.242126 855.206360,796.048950 833.522034,777.370789 
	C821.252014,766.801758 806.550903,760.444702 792.014526,753.819275 
	C768.127380,742.932129 744.005981,732.515442 720.474487,720.905029 
	C701.244873,711.417114 684.210510,698.542603 670.049561,682.214661 
	C647.235107,655.909058 639.022461,624.677185 639.527771,590.615540 
	C640.454163,528.184143 682.201355,481.246277 745.166077,469.086182 
	C774.535889,463.414185 803.900269,464.348602 832.757385,472.337036 
	C871.143372,482.963318 897.618347,508.277557 917.192810,542.741150 
	C892.345459,558.705750 867.518188,574.657471 842.699707,590.603516 
	C838.554810,584.650757 834.792908,578.762512 830.552002,573.242249 
	C813.092041,550.515198 786.723755,545.552307 763.880432,552.110413 
	C727.561462,562.537354 728.576355,604.436218 745.568176,621.347412 
	C755.452820,631.185181 767.534424,637.414124 779.954712,643.107117 
	C804.877075,654.530457 830.056702,665.407898 854.791077,677.220581 
	C873.017395,685.925110 889.793335,697.089111 904.768799,710.809265 
	C930.011047,733.935730 942.660950,762.946533 944.951416,796.752197 
	C946.499390,819.598694 944.538574,842.013855 935.507202,863.368774 
	C921.528625,896.421265 896.468201,917.828186 863.776489,931.001221 
	C836.780640,941.879089 808.495911,945.493347 779.614807,944.769226 
	C743.122986,943.854370 708.359131,936.089539 676.637390,917.232910 
	C649.062683,900.841370 627.802551,878.379089 612.638489,850.129272 
	C612.025146,848.986694 611.503906,847.794739 610.810730,846.358276 
	C636.824280,831.249512 662.663330,816.242065 688.988342,800.952393 
	C714.895691,845.186279 752.340698,865.867554 804.302856,857.426514 
z"/>
<path fill="#020100" opacity="1.000000" stroke="none" 
	d="
M499.000061,471.121246 
	C518.665100,471.130890 537.830200,471.139465 556.995239,471.159332 
	C557.318848,471.159668 557.642334,471.296906 558.741760,471.546234 
	C558.741760,473.125305 558.741760,474.883148 558.741760,476.640991 
	C558.741516,583.466003 558.767700,690.291016 558.719116,797.116028 
	C558.709167,819.031616 556.480774,840.643555 549.147766,861.506042 
	C536.401978,897.768005 512.182739,922.960510 475.680542,934.962708 
	C430.900848,949.686462 386.098785,948.974854 342.595245,929.867371 
	C309.307098,915.246704 286.464111,889.675171 270.657501,856.752930 
	C296.680664,840.996033 322.529541,825.344788 348.833527,809.417908 
	C350.507233,812.216614 351.892914,815.037659 353.733368,817.521790 
	C360.739258,826.977722 366.874634,837.368713 375.207275,845.489563 
	C391.237518,861.112183 422.234375,863.531799 441.518585,852.037415 
	C454.104156,844.535889 458.858582,832.204346 460.795807,818.649231 
	C461.968872,810.441040 462.310120,802.054932 462.317657,793.748169 
	C462.413513,688.423096 462.380768,583.097961 462.380798,477.772858 
	C462.380798,475.797638 462.380829,473.822449 462.380829,471.121246 
	C474.670197,471.121246 486.585114,471.121246 499.000061,471.121246 
z"/>
</svg>