<svg version="1.1" id="Layer_1" xmlns="http://www.w3.org/2000/svg" xmlns:xlink="http://www.w3.org/1999/xlink" x="0px" y="0px"
	 width="100%" viewBox="0 0 225 225" enable-background="new 0 0 225 225" xml:space="preserve">
<path fill="#FEFEFF" opacity="1.000000" stroke="none" 
	d="
M226.000000,134.000000 
	C226.000000,164.633835 226.000000,195.267670 226.000000,225.950745 
	C151.113144,225.950745 76.226257,225.950745 1.000000,225.950745 
	C1.000000,195.646622 1.000000,165.291962 1.192519,134.470459 
	C1.385039,134.003586 1.770094,134.002884 1.917530,134.354950 
	C5.282103,144.410492 8.499238,154.113937 11.766337,163.968094 
	C31.112474,157.810608 50.043236,151.785339 68.841080,146.079865 
	C57.110184,162.378342 45.512207,178.357010 33.810867,194.478073 
	C42.937946,201.113876 51.776615,207.539978 60.557533,213.924103 
	C61.020271,213.633896 61.382908,213.522522 61.562653,213.277176 
	C72.861115,197.854706 84.151215,182.426071 95.410431,166.974945 
	C95.980400,166.192780 96.629410,165.211487 96.638367,164.316879 
	C96.728912,155.276306 96.693565,146.234467 96.693565,136.934647 
	C87.295822,139.759094 78.599159,142.372818 70.012299,144.659851 
	C75.351196,137.115646 80.580292,129.898178 86.023926,122.384575 
	C77.115814,119.394577 68.560425,116.522972 60.005600,113.561356 
	C60.006168,113.471336 60.003345,113.291321 60.350407,113.129120 
	C68.945793,110.166924 77.194115,107.366920 85.801102,104.445160 
	C80.483879,96.877975 75.283371,89.476898 70.469604,82.048492 
	C79.366669,84.587883 87.876999,87.154617 96.736252,89.826584 
	C96.736252,82.510643 96.438736,75.675461 96.833344,68.880470 
	C97.132133,63.735325 95.672081,59.649807 92.479492,55.671440 
	C88.014244,50.107166 84.066444,44.129593 79.847511,38.365250 
	C73.594444,29.821678 67.297775,21.310020 60.892315,12.611841 
	C51.636227,19.348991 42.800152,25.780434 33.894238,32.262707 
	C35.174404,34.071503 36.221260,35.567059 37.284725,37.050709 
	C47.540211,51.358231 57.798489,65.663750 67.726395,80.277489 
	C48.895191,74.700813 30.393574,68.816490 11.818904,62.908936 
	C8.348039,73.284348 5.050813,83.140701 1.565185,92.996307 
	C1.376782,92.995552 1.000000,93.000000 1.000000,93.000000 
	C1.000000,62.366158 1.000000,31.732317 1.000000,1.049237 
	C75.886871,1.049237 150.773773,1.049237 226.000000,1.049237 
	C226.000000,31.353384 226.000000,61.708035 225.815155,92.529503 
	C225.630310,92.996323 225.260590,92.997261 225.121399,92.641243 
	C221.771927,82.550522 218.561630,72.815811 215.232239,62.719944 
	C199.859375,67.701355 184.893021,72.609573 169.880646,77.372742 
	C166.317825,78.503166 162.600769,79.147537 159.035294,79.680435 
	C170.405823,63.736092 181.695709,48.126789 193.164078,32.270733 
	C184.060165,25.667864 175.120682,19.184259 166.033646,12.593637 
	C154.442886,28.577026 143.210281,44.043869 132.027008,59.546291 
	C131.380722,60.442200 130.772308,61.623283 130.760513,62.678520 
	C130.660568,71.617302 130.703415,80.557678 130.703415,89.925133 
	C139.961487,86.965240 148.635651,84.192024 157.133179,81.756287 
	C151.743881,89.441948 146.531204,96.790115 141.124969,104.411156 
	C150.197861,107.545197 158.596634,110.446388 166.994904,113.437813 
	C166.994400,113.528053 166.996948,113.708527 166.649948,113.870865 
	C157.975983,116.780937 149.649002,119.528671 141.090912,122.352669 
	C142.315704,124.073944 143.486435,125.668495 144.604187,127.299362 
	C148.417542,132.863235 152.212234,138.439865 155.674896,144.296875 
	C147.298355,142.106003 139.260925,139.629883 130.745865,137.006622 
	C130.745865,146.270691 130.649948,155.076797 130.839478,163.876770 
	C130.871368,165.358292 131.941742,166.950546 132.863846,168.257767 
	C138.037064,175.591599 143.287384,182.871536 148.558655,190.135559 
	C154.377823,198.154617 160.248016,206.136642 166.117004,214.163528 
	C175.391037,207.399750 184.193314,200.980026 193.134323,194.459122 
	C181.263733,178.073486 169.674927,162.076797 158.472107,146.049896 
	C177.575348,151.944702 196.292557,157.869705 215.167725,163.844727 
	C218.570450,153.740662 221.894089,143.871490 225.413300,134.002808 
	C225.608856,134.003281 226.000000,134.000000 226.000000,134.000000 
z"/>
<path fill="#FDFDFF" opacity="1.000000" stroke="none" 
	d="
M1.770092,134.002884 
	C1.770094,134.002884 1.385039,134.003586 1.192519,134.001801 
	C1.000000,120.645775 1.000000,107.291542 1.000000,93.468658 
	C1.000000,93.000000 1.376782,92.995552 1.621649,93.386246 
	C3.055943,94.483200 4.164807,95.432991 5.447498,95.857346 
	C16.069817,99.371552 26.714579,102.818962 37.372337,106.224648 
	C44.900055,108.630127 52.458576,110.939209 60.003345,113.291321 
	C60.003345,113.291321 60.006168,113.471336 59.598976,113.581909 
	C40.819153,119.565819 22.437853,125.412544 4.098434,131.387833 
	C3.140050,131.700104 2.538023,133.106079 1.770092,134.002884 
z"/>
<path fill="#FDFDFF" opacity="1.000000" stroke="none" 
	d="
M225.260590,92.997269 
	C225.260590,92.997261 225.630310,92.996323 225.815155,92.998161 
	C226.000000,106.354225 226.000000,119.708458 226.000000,133.531342 
	C226.000000,134.000000 225.608856,134.003281 225.367401,133.616455 
	C223.815079,132.442688 222.592209,131.401367 221.178314,130.912308 
	C214.628983,128.646912 208.048767,126.464516 201.438339,124.383415 
	C189.973907,120.774178 178.479050,117.261627 166.996948,113.708527 
	C166.996948,113.708527 166.994400,113.528053 167.401245,113.416595 
	C186.120056,107.370743 204.439941,101.460457 222.722504,95.436852 
	C223.727371,95.105766 224.421707,93.832161 225.260590,92.997269 
z"/>
<path fill="#FB045C" opacity="1.000000" stroke="none" 
	d="
M69.902496,144.986557 
	C78.599159,142.372818 87.295822,139.759094 96.693565,136.934647 
	C96.693565,146.234467 96.728912,155.276306 96.638367,164.316879 
	C96.629410,165.211487 95.980400,166.192780 95.410431,166.974945 
	C84.151215,182.426071 72.861115,197.854706 61.562653,213.277176 
	C61.382908,213.522522 61.020271,213.633896 60.557533,213.924103 
	C51.776615,207.539978 42.937946,201.113876 33.810867,194.478073 
	C45.512207,178.357010 57.110184,162.378342 69.026596,145.996979 
	C69.566750,145.424667 69.752579,145.222092 69.902496,144.986557 
z"/>
<path fill="#03F2E6" opacity="1.000000" stroke="none" 
	d="
M68.055969,79.969841 
	C57.798489,65.663750 47.540211,51.358231 37.284725,37.050709 
	C36.221260,35.567059 35.174404,34.071503 33.894238,32.262707 
	C42.800152,25.780434 51.636227,19.348991 60.892315,12.611841 
	C67.297775,21.310020 73.594444,29.821678 79.847511,38.365250 
	C84.066444,44.129593 88.014244,50.107166 92.479492,55.671440 
	C95.672081,59.649807 97.132133,63.735325 96.833344,68.880470 
	C96.438736,75.675461 96.736252,82.510643 96.736252,89.826584 
	C87.876999,87.154617 79.366669,84.587883 70.213951,81.908829 
	C69.347000,81.484833 69.122429,81.173172 68.836121,80.632355 
	C68.566360,80.140732 68.296089,79.989532 67.989449,79.942169 
	C68.015327,79.934723 68.055969,79.969841 68.055969,79.969841 
z"/>
<path fill="#D63AFF" opacity="1.000000" stroke="none" 
	d="
M225.121414,92.641251 
	C224.421707,93.832161 223.727371,95.105766 222.722504,95.436852 
	C204.439941,101.460457 186.120056,107.370743 167.401764,113.326355 
	C158.596634,110.446388 150.197861,107.545197 141.124969,104.411156 
	C146.531204,96.790115 151.743881,89.441948 157.212311,81.631538 
	C157.649200,81.057190 157.845886,81.011162 158.340057,80.933922 
	C158.748627,80.537621 158.875275,80.238617 159.008240,79.969910 
	C159.014557,80.000206 158.954666,80.015480 158.954666,80.015480 
	C162.600769,79.147537 166.317825,78.503166 169.880646,77.372742 
	C184.893021,72.609573 199.859375,67.701355 215.232239,62.719944 
	C218.561630,72.815811 221.771927,82.550522 225.121414,92.641251 
z"/>
<path fill="#D63AFF" opacity="1.000000" stroke="none" 
	d="
M70.012299,144.659851 
	C69.752579,145.222092 69.566750,145.424667 69.159515,145.677185 
	C50.043236,151.785339 31.112474,157.810608 11.766337,163.968094 
	C8.499238,154.113937 5.282103,144.410492 1.917529,134.354950 
	C2.538023,133.106079 3.140050,131.700104 4.098434,131.387833 
	C22.437853,125.412544 40.819153,119.565819 59.598412,113.671921 
	C68.560425,116.522972 77.115814,119.394577 86.023926,122.384575 
	C80.580292,129.898178 75.351196,137.115646 70.012299,144.659851 
z"/>
<path fill="#02B9F1" opacity="1.000000" stroke="none" 
	d="
M68.897858,80.861504 
	C69.122429,81.173172 69.347000,81.484833 69.827225,81.936165 
	C75.283371,89.476898 80.483879,96.877975 85.801102,104.445160 
	C77.194115,107.366920 68.945793,110.166924 60.350407,113.129120 
	C52.458576,110.939209 44.900055,108.630127 37.372337,106.224648 
	C26.714579,102.818962 16.069817,99.371552 5.447498,95.857346 
	C4.164807,95.432991 3.055943,94.483200 1.810052,93.386993 
	C5.050813,83.140701 8.348039,73.284348 11.818904,62.908936 
	C30.393574,68.816490 48.895191,74.700813 67.726395,80.277489 
	C68.055969,79.969841 68.015327,79.934723 67.874863,80.232910 
	C68.122215,80.641235 68.510033,80.751366 68.897858,80.861504 
z"/>
<path fill="#FB035B" opacity="1.000000" stroke="none" 
	d="
M158.058121,81.031227 
	C157.845886,81.011162 157.649200,81.057190 157.388962,81.294052 
	C148.635651,84.192024 139.961487,86.965240 130.703415,89.925133 
	C130.703415,80.557678 130.660568,71.617302 130.760513,62.678520 
	C130.772308,61.623283 131.380722,60.442200 132.027008,59.546291 
	C143.210281,44.043869 154.442886,28.577026 166.033646,12.593637 
	C175.120682,19.184259 184.060165,25.667864 193.164078,32.270733 
	C181.695709,48.126789 170.405823,63.736092 159.035294,79.680435 
	C158.954666,80.015480 159.014557,80.000206 158.767517,80.068771 
	C158.366364,80.435295 158.212250,80.733261 158.058121,81.031227 
z"/>
<path fill="#02B9F1" opacity="1.000000" stroke="none" 
	d="
M166.649948,113.870865 
	C178.479050,117.261627 189.973907,120.774178 201.438339,124.383415 
	C208.048767,126.464516 214.628983,128.646912 221.178314,130.912308 
	C222.592209,131.401367 223.815079,132.442688 225.171829,133.615967 
	C221.894089,143.871490 218.570450,153.740662 215.167725,163.844727 
	C196.292557,157.869705 177.575348,151.944702 158.222290,145.916626 
	C157.365189,145.513031 157.143951,145.212494 156.898468,144.631271 
	C156.575958,144.219284 156.277695,144.087982 155.974258,143.979614 
	C155.969086,144.002533 156.014038,144.011642 156.014038,144.011642 
	C152.212234,138.439865 148.417542,132.863235 144.604187,127.299362 
	C143.486435,125.668495 142.315704,124.073944 141.090912,122.352669 
	C149.649002,119.528671 157.975983,116.780937 166.649948,113.870865 
z"/>
<path fill="#01F2E6" opacity="1.000000" stroke="none" 
	d="
M156.922714,144.911957 
	C157.143951,145.212494 157.365189,145.513031 157.836273,145.946838 
	C169.674927,162.076797 181.263733,178.073486 193.134323,194.459122 
	C184.193314,200.980026 175.391037,207.399750 166.117004,214.163528 
	C160.248016,206.136642 154.377823,198.154617 148.558655,190.135559 
	C143.287384,182.871536 138.037064,175.591599 132.863846,168.257767 
	C131.941742,166.950546 130.871368,165.358292 130.839478,163.876770 
	C130.649948,155.076797 130.745865,146.270691 130.745865,137.006622 
	C139.260925,139.629883 147.298355,142.106003 155.674896,144.296875 
	C156.014038,144.011642 155.969086,144.002533 155.848495,144.278290 
	C156.126175,144.673355 156.524445,144.792648 156.922714,144.911957 
z"/>
<path fill="#FEFEFF" opacity="1.000000" stroke="none" 
	d="
M68.836121,80.632355 
	C68.510033,80.751366 68.122215,80.641235 67.848984,80.240356 
	C68.296089,79.989532 68.566360,80.140732 68.836121,80.632355 
z"/>
<path fill="#FEFEFF" opacity="1.000000" stroke="none" 
	d="
M158.340057,80.933922 
	C158.212250,80.733261 158.366364,80.435295 158.761200,80.038475 
	C158.875275,80.238617 158.748627,80.537621 158.340057,80.933922 
z"/>
<path fill="#FEFEFF" opacity="1.000000" stroke="none" 
	d="
M156.898468,144.631271 
	C156.524445,144.792648 156.126175,144.673355 155.853668,144.255371 
	C156.277695,144.087982 156.575958,144.219284 156.898468,144.631271 
z"/>
</svg>