<?xml version="1.0" encoding="UTF-8"?>
<!DOCTYPE svg PUBLIC "-//W3C//DTD SVG 1.1//EN" "http://www.w3.org/Graphics/SVG/1.1/DTD/svg11.dtd">
<svg xmlns="http://www.w3.org/2000/svg" version="1.1" width="225px" height="225px" style="shape-rendering:geometricPrecision; text-rendering:geometricPrecision; image-rendering:optimizeQuality; fill-rule:evenodd; clip-rule:evenodd" xmlns:xlink="http://www.w3.org/1999/xlink">
<g><path style="opacity:1" fill="#fefefe" d="M -0.5,-0.5 C 74.5,-0.5 149.5,-0.5 224.5,-0.5C 224.5,74.5 224.5,149.5 224.5,224.5C 149.5,224.5 74.5,224.5 -0.5,224.5C -0.5,149.5 -0.5,74.5 -0.5,-0.5 Z"/></g>
<g><path style="opacity:1" fill="#070706" d="M 122.5,39.5 C 114.5,46.8333 106.833,54.5 99.5,62.5C 88.121,73.3797 76.9544,84.3797 66,95.5C 58.1422,105.323 57.4756,115.657 64,126.5C 75.7015,138.369 87.5349,150.035 99.5,161.5C 102.181,173.478 97.5145,178.812 85.5,177.5C 72.2015,164.702 59.0348,151.702 46,138.5C 34.3733,120.275 34.7066,102.275 47,84.5C 73.8333,57.6667 100.667,30.8333 127.5,4C 140.746,0.246417 145.912,5.07975 143,18.5C 135.964,25.3685 129.131,32.3685 122.5,39.5 Z"/></g>
<g><path style="opacity:1" fill="#f79f1e" d="M 122.5,39.5 C 128.9,40.3675 134.567,42.8675 139.5,47C 147.333,54.8333 155.167,62.6667 163,70.5C 166.394,81.7693 162.228,87.2693 150.5,87C 141.233,79.7359 132.566,71.7359 124.5,63C 116.233,58.5719 107.899,58.4052 99.5,62.5C 106.833,54.5 114.5,46.8333 122.5,39.5 Z"/></g>
<g><path style="opacity:1" fill="#b5b3b2" d="M 101.5,101.5 C 129.502,101.333 157.502,101.5 185.5,102C 192.053,104.73 194.22,109.563 192,116.5C 190.437,119.728 187.937,121.895 184.5,123C 157.5,123.667 130.5,123.667 103.5,123C 95.1211,118.909 93.2878,112.742 98,104.5C 99.5185,103.837 100.685,102.837 101.5,101.5 Z"/></g>
<g><path style="opacity:1" fill="#f89f1c" d="M 85.5,177.5 C 97.5145,178.812 102.181,173.478 99.5,161.5C 108.781,165.876 117.781,165.376 126.5,160C 133.5,153 140.5,146 147.5,139C 153.347,135.301 158.514,136.135 163,141.5C 165,145.5 165,149.5 163,153.5C 154.833,161.667 146.667,169.833 138.5,178C 127.558,185.256 115.558,187.922 102.5,186C 96.2141,184.19 90.5475,181.357 85.5,177.5 Z"/></g>
</svg>
