<?xml version="1.0" encoding="UTF-8"?>
<!DOCTYPE svg PUBLIC "-//W3C//DTD SVG 1.1//EN" "http://www.w3.org/Graphics/SVG/1.1/DTD/svg11.dtd">
<svg xmlns="http://www.w3.org/2000/svg" version="1.1" width="204px" height="192px" style="shape-rendering:geometricPrecision; text-rendering:geometricPrecision; image-rendering:optimizeQuality; fill-rule:evenodd; clip-rule:evenodd" xmlns:xlink="http://www.w3.org/1999/xlink">
<g><path style="opacity:1" fill="#0473b3" d="M 2.5,-0.5 C 68.5,-0.5 134.5,-0.5 200.5,-0.5C 200.709,0.921673 201.209,2.25501 202,3.5C 202.667,64.8333 202.667,126.167 202,187.5C 201.209,188.745 200.709,190.078 200.5,191.5C 134.5,191.5 68.5,191.5 2.5,191.5C 2.29142,190.078 1.79142,188.745 1,187.5C 0.333333,126.167 0.333333,64.8333 1,3.5C 1.79142,2.25501 2.29142,0.921673 2.5,-0.5 Z"/></g>
<g><path style="opacity:1" fill="#bed4e6" d="M -0.5,-0.5 C 0.5,-0.5 1.5,-0.5 2.5,-0.5C 2.29142,0.921673 1.79142,2.25501 1,3.5C 0.333333,64.8333 0.333333,126.167 1,187.5C 1.79142,188.745 2.29142,190.078 2.5,191.5C 1.5,191.5 0.5,191.5 -0.5,191.5C -0.5,127.5 -0.5,63.5 -0.5,-0.5 Z"/></g>
<g><path style="opacity:1" fill="#bed4e6" d="M 200.5,-0.5 C 201.5,-0.5 202.5,-0.5 203.5,-0.5C 203.5,63.5 203.5,127.5 203.5,191.5C 202.5,191.5 201.5,191.5 200.5,191.5C 200.709,190.078 201.209,188.745 202,187.5C 202.667,126.167 202.667,64.8333 202,3.5C 201.209,2.25501 200.709,0.921673 200.5,-0.5 Z"/></g>
<g><path style="opacity:1" fill="#fafbfd" d="M 41.5,21.5 C 57.1924,22.021 64.0257,30.021 62,45.5C 56.4591,56.3461 47.9591,59.5128 36.5,55C 25.4374,45.5961 24.7707,35.5961 34.5,25C 36.9252,23.7874 39.2585,22.6207 41.5,21.5 Z"/></g>
<g><path style="opacity:1" fill="#fcfdfe" d="M 172.5,166.5 C 162.833,166.5 153.167,166.5 143.5,166.5C 143.83,146.66 143.497,126.993 142.5,107.5C 140.694,98.3822 135.028,94.0489 125.5,94.5C 116.347,95.3169 111.014,100.317 109.5,109.5C 108.503,128.326 108.17,147.326 108.5,166.5C 98.8333,166.5 89.1667,166.5 79.5,166.5C 79.5,134.167 79.5,101.833 79.5,69.5C 89.015,69.1731 98.3483,69.5064 107.5,70.5C 107.176,74.5546 107.509,78.5546 108.5,82.5C 109.107,82.3764 109.44,82.0431 109.5,81.5C 120.946,67.6387 135.28,63.8054 152.5,70C 161,73.1667 166.833,79 170,87.5C 171.185,93.1302 172.185,98.7969 173,104.5C 173.829,125.337 173.663,146.004 172.5,166.5 Z"/></g>
<g><path style="opacity:1" fill="#fefffe" d="M 30.5,70.5 C 40.1667,70.5 49.8333,70.5 59.5,70.5C 59.5,102.5 59.5,134.5 59.5,166.5C 49.8333,166.5 40.1667,166.5 30.5,166.5C 30.5,134.5 30.5,102.5 30.5,70.5 Z"/></g>
<g><path style="opacity:1" fill="#bad0e5" d="M 30.5,70.5 C 40.3194,69.506 50.3194,69.1726 60.5,69.5C 60.5,102.167 60.5,134.833 60.5,167.5C 50.3194,167.827 40.3194,167.494 30.5,166.5C 40.1667,166.5 49.8333,166.5 59.5,166.5C 59.5,134.5 59.5,102.5 59.5,70.5C 49.8333,70.5 40.1667,70.5 30.5,70.5 Z"/></g>
<g><path style="opacity:1" fill="#79a8cd" d="M 107.5,70.5 C 108.167,74.1667 108.833,77.8333 109.5,81.5C 109.44,82.0431 109.107,82.3764 108.5,82.5C 107.509,78.5546 107.176,74.5546 107.5,70.5 Z"/></g>
<g><path style="opacity:1" fill="#a7c3dd" d="M 109.5,109.5 C 109.5,128.833 109.5,148.167 109.5,167.5C 99.3194,167.827 89.3194,167.494 79.5,166.5C 89.1667,166.5 98.8333,166.5 108.5,166.5C 108.17,147.326 108.503,128.326 109.5,109.5 Z"/></g>
<g><path style="opacity:1" fill="#afc9e0" d="M 142.5,107.5 C 143.497,126.993 143.83,146.66 143.5,166.5C 153.167,166.5 162.833,166.5 172.5,166.5C 162.681,167.494 152.681,167.827 142.5,167.5C 142.5,147.5 142.5,127.5 142.5,107.5 Z"/></g>
</svg>
