<?xml version="1.0" encoding="UTF-8"?>
<svg version="1.1" xmlns="http://www.w3.org/2000/svg" width="252" height="200">
<path d="M0 0 C83.16 0 166.32 0 252 0 C252 66 252 132 252 200 C168.84 200 85.68 200 0 200 C0 134 0 68 0 0 Z " fill="#0181CB" transform="translate(0,0)"/>
<path d="M0 0 C4.40412687 1.46804229 7.47882978 2.67715882 11.359375 4.94921875 C12.38063477 5.5431543 13.40189453 6.13708984 14.45410156 6.74902344 C16.08557129 7.70856934 16.08557129 7.70856934 17.75 8.6875 C19.47880525 9.69445151 21.20761533 10.70139483 22.93670654 11.70785522 C24.73877453 12.75776027 26.53944131 13.81003474 28.33984375 14.86279297 C34.29845968 18.34495367 40.27438309 21.79712822 46.25 25.25 C47.88146973 26.19685669 47.88146973 26.19685669 49.54589844 27.1628418 C50.5671582 27.75363525 51.58841797 28.34442871 52.640625 28.953125 C53.53297852 29.47036133 54.42533203 29.98759766 55.34472656 30.52050781 C56.2209668 31.00874023 57.09720703 31.49697266 58 32 C58.98097656 32.61311035 59.96195312 33.2262207 60.97265625 33.85791016 C63.94937467 35.33636963 63.94937467 35.33636963 66.83886719 34.10986328 C67.81500977 33.51931152 68.79115234 32.92875977 69.796875 32.3203125 C71.46423706 31.33756348 71.46423706 31.33756348 73.1652832 30.33496094 C74.36038817 29.59863078 75.55528902 28.86196924 76.75 28.125 C77.98707833 27.38591885 79.22562703 26.64929369 80.46557617 25.91503906 C83.03300685 24.39130308 85.5928693 22.85587436 88.14794922 21.31152344 C94.14763103 17.69592522 100.23563637 14.23359131 106.3125 10.75 C108.41322627 9.53726494 110.5135163 8.32377376 112.61328125 7.109375 C114.01441162 6.30209961 114.01441162 6.30209961 115.44384766 5.47851562 C117.03630114 4.55741741 118.62519739 3.63010652 120.20849609 2.69335938 C124.78980134 0 124.78980134 0 127 0 C130.76616549 30.48179837 130.76616549 30.48179837 125.06347656 38.83740234 C119.64346725 43.49631752 113.14120131 45.97638599 106.53417969 48.52636719 C100.43860862 51.06801315 94.90008771 54.54818875 89.25 57.9375 C87.17430144 59.13831867 85.09624987 60.33508114 83.015625 61.52734375 C82.03303711 62.11749268 81.05044922 62.7076416 80.03808594 63.31567383 C77 65 77 65 73.59472656 66.33081055 C69.98506016 67.88537142 67.6671476 69.0963971 65 72 C63.0556906 78.05130218 63.87738224 84.69498078 64.25 90.9375 C64.31024372 92.68796865 64.36498792 94.43863575 64.4140625 96.18945312 C64.54584348 100.46455718 64.7525061 104.73009558 65 109 C65.57105469 109.32049316 66.14210938 109.64098633 66.73046875 109.97119141 C79.07854206 116.90839396 91.37059183 123.9317986 103.59375 131.08691406 C111.03420015 135.44199826 118.50001355 139.74824712 126 144 C126 144.33 126 144.66 126 145 C74.19 145 22.38 145 -31 145 C-31 114.97 -31 84.94 -31 54 C-20.65390145 59.64332648 -10.32630351 65.32053307 0 71 C0 47.57 0 24.14 0 0 Z " fill="#FDFEFE" transform="translate(31,55)"/>
<path d="M0 0 C62.04 0 124.08 0 188 0 C185.41960332 2.58039668 183.63117205 3.92333892 180.51953125 5.64453125 C179.61549561 6.14903809 178.71145996 6.65354492 177.7800293 7.17333984 C176.31110229 7.98472412 176.31110229 7.98472412 174.8125 8.8125 C172.71014088 9.98685626 170.60860294 11.1626836 168.5078125 12.33984375 C167.42661133 12.94554199 166.34541016 13.55124023 165.23144531 14.17529297 C160.18669648 17.02392192 155.18583079 19.94590418 150.1875 22.875 C141.63881179 27.87828841 133.07824198 32.86002251 124.5 37.8125 C123.48703857 38.39821777 122.47407715 38.98393555 121.43041992 39.58740234 C120.43244385 40.16312988 119.43446777 40.73885742 118.40625 41.33203125 C117.40271484 41.93233154 116.39917969 42.53263184 115.36523438 43.15112305 C112.80278819 44.55894407 110.40304769 45.68620065 107.71289062 46.78051758 C100.11869948 49.86372314 100.11869948 49.86372314 95.1418457 55.97653198 C93.84243494 61.63158077 94.20017428 67.31184264 94.5 73.0625 C94.53208342 74.80391665 94.55688914 76.54548342 94.57421875 78.28710938 C94.63218097 82.53111431 94.788796 86.76097035 95 91 C80.07262935 82.86624312 65.23740593 74.62446664 50.5871582 65.99804688 C49.63156006 65.43666016 48.67596191 64.87527344 47.69140625 64.296875 C46.85810791 63.80541992 46.02480957 63.31396484 45.16625977 62.80761719 C40.48381606 60.13441083 35.7334214 57.58186622 31 55 C31 78.43 31 101.86 31 126 C26.44300651 124.48100217 23.23148888 123.1511829 19.19921875 120.77734375 C17.61077148 119.84631836 17.61077148 119.84631836 15.99023438 118.89648438 C14.90033203 118.25001953 13.81042969 117.60355469 12.6875 116.9375 C11.02364258 115.96200195 11.02364258 115.96200195 9.32617188 114.96679688 C1.16269066 110.16269066 1.16269066 110.16269066 0 109 C-0.09550698 107.58321089 -0.12188483 106.16168759 -0.12025452 104.74168396 C-0.12163201 103.82508468 -0.12300951 102.90848539 -0.12442875 101.96411037 C-0.12083064 100.94655698 -0.11723253 99.92900358 -0.11352539 98.88061523 C-0.11364593 97.80006646 -0.11376646 96.71951769 -0.11389065 95.60622501 C-0.11314115 92.09032736 -0.10551121 88.57448198 -0.09765625 85.05859375 C-0.09618695 82.89522324 -0.09516617 80.73185238 -0.09460449 78.56848145 C-0.08935026 70.52481556 -0.0753892 62.48115727 -0.0625 54.4375 C-0.041875 36.473125 -0.02125 18.50875 0 0 Z " fill="#00AFFE" transform="translate(0,0)"/>
<path d="M0 0 C20.79 0 41.58 0 63 0 C63.68184976 17.81722441 63.68184976 17.81722441 63.83007812 25.4609375 C63.93142955 30.66253362 64.05074158 35.85900685 64.2824707 41.05664062 C65.50067354 69.09663663 65.50067354 69.09663663 61.38833618 75.51568604 C57.50894914 79.17587297 53.22207345 80.92572496 48.13801575 82.32693481 C44.74559578 83.39489691 42.04838691 85.20827986 39.0625 87.125 C34.24654378 90 34.24654378 90 32 90 C32.06807861 91.07894531 32.13615723 92.15789062 32.20629883 93.26953125 C32.44291195 97.30112587 32.59125385 101.33212249 32.71411133 105.36865234 C32.77920754 107.10961262 32.86773109 108.8498694 32.98071289 110.58837891 C33.70316965 121.99731144 33.70316965 121.99731144 32 127 C28.25950047 131.04250943 24.00736624 132.85413022 19 135 C16.94643986 136.162629 14.90788441 137.35223828 12.88671875 138.5703125 C9.70653847 140.4005864 6.52050819 142.2195935 3.32788086 144.02807617 C-2.4324438 147.305636 -8.08661788 150.66292741 -13.6328125 154.29296875 C-14.69330811 154.96763184 -15.75380371 155.64229492 -16.84643555 156.33740234 C-18.86156691 157.62501096 -20.8544448 158.94834161 -22.81958008 160.31103516 C-25.59804917 162.05593432 -27.79508279 163.28579615 -31 164 C-35.23038432 162.81641212 -38.43016391 160.50124939 -42 158 C-43.87862895 156.91102654 -45.7680245 155.84040535 -47.66796875 154.7890625 C-49.50845558 153.7354976 -51.34830138 152.6808121 -53.1875 151.625 C-54.13947266 151.07972656 -55.09144531 150.53445312 -56.07226562 149.97265625 C-58.38208832 148.64944124 -60.6913239 147.32521416 -63 146 C-60.58310212 143.30592573 -57.99835145 141.7329107 -54.8359375 139.99609375 C-53.2890625 139.13999512 -53.2890625 139.13999512 -51.7109375 138.26660156 C-50.05964844 137.36119629 -50.05964844 137.36119629 -48.375 136.4375 C-46.09037707 135.17195973 -43.80652434 133.90502809 -41.5234375 132.63671875 C-39.84652832 131.70545166 -39.84652832 131.70545166 -38.13574219 130.75537109 C-33.49213609 128.15590614 -28.85137651 125.53481448 -24.33964252 122.71070194 C-20.82779212 120.5491957 -17.41817203 118.70450256 -13.5660553 117.22122192 C-8.74826302 115.20811478 -4.40082 113.06300874 -1 109 C2.09253122 101.26344053 1.1155042 92.33999958 0.87890625 84.1796875 C0.86962769 81.75018993 0.86786357 79.32065306 0.87327576 76.8911438 C0.86740073 70.5200832 0.75995998 64.15469139 0.63085938 57.78509521 C0.49703709 50.13058004 0.49019002 42.47501194 0.46190643 34.81951904 C0.40486944 23.20932267 0.18729209 11.61210983 0 0 Z " fill="#FDFDFE" transform="translate(189,0)"/>
<path d="M0 0 C0.30419562 14.07296785 0.53230275 28.14542355 0.67355824 42.2210083 C0.74136221 48.75738657 0.83329066 55.29155433 0.98071289 61.82666016 C1.12214218 68.13570794 1.19972773 74.44263257 1.23340416 80.75314331 C1.25739568 83.15837033 1.30425137 85.56348304 1.37449074 87.96780396 C1.88912621 106.31653304 1.88912621 106.31653304 -1.23894501 110.75989723 C-4.68230703 113.94521763 -8.61667832 115.40584127 -13 117 C-15.07092624 118.16447742 -17.12418324 119.36162878 -19.1484375 120.60546875 C-24.62120091 123.76400277 -30.10952037 126.89536939 -35.59472656 130.03222656 C-38.94410511 131.96770055 -42.26693082 133.94267028 -45.5859375 135.9296875 C-47.64060883 137.14065244 -49.69529563 138.35159112 -51.75 139.5625 C-52.69536621 140.14088623 -53.64073242 140.71927246 -54.61474609 141.31518555 C-55.49984863 141.83121338 -56.38495117 142.34724121 -57.296875 142.87890625 C-58.06354492 143.3385376 -58.83021484 143.79816895 -59.62011719 144.27172852 C-63.96345536 145.6008399 -67.2257732 143.40479628 -71.06787109 141.39599609 C-72.65462646 140.46907959 -72.65462646 140.46907959 -74.2734375 139.5234375 C-74.84204498 139.19332672 -75.41065247 138.86321594 -75.99649048 138.52310181 C-77.79239353 137.47889449 -79.58371638 136.42710791 -81.375 135.375 C-82.59996446 134.66095037 -83.82522226 133.94740372 -85.05078125 133.234375 C-88.03726655 131.49538341 -91.01969696 129.74957061 -94 128 C-91.65110132 125.53590875 -89.5237355 123.51499194 -86.515625 121.9140625 C-85.83999512 121.54788818 -85.16436523 121.18171387 -84.46826172 120.80444336 C-83.73623535 120.41522705 -83.00420898 120.02601074 -82.25 119.625 C-76.80556097 116.66797988 -71.39282243 113.66963559 -66.0390625 110.55078125 C-65.02497314 109.96006836 -64.01088379 109.36935547 -62.96606445 108.76074219 C-60.90012324 107.54216159 -58.84389106 106.3069734 -56.79760742 105.05566406 C-51.57216905 101.89251069 -46.83270337 99.26415518 -40.8503418 97.88842773 C-37.21636738 96.27871396 -34.44331524 94.14885855 -32 91 C-31.01016655 88.14965397 -30.88046537 85.44313009 -30.80859375 82.44140625 C-30.7453894 81.24077293 -30.7453894 81.24077293 -30.6809082 80.0158844 C-30.31020901 71.67510147 -30.57275229 63.33326069 -31 55 C-46.56971111 63.58769298 -62.06139188 72.26185829 -77.32275391 81.38916016 C-79.69229557 82.80456254 -82.06483546 84.21484088 -84.4375 85.625 C-85.16662598 86.06368408 -85.89575195 86.50236816 -86.64697266 86.9543457 C-91.77448994 90 -91.77448994 90 -94 90 C-97.75974078 59.57020057 -97.75974078 59.57020057 -92.09570312 51.17871094 C-86.69737654 46.50832099 -80.16963738 44.04524782 -73.57617188 41.49023438 C-68.01432917 39.17254678 -62.92690783 36.11001644 -57.75979614 33.03900146 C-54.83276248 31.31085115 -51.87351543 29.63967636 -48.91796875 27.9609375 C-36.80661193 21.04801787 -24.76768022 14.00708571 -12.765625 6.90625 C-11.96600342 6.43364746 -11.16638184 5.96104492 -10.3425293 5.47412109 C-8.86355297 4.5989928 -7.385775 3.72183488 -5.90942383 2.84228516 C-1.10996701 0 -1.10996701 0 0 0 Z " fill="#0180CA" transform="translate(189,0)"/>
<path d="M0 0 C61.71 0 123.42 0 187 0 C184.41960332 2.58039668 182.63117205 3.92333892 179.51953125 5.64453125 C178.61549561 6.14903809 177.71145996 6.65354492 176.7800293 7.17333984 C175.31110229 7.98472412 175.31110229 7.98472412 173.8125 8.8125 C171.71014088 9.98685626 169.60860294 11.1626836 167.5078125 12.33984375 C166.42661133 12.94554199 165.34541016 13.55124023 164.23144531 14.17529297 C159.18669898 17.02392051 154.18575412 19.94577708 149.1875 22.875 C142.90251411 26.55533675 136.61406531 30.22877355 130.3046875 33.8671875 C128.63092041 34.83289673 128.63092041 34.83289673 126.92333984 35.81811523 C124.70309003 37.09436373 122.47950353 38.36482696 120.25244141 39.62915039 C115.38074012 42.40543673 110.59772738 45.21146481 105.96875 48.37890625 C105.21392334 48.87874023 104.45909668 49.37857422 103.68139648 49.89355469 C102.32383456 50.80266287 100.98920655 51.74760278 99.68774414 52.73535156 C97.67579969 54.05944944 96.40214744 54.73619197 94 55 C89.97645841 53.56608855 86.57493755 51.30792544 83 49 C81.25302615 48.00851784 79.49917564 47.02904304 77.73828125 46.0625 C75.92892228 45.04302359 74.12035696 44.02213758 72.3125 43 C71.32338623 42.44094971 70.33427246 41.88189941 69.31518555 41.3059082 C61.29367327 36.75914074 53.32516522 32.12538519 45.37036133 27.46313477 C39.77813802 24.19007007 34.17157058 20.94435445 28.54296875 17.734375 C27.91401199 17.37567825 27.28505524 17.01698151 26.63703918 16.64741516 C23.57260459 14.90090251 20.50653557 13.15731559 17.4387207 11.41674805 C5.56276299 4.66078888 5.56276299 4.66078888 0 1 C0 0.67 0 0.34 0 0 Z " fill="#FDFEFE" transform="translate(1,0)"/>
<path d="M0 0 C0 17.82 0 35.64 0 54 C-31.02 54 -62.04 54 -94 54 C-88.3831238 49.50649904 -88.3831238 49.50649904 -85.41796875 47.9140625 C-84.74652832 47.54845215 -84.07508789 47.1828418 -83.38330078 46.80615234 C-82.65868652 46.41637207 -81.93407227 46.0265918 -81.1875 45.625 C-73.92981135 41.65714423 -66.75893032 37.56110312 -59.625 33.375 C-50.04356121 27.7575464 -40.41901266 22.22124467 -30.76623535 16.72772217 C-22.72481323 12.15073494 -14.71143732 7.53241822 -6.79516602 2.74121094 C-2.21389026 0 -2.21389026 0 0 0 Z " fill="#FEFEFE" transform="translate(252,146)"/>
<path d="M0 0 C3.75261736 1.4123029 7.18013771 3.12130119 10.67578125 5.08203125 C11.75150391 5.68466797 12.82722656 6.28730469 13.93554688 6.90820312 C15.60713867 7.85083008 15.60713867 7.85083008 17.3125 8.8125 C18.41529297 9.42931641 19.51808594 10.04613281 20.65429688 10.68164062 C25.80531225 13.57543493 30.8988392 16.51394342 35.8840332 19.68432617 C41.75345732 23.33383887 47.79025418 26.71779211 53.77148438 30.1796875 C54.81498047 30.78554687 55.85847656 31.39140625 56.93359375 32.015625 C57.88290771 32.56508789 58.83222168 33.11455078 59.81030273 33.68066406 C62 35 62 35 63 36 C63.08855161 38.6662603 63.11524673 41.30647114 63.09765625 43.97265625 C63.0962413 44.77029892 63.09482635 45.56794159 63.09336853 46.38975525 C63.08775316 48.94737435 63.07519812 51.50490718 63.0625 54.0625 C63.05748698 55.79231645 63.05292373 57.52213426 63.04882812 59.25195312 C63.03777875 63.50133553 63.02050386 67.75065312 63 72 C56.32533568 68.7248928 49.73804783 65.41029622 43.375 61.5625 C41.93694153 60.70448163 40.49808082 59.84780697 39.05859375 58.9921875 C38.27081543 58.52393555 37.48303711 58.05568359 36.67138672 57.57324219 C30.17578223 53.74782862 23.6253375 50.01499228 17.08544922 46.26586914 C14.98612128 45.05898678 12.89755055 43.83314132 10.82177734 42.58618164 C8.11557681 40.96302349 8.11557681 40.96302349 5.46337891 40.08374023 C2.80403143 39.01441808 1.63529539 38.38042733 0 36 C-0.99713915 29.87028113 -0.750644 23.87261372 -0.5 17.6875 C-0.45985496 15.97599396 -0.42335593 14.26439825 -0.390625 12.55273438 C-0.30262359 8.36627423 -0.16469159 4.1841166 0 0 Z " fill="#01AFFE" transform="translate(95,128)"/>
<path d="M0 0 C0 12.21 0 24.42 0 37 C-4.00125 39.248125 -8.0025 41.49625 -12.125 43.8125 C-13.37555176 44.51608643 -14.62610352 45.21967285 -15.91455078 45.94458008 C-16.91470215 46.50556396 -17.91485352 47.06654785 -18.9453125 47.64453125 C-19.96125488 48.21534424 -20.97719727 48.78615723 -22.02392578 49.37426758 C-24.98255096 50.99046816 -27.97546208 52.51139105 -31 54 C-31.32329201 49.02015529 -31.55799957 44.04648465 -31.71411133 39.05859375 C-31.77919461 37.36610545 -31.86770958 35.6743403 -31.98071289 33.984375 C-32.70758778 22.82799653 -32.70758778 22.82799653 -31 18 C-27.20916794 14.03368604 -22.99358231 12.14005622 -18 10 C-16.33218103 9.0389622 -14.67849172 8.0525436 -13.046875 7.03125 C-11.61536586 6.18617305 -10.18309983 5.34237661 -8.75 4.5 C-7.63431641 3.83871094 -7.63431641 3.83871094 -6.49609375 3.1640625 C-1.12111801 0 -1.12111801 0 0 0 Z " fill="#0181CB" transform="translate(252,0)"/>
</svg>
