<svg version="1.1" id="Layer_1" xmlns="http://www.w3.org/2000/svg" xmlns:xlink="http://www.w3.org/1999/xlink" x="0px" y="0px"
	 width="100%" viewBox="0 0 225 225" enable-background="new 0 0 225 225" xml:space="preserve">
<path fill="#FFFFFF" opacity="1.000000" stroke="none" 
	d="
M149.000000,226.000000 
	C99.333336,226.000000 50.166672,226.000000 1.000007,226.000000 
	C1.000004,151.000000 1.000004,76.000015 1.000002,1.000017 
	C75.999992,1.000011 150.999985,1.000011 225.999969,1.000006 
	C225.999985,75.999985 225.999985,150.999969 226.000000,225.999969 
	C200.500000,226.000000 175.000000,226.000000 149.000000,226.000000 
M111.772949,188.253418 
	C133.332886,172.343140 144.490845,150.647888 145.877853,124.233536 
	C147.420975,94.845978 136.444534,69.840767 117.138931,48.074081 
	C112.999565,43.407024 109.619019,38.066948 105.681442,32.377342 
	C105.090103,32.405602 104.234802,32.189514 103.947815,32.499519 
	C100.708412,35.998817 97.663551,39.681858 94.363327,43.120609 
	C71.193909,67.262512 61.352322,95.903786 65.199387,129.179199 
	C68.188545,155.033966 81.577446,174.621506 101.973442,190.799301 
	C102.677490,196.543091 103.182755,202.322891 104.212700,208.007645 
	C104.503075,209.610367 106.330727,210.934570 107.924088,212.995438 
	C109.107376,203.732925 110.086807,196.066132 111.772949,188.253418 
z"/>
<path fill="#6CAC48" opacity="1.000000" stroke="none" 
	d="
M101.969185,189.960800 
	C81.577446,174.621506 68.188545,155.033966 65.199387,129.179199 
	C61.352322,95.903786 71.193909,67.262512 94.363327,43.120609 
	C97.663551,39.681858 100.708412,35.998817 103.947815,32.499519 
	C104.234802,32.189514 105.090103,32.405602 105.495567,33.003044 
	C105.203400,40.768528 104.966354,47.909161 105.012573,55.047955 
	C105.263329,93.775688 105.584061,132.502975 105.576286,171.434479 
	C104.170990,177.745956 103.070091,183.853378 101.969185,189.960800 
z"/>
<path fill="#599636" opacity="1.000000" stroke="none" 
	d="
M105.880684,171.230423 
	C105.584061,132.502975 105.263329,93.775688 105.012573,55.047955 
	C104.966354,47.909161 105.203400,40.768528 105.599304,33.332829 
	C109.619019,38.066948 112.999565,43.407024 117.138931,48.074081 
	C136.444534,69.840767 147.420975,94.845978 145.877853,124.233536 
	C144.490845,150.647888 133.332886,172.343140 111.267563,187.981201 
	C106.678886,182.943726 106.238670,177.099258 105.880684,171.230423 
z"/>
<path fill="#C1BFBE" opacity="1.000000" stroke="none" 
	d="
M105.576286,171.434479 
	C106.238670,177.099258 106.678886,182.943726 110.914207,188.054169 
	C110.086807,196.066132 109.107376,203.732925 107.924088,212.995438 
	C106.330727,210.934570 104.503075,209.610367 104.212700,208.007645 
	C103.182755,202.322891 102.677490,196.543091 101.971313,190.380051 
	C103.070091,183.853378 104.170990,177.745956 105.576286,171.434479 
z"/>
</svg>