<svg version="1.1" id="Layer_1" xmlns="http://www.w3.org/2000/svg" xmlns:xlink="http://www.w3.org/1999/xlink" x="0px" y="0px"
	 width="100%" viewBox="0 0 225 225" enable-background="new 0 0 225 225" xml:space="preserve">
<path fill="#010101" opacity="1.000000" stroke="none" 
	d="
M126.000000,226.000000 
	C117.312439,226.000000 108.624870,226.000000 99.326096,225.632568 
	C50.204403,216.665863 18.577868,189.020584 4.488224,141.651047 
	C3.150264,137.152817 2.154586,132.552780 1.000000,128.000000 
	C1.000000,118.645775 1.000000,109.291542 1.365207,99.320648 
	C9.112032,47.547642 47.002098,12.723392 89.697044,3.418610 
	C93.143379,2.667528 96.566231,1.808739 100.000000,1.000000 
	C108.354233,1.000000 116.708466,1.000000 125.687943,1.377797 
	C127.467545,1.850622 128.628983,1.893365 129.775253,2.048226 
	C172.889221,7.872870 210.642899,41.172653 222.001114,83.450531 
	C223.473114,88.929672 224.673691,94.481720 226.000000,100.000000 
	C226.000000,109.020897 226.000000,118.041786 225.631912,127.672958 
	C220.001328,162.279434 203.088181,188.830093 174.550583,208.224533 
	C150.169632,171.331894 126.003258,134.754868 101.825226,98.185539 
	C96.610527,90.298302 91.349731,82.441551 86.117912,74.565605 
	C82.993095,69.861519 78.285378,71.663216 74.286552,72.166931 
	C70.606644,72.630478 71.162521,76.226601 71.161354,79.050537 
	C71.150261,105.876015 71.110519,132.701492 71.112099,159.526978 
	C71.112419,164.967529 72.256638,165.970795 78.032684,165.965012 
	C84.034851,165.959000 84.927490,165.192932 84.953163,159.576935 
	C85.028564,143.082275 85.052773,126.587387 85.092590,110.092583 
	C85.101997,106.198067 85.093987,102.303513 85.093987,97.700867 
	C112.453964,136.658279 139.237183,174.794449 166.489868,213.599106 
	C159.053848,216.326675 151.407715,219.436386 143.560577,221.907867 
	C137.844467,223.708176 131.863098,224.666367 126.000000,226.000000 
M141.926132,132.392136 
	C145.906143,138.510284 149.886154,144.628433 153.866165,150.746582 
	C154.762650,125.141335 154.724915,100.025597 154.796051,74.910164 
	C154.809494,70.163544 152.628067,68.395142 148.042297,68.490379 
	C141.860214,68.618782 140.661285,69.347610 140.604279,75.059624 
	C140.429733,92.550400 140.386765,110.042740 140.382111,127.534500 
	C140.381744,128.951187 141.063095,130.368088 141.926132,132.392136 
z"/>
<path fill="#FCFCFC" opacity="1.000000" stroke="none" 
	d="
M126.468658,226.000000 
	C131.863098,224.666367 137.844467,223.708176 143.560577,221.907867 
	C151.407715,219.436386 159.053848,216.326675 166.489868,213.599106 
	C139.237183,174.794449 112.453964,136.658279 85.093987,97.700867 
	C85.093987,102.303513 85.101997,106.198067 85.092590,110.092583 
	C85.052773,126.587387 85.028564,143.082275 84.953163,159.576935 
	C84.927490,165.192932 84.034851,165.959000 78.032684,165.965012 
	C72.256638,165.970795 71.112419,164.967529 71.112099,159.526978 
	C71.110519,132.701492 71.150261,105.876015 71.161354,79.050537 
	C71.162521,76.226601 70.606644,72.630478 74.286552,72.166931 
	C78.285378,71.663216 82.993095,69.861519 86.117912,74.565605 
	C91.349731,82.441551 96.610527,90.298302 101.825226,98.185539 
	C126.003258,134.754868 150.169632,171.331894 174.550583,208.224533 
	C203.088181,188.830093 220.001328,162.279434 225.631912,128.141617 
	C226.000000,160.594330 226.000000,193.188675 226.000000,226.000000 
	C192.979416,226.000000 159.958374,226.000000 126.468658,226.000000 
z"/>
<path fill="#FDFDFD" opacity="1.000000" stroke="none" 
	d="
M226.000000,99.531342 
	C224.673691,94.481720 223.473114,88.929672 222.001114,83.450531 
	C210.642899,41.172653 172.889221,7.872870 129.775253,2.048226 
	C128.628983,1.893365 127.467545,1.850622 126.156586,1.377797 
	C159.259903,1.000000 192.519791,1.000000 226.000000,1.000000 
	C226.000000,33.687233 226.000000,66.374954 226.000000,99.531342 
z"/>
<path fill="#FDFDFD" opacity="1.000000" stroke="none" 
	d="
M99.531342,1.000000 
	C96.566231,1.808739 93.143379,2.667528 89.697044,3.418610 
	C47.002098,12.723392 9.112032,47.547642 1.365207,98.851990 
	C1.000000,66.406029 1.000000,33.812057 1.000000,1.000000 
	C33.687237,1.000000 66.374962,1.000000 99.531342,1.000000 
z"/>
<path fill="#FDFDFD" opacity="1.000000" stroke="none" 
	d="
M1.000000,128.468658 
	C2.154586,132.552780 3.150264,137.152817 4.488224,141.651047 
	C18.577868,189.020584 50.204403,216.665863 98.857445,225.632568 
	C66.406403,226.000000 33.812805,226.000000 1.000000,226.000000 
	C1.000000,193.646103 1.000000,161.291702 1.000000,128.468658 
z"/>
<path fill="#F3F3F3" opacity="1.000000" stroke="none" 
	d="
M141.676895,132.088501 
	C141.063095,130.368088 140.381744,128.951187 140.382111,127.534500 
	C140.386765,110.042740 140.429733,92.550400 140.604279,75.059624 
	C140.661285,69.347610 141.860214,68.618782 148.042297,68.490379 
	C152.628067,68.395142 154.809494,70.163544 154.796051,74.910164 
	C154.724915,100.025597 154.762650,125.141335 153.866165,150.746582 
	C149.886154,144.628433 145.906143,138.510284 141.676895,132.088501 
z"/>
</svg>