<svg version="1.1" id="Layer_1" xmlns="http://www.w3.org/2000/svg" xmlns:xlink="http://www.w3.org/1999/xlink" x="0px" y="0px"
	 width="100%" viewBox="0 0 225 225" enable-background="new 0 0 225 225" xml:space="preserve">
<path fill="#FEFEFE" opacity="1.000000" stroke="none" 
	d="
M130.000000,226.000000 
	C86.666672,226.000000 43.833340,226.000000 1.000006,226.000000 
	C1.000004,151.000000 1.000004,76.000015 1.000002,1.000016 
	C75.999992,1.000010 150.999985,1.000010 225.999969,1.000005 
	C225.999985,75.999985 225.999985,150.999969 226.000000,225.999969 
	C194.166672,226.000000 162.333328,226.000000 130.000000,226.000000 
M75.975235,78.896019 
	C75.964996,106.395592 75.980080,133.895203 75.927757,161.394699 
	C75.913643,168.815659 71.427780,172.864716 64.101227,171.898209 
	C61.704449,171.582016 59.287910,170.573990 57.135418,169.410568 
	C51.429016,166.326279 45.923878,162.868958 40.210812,159.797897 
	C37.686642,158.441040 36.768509,156.776642 36.779495,153.896545 
	C36.882484,126.897644 36.780254,99.897766 36.970722,72.899826 
	C36.983875,71.035530 38.386833,68.367157 39.951061,67.449844 
	C63.201988,53.814758 86.558556,40.357964 110.011909,27.073999 
	C111.619667,26.163364 114.640617,26.166462 116.249893,27.077423 
	C139.706223,40.355385 163.065720,53.806328 186.323090,67.429764 
	C187.935501,68.374275 189.489639,70.998863 189.503647,72.853989 
	C189.707474,99.851746 189.705612,126.851974 189.509628,153.849838 
	C189.496048,155.722839 188.039459,158.390167 186.451309,159.326050 
	C163.086700,173.094131 139.612595,186.677948 116.053795,200.111404 
	C114.566437,200.959488 111.818680,200.881821 110.254807,200.075668 
	C105.088493,197.412552 100.228516,194.161392 95.175941,191.266907 
	C93.955849,190.567963 92.168167,189.660980 91.119926,190.071457 
	C86.910645,191.719727 82.889229,193.847748 77.880898,196.235916 
	C87.365181,201.866562 96.042519,207.024231 104.726112,212.171371 
	C110.730431,215.730408 116.752998,215.547897 122.711067,212.103271 
	C146.624344,198.277969 170.514801,184.413193 194.431213,170.593353 
	C200.299973,167.202179 203.122421,162.244217 203.105484,155.424622 
	C203.036331,127.592194 203.029251,99.759346 203.111572,71.926987 
	C203.131729,65.108170 200.388733,60.121334 194.509766,56.722542 
	C170.309845,42.731895 146.127655,28.710567 121.940331,14.698149 
	C116.270432,11.413411 110.558701,11.311922 104.879822,14.595500 
	C80.537155,28.670639 56.211014,42.774376 31.879253,56.868382 
	C26.547684,59.956650 23.663731,64.495346 23.663807,70.742393 
	C23.664162,99.408295 23.452124,128.077576 23.908319,156.736206 
	C23.971514,160.706161 26.277903,166.224060 29.368773,168.266129 
	C38.752663,174.465851 48.641010,180.290924 59.058689,184.439163 
	C72.270386,189.699966 85.415237,183.336395 88.673599,171.515030 
	C89.545784,168.350739 89.886871,164.948257 89.898613,161.653091 
	C89.993660,134.987457 89.956070,108.321342 89.941093,81.655380 
	C89.940277,80.204117 89.780045,78.752937 89.679794,77.061691 
	C85.246361,77.061691 81.115692,77.061691 76.436699,76.954704 
	C76.337967,77.292274 76.239235,77.629837 75.975235,78.896019 
M143.225143,142.159256 
	C137.410141,142.072723 131.560883,142.349594 125.789001,141.805603 
	C118.924080,141.158600 112.900345,138.407196 111.595238,130.784500 
	C110.880981,126.612793 109.062553,125.496605 105.313408,125.950363 
	C103.836227,126.129143 102.313637,126.066360 100.821976,125.964058 
	C97.659416,125.747177 96.747719,127.355919 96.961128,130.241302 
	C97.672020,139.852783 102.117584,147.008759 110.927742,151.074539 
	C121.031845,155.737503 131.767838,156.369049 142.681122,155.451721 
	C150.745941,154.773804 158.495483,153.104645 165.031021,147.939117 
	C172.528854,142.013046 174.191864,133.906357 172.894241,125.044685 
	C171.743484,117.185829 166.209244,113.070450 159.095688,110.885483 
	C155.139801,109.670410 151.077209,108.739059 147.007828,107.970268 
	C137.874908,106.244881 128.651321,104.949448 119.597244,102.894669 
	C117.533195,102.426239 114.692856,99.686554 114.553352,97.817337 
	C114.363144,95.268677 115.812302,91.935875 117.688492,90.084106 
	C119.502556,88.293655 122.694664,87.346992 125.377869,87.106834 
	C130.641907,86.635674 135.987411,86.650734 141.272720,86.943184 
	C148.746338,87.356743 154.167725,90.661964 156.348648,98.425987 
	C156.733002,99.794289 158.865326,101.116043 160.449585,101.586388 
	C162.285980,102.131584 164.412598,101.631294 166.405823,101.731705 
	C169.562637,101.890747 170.344498,100.353577 170.175980,97.420326 
	C169.621231,87.763962 163.364304,78.600365 153.279129,76.221176 
	C144.688400,74.194527 135.551193,73.481552 126.720261,73.828636 
	C120.846214,74.059502 114.620178,76.327232 109.380699,79.196892 
	C101.017967,83.777168 98.759926,91.906067 99.926315,101.082054 
	C100.930031,108.978203 105.860382,113.774345 113.005440,115.839340 
	C119.824310,117.810059 126.959908,118.692986 133.964355,120.011139 
	C140.161194,121.177299 146.517670,121.802773 152.501007,123.648254 
	C154.985519,124.414566 157.752914,127.423500 158.482788,129.961548 
	C159.519089,133.565201 157.760666,137.429794 154.077805,139.155762 
	C150.989487,140.603088 147.471588,141.133774 143.225143,142.159256 
z"/>
<path fill="#559F45" opacity="1.000000" stroke="none" 
	d="
M76.985031,77.061691 
	C81.115692,77.061691 85.246361,77.061691 89.679794,77.061691 
	C89.780045,78.752937 89.940277,80.204117 89.941093,81.655380 
	C89.956070,108.321342 89.993660,134.987457 89.898613,161.653091 
	C89.886871,164.948257 89.545784,168.350739 88.673599,171.515030 
	C85.415237,183.336395 72.270386,189.699966 59.058689,184.439163 
	C48.641010,180.290924 38.752663,174.465851 29.368773,168.266129 
	C26.277903,166.224060 23.971514,160.706161 23.908319,156.736206 
	C23.452124,128.077576 23.664162,99.408295 23.663807,70.742393 
	C23.663731,64.495346 26.547684,59.956650 31.879253,56.868382 
	C56.211014,42.774376 80.537155,28.670639 104.879822,14.595500 
	C110.558701,11.311922 116.270432,11.413411 121.940331,14.698149 
	C146.127655,28.710567 170.309845,42.731895 194.509766,56.722542 
	C200.388733,60.121334 203.131729,65.108170 203.111572,71.926987 
	C203.029251,99.759346 203.036331,127.592194 203.105484,155.424622 
	C203.122421,162.244217 200.299973,167.202179 194.431213,170.593353 
	C170.514801,184.413193 146.624344,198.277969 122.711067,212.103271 
	C116.752998,215.547897 110.730431,215.730408 104.726112,212.171371 
	C96.042519,207.024231 87.365181,201.866562 77.880898,196.235916 
	C82.889229,193.847748 86.910645,191.719727 91.119926,190.071457 
	C92.168167,189.660980 93.955849,190.567963 95.175941,191.266907 
	C100.228516,194.161392 105.088493,197.412552 110.254807,200.075668 
	C111.818680,200.881821 114.566437,200.959488 116.053795,200.111404 
	C139.612595,186.677948 163.086700,173.094131 186.451309,159.326050 
	C188.039459,158.390167 189.496048,155.722839 189.509628,153.849838 
	C189.705612,126.851974 189.707474,99.851746 189.503647,72.853989 
	C189.489639,70.998863 187.935501,68.374275 186.323090,67.429764 
	C163.065720,53.806328 139.706223,40.355385 116.249893,27.077423 
	C114.640617,26.166462 111.619667,26.163364 110.011909,27.073999 
	C86.558556,40.357964 63.201988,53.814758 39.951061,67.449844 
	C38.386833,68.367157 36.983875,71.035530 36.970722,72.899826 
	C36.780254,99.897766 36.882484,126.897644 36.779495,153.896545 
	C36.768509,156.776642 37.686642,158.441040 40.210812,159.797897 
	C45.923878,162.868958 51.429016,166.326279 57.135418,169.410568 
	C59.287910,170.573990 61.704449,171.582016 64.101227,171.898209 
	C71.427780,172.864716 75.913643,168.815659 75.927757,161.394699 
	C75.980080,133.895203 75.964996,106.395592 76.247986,78.332901 
	C76.748581,77.581680 76.903351,77.345650 76.985031,77.061691 
z"/>
<path fill="#559F45" opacity="1.000000" stroke="none" 
	d="
M143.684509,142.114777 
	C147.471588,141.133774 150.989487,140.603088 154.077805,139.155762 
	C157.760666,137.429794 159.519089,133.565201 158.482788,129.961548 
	C157.752914,127.423500 154.985519,124.414566 152.501007,123.648254 
	C146.517670,121.802773 140.161194,121.177299 133.964355,120.011139 
	C126.959908,118.692986 119.824310,117.810059 113.005440,115.839340 
	C105.860382,113.774345 100.930031,108.978203 99.926315,101.082054 
	C98.759926,91.906067 101.017967,83.777168 109.380699,79.196892 
	C114.620178,76.327232 120.846214,74.059502 126.720261,73.828636 
	C135.551193,73.481552 144.688400,74.194527 153.279129,76.221176 
	C163.364304,78.600365 169.621231,87.763962 170.175980,97.420326 
	C170.344498,100.353577 169.562637,101.890747 166.405823,101.731705 
	C164.412598,101.631294 162.285980,102.131584 160.449585,101.586388 
	C158.865326,101.116043 156.733002,99.794289 156.348648,98.425987 
	C154.167725,90.661964 148.746338,87.356743 141.272720,86.943184 
	C135.987411,86.650734 130.641907,86.635674 125.377869,87.106834 
	C122.694664,87.346992 119.502556,88.293655 117.688492,90.084106 
	C115.812302,91.935875 114.363144,95.268677 114.553352,97.817337 
	C114.692856,99.686554 117.533195,102.426239 119.597244,102.894669 
	C128.651321,104.949448 137.874908,106.244881 147.007828,107.970268 
	C151.077209,108.739059 155.139801,109.670410 159.095688,110.885483 
	C166.209244,113.070450 171.743484,117.185829 172.894241,125.044685 
	C174.191864,133.906357 172.528854,142.013046 165.031021,147.939117 
	C158.495483,153.104645 150.745941,154.773804 142.681122,155.451721 
	C131.767838,156.369049 121.031845,155.737503 110.927742,151.074539 
	C102.117584,147.008759 97.672020,139.852783 96.961128,130.241302 
	C96.747719,127.355919 97.659416,125.747177 100.821976,125.964058 
	C102.313637,126.066360 103.836227,126.129143 105.313408,125.950363 
	C109.062553,125.496605 110.880981,126.612793 111.595238,130.784500 
	C112.900345,138.407196 118.924080,141.158600 125.789001,141.805603 
	C131.560883,142.349594 137.410141,142.072723 143.684509,142.114777 
z"/>
<path fill="#459931" opacity="1.000000" stroke="none" 
	d="
M76.710861,77.008194 
	C76.903351,77.345650 76.748581,77.581680 76.330620,77.868599 
	C76.239235,77.629837 76.337967,77.292274 76.710861,77.008194 
z"/>
</svg>