<?xml version="1.0" encoding="UTF-8"?>
<svg version="1.1" xmlns="http://www.w3.org/2000/svg" width="224" height="225">
<path d="M0 0 C73.92 0 147.84 0 224 0 C224 74.25 224 148.5 224 225 C150.08 225 76.16 225 0 225 C0 150.75 0 76.5 0 0 Z " fill="#030303" transform="translate(0,0)"/>
<path d="M0 0 C73.92 0 147.84 0 224 0 C224 74.25 224 148.5 224 225 C150.08 225 76.16 225 0 225 C0 150.75 0 76.5 0 0 Z M35 47 C17.08233939 69.96361225 9.32181983 96.18224953 12.21826172 125.18554688 C14.85972711 144.07039959 22.51085396 162.54034425 35 177 C35.58007812 177.72316406 36.16015625 178.44632813 36.7578125 179.19140625 C46.30777012 190.67932598 58.85702677 198.26509546 72 205 C73.49273437 205.77537109 73.49273437 205.77537109 75.015625 206.56640625 C98.32554263 217.47258279 126.93150683 214.67794972 150.4375 206.1875 C161.77517887 201.83099414 170.90213971 194.92670716 180 187 C180.62519531 186.45988281 181.25039062 185.91976562 181.89453125 185.36328125 C199.5182766 168.97773815 211.19762907 142.44655192 212.21875 118.62890625 C213.04941835 88.04206128 201.66523486 60.5058881 180.75 38.3125 C170.47173749 28.50224944 159.17234515 22.10910028 146 17 C145.19175781 16.66226562 144.38351563 16.32453125 143.55078125 15.9765625 C106.08475411 1.56106254 60.35085407 18.12943157 35 47 Z " fill="#FDFDFD" transform="translate(0,0)"/>
<path d="M0 0 C1.2684375 -0.01289062 2.536875 -0.02578125 3.84375 -0.0390625 C8.30371398 0.77097369 10.7454603 2.1021402 13.5 5.625 C15.63409147 10.17128011 17.14830583 14.90878581 18.6796875 19.68359375 C19.14048903 21.0750298 19.60276339 22.46597888 20.06643677 23.85646057 C21.03133189 26.76352956 21.98310703 29.67444708 22.92480469 32.58911133 C24.12920417 36.31563269 25.3584519 40.03333667 26.59669304 43.74873257 C27.55117676 46.61771305 28.49609517 49.48976794 29.43780899 52.36296272 C29.88787766 53.73469606 30.34000819 55.10575475 30.79427719 56.47610283 C31.4277772 58.39441772 32.0479018 60.31713388 32.66748047 62.23999023 C33.02244598 63.33077377 33.3774115 64.42155731 33.74313354 65.5453949 C34.52818269 68.73967221 34.77328088 71.35025432 34.5 74.625 C32.70006226 77.32490662 31.416227 79.1668865 28.5 80.625 C25.6875 81 25.6875 81 22.5 80.625 C17.87893426 76.89810333 16.29077586 73.29959926 14.6875 67.8125 C13.965625 65.440625 13.24375 63.06875 12.5 60.625 C4.58 60.625 -3.34 60.625 -11.5 60.625 C-12.93783648 65.33106975 -12.93783648 65.33106975 -14.34057617 70.04760742 C-15.8137479 74.66022334 -17.65321063 77.49013588 -21.5 80.625 C-25.47137281 81.3696324 -26.94099683 80.99766878 -30.3125 78.75 C-32.5 76.625 -32.5 76.625 -33.5 74.625 C-33.10729591 66.63396459 -30.83808662 59.39869115 -28.45703125 51.796875 C-28.04670875 50.47654522 -27.63652967 49.15617086 -27.22648621 47.83575439 C-26.36927922 45.08385313 -25.50495185 42.33430127 -24.63647461 39.5859375 C-23.52882892 36.07601386 -22.44775095 32.55850084 -21.37285328 29.03843307 C-20.53629246 26.31450821 -19.68156551 23.59653443 -18.82178307 20.87985992 C-18.21899705 18.95998608 -17.63479043 17.03431036 -17.05097961 15.10858154 C-13.9401908 5.43205032 -11.12879531 -0.11309751 0 0 Z " fill="#FBFBFB" transform="translate(112.5,73.375)"/>
<path d="M0 0 C2.77412801 2.20944894 5.45396574 4.48955916 8.109375 6.83984375 C8.79515625 7.43023437 9.4809375 8.020625 10.1875 8.62890625 C28.2934125 25.33639461 39.83050593 51.62698709 41.234375 76.01098633 C42.19878198 103.65028751 33.61867313 130.22081822 14.9296875 150.87109375 C7.47038624 158.8304311 -0.40572868 165.4298369 -9.890625 170.83984375 C-10.66664063 171.28972656 -11.44265625 171.73960937 -12.2421875 172.203125 C-19.70874479 176.23606481 -27.7424762 178.60148406 -35.890625 180.83984375 C-36.79296875 181.08992187 -37.6953125 181.34 -38.625 181.59765625 C-57.56204932 185.87960052 -81.63336377 183.81361959 -98.890625 174.83984375 C-99.51565918 174.51709473 -100.14069336 174.1943457 -100.78466797 173.86181641 C-109.5239336 169.29865185 -117.44756225 164.35578816 -124.890625 157.83984375 C-125.64601562 157.22753906 -126.40140625 156.61523438 -127.1796875 155.984375 C-144.31403965 141.70574821 -155.64499279 118.22748586 -158.6484375 96.22265625 C-160.69505396 67.63604567 -155.33363741 39.91467922 -136.21875 17.6796875 C-102.18688372 -20.79498117 -42.60020912 -31.83502114 0 0 Z M-115.890625 5.83984375 C-116.76332031 6.47792969 -117.63601562 7.11601563 -118.53515625 7.7734375 C-137.55127679 22.29112092 -149.97546264 44.79065607 -153.59326172 68.37695312 C-156.69696452 94.08315502 -151.03148384 119.85671127 -134.91015625 140.4296875 C-134.24371094 141.22503906 -133.57726562 142.02039063 -132.890625 142.83984375 C-132.19324219 143.68675781 -131.49585938 144.53367188 -130.77734375 145.40625 C-115.26087287 163.45827207 -92.83040417 175.87436753 -68.890625 177.83984375 C-42.48925783 179.28857682 -16.90980419 173.23820776 3.32275391 155.48754883 C23.18067726 137.28980155 34.63970523 113.89528833 36.359375 86.91796875 C36.81011551 59.76085325 27.97274485 34.4201542 9.109375 14.83984375 C-3.33327628 2.13320411 -18.626799 -6.80645086 -35.890625 -11.16015625 C-36.50059326 -11.3293457 -37.11056152 -11.49853516 -37.73901367 -11.67285156 C-65.06661373 -18.64427355 -93.72283649 -10.57254175 -115.890625 5.83984375 Z " fill="#080808" transform="translate(170.890625,30.16015625)"/>
<path d="M0 0 C1.05832031 0.37382812 2.11664063 0.74765625 3.20703125 1.1328125 C25.5818862 9.80701814 45.29313432 26.65887601 55.58984375 48.54296875 C66.34488781 74.90921249 68.70666296 102.48191232 57.73046875 129.14453125 C53.26205746 139.38861552 47.43156189 148.63033168 40 157 C39.39800781 157.68449219 38.79601562 158.36898437 38.17578125 159.07421875 C22.27428355 176.04248359 -1.57739127 186.2969338 -24.63671875 187.22265625 C-50.94606422 187.87745983 -75.37861528 179.82575051 -95 162 C-95.62003906 161.46117187 -96.24007812 160.92234375 -96.87890625 160.3671875 C-115.33965036 143.31991104 -124.52408305 118.4559225 -125.51733398 93.83203125 C-125.94556623 67.57329281 -116.09711868 43.09603883 -98.375 23.8125 C-72.5396005 -0.41467182 -34.10944397 -12.12252016 0 0 Z M-86 20 C-86.98484375 20.81082031 -87.9696875 21.62164062 -88.984375 22.45703125 C-106.49835776 37.38356302 -117.27068066 58.19238362 -120 81 C-121.50621774 106.84077597 -115.97530764 131.5704009 -98.4375 151.375 C-96.96591512 152.92390544 -95.48740684 154.46628196 -94 156 C-93.46117188 156.61230469 -92.92234375 157.22460938 -92.3671875 157.85546875 C-79.16764703 172.34843153 -56.85501946 181.63333205 -37.5703125 182.90625 C-36.72210938 182.9371875 -35.87390625 182.968125 -35 183 C-33.94554688 183.0515625 -32.89109375 183.103125 -31.8046875 183.15625 C-9.85257629 183.74556842 11.28155582 176.13071977 28 162 C29.22009766 160.99839844 29.22009766 160.99839844 30.46484375 159.9765625 C43.68088833 148.6950699 49.74611728 135.83344241 56 120 C56.34538818 119.19336914 56.69077637 118.38673828 57.04663086 117.55566406 C64.46190622 97.6777889 60.90017417 72.87564178 53.25 53.6875 C42.66901524 30.59931629 24.5778706 14.62552554 1.1640625 5.45703125 C-28.98396891 -5.31915189 -61.34579787 -0.55747094 -86 20 Z " fill="#EEEEEE" transform="translate(142,21)"/>
<path d="M0 0 C4.66666667 4 9.33333333 8 14 12 C14.721875 11.0925 15.44375 10.185 16.1875 9.25 C19.33726052 5.46671824 22.91136085 2.72575944 27 0 C25.43638038 3.83797544 22.97489917 6.1667627 20 9 C19.236875 9.763125 18.47375 10.52625 17.6875 11.3125 C17.130625 11.869375 16.57375 12.42625 16 13 C17.04874998 15.62187494 17.64931313 16.79371361 20.125 18.25 C20.74375 18.4975 21.3625 18.745 22 19 C24.0624994 17.18777466 24.0624994 17.18777466 26 15 C26 14.01 26 13.02 26 12 C26.598125 11.896875 27.19625 11.79375 27.8125 11.6875 C30.28243264 10.91123545 31.32251235 9.92911079 33 8 C32.505 7.1028125 32.505 7.1028125 32 6.1875 C31 4 31 4 31 1 C33.70182292 3.70182292 36.40364583 6.40364583 39.10546875 9.10546875 C39.58717529 9.58588623 40.06888184 10.06630371 40.56518555 10.5612793 C41.95892013 11.95880829 43.33906547 13.36984858 44.71875 14.78125 C46.77839745 16.78446875 48.36550065 17.92668545 51 19 C51.99 18.01 52.98 17.02 54 16 C54.66 16.33 55.32 16.66 56 17 C54.68 18.65 53.36 20.3 52 22 C55.96 25.96 59.92 29.92 64 34 C65.65 33.34 67.3 32.68 69 32 C68.34 33.65 67.68 35.3 67 37 C67.969375 37.7425 68.93875 38.485 69.9375 39.25 C72.02387361 40.97309915 72.90112479 41.73868694 73.875 44.3125 C73.91625 44.869375 73.9575 45.42625 74 46 C73.4225 46.061875 72.845 46.12375 72.25 46.1875 C69.0963115 47.32633196 68.03751849 49.36321136 66 52 C64.06265067 53.76079287 62.05075847 55.36871486 60 57 C61.56361962 60.83797544 64.02510083 63.1667627 67 66 C68.33333333 67.33333333 69.66666667 68.66666667 71 70 C72.65 69.34 74.3 68.68 76 68 C75.67 68.763125 75.34 69.52625 75 70.3125 C73.82563314 72.99069135 73.82563314 72.99069135 74 76 C72.68 76 71.36 76 70 76 C68.2488427 77.4166747 68.2488427 77.4166747 67 79 C67.28875 79.5775 67.5775 80.155 67.875 80.75 C68.91666667 82.83333333 69.95833333 84.91666667 71 87 C68.69 85.35 66.38 83.7 64 82 C60.04 85.96 56.08 89.92 52 94 C53.65 95.98 55.3 97.96 57 100 C57.67095703 99.41992188 57.67095703 99.41992188 58.35546875 98.828125 C61.8521026 95.81609925 65.37407463 92.85678969 69 90 C67.43754389 93.83511953 64.89634216 96.10365784 62 99 C60.7483533 101.08334635 60.7483533 101.08334635 60 103 C59.67 103.66 59.34 104.32 59 105 C58.01 105 57.02 105 56 105 C53.79857668 107.4390706 53.79857668 107.4390706 52 110 C52.33 110.66 52.66 111.32 53 112 C52.2575 112.061875 51.515 112.12375 50.75 112.1875 C47.16074558 113.24796153 46.26660905 115.09590716 44 118 C41.25 119.3125 41.25 119.3125 39 120 C39.39832031 119.54109375 39.79664063 119.0821875 40.20703125 118.609375 C42.91142062 115.47728415 45.57991771 112.36122541 48 109 C47.01 108.01 46.02 107.02 45 106 C45.33 105.34 45.66 104.68 46 104 C46.99 104.99 47.98 105.98 49 107 C51.62187494 105.95125002 52.79371361 105.35068687 54.25 102.875 C54.62125 101.946875 54.62125 101.946875 55 101 C54.154375 100.2575 53.30875 99.515 52.4375 98.75 C50 96 50 96 49.9375 93.9375 C51.25872677 91.52820412 53.06468038 89.93531962 55 88 C55 87.01 55 86.02 55 85 C55.598125 84.896875 56.19625 84.79375 56.8125 84.6875 C59.28243264 83.91123545 60.32251235 82.92911079 62 81 C60.63016497 77.83884224 60.0109362 77.0072908 57 75 C56.01 75 55.02 75 54 75 C54 73.68 54 72.36 54 71 C52.5833253 69.2488427 52.5833253 69.2488427 51 68 C47.63408134 69.44253657 45.48952921 71.33264727 43 74 C43.57352893 70.12867972 45.48704352 67.91827204 48 65 C45.03 62.525 45.03 62.525 42 60 C41.01 60.66 40.02 61.32 39 62 C39.268125 61.29875 39.53625 60.5975 39.8125 59.875 C40.03000735 56.53988725 39.63169388 56.13449613 37.5625 53.6875 C36.716875 52.800625 35.87125 51.91375 35 51 C36.98 48.36 38.96 45.72 41 43 C38.03 40.525 38.03 40.525 35 38 C34.01 38.66 33.02 39.32 32 40 C32.2578125 39.26394531 32.515625 38.52789062 32.78125 37.76953125 C33.33677024 34.87940723 33.33677024 34.87940723 31.15625 32.82421875 C30.2796875 32.11910156 29.403125 31.41398437 28.5 30.6875 C24.39930029 27.24820347 20.86795405 23.75832249 17.47265625 19.62890625 C15.90151815 17.75725315 15.90151815 17.75725315 13 16 C10.69 18.31 8.38 20.62 6 23 C5.34 22.67 4.68 22.34 4 22 C4.33 21.01 4.66 20.02 5 19 C5.9590625 18.5359375 5.9590625 18.5359375 6.9375 18.0625 C9.45468915 16.7657662 9.96886948 15.5778263 11 13 C7.67913229 10.22999175 7.67913229 10.22999175 4 8 C3 6.1875 3 6.1875 2 4 C1.33626319 2.66520576 0.67001464 1.33165409 0 0 Z " fill="#9D9D9D" transform="translate(99,50)"/>
<path d="M0 0 C0 3 0 3 -2.25 5.4375 C-3.1575 6.283125 -4.065 7.12875 -5 8 C-5.763125 8.763125 -6.52625 9.52625 -7.3125 10.3125 C-7.869375 10.869375 -8.42625 11.42625 -9 12 C-7.98686718 14.53283204 -7.49016793 15.75491604 -5 17 C-2.4510713 18.27446435 -2.19358356 19.46363493 -1 22 C-0.278125 22.66 0.44375 23.32 1.1875 24 C3 26 3 26 3 28 C2 30 2 30 -0.125 31.9375 C-0.74375 32.618125 -1.3625 33.29875 -2 34 C-1.85974801 36.70705512 -1.85974801 36.70705512 -1 39 C-2.32 38.34 -3.64 37.68 -5 37 C-6.21236328 38.31677734 -6.21236328 38.31677734 -7.44921875 39.66015625 C-8.52783195 40.79504492 -9.60730421 41.92911755 -10.6875 43.0625 C-11.21794922 43.64322266 -11.74839844 44.22394531 -12.29492188 44.82226562 C-13.80190817 46.38472381 -15.20808084 47.77339377 -17 49 C-20.11740362 48.96081476 -21.32446638 48.64851227 -23.5625 46.5 C-24.036875 46.005 -24.51125 45.51 -25 45 C-27.10332891 44.28552357 -27.10332891 44.28552357 -29 44 C-29 43.01 -29 42.02 -29 41 C-31.4390706 38.79857668 -31.4390706 38.79857668 -34 37 C-35.65 38.98 -37.3 40.96 -39 43 C-38.0925 43.721875 -37.185 44.44375 -36.25 45.1875 C-33.42617791 47.53180513 -31.21947464 50.0671228 -29 53 C-28.34 53.66 -27.68 54.32 -27 55 C-27.04496098 58.71891574 -28.04782517 60.05528619 -30.50390625 62.89453125 C-31.5133841 63.87761752 -32.53328299 64.85009858 -33.5625 65.8125 C-34.08263672 66.31458984 -34.60277344 66.81667969 -35.13867188 67.33398438 C-36.4168857 68.56529127 -37.70727147 69.7839407 -39 71 C-33.6984561 77.96169732 -33.6984561 77.96169732 -26.8125 83.0625 C-24.44064497 84.28932157 -24.08663282 85.60940779 -23 88 C-21.11035215 90.13612366 -19.41639276 91.38907149 -17 93 C-17.78375 93.7425 -18.5675 94.485 -19.375 95.25 C-21.56504531 97.54433318 -22.82731386 99.12158858 -24 102 C-22.6696875 103.051875 -22.6696875 103.051875 -21.3125 104.125 C-19.05491168 105.99389976 -17.15096488 107.90623412 -15.3125 110.1875 C-13.12328275 113.12754755 -13.12328275 113.12754755 -10 115 C-8.94895617 116.63495707 -7.94011682 118.29883624 -7 120 C-10.83511953 118.43754389 -13.10365784 115.89634216 -16 113 C-18.08334635 111.7483533 -18.08334635 111.7483533 -20 111 C-20.66 110.67 -21.32 110.34 -22 110 C-22 109.01 -22 108.02 -22 107 C-24.4390706 104.79857668 -24.4390706 104.79857668 -27 103 C-28.485 103.99 -28.485 103.99 -30 105 C-29.67 103.35 -29.34 101.7 -29 100 C-29.86625 99.34 -30.7325 98.68 -31.625 98 C-35.43886244 94.84902318 -38.17861552 91.03197853 -41 87 C-39.64062915 84.1394109 -38.35479531 82.14072301 -36 80 C-37.01454452 77.4636387 -37.6853556 76.20648539 -40 74.6875 C-40.66 74.460625 -41.32 74.23375 -42 74 C-42.99 74.495 -42.99 74.495 -44 75 C-43.79375 74.4225 -43.5875 73.845 -43.375 73.25 C-42.91338739 70.48032433 -43.57055055 69.35438733 -45 67 C-43.35 67.66 -41.7 68.32 -40 69 C-37.9375006 67.18777466 -37.9375006 67.18777466 -36 65 C-36 64.01 -36 63.02 -36 62 C-35.1028125 61.8453125 -35.1028125 61.8453125 -34.1875 61.6875 C-31.71756736 60.91123545 -30.67748765 59.92911079 -29 58 C-29.66 56.68 -30.32 55.36 -31 54 C-32.32 54 -33.64 54 -35 54 C-36.71690524 55.90767249 -37.85509764 57.71019527 -39 60 C-42 60 -42 60 -44 59 C-43.67 57.68 -43.34 56.36 -43 55 C-42.1028125 54.8453125 -42.1028125 54.8453125 -41.1875 54.6875 C-38.71756736 53.91123545 -37.67748765 52.92911079 -36 51 C-37.01409778 48.46475554 -37.61497266 47.22860998 -40 45.8125 C-40.66 45.544375 -41.32 45.27625 -42 45 C-42.66 44.67 -43.32 44.34 -44 44 C-40 40 -40 40 -36 36 C-36.66 34.35 -37.32 32.7 -38 31 C-35.525 31.99 -35.525 31.99 -33 33 C-30.66475218 30.74259377 -28.81294927 28.7194239 -27 26 C-25.07508628 24.2296778 -23.03990156 22.64079038 -21 21 C-22.32 19.35 -23.64 17.7 -25 16 C-24.67 15.34 -24.34 14.68 -24 14 C-22.68 15.32 -21.36 16.64 -20 18 C-17.37812506 16.95125002 -16.20628639 16.35068687 -14.75 13.875 C-14.5025 13.25625 -14.255 12.6375 -14 12 C-14.99 10.68 -15.98 9.36 -17 8 C-16.1028125 8.495 -16.1028125 8.495 -15.1875 9 C-12.94613529 10.20787988 -12.94613529 10.20787988 -10 10 C-7.41381863 7.77931288 -7.41381863 7.77931288 -4.8125 5 C-3.91144531 4.071875 -3.01039062 3.14375 -2.08203125 2.1875 C-1.39496094 1.465625 -0.70789063 0.74375 0 0 Z " fill="#9D9D9D" transform="translate(95,51)"/>
<path d="M0 0 C2.86207152 1.28299758 5.0245088 2.530636 7 5 C7 5.99 7 6.98 7 8 C7.99 8 8.98 8 10 8 C11.9249647 9.82193842 13.37535531 11.89235283 15 14 C13.02 16.31 11.04 18.62 9 21 C9.825 21.928125 10.65 22.85625 11.5 23.8125 C14 26.625 14 26.625 14 30 C14.99 30 15.98 30 17 30 C18.9249647 31.82193842 20.37535531 33.89235283 22 36 C20.02 38.475 20.02 38.475 18 41 C19.32 39.68 20.64 38.36 22 37 C24.86207152 38.28299758 27.0245088 39.530636 29 42 C29 42.99 29 43.98 29 45 C29.99 45 30.98 45 32 45 C34.1875 47 34.1875 47 36 49 C34.5754035 52.44277487 32.96028501 53.82331985 30 56 C28.63755204 57.64295195 27.30135125 59.30824337 26 61 C25.34 61.66 24.68 62.32 24 63 C24.25260247 66.78903708 26.27849443 68.54186593 29 71 C27.70700306 73.88437779 26.34058637 75.87219421 24 78 C22.68 77.34 21.36 76.68 20 76 C20.66 77.32 21.32 78.64 22 80 C20.02 81.98 18.04 83.96 16 86 C13.15616877 84.7251791 10.86245982 83.54862922 9 81 C9.3125 78.8125 9.3125 78.8125 10 77 C6.91202978 77.6469565 6.91202978 77.6469565 6 79.875 C5.67 80.57625 5.34 81.2775 5 82 C3.375 83.75 3.375 83.75 2 85 C-0.62187494 83.95125002 -1.79371361 83.35068687 -3.25 80.875 C-3.4975 80.25625 -3.745 79.6375 -4 79 C-3.195625 78.236875 -2.39125 77.47375 -1.5625 76.6875 C1.16799024 74.20569102 1.16799024 74.20569102 2 71 C1.34 71 0.68 71 0 71 C-0.268125 71.598125 -0.53625 72.19625 -0.8125 72.8125 C-1.98493467 74.97224808 -3.19369282 76.35790256 -5 78 C-7.88437779 76.70700306 -9.87219421 75.34058637 -12 73 C-10.71480435 70.13302508 -9.42870746 68.02392288 -7 66 C-6.34 66 -5.68 66 -5 66 C-4.34 64.68 -3.68 63.36 -3 62 C-3.33 62 -3.66 62 -4 62 C-4.7425 62.7425 -5.485 63.485 -6.25 64.25 C-8.71710373 66.71710373 -11.24130994 68.87186767 -14 71 C-15.98 68.69 -17.96 66.38 -20 64 C-19.154375 63.2575 -18.30875 62.515 -17.4375 61.75 C-16.2309375 60.38875 -16.2309375 60.38875 -15 59 C-15.33 57.68 -15.66 56.36 -16 55 C-11.05 54.34 -6.1 53.68 -1 53 C-0.401875 54.485 0.19625 55.97 0.8125 57.5 C1.17859375 58.4075 1.5446875 59.315 1.921875 60.25 C2.86313566 62.65089675 3.72040594 65.06330229 4.5625 67.5 C5.70359766 71.20606429 5.70359766 71.20606429 9 73 C12.97879218 73.60546838 14.54750501 73.29845414 17.9375 71.0625 C20.32665063 67.51497331 20.13284443 65.84482217 19.55691528 61.71676636 C18.43408782 56.23934464 16.5609537 51.00256257 14.74609375 45.72265625 C14.10406392 43.81678041 13.4620367 41.91090369 12.8201685 40.00497341 C11.926866 37.3599424 11.02523077 34.71778251 10.12365723 32.07556152 C8.53772811 27.42273158 6.96393939 22.76578597 5.39186096 18.10826111 C4.5554279 15.63298932 3.71530428 13.15896106 2.87120056 10.68629456 C2.49403397 9.57431198 2.11686737 8.46232941 1.72827148 7.31665039 C1.39375473 6.33563858 1.05923798 5.35462677 0.71458435 4.34388733 C0 2 0 2 0 0 Z " fill="#1A1A1A" transform="translate(126,80)"/>
<path d="M0 0 C1.66647696 1.42840883 3.33246566 2.85733408 4.99609375 4.2890625 C6.27108643 5.37765274 7.55415091 6.4569109 8.84765625 7.5234375 C12.71046677 10.73254162 15.89559361 14.04893732 19 18 C19.598125 17.67 20.19625 17.34 20.8125 17 C23 16 23 16 26 16 C24.68 17.65 23.36 19.3 22 21 C25.96 24.96 29.92 28.92 34 33 C35.65 32.34 37.3 31.68 39 31 C38.34 32.65 37.68 34.3 37 36 C37.969375 36.7425 38.93875 37.485 39.9375 38.25 C42.02387361 39.97309915 42.90112479 40.73868694 43.875 43.3125 C43.91625 43.869375 43.9575 44.42625 44 45 C43.4225 45.061875 42.845 45.12375 42.25 45.1875 C39.0963115 46.32633196 38.03751849 48.36321136 36 51 C34.06265067 52.76079287 32.05075847 54.36871486 30 56 C31.56361962 59.83797544 34.02510083 62.1667627 37 65 C38.33333333 66.33333333 39.66666667 67.66666667 41 69 C43.475 68.01 43.475 68.01 46 67 C45.67 67.763125 45.34 68.52625 45 69.3125 C43.82563314 71.99069135 43.82563314 71.99069135 44 75 C42.68 75 41.36 75 40 75 C38.2488427 76.4166747 38.2488427 76.4166747 37 78 C37.28875 78.5775 37.5775 79.155 37.875 79.75 C38.91666667 81.83333333 39.95833333 83.91666667 41 86 C38.69 84.35 36.38 82.7 34 81 C30.04 84.96 26.08 88.92 22 93 C23.65 94.98 25.3 96.96 27 99 C27.67095703 98.41992188 27.67095703 98.41992188 28.35546875 97.828125 C31.8521026 94.81609925 35.37407463 91.85678969 39 89 C37.43754389 92.83511953 34.89634216 95.10365784 32 98 C30.7483533 100.08334635 30.7483533 100.08334635 30 102 C29.67 102.66 29.34 103.32 29 104 C28.01 104 27.02 104 26 104 C23.79857668 106.4390706 23.79857668 106.4390706 22 109 C22.495 109.99 22.495 109.99 23 111 C22.2575 111.061875 21.515 111.12375 20.75 111.1875 C17.16074558 112.24796153 16.26660905 114.09590716 14 117 C11.25 118.3125 11.25 118.3125 9 119 C9.59748047 118.31164062 9.59748047 118.31164062 10.20703125 117.609375 C12.91142062 114.47728415 15.57991771 111.36122541 18 108 C17.01 107.01 16.02 106.02 15 105 C15.33 104.34 15.66 103.68 16 103 C16.99 103.99 17.98 104.98 19 106 C21.62187494 104.95125002 22.79371361 104.35068687 24.25 101.875 C24.4975 101.25625 24.745 100.6375 25 100 C24.154375 99.2575 23.30875 98.515 22.4375 97.75 C20 95 20 95 19.9375 92.9375 C21.25872677 90.52820412 23.06468038 88.93531962 25 87 C25 86.01 25 85.02 25 84 C25.598125 83.896875 26.19625 83.79375 26.8125 83.6875 C29.28243264 82.91123545 30.32251235 81.92911079 32 80 C30.63016497 76.83884224 30.0109362 76.0072908 27 74 C26.01 74 25.02 74 24 74 C24 72.68 24 71.36 24 70 C22.5833253 68.2488427 22.5833253 68.2488427 21 67 C17.63408134 68.44253657 15.48952921 70.33264727 13 73 C13.57352893 69.12867972 15.48704352 66.91827204 18 64 C16.02 62.02 14.04 60.04 12 58 C13.55500981 54.18315774 16.03595495 51.80804268 19 49 C22.63814819 50.61695475 24.69298608 52.35438887 28 55 C31.96 51.04 35.92 47.08 40 43 C38.35 41.02 36.7 39.04 35 37 C34.29423828 37.61488281 34.29423828 37.61488281 33.57421875 38.2421875 C32.95160156 38.78101563 32.32898438 39.31984375 31.6875 39.875 C31.07261719 40.40867188 30.45773438 40.94234375 29.82421875 41.4921875 C28 43 28 43 25 45 C25 43.35 25 41.7 25 40 C25.8971875 39.8453125 25.8971875 39.8453125 26.8125 39.6875 C29.28243264 38.91123545 30.32251235 37.92911079 32 36 C30.38888555 32.28204357 28.6649294 30.8324647 25 29 C24.71125 28.360625 24.4225 27.72125 24.125 27.0625 C22.77090236 24.57998766 21.57821507 24.03128603 19 23 C18.29875 23.886875 17.5975 24.77375 16.875 25.6875 C14.20878959 28.90375955 11.27259219 31.41236896 8 34 C7.34 33.67 6.68 33.34 6 33 C9.96 29.04 13.92 25.08 18 21 C16.35 19.02 14.7 17.04 13 15 C12.34 15 11.68 15 11 15 C10.319375 13.7625 10.319375 13.7625 9.625 12.5 C9.08875 11.675 8.5525 10.85 8 10 C3.89539685 9.53459991 3.89539685 9.53459991 1.5 12.4375 C0.675 13.283125 -0.15 14.12875 -1 15 C-3.3125 15.8125 -3.3125 15.8125 -5 16 C-4.67 14.35 -4.34 12.7 -4 11 C-3.401875 10.896875 -2.80375 10.79375 -2.1875 10.6875 C0.28243264 9.91123545 1.32251235 8.92911079 3 7 C2.690625 6.401875 2.38125 5.80375 2.0625 5.1875 C1 3 1 3 0 0 Z " fill="#9D9D9D" transform="translate(129,51)"/>
<path d="M0 0 C1.1725131 0.95117134 2.33787015 1.91117009 3.5 2.875 C4.1496875 3.40867187 4.799375 3.94234375 5.46875 4.4921875 C6.22671875 5.23855469 6.22671875 5.23855469 7 6 C7 6.66 7 7.32 7 8 C7.5775 8.26941406 8.155 8.53882812 8.75 8.81640625 C11.03158039 10.0166126 12.95688611 11.36925047 15 12.9375 C15.66 13.44152344 16.32 13.94554688 17 14.46484375 C17.66 14.97144531 18.32 15.47804688 19 16 C20.33222233 17.00147963 21.66523793 18.00190783 23 19 C25.31 17.02 27.62 15.04 30 13 C28 17 28 17 26.3125 18.4375 C25.6628125 19.2109375 25.6628125 19.2109375 25 20 C25.23043864 22.65466049 25.23043864 22.65466049 26 25 C24.68 24.34 23.36 23.68 22 23 C20.35 24.98 18.7 26.96 17 29 C18.98 31.31 20.96 33.62 23 36 C21.38405168 38.04119788 19.7143618 40.04072937 18 42 C17.34 42 16.68 42 16 42 C16 42.66 16 43.32 16 44 C16.66 44 17.32 44 18 44 C17.67 44.66 17.34 45.32 17 46 C15.68225804 46.39044206 14.34332728 46.70955086 13 47 C10.99617991 47.65509503 8.99541868 48.31974363 7 49 C5.29115995 47.37660195 3.62553283 45.70680947 2 44 C2 43.34 2 42.68 2 42 C1.4225 41.773125 0.845 41.54625 0.25 41.3125 C-2.5623279 39.67197539 -4.02970461 37.56221186 -6 35 C-4.68322266 33.78763672 -4.68322266 33.78763672 -3.33984375 32.55078125 C-2.20495508 31.47216805 -1.07088245 30.39269579 0.0625 29.3125 C0.64322266 28.78205078 1.22394531 28.25160156 1.82226562 27.70507812 C3.38371494 26.19906488 4.77038431 24.78801259 6 23 C6.01047482 19.31810092 5.31768016 18.34490989 2.8125 15.625 C1.884375 14.75875 0.95625 13.8925 0 13 C-2.04397684 10.70172557 -4.01713704 8.3517677 -6 6 C-4.02 4.02 -2.04 2.04 0 0 Z " fill="#A1A1A1" transform="translate(61,87)"/>
<path d="M0 0 C1.32486948 3.66796681 0.65430559 5.93911225 -0.53881836 9.59130859 C-0.89926743 10.71282318 -1.25971649 11.83433777 -1.63108826 12.98983765 C-2.02997757 14.1971756 -2.42886688 15.40451355 -2.83984375 16.6484375 C-3.45245412 18.55113414 -4.06505496 20.4538339 -4.67709446 22.35671425 C-5.75529158 25.69894791 -6.84718384 29.03670461 -7.9375 32.375 C-9.23449004 36.35015755 -10.52844166 40.32621336 -11.8094635 44.30654907 C-12.60796203 46.78449065 -13.41452065 49.25985255 -14.22996521 51.73226929 C-14.59356644 52.8600882 -14.95716766 53.9879071 -15.33178711 55.14990234 C-15.65457138 56.13711273 -15.97735565 57.12432312 -16.30992126 58.14144897 C-17.55829814 63.31266902 -17.25997068 67.1975623 -15 72 C-16.65 73.65 -18.3 75.3 -20 77 C-22.88437779 75.70700306 -24.87219421 74.34058637 -27 72 C-25.71480435 69.13302508 -24.42870746 67.02392288 -22 65 C-21.34 65 -20.68 65 -20 65 C-20 64.34 -20 63.68 -20 63 C-21.55705194 61.42159428 -21.55705194 61.42159428 -23.5 59.875 C-24.1496875 59.33617187 -24.799375 58.79734375 -25.46875 58.2421875 C-25.9740625 57.83226562 -26.479375 57.42234375 -27 57 C-25.8483054 53.54491619 -25.01153326 52.89296376 -22 51 C-19.75 50.3125 -19.75 50.3125 -18 50 C-18.66 50 -19.32 50 -20 50 C-20 49.34 -20 48.68 -20 48 C-19.34 48 -18.68 48 -18 48 C-17.71125 47.401875 -17.4225 46.80375 -17.125 46.1875 C-16 44 -16 44 -14 41 C-16.97 37.535 -16.97 37.535 -20 34 C-13.125 28 -13.125 28 -12 28 C-11.566875 27.1028125 -11.566875 27.1028125 -11.125 26.1875 C-10 24 -10 24 -8 21 C-9.98 22.65 -11.96 24.3 -14 26 C-15.98 23.69 -17.96 21.38 -20 19 C-15.71 14.71 -11.42 10.42 -7 6 C-6.01 6.33 -5.02 6.66 -4 7 C-4 6.01 -4 5.02 -4 4 C-2 1.8125 -2 1.8125 0 0 Z " fill="#020202" transform="translate(97,81)"/>
<path d="M0 0 C0.66 0.99 1.32 1.98 2 3 C0.35 4.65 -1.3 6.3 -3 8 C-1.43638038 11.83797544 1.02510083 14.1667627 4 17 C4.70125 17.763125 5.4025 18.52625 6.125 19.3125 C7.95122132 21.33448237 7.95122132 21.33448237 11 21 C11 21.66 11 22.32 11 23 C7.17670414 22.4833384 5.62665115 21.74085338 3 19 C0.89667109 18.28552357 0.89667109 18.28552357 -1 18 C-1 17.01 -1 16.02 -1 15 C-3.4390706 12.79857668 -3.4390706 12.79857668 -6 11 C-7.65 12.98 -9.3 14.96 -11 17 C-9.63875 18.0828125 -9.63875 18.0828125 -8.25 19.1875 C-5.42617791 21.53180513 -3.21947464 24.0671228 -1 27 C-0.34 27.66 0.32 28.32 1 29 C0.95503902 32.71891574 -0.04782517 34.05528619 -2.50390625 36.89453125 C-3.5133841 37.87761752 -4.53328299 38.85009858 -5.5625 39.8125 C-6.08263672 40.31458984 -6.60277344 40.81667969 -7.13867188 41.33398438 C-8.4168857 42.56529127 -9.70727147 43.7839407 -11 45 C-5.6984561 51.96169732 -5.6984561 51.96169732 1.1875 57.0625 C3.55935503 58.28932157 3.91336718 59.60940779 5 62 C6.88964785 64.13612366 8.58360724 65.38907149 11 67 C10.21625 67.7425 9.4325 68.485 8.625 69.25 C6.43495469 71.54433318 5.17268614 73.12158858 4 76 C5.3303125 77.051875 5.3303125 77.051875 6.6875 78.125 C8.94508832 79.99389976 10.84903512 81.90623412 12.6875 84.1875 C14.87671725 87.12754755 14.87671725 87.12754755 18 89 C19.05104383 90.63495707 20.05988318 92.29883624 21 94 C17.16488047 92.43754389 14.89634216 89.89634216 12 87 C9.91665365 85.7483533 9.91665365 85.7483533 8 85 C7.34 84.67 6.68 84.34 6 84 C6 83.01 6 82.02 6 81 C3.5609294 78.79857668 3.5609294 78.79857668 1 77 C-0.485 77.99 -0.485 77.99 -2 79 C-1.67 77.35 -1.34 75.7 -1 74 C-1.86625 73.34 -2.7325 72.68 -3.625 72 C-7.43886244 68.84902318 -10.17861552 65.03197853 -13 61 C-11.64062915 58.1394109 -10.35479531 56.14072301 -8 54 C-9.01454452 51.4636387 -9.6853556 50.20648539 -12 48.6875 C-12.66 48.460625 -13.32 48.23375 -14 48 C-14.99 48.495 -14.99 48.495 -16 49 C-15.79375 48.4225 -15.5875 47.845 -15.375 47.25 C-14.91338739 44.48032433 -15.57055055 43.35438733 -17 41 C-15.35 41.66 -13.7 42.32 -12 43 C-9.9375006 41.18777466 -9.9375006 41.18777466 -8 39 C-8 38.01 -8 37.02 -8 36 C-7.1028125 35.8453125 -7.1028125 35.8453125 -6.1875 35.6875 C-3.71756736 34.91123545 -2.67748765 33.92911079 -1 32 C-1.66 30.68 -2.32 29.36 -3 28 C-4.32 28 -5.64 28 -7 28 C-8.71690524 29.90767249 -9.85509764 31.71019527 -11 34 C-14 34 -14 34 -16 33 C-15.67 31.68 -15.34 30.36 -15 29 C-14.401875 28.896875 -13.80375 28.79375 -13.1875 28.6875 C-10.71756736 27.91123545 -9.67748765 26.92911079 -8 25 C-9.01409778 22.46475554 -9.61497266 21.22860998 -12 19.8125 C-12.66 19.544375 -13.32 19.27625 -14 19 C-14.66 18.67 -15.32 18.34 -16 18 C-13.33333333 15.33333333 -10.66666667 12.66666667 -8 10 C-8.66 8.35 -9.32 6.7 -10 5 C-7.525 5.99 -7.525 5.99 -5 7 C-2.47411298 4.63707344 -1.11179163 3.33537489 0 0 Z " fill="#9C9C9C" transform="translate(67,77)"/>
<path d="M0 0 C0 3 0 3 -2.25 5.4375 C-3.1575 6.283125 -4.065 7.12875 -5 8 C-5.763125 8.763125 -6.52625 9.52625 -7.3125 10.3125 C-7.869375 10.869375 -8.42625 11.42625 -9 12 C-7.95125002 14.62187494 -7.35068687 15.79371361 -4.875 17.25 C-4.25625 17.4975 -3.6375 17.745 -3 18 C-0.85432087 16.27144074 -0.85432087 16.27144074 1 14 C0.86358623 11.78141747 0.86358623 11.78141747 0 10 C2.475 10.495 2.475 10.495 5 11 C3.68775452 14.93673644 2.08089673 17.22719294 -1 20 C-0.34 21.32 0.32 22.64 1 24 C2.32 24 3.64 24 5 24 C6.34919532 22.34614767 7.68133728 20.678298 9 19 C11.75 17.6875 11.75 17.6875 14 17 C13.60167969 17.45890625 13.20335937 17.9178125 12.79296875 18.390625 C10.08857938 21.52271585 7.42008229 24.63877459 5 28 C6.32 29.65 7.64 31.3 9 33 C8.4225 32.67 7.845 32.34 7.25 32 C4.80116138 30.72924102 4.80116138 30.72924102 1 31 C-0.37868281 32.62935241 -1.71274093 34.29749607 -3 36 C-3.99 36.33 -4.98 36.66 -6 37 C-5.82374165 34.62051228 -5.30280227 33.29774151 -3.59765625 31.62109375 C-2.09350908 30.37884514 -0.54870149 29.18623944 1 28 C-0.65 26.35 -2.3 24.7 -4 23 C-5.65 24.98 -7.3 26.96 -9 29 C-8.67 29.66 -8.34 30.32 -8 31 C-8.721875 31.061875 -9.44375 31.12375 -10.1875 31.1875 C-13.84657625 32.24456647 -15.49211602 34.20550071 -18 37 C-18.7425 36.21625 -19.485 35.4325 -20.25 34.625 C-22.54433318 32.43495469 -24.12158858 31.17268614 -27 30 C-28.65 31.32 -30.3 32.64 -32 34 C-30.79618552 31.50638429 -29.54571278 29.31856917 -28 27 C-28.928125 26.2575 -29.85625 25.515 -30.8125 24.75 C-33.27126958 22.70974439 -35.21647549 20.67528677 -37 18 C-34 18 -34 18 -31.5625 20.375 C-30.716875 21.24125 -29.87125 22.1075 -29 23 C-26.83379456 24.29519995 -26.83379456 24.29519995 -25 25 C-22.22999175 21.67913229 -22.22999175 21.67913229 -20 18 C-19.0409375 17.566875 -19.0409375 17.566875 -18.0625 17.125 C-15.57998766 15.77090236 -15.03128603 14.57821507 -14 12 C-15.81222534 9.9375006 -15.81222534 9.9375006 -18 8 C-18.99 8 -19.98 8 -21 8 C-21.12375 7.401875 -21.2475 6.80375 -21.375 6.1875 C-21.95475985 3.73768652 -21.95475985 3.73768652 -24 1 C-20.54798361 2.47721422 -18.35038064 4.43794001 -15.75 7.125 C-15.04359375 7.84945312 -14.3371875 8.57390625 -13.609375 9.3203125 C-12.81273437 10.15175781 -12.81273437 10.15175781 -12 11 C-9.95880212 9.38405168 -7.95927063 7.7143618 -6 6 C-6 5.34 -6 4.68 -6 4 C-4.36368108 2.95107762 -2.69514137 1.95093297 -1 1 C-0.67 0.67 -0.34 0.34 0 0 Z " fill="#A0A0A0" transform="translate(124,139)"/>
<path d="M0 0 C3.66932093 1.644868 6.17666069 3.35332138 8 7 C8.99237043 7.90715303 10.01696329 8.77967244 11.0625 9.625 C12.031875 10.40875 13.00125 11.1925 14 12 C12.355132 15.66932093 10.64667862 18.17666069 7 20 C6.09284697 20.99237043 5.22032756 22.01696329 4.375 23.0625 C3.59125 24.031875 2.8075 25.00125 2 26 C-0.86697492 24.71480435 -2.97607712 23.42870746 -5 21 C-5 20.34 -5 19.68 -5 19 C-5.598125 18.731875 -6.19625 18.46375 -6.8125 18.1875 C-8.97224808 17.01506533 -10.35790256 15.80630718 -12 14 C-10.71480435 11.13302508 -9.42870746 9.02392288 -7 7 C-6.34 7 -5.68 7 -5 7 C-4.731875 6.401875 -4.46375 5.80375 -4.1875 5.1875 C-3.01506533 3.02775192 -1.80630718 1.64209744 0 0 Z " fill="#141414" transform="translate(75,73)"/>
<path d="M0 0 C3.66932093 1.644868 6.17666069 3.35332138 8 7 C8.99237043 7.90715303 10.01696329 8.77967244 11.0625 9.625 C12.031875 10.40875 13.00125 11.1925 14 12 C12.355132 15.66932093 10.64667862 18.17666069 7 20 C6.09284697 20.99237043 5.22032756 22.01696329 4.375 23.0625 C3.59125 24.031875 2.8075 25.00125 2 26 C-0.62187494 24.95125002 -1.79371361 24.35068687 -3.25 21.875 C-3.4975 21.25625 -3.745 20.6375 -4 20 C-1.65625 18.19335938 -1.65625 18.19335938 0.6875 16.38671875 C2.34370205 14.95508863 2.34370205 14.95508863 2 12 C-0.20740087 13.10370043 -1.08711295 14.16037654 -2.625 16.0625 C-3.40875 17.031875 -4.1925 18.00125 -5 19 C-7.88437779 17.70700306 -9.87219421 16.34058637 -12 14 C-10.71480435 11.13302508 -9.42870746 9.02392288 -7 7 C-6.34 7 -5.68 7 -5 7 C-4.731875 6.401875 -4.46375 5.80375 -4.1875 5.1875 C-3.01506533 3.02775192 -1.80630718 1.64209744 0 0 Z " fill="#141414" transform="translate(148,73)"/>
<path d="M0 0 C6.16377959 2.51116946 9.84940852 8.01929023 14 13 C9.71 17.29 5.42 21.58 1 26 C-1.31 24.02 -3.62 22.04 -6 20 C-0.125 13.125 -0.125 13.125 1 12 C0.34 11.67 -0.32 11.34 -1 11 C-1 10.34 -1 9.68 -1 9 C-1.66 9 -2.32 9 -3 9 C-3 8.34 -3 7.68 -3 7 C-3.66 7 -4.32 7 -5 7 C-3.70700306 4.11562221 -2.34058637 2.12780579 0 0 Z " fill="#010101" transform="translate(134,59)"/>
<path d="M0 0 C1.66647696 1.42840883 3.33246566 2.85733408 4.99609375 4.2890625 C6.27108643 5.37765274 7.55415091 6.4569109 8.84765625 7.5234375 C12.71046677 10.73254162 15.89559361 14.04893732 19 18 C19.598125 17.67 20.19625 17.34 20.8125 17 C23 16 23 16 26 16 C24.68 17.65 23.36 19.3 22 21 C25.96 24.96 29.92 28.92 34 33 C35.65 32.34 37.3 31.68 39 31 C38.34 32.65 37.68 34.3 37 36 C37.969375 36.7425 38.93875 37.485 39.9375 38.25 C42.02387361 39.97309915 42.90112479 40.73868694 43.875 43.3125 C43.91625 43.869375 43.9575 44.42625 44 45 C43.4225 45.061875 42.845 45.12375 42.25 45.1875 C39.0963115 46.32633196 38.03751849 48.36321136 36 51 C34.06265067 52.76079287 32.05075847 54.36871486 30 56 C31.56361962 59.83797544 34.02510083 62.1667627 37 65 C38.33333333 66.33333333 39.66666667 67.66666667 41 69 C43.475 68.01 43.475 68.01 46 67 C45.34 68.32 44.68 69.64 44 71 C39.06630102 70.60241254 36.45895241 68.12805231 33.125 64.75 C32.61453125 64.27175781 32.1040625 63.79351562 31.578125 63.30078125 C29.36722174 61.0958534 28.04568997 59.67897422 27.83203125 56.50390625 C29.43330889 53.0710669 31.83683391 50.73621898 34.5625 48.1875 C35.08263672 47.68541016 35.60277344 47.18332031 36.13867188 46.66601562 C37.4168857 45.43470873 38.70727147 44.2160593 40 43 C38.35 41.02 36.7 39.04 35 37 C34.29423828 37.61488281 34.29423828 37.61488281 33.57421875 38.2421875 C32.95160156 38.78101563 32.32898438 39.31984375 31.6875 39.875 C31.07261719 40.40867188 30.45773438 40.94234375 29.82421875 41.4921875 C28 43 28 43 25 45 C25 43.35 25 41.7 25 40 C25.8971875 39.8453125 25.8971875 39.8453125 26.8125 39.6875 C29.28243264 38.91123545 30.32251235 37.92911079 32 36 C30.38888555 32.28204357 28.6649294 30.8324647 25 29 C24.71125 28.360625 24.4225 27.72125 24.125 27.0625 C22.77090236 24.57998766 21.57821507 24.03128603 19 23 C18.29875 23.886875 17.5975 24.77375 16.875 25.6875 C14.20878959 28.90375955 11.27259219 31.41236896 8 34 C7.34 33.67 6.68 33.34 6 33 C9.96 29.04 13.92 25.08 18 21 C16.35 19.02 14.7 17.04 13 15 C12.34 15 11.68 15 11 15 C10.319375 13.7625 10.319375 13.7625 9.625 12.5 C9.08875 11.675 8.5525 10.85 8 10 C3.89539685 9.53459991 3.89539685 9.53459991 1.5 12.4375 C0.675 13.283125 -0.15 14.12875 -1 15 C-3.3125 15.8125 -3.3125 15.8125 -5 16 C-4.67 14.35 -4.34 12.7 -4 11 C-3.401875 10.896875 -2.80375 10.79375 -2.1875 10.6875 C0.28243264 9.91123545 1.32251235 8.92911079 3 7 C2.690625 6.401875 2.38125 5.80375 2.0625 5.1875 C1 3 1 3 0 0 Z " fill="#9E9E9E" transform="translate(129,51)"/>
<path d="M0 0 C2.86207152 1.28299758 5.0245088 2.530636 7 5 C7 5.99 7 6.98 7 8 C7.99 8 8.98 8 10 8 C11.9249647 9.82193842 13.37535531 11.89235283 15 14 C12.03 17.465 12.03 17.465 9 21 C9.825 21.928125 10.65 22.85625 11.5 23.8125 C14 26.625 14 26.625 14 30 C14.99 30 15.98 30 17 30 C18.9249647 31.82193842 20.37535531 33.89235283 22 36 C19.69 38.64 17.38 41.28 15 44 C13.34466166 41.51699249 12.4950878 39.86012193 11.57958984 37.11108398 C11.31947113 36.33695663 11.05935242 35.56282928 10.79135132 34.76524353 C10.38029648 33.51826439 10.38029648 33.51826439 9.9609375 32.24609375 C9.67521881 31.38943619 9.38950012 30.53277863 9.09512329 29.65016174 C8.49289598 27.84114128 7.89288159 26.03138283 7.29492188 24.22094727 C6.37678404 21.44289804 5.45065943 18.66760685 4.5234375 15.89257812 C3.93962813 14.13557477 3.35627898 12.37841841 2.7734375 10.62109375 C2.49535248 9.78775009 2.21726746 8.95440643 1.93075562 8.09580994 C0 2.23103346 0 2.23103346 0 0 Z " fill="#040404" transform="translate(126,80)"/>
<path d="M0 0 C4.66666667 4 9.33333333 8 14 12 C14.721875 11.0925 15.44375 10.185 16.1875 9.25 C19.33726052 5.46671824 22.91136085 2.72575944 27 0 C25.43638038 3.83797544 22.97489917 6.1667627 20 9 C19.236875 9.763125 18.47375 10.52625 17.6875 11.3125 C17.130625 11.869375 16.57375 12.42625 16 13 C17.04874998 15.62187494 17.64931313 16.79371361 20.125 18.25 C20.74375 18.4975 21.3625 18.745 22 19 C22.9075 18.319375 23.815 17.63875 24.75 16.9375 C28 15 28 15 30.375 15.25 C30.91125 15.4975 31.4475 15.745 32 16 C32 16.66 32 17.32 32 18 C32.66 18 33.32 18 34 18 C34 18.66 34 19.32 34 20 C34.99 20.33 35.98 20.66 37 21 C35.88121617 22.17262904 34.75476949 23.33795138 33.625 24.5 C32.99851563 25.1496875 32.37203125 25.799375 31.7265625 26.46875 C30 28 30 28 28 28 C27.67 28.66 27.34 29.32 27 30 C22.71 25.38 18.42 20.76 14 16 C11.69 17.98 9.38 19.96 7 22 C6.01 22 5.02 22 4 22 C4.33 21.01 4.66 20.02 5 19 C5.9590625 18.5359375 5.9590625 18.5359375 6.9375 18.0625 C9.45468915 16.7657662 9.96886948 15.5778263 11 13 C7.67913229 10.22999175 7.67913229 10.22999175 4 8 C3 6.1875 3 6.1875 2 4 C1.33626319 2.66520576 0.67001464 1.33165409 0 0 Z " fill="#5E5E5E" transform="translate(99,50)"/>
<path d="M0 0 C2.84383123 1.2748209 5.13754018 2.45137078 7 5 C6.71483972 8.0417096 5.73969465 9.39045802 4 12 C3.34 12 2.68 12 2 12 C2 12.66 2 13.32 2 14 C2.66 14 3.32 14 4 14 C3.67 14.66 3.34 15.32 3 16 C1.68225804 16.39044206 0.34332728 16.70955086 -1 17 C-3.00382009 17.65509503 -5.00458132 18.31974363 -7 19 C-8.65 17.35 -10.3 15.7 -12 14 C-10.71480435 11.13302508 -9.42870746 9.02392288 -7 7 C-6.34 7 -5.68 7 -5 7 C-4.731875 6.401875 -4.46375 5.80375 -4.1875 5.1875 C-3.01506533 3.02775192 -1.80630718 1.64209744 0 0 Z " fill="#2B2B2B" transform="translate(75,117)"/>
<path d="M0 0 C2.875 2.0625 2.875 2.0625 5 5 C5.1526226 9.3497442 4.71471806 11.2257221 1.75 14.4375 C-1.31174854 16.17712985 -2.56624271 16.77259539 -6 16 C-8.875 13.9375 -8.875 13.9375 -11 11 C-11.1526226 6.6502558 -10.71471806 4.7742779 -7.75 1.5625 C-4.68825146 -0.17712985 -3.43375729 -0.77259539 0 0 Z " fill="#ECECEC" transform="translate(162,166)"/>
<path d="M0 0 C4.93731454 1.46290801 4.93731454 1.46290801 6.375 4 C7.02588557 8.39347757 6.84938867 10.30998011 4.3125 14 C1.375 16 1.375 16 -2.25 16.0625 C-5.625 15 -5.625 15 -7.5625 13.3125 C-8.9863395 10.2135552 -9.17653827 8.37817188 -8.625 5 C-5.91953265 1.14675862 -4.77773264 0 0 0 Z " fill="#EDEDED" transform="translate(68.625,41)"/>
<path d="M0 0 C2.31 1.98 4.62 3.96 7 6 C2.88380164 10.91935902 -1.40410362 15.52647956 -6 20 C-8.31 18.35 -10.62 16.7 -13 15 C-11.38989473 10.92623969 -8.46177729 8.23492931 -5.375 5.25 C-4.859375 4.74339844 -4.34375 4.23679688 -3.8125 3.71484375 C-2.54616661 2.47196098 -1.2736856 1.23534724 0 0 Z " fill="#131313" transform="translate(112,153)"/>
<path d="M0 0 C4.92598985 4.12174661 9.50412022 8.41236757 14 13 C12.02 15.31 10.04 17.62 8 20 C3.07401015 15.87825339 -1.50412022 11.58763243 -6 7 C-4.02 4.69 -2.04 2.38 0 0 Z " fill="#111111" transform="translate(61,131)"/>
<path d="M0 0 C4.92598985 4.12174661 9.50412022 8.41236757 14 13 C12.02 15.31 10.04 17.62 8 20 C3.07401015 15.87825339 -1.50412022 11.58763243 -6 7 C-4.02 4.69 -2.04 2.38 0 0 Z " fill="#111111" transform="translate(156,109)"/>
<path d="M0 0 C2.31 1.98 4.62 3.96 7 6 C2.87825339 10.92598985 -1.41236757 15.50412022 -6 20 C-8.31 18.02 -10.62 16.04 -13 14 C-8.87825339 9.07401015 -4.58763243 4.49587978 0 0 Z " fill="#111111" transform="translate(68,109)"/>
<path d="M0 0 C2.31 1.98 4.62 3.96 7 6 C2.87825339 10.92598985 -1.41236757 15.50412022 -6 20 C-8.31 18.02 -10.62 16.04 -13 14 C-8.87825339 9.07401015 -4.58763243 4.49587978 0 0 Z " fill="#111111" transform="translate(163,87)"/>
<path d="M0 0 C4.92598985 4.12174661 9.50412022 8.41236757 14 13 C12.02 15.31 10.04 17.62 8 20 C3.07401015 15.87825339 -1.50412022 11.58763243 -6 7 C-4.02 4.69 -2.04 2.38 0 0 Z " fill="#121212" transform="translate(83,65)"/>
<path d="M0 0 C5.46875 4.4921875 5.46875 4.4921875 7 6 C7 6.66 7 7.32 7 8 C7.598125 8.2475 8.19625 8.495 8.8125 8.75 C11.28647521 10.16370012 12.43370255 11.65055383 14 14 C11.69 15.98 9.38 17.96 7 20 C6.154375 18.96875 5.30875 17.9375 4.4375 16.875 C1.2588673 13.15015833 -2.21714706 10.10193941 -6 7 C-4.02 4.69 -2.04 2.38 0 0 Z " fill="#0A0A0A" transform="translate(61,87)"/>
<path d="M0 0 C2.88437779 1.29299694 4.87219421 2.65941363 7 5 C5.355132 8.66932093 3.64667862 11.17666069 0 13 C-0.90715303 13.99237043 -1.77967244 15.01696329 -2.625 16.0625 C-3.40875 17.031875 -4.1925 18.00125 -5 19 C-8.36720387 17.60667426 -9.9859524 16.0210714 -12 13 C-9.6875 10.5 -9.6875 10.5 -7 8 C-6.01 8 -5.02 8 -4 8 C-4 6.68 -4 5.36 -4 4 C-2 1.75 -2 1.75 0 0 Z " fill="#070707" transform="translate(104,146)"/>
<path d="M0 0 C0.33 1.65 0.66 3.3 1 5 C0.2575 5.103125 -0.485 5.20625 -1.25 5.3125 C-4.05725499 5.82115195 -4.05725499 5.82115195 -6.125 7.625 C-6.74375 8.07875 -7.3625 8.5325 -8 9 C-8.99 8.67 -9.98 8.34 -11 8 C-11.12375 8.78375 -11.2475 9.5675 -11.375 10.375 C-12 13 -12 13 -14 15 C-17.23185376 14.82990243 -18.79125338 14.15930663 -21.375 12.1875 C-23 10 -23 10 -23.0625 8 C-21.5910522 5.2302159 -19.51990799 3.80916471 -17 2 C-16.34 2.33 -15.68 2.66 -15 3 C-8.78307214 3.54060242 -5.99304214 -0.49942018 0 0 Z " fill="#191919" transform="translate(100,150)"/>
<path d="M0 0 C4.6875 3.61328125 4.6875 3.61328125 6 5 C6 5.99 6 6.98 6 8 C6.99 8 7.98 8 9 8 C11.1875 10 11.1875 10 13 12 C11.60667426 15.36720387 10.0210714 16.9859524 7 19 C6.34 18.67 5.68 18.34 5 18 C5 17.34 5 16.68 5 16 C4.34 16 3.68 16 3 16 C3 15.34 3 14.68 3 14 C2.34 14 1.68 14 1 14 C-0.625 12.625 -0.625 12.625 -2 11 C-2 10.34 -2 9.68 -2 9 C-2.66 9 -3.32 9 -4 9 C-4.8125 7.3125 -4.8125 7.3125 -5 5 C-2.5625 2.25 -2.5625 2.25 0 0 Z " fill="#0D0D0D" transform="translate(149,117)"/>
<path d="M0 0 C1.98 1.65 3.96 3.3 6 5 C4.355132 8.66932093 2.64667862 11.17666069 -1 13 C-1.90715303 13.99237043 -2.77967244 15.01696329 -3.625 16.0625 C-4.40875 17.031875 -5.1925 18.00125 -6 19 C-8.62187494 17.95125002 -9.79371361 17.35068687 -11.25 14.875 C-11.4975 14.25625 -11.745 13.6375 -12 13 C-10.5459375 11.88625 -10.5459375 11.88625 -9.0625 10.75 C-6.39531779 8.54802399 -5.75910382 7.36174551 -5 4 C-2.4375 1.75 -2.4375 1.75 0 0 Z " fill="#070707" transform="translate(156,80)"/>
<path d="M0 0 C0.66 1.32 1.32 2.64 2 4 C2.66 4 3.32 4 4 4 C4 4.66 4 5.32 4 6 C4.99 6.33 5.98 6.66 7 7 C7 7.66 7 8.32 7 9 C7.66 9 8.32 9 9 9 C9 9.66 9 10.32 9 11 C9.66 11 10.32 11 11 11 C11.875 13.0625 11.875 13.0625 12 16 C10.26080867 18.59005725 8.19602066 20.79124879 6 23 C2.53510312 20.29941861 1.55355089 16.58499581 0.25 12.5625 C0.01667969 11.89412109 -0.21664062 11.22574219 -0.45703125 10.53710938 C-2.49502463 4.3804168 -2.49502463 4.3804168 -1 1 C-0.67 0.67 -0.34 0.34 0 0 Z " fill="#0E0E0E" transform="translate(143,122)"/>
<path d="M0 0 C0.99 0.33 1.98 0.66 3 1 C2.49396008 3.16874252 2.00016187 4.99967627 1 7 C2.32 7.33 3.64 7.66 5 8 C5.66 7.01 6.32 6.02 7 5 C8.32 5.33 9.64 5.66 11 6 C9.35821735 10.77609498 6.73453298 14.79382904 4 19 C2.68 18.34 1.36 17.68 0 17 C0.66 15.35 1.32 13.7 2 12 C0.16299211 11.22757731 0.16299211 11.22757731 -2 11 C-3.77190909 12.35444301 -3.77190909 12.35444301 -5 14 C-5.66 13.67 -6.32 13.34 -7 13 C-6.65986985 7.55791766 -3.29703472 4.06331802 0 0 Z " fill="#EEEEEE" transform="translate(153,38)"/>
<path d="M0 0 C1.703125 1.140625 1.703125 1.140625 3 3 C3.29296875 5.91796875 3.29296875 5.91796875 3.1875 9.1875 C3.16042969 10.27417969 3.13335937 11.36085937 3.10546875 12.48046875 C3.07066406 13.31191406 3.03585938 14.14335937 3 15 C1.68 15 0.36 15 -1 15 C-1.33 11.7 -1.66 8.4 -2 5 C-3.32 4.67 -4.64 4.34 -6 4 C-6 7.63 -6 11.26 -6 15 C-7.32 15 -8.64 15 -10 15 C-11.23746694 11.28759918 -11.54341681 7.85825935 -11 4 C-8.15614633 -0.55016587 -5.11496172 -0.65099513 0 0 Z " fill="#E8E8E8" transform="translate(119,183)"/>
<path d="M0 0 C0.99 0.33 1.98 0.66 3 1 C2.67 2.98 2.34 4.96 2 7 C3.32 7.66 4.64 8.32 6 9 C6.33 7.68 6.66 6.36 7 5 C8.32 5.33 9.64 5.66 11 6 C9.58832253 11.26170694 7.25149768 14.72171358 4 19 C3.01 18.67 2.02 18.34 1 18 C1.33 16.02 1.66 14.04 2 12 C1.01 11.67 0.02 11.34 -1 11 C-1.99 12.485 -1.99 12.485 -3 14 C-4.32 13.67 -5.64 13.34 -7 13 C-5.58832253 7.73829306 -3.25149768 4.27828642 0 0 Z " fill="#EFEFEF" transform="translate(70,170)"/>
<path d="M0 0 C1.65 0 3.3 0 5 0 C5 3.63 5 7.26 5 11 C6.32 10.67 7.64 10.34 9 10 C9.33 6.7 9.66 3.4 10 0 C11.32 0 12.64 0 14 0 C14.61919654 9.97594419 14.61919654 9.97594419 12.375 13.6875 C9.31029126 15.38115483 7.45181843 15.51410062 4 15 C1.96332385 13.45493534 1.13926922 12.27853844 0 10 C-0.06996014 8.29297265 -0.08440154 6.58331997 -0.0625 4.875 C-0.05347656 3.96492188 -0.04445313 3.05484375 -0.03515625 2.1171875 C-0.02355469 1.41851563 -0.01195313 0.71984375 0 0 Z " fill="#E8E8E8" transform="translate(105,27)"/>
<path d="M0 0 C4.21814817 3.9700218 7.61227103 8.30840284 11 13 C9.35 13.33 7.7 13.66 6 14 C6 13.34 6 12.68 6 12 C4.02 12.33 2.04 12.66 0 13 C-0.33 14.32 -0.66 15.64 -1 17 C-1.99 17 -2.98 17 -4 17 C-4.02692484 14.70839681 -4.04636124 12.41670454 -4.0625 10.125 C-4.07410156 8.84882812 -4.08570312 7.57265625 -4.09765625 6.2578125 C-4 3 -4 3 -3 1 C-2.01 0.67 -1.02 0.34 0 0 Z " fill="#E1E1E1" transform="translate(88,30)"/>
<path d="M0 0 C0.99 0 1.98 0 3 0 C3 4.95 3 9.9 3 15 C-2 16 -2 16 -3.94921875 14.7421875 C-9.77780988 8.48136377 -9.77780988 8.48136377 -11 4 C-7.7 4 -4.4 4 -1 4 C-0.67 2.68 -0.34 1.36 0 0 Z " fill="#E7E7E7" transform="translate(140,177)"/>
<path d="M0 0 C4.34393365 1.91644132 7.37652546 4.48683754 9.125 8.9375 C8.42375 9.06125 7.7225 9.185 7 9.3125 C3.94843613 9.97588345 1.07159062 10.90961955 -1.875 11.9375 C-3.525 10.2875 -5.175 8.6375 -6.875 6.9375 C-3.70965459 -0.12365515 -3.70965459 -0.12365515 0 0 Z " fill="#272727" transform="translate(91.875,58.0625)"/>
<path d="M0 0 C1.32 0 2.64 0 4 0 C4.103125 0.556875 4.20625 1.11375 4.3125 1.6875 C5.13133577 4.44176578 6.45853781 6.58727657 8 9 C6.35 10.98 4.7 12.96 3 15 C0.15616877 13.7251791 -2.13754018 12.54862922 -4 10 C-3.78020357 6.59315537 -2.02135288 4.63654724 0 2 C0 1.34 0 0.68 0 0 Z " fill="#242424" transform="translate(74,84)"/>
<path d="M0 0 C2.80913913 1.23932609 4.86796615 2.8685523 7.125 4.9375 C7.125 5.5975 7.125 6.2575 7.125 6.9375 C2.03614245 11.91070169 2.03614245 11.91070169 -1 12 C-3.3826718 10.64981931 -5.04645473 8.96196084 -6.875 6.9375 C-3.70965459 -0.12365515 -3.70965459 -0.12365515 0 0 Z " fill="#242424" transform="translate(164.875,102.0625)"/>
<path d="M0 0 C1.32 0 2.64 0 4 0 C3.125 7.625 3.125 7.625 2 11 C3.32 11.33 4.64 11.66 6 12 C6 12.99 6 13.98 6 15 C4.58297487 14.85769192 3.1663904 14.71099254 1.75 14.5625 C0.56664063 14.44068359 0.56664063 14.44068359 -0.640625 14.31640625 C-2.82364639 14.02365007 -4.8773182 13.57935581 -7 13 C-7 11.68 -7 10.36 -7 9 C-4.525 9.495 -4.525 9.495 -2 10 C-1.34 6.7 -0.68 3.4 0 0 Z " fill="#E9E9E9" transform="translate(92,181)"/>
<path d="M0 0 C0 0.66 0 1.32 0 2 C0.66 2 1.32 2 2 2 C2.66 3.65 3.32 5.3 4 7 C1.69 8.98 -0.62 10.96 -3 13 C-4.98 10.69 -6.96 8.38 -9 6 C-3.375 0 -3.375 0 0 0 Z " fill="#101010" transform="translate(137,72)"/>
<path d="M0 0 C8.57142857 2 8.57142857 2 12 4 C12 4.99 12 5.98 12 7 C10.35 6.67 8.7 6.34 7 6 C6.7834375 7.36125 6.7834375 7.36125 6.5625 8.75 C6.13590527 11.21476956 5.64925779 13.58847107 5 16 C3.68 16 2.36 16 1 16 C1.33 12.37 1.66 8.74 2 5 C1.34 4.67 0.68 4.34 0 4 C0 2.68 0 1.36 0 0 Z " fill="#ECECEC" transform="translate(130,29)"/>
<path d="M0 0 C2.88437779 1.29299694 4.87219421 2.65941363 7 5 C5.50902342 8.7952131 3.24299151 10.61042731 0 13 C-1.98 10.69 -3.96 8.38 -6 6 C-4.02 4.02 -2.04 2.04 0 0 Z " fill="#121212" transform="translate(83,94)"/>
<path d="M0 0 C1.875 2.25 1.875 2.25 3 5 C2.10237015 8.05194148 0.32535032 9.88604516 -2 12 C-4.88437779 10.70700306 -6.87219421 9.34058637 -9 7 C-6.79922603 2.09058114 -5.62803596 0 0 0 Z " fill="#000000" transform="translate(79,146)"/>
<path d="M0 0 C1.17825358 0.90172468 2.34231577 1.82201502 3.5 2.75 C4.1496875 3.26046875 4.799375 3.7709375 5.46875 4.296875 C7 6 7 6 7 10 C5 12.25 5 12.25 3 14 C2.401875 13.690625 1.80375 13.38125 1.1875 13.0625 C-1.08956772 11.89790296 -1.08956772 11.89790296 -4 11 C-3.21681311 7.08406554 -1.60820142 3.63593365 0 0 Z " fill="#020202" transform="translate(147,144)"/>
<path d="M0 0 C2.31 1.98 4.62 3.96 7 6 C5.02 8.31 3.04 10.62 1 13 C-1.31 11.02 -3.62 9.04 -6 7 C-4.02 4.69 -2.04 2.38 0 0 Z " fill="#020202" transform="translate(112,153)"/>
<path d="M0 0 C2.31 1.98 4.62 3.96 7 6 C5.02 8.31 3.04 10.62 1 13 C-1.31 11.02 -3.62 9.04 -6 7 C-4.02 4.69 -2.04 2.38 0 0 Z " fill="#000000" transform="translate(112,138)"/>
<path d="M0 0 C2.86207152 1.28299758 5.0245088 2.530636 7 5 C7 5.99 7 6.98 7 8 C4.5 10.1875 4.5 10.1875 2 12 C-0.88437779 10.70700306 -2.87219421 9.34058637 -5 7 C-3.70700306 4.11562221 -2.34058637 2.12780579 0 0 Z " fill="#080808" transform="translate(68,124)"/>
<path d="M0 0 C2.31 1.98 4.62 3.96 7 6 C5.02 8.31 3.04 10.62 1 13 C-1.31 11.02 -3.62 9.04 -6 7 C-4.02 4.69 -2.04 2.38 0 0 Z " fill="#020202" transform="translate(61,116)"/>
<path d="M0 0 C2.31 1.98 4.62 3.96 7 6 C5.02 8.31 3.04 10.62 1 13 C-1.31 11.02 -3.62 9.04 -6 7 C-4.02 4.69 -2.04 2.38 0 0 Z " fill="#010101" transform="translate(163,87)"/>
<path d="M0 0 C1.10865985 0.91122727 2.21172219 1.82926659 3.3125 2.75 C3.92738281 3.26046875 4.54226562 3.7709375 5.17578125 4.296875 C7 6 7 6 10 10 C3.73 10 -2.54 10 -9 10 C-3 3 -3 3 0 0 Z " fill="#030303" transform="translate(112,65)"/>
<path d="M0 0 C2.88437779 1.29299694 4.87219421 2.65941363 7 5 C5.70700306 7.88437779 4.34058637 9.87219421 2 12 C-0.88437779 10.70700306 -2.87219421 9.34058637 -5 7 C-3.70700306 4.11562221 -2.34058637 2.12780579 0 0 Z " fill="#010101" transform="translate(119,146)"/>
<path d="M0 0 C2.88437779 1.29299694 4.87219421 2.65941363 7 5 C5.70700306 7.88437779 4.34058637 9.87219421 2 12 C-0.88437779 10.70700306 -2.87219421 9.34058637 -5 7 C-3.70700306 4.11562221 -2.34058637 2.12780579 0 0 Z " fill="#000000" transform="translate(148,102)"/>
<path d="M0 0 C2.88437779 1.29299694 4.87219421 2.65941363 7 5 C5.70700306 7.88437779 4.34058637 9.87219421 2 12 C-0.88437779 10.70700306 -2.87219421 9.34058637 -5 7 C-3.70700306 4.11562221 -2.34058637 2.12780579 0 0 Z " fill="#000000" transform="translate(75,102)"/>
<path d="M0 0 C2.31 1.98 4.62 3.96 7 6 C5.02 8.31 3.04 10.62 1 13 C-1.31 11.02 -3.62 9.04 -6 7 C-5.34 6.67 -4.68 6.34 -4 6 C-4 5.34 -4 4.68 -4 4 C-2.70766393 2.62689293 -1.37562854 1.28965176 0 0 Z " fill="#000000" transform="translate(163,116)"/>
<path d="M0 0 C2.31 1.98 4.62 3.96 7 6 C5.02 8.31 3.04 10.62 1 13 C-1.31 11.02 -3.62 9.04 -6 7 C-4.02 4.69 -2.04 2.38 0 0 Z " fill="#000000" transform="translate(68,138)"/>
<path d="M0 0 C2.31 1.98 4.62 3.96 7 6 C5.02 8.31 3.04 10.62 1 13 C-1.31 11.02 -3.62 9.04 -6 7 C-4.02 4.69 -2.04 2.38 0 0 Z " fill="#000000" transform="translate(90,72)"/>
<path d="M0 0 C1.98 1.65 3.96 3.3 6 5 C4.70700306 7.88437779 3.34058637 9.87219421 1 12 C-2.36720387 10.60667426 -3.9859524 9.0210714 -6 6 C-2.25 1.125 -2.25 1.125 0 0 Z " fill="#000000" transform="translate(83,80)"/>
<path d="M0 0 C2.46800047 1.15173355 4.04783565 2.04783565 6 4 C5.67028521 7.29714793 5.3773161 8.6226839 3 11 C1.68 11 0.36 11 -1 11 C-1 10.34 -1 9.68 -1 9 C-1.66 9 -2.32 9 -3 9 C-3 8.34 -3 7.68 -3 7 C-3.66 7 -4.32 7 -5 7 C-3.70700306 4.11562221 -2.34058637 2.12780579 0 0 Z " fill="#111111" transform="translate(134,59)"/>
<path d="M0 0 C1.98 1.65 3.96 3.3 6 5 C4.60667426 8.36720387 3.0210714 9.9859524 0 12 C-0.66 11.67 -1.32 11.34 -2 11 C-2 10.34 -2 9.68 -2 9 C-2.66 9 -3.32 9 -4 9 C-4 8.34 -4 7.68 -4 7 C-4.66 7 -5.32 7 -6 7 C-6 6.34 -6 5.68 -6 5 C-4.04072937 3.2856382 -2.04119788 1.61594832 0 0 Z " fill="#010101" transform="translate(156,124)"/>
<path d="M0 0 C2.3125 0.1875 2.3125 0.1875 4 1 C4 1.66 4 2.32 4 3 C4.66 3 5.32 3 6 3 C6.33 3.99 6.66 4.98 7 6 C5.35 7.65 3.7 9.3 2 11 C-1.36720387 9.60667426 -2.9859524 8.0210714 -5 5 C-2.75 2.4375 -2.75 2.4375 0 0 Z " fill="#010101" transform="translate(97,154)"/>
<path d="M0 0 C2.3125 0.1875 2.3125 0.1875 4 1 C4 1.66 4 2.32 4 3 C4.66 3 5.32 3 6 3 C6.33 3.99 6.66 4.98 7 6 C5.35 7.65 3.7 9.3 2 11 C-1.36720387 9.60667426 -2.9859524 8.0210714 -5 5 C-2.75 2.4375 -2.75 2.4375 0 0 Z " fill="#030303" transform="translate(141,81)"/>
<path d="M0 0 C2.3125 0.1875 2.3125 0.1875 4 1 C4 1.66 4 2.32 4 3 C4.66 3 5.32 3 6 3 C6.33 3.99 6.66 4.98 7 6 C5.35 7.65 3.7 9.3 2 11 C-1.36720387 9.60667426 -2.9859524 8.0210714 -5 5 C-2.75 2.4375 -2.75 2.4375 0 0 Z " fill="#040404" transform="translate(68,81)"/>
<path d="M0 0 C1.98 1.65 3.96 3.3 6 5 C4.02 7.31 2.04 9.62 0 12 C-1.98 10.35 -3.96 8.7 -6 7 C-4.02 4.69 -2.04 2.38 0 0 Z " fill="#000000" transform="translate(142,95)"/>
<path d="M0 0 C1.98 1.65 3.96 3.3 6 5 C4.02 7.31 2.04 9.62 0 12 C-1.98 10.35 -3.96 8.7 -6 7 C-4.02 4.69 -2.04 2.38 0 0 Z " fill="#000000" transform="translate(69,95)"/>
<path d="M0 0 C2.62187494 1.04874998 3.79371361 1.64931313 5.25 4.125 C5.4975 4.74375 5.745 5.3625 6 6 C4.35 7.65 2.7 9.3 1 11 C-1.62187494 9.95125002 -2.79371361 9.35068687 -4.25 6.875 C-4.4975 6.25625 -4.745 5.6375 -5 5 C-3.35 3.35 -1.7 1.7 0 0 Z " fill="#000000" transform="translate(127,154)"/>
<path d="M0 0 C0.99 0.33 1.98 0.66 3 1 C3 1.66 3 2.32 3 3 C3.66 3 4.32 3 5 3 C5.33 3.99 5.66 4.98 6 6 C4.35 7.65 2.7 9.3 1 11 C-1.62187494 9.95125002 -2.79371361 9.35068687 -4.25 6.875 C-4.4975 6.25625 -4.745 5.6375 -5 5 C-3.35 3.35 -1.7 1.7 0 0 Z " fill="#010101" transform="translate(149,88)"/>
<path d="M0 0 C0.66 1.32 1.32 2.64 2 4 C2.66 4 3.32 4 4 4 C4 4.66 4 5.32 4 6 C4.99 6.33 5.98 6.66 7 7 C7 7.66 7 8.32 7 9 C6.34 9 5.68 9 5 9 C4.67 9.99 4.34 10.98 4 12 C2.125 11.875 2.125 11.875 0 11 C-1.38323426 8.03592658 -2.12925177 5.95646312 -1.6875 2.6875 C-1 1 -1 1 0 0 Z " fill="#323232" transform="translate(143,122)"/>
<path d="M0 0 C-1.37154504 2.95409701 -2.98863724 5.44008376 -5 8 C-4.67 8.66 -4.34 9.32 -4 10 C-4.721875 10.061875 -5.44375 10.12375 -6.1875 10.1875 C-9.84657625 11.24456647 -11.49211602 13.20550071 -14 16 C-16.64752004 13.42215154 -18.94432065 11.08351902 -21 8 C-18.50638429 9.20381448 -16.31856917 10.45428722 -14 12 C-13.15695313 11.13375 -12.31390625 10.2675 -11.4453125 9.375 C-10.33880643 8.24973959 -9.23202112 7.12475372 -8.125 6 C-7.29162109 5.14148438 -7.29162109 5.14148438 -6.44140625 4.265625 C-2.2265625 0 -2.2265625 0 0 0 Z " fill="#7E7E7E" transform="translate(120,160)"/>
<path d="M0 0 C1.66015381 1.42298898 3.31975301 2.84655259 4.9765625 4.2734375 C6.31528821 5.41574785 7.6642017 6.54623537 9.0234375 7.6640625 C9.65507812 8.18742187 10.28671875 8.71078125 10.9375 9.25 C11.52402344 9.72953125 12.11054688 10.2090625 12.71484375 10.703125 C14 12 14 12 14 14 C13.01 14.33 12.02 14.66 11 15 C10.5875 14.175 10.175 13.35 9.75 12.5 C9.1725 11.675 8.595 10.85 8 10 C3.89539685 9.53459991 3.89539685 9.53459991 1.5 12.4375 C0.675 13.283125 -0.15 14.12875 -1 15 C-3.3125 15.8125 -3.3125 15.8125 -5 16 C-4.67 14.35 -4.34 12.7 -4 11 C-3.401875 10.896875 -2.80375 10.79375 -2.1875 10.6875 C0.28243264 9.91123545 1.32251235 8.92911079 3 7 C2.690625 6.401875 2.38125 5.80375 2.0625 5.1875 C1 3 1 3 0 0 Z " fill="#A2A2A2" transform="translate(129,51)"/>
<path d="M0 0 C1.2065625 0.0309375 1.2065625 0.0309375 2.4375 0.0625 C2.7675 1.7125 3.0975 3.3625 3.4375 5.0625 C2.695 5.165625 1.9525 5.26875 1.1875 5.375 C-1.73264018 6.10503504 -3.29437554 7.13039398 -5.5625 9.0625 C-7.5425 8.0725 -9.5225 7.0825 -11.5625 6.0625 C-9.15277489 3.65277489 -6.60837368 2.55303393 -3.5625 1.0625 C-2.5625 0.0625 -2.5625 0.0625 0 0 Z " fill="#3D3D3D" transform="translate(97.5625,149.9375)"/>
<path d="M0 0 C0.66 0 1.32 0 2 0 C1.44854729 5.23880078 0.57077907 9.97350697 -1 15 C-1.99 14.67 -2.98 14.34 -4 14 C-4 12.68 -4 11.36 -4 10 C-4.66 10 -5.32 10 -6 10 C-6 9.34 -6 8.68 -6 8 C-5.34 8 -4.68 8 -4 8 C-3.71125 7.4225 -3.4225 6.845 -3.125 6.25 C-2.08333333 4.16666667 -1.04166667 2.08333333 0 0 Z " fill="#0D0D0D" transform="translate(83,121)"/>
<path d="M0 0 C2.625 0.375 2.625 0.375 5 1 C5.625 3.375 5.625 3.375 6 6 C5.34 6.66 4.68 7.32 4 8 C1.375 7.625 1.375 7.625 -1 7 C-1.625 4.625 -1.625 4.625 -2 2 C-1.34 1.34 -0.68 0.68 0 0 Z " fill="#202020" transform="translate(157,170)"/>
<path d="M0 0 C2.125 0.375 2.125 0.375 4 1 C4.625 3.375 4.625 3.375 5 6 C4.34 6.66 3.68 7.32 3 8 C0.875 7.625 0.875 7.625 -1 7 C-1.625 4.625 -1.625 4.625 -2 2 C-1.34 1.34 -0.68 0.68 0 0 Z " fill="#0D0D0D" transform="translate(66,45)"/>
<path d="M0 0 C0.66 0 1.32 0 2 0 C0.62845496 2.95409701 -0.98863724 5.44008376 -3 8 C-2.319375 8.556875 -1.63875 9.11375 -0.9375 9.6875 C1 12 1 12 0.875 14.6875 C0 17 0 17 -2 18 C-1.731875 17.29875 -1.46375 16.5975 -1.1875 15.875 C-0.96999265 12.53988725 -1.36830612 12.13449613 -3.4375 9.6875 C-4.283125 8.800625 -5.12875 7.91375 -6 7 C-5.04882866 5.8274869 -4.08882991 4.66212985 -3.125 3.5 C-2.59132812 2.8503125 -2.05765625 2.200625 -1.5078125 1.53125 C-0.76144531 0.77328125 -0.76144531 0.77328125 0 0 Z " fill="#939393" transform="translate(140,94)"/>
<path d="M0 0 C0.99 0.33 1.98 0.66 3 1 C1.73046875 2.49739583 0.4609375 3.99479167 -0.80859375 5.4921875 C-2.0878152 7.00594079 -2.0878152 7.00594079 -3 9 C-6 9 -6 9 -8 8 C-7.67 6.68 -7.34 5.36 -7 4 C-6.401875 3.896875 -5.80375 3.79375 -5.1875 3.6875 C-2.71756736 2.91123545 -1.67748765 1.92911079 0 0 Z " fill="#6E6E6E" transform="translate(59,102)"/>
<path d="M0 0 C1.32 0 2.64 0 4 0 C4.33 1.65 4.66 3.3 5 5 C4.443125 5.0825 3.88625 5.165 3.3125 5.25 C0.30285794 6.22610013 -1.62154752 7.95188814 -4 10 C-3.39561204 6.61542745 -2.06998635 4.6999822 0 2 C0 1.34 0 0.68 0 0 Z " fill="#6D6D6D" transform="translate(147,84)"/>
<path d="M0 0 C0.99 0.33 1.98 0.66 3 1 C-2.0940919 7.70459519 -2.0940919 7.70459519 -5.875 8.9375 C-6.57625 8.958125 -7.2775 8.97875 -8 9 C-7.67 7.35 -7.34 5.7 -7 4 C-6.401875 3.896875 -5.80375 3.79375 -5.1875 3.6875 C-2.71756736 2.91123545 -1.67748765 1.92911079 0 0 Z " fill="#737373" transform="translate(132,58)"/>
<path d="M0 0 C1.65 0.33 3.3 0.66 5 1 C3.5682479 6.01113235 1.01554307 7.94469549 -3 11 C-2.56495142 8.47671825 -2.29077075 7.26840377 -0.375 5.5 C0.07875 5.005 0.5325 4.51 1 4 C0.77242269 1.83700789 0.77242269 1.83700789 0 0 Z " fill="#686868" transform="translate(124,149)"/>
<path d="M0 0 C-1.39332574 3.36720387 -2.9789286 4.9859524 -6 7 C-5.37162381 3.35541809 -4.14650034 0 0 0 Z " fill="#4D4D4D" transform="translate(120,160)"/>
<path d="M0 0 C-1.39332574 3.36720387 -2.9789286 4.9859524 -6 7 C-5.37162381 3.35541809 -4.14650034 0 0 0 Z " fill="#4F4F4F" transform="translate(142,94)"/>
</svg>
