<?xml version="1.0" encoding="UTF-8"?>
<svg version="1.1" xmlns="http://www.w3.org/2000/svg" width="1200" height="342">
<path d="M0 0 C396 0 792 0 1200 0 C1200 112.86 1200 225.72 1200 342 C804 342 408 342 0 342 C0 229.14 0 116.28 0 0 Z " fill="#FEFEFE" transform="translate(0,0)"/>
<path d="M0 0 C7.66399231 6.87471549 14.68295477 14.13395614 20 23 C20.98226562 24.59134766 20.98226562 24.59134766 21.984375 26.21484375 C34.59880577 47.55343977 37.82665638 72.70481048 31.90551758 96.78881836 C24.94095689 121.8955221 8.92115324 144.30071719 -13.890625 157.29296875 C-29.11327155 165.46514608 -43.60656653 169 -61 169 C-61 153.16 -61 137.32 -61 121 C-56.38 120.01 -51.76 119.02 -47 118 C-33.75045466 113.11858856 -25.17505554 105.44353201 -18.39453125 93.0703125 C-13.56203804 82.43070561 -12.92726299 69.18282706 -16.5 58 C-22.23234009 45.00131331 -31.5044435 36.42327266 -43.97265625 30.1640625 C-54.39318985 26.15719926 -69.2938811 26.3011839 -79.515625 30.74609375 C-80.33546875 31.15988281 -81.1553125 31.57367188 -82 32 C-82.86109375 32.42410156 -83.7221875 32.84820312 -84.609375 33.28515625 C-96.25249593 39.61830839 -103.29236716 49.96475793 -107.06246948 62.54541016 C-108.26246233 67.49260071 -108.26605481 72.29496986 -108.22705078 77.36328125 C-108.22734283 78.36906723 -108.22763489 79.37485321 -108.22793579 80.41111755 C-108.22655049 83.71166834 -108.21102699 87.01198899 -108.1953125 90.3125 C-108.19157953 92.61035031 -108.1887339 94.90820221 -108.18673706 97.20605469 C-108.17912301 103.23614951 -108.15949366 109.26614706 -108.1373291 115.29620361 C-108.11321335 122.54083751 -108.10407909 129.78550403 -108.09242249 137.03016663 C-108.073068 148.02017861 -108.03472971 159.00997742 -108 170 C-92.82 170 -77.64 170 -62 170 C-58.11858795 185.52564819 -61 201.99652815 -61 218 C-92.68 218 -124.36 218 -157 218 C-157.1209091 180.23605694 -157.1209091 180.23605694 -157.14648438 164.34570312 C-157.16424795 153.39717365 -157.18506937 142.4487137 -157.22631836 131.50024414 C-157.25635249 123.52461871 -157.27560606 115.54904998 -157.28226548 107.57336956 C-157.28615416 103.35581724 -157.29520227 99.13842706 -157.31719017 94.92092705 C-157.33777758 90.93923723 -157.34378963 86.95777406 -157.33932304 82.97603607 C-157.34013842 81.52618484 -157.34597015 80.07632484 -157.35761642 78.62652016 C-157.4337442 68.64762852 -156.29013694 59.66909777 -154 50 C-153.78750201 49.0929 -153.57500402 48.1858 -153.3560667 47.25121212 C-147.86518807 25.14177728 -131.46943816 5.47871014 -113 -7 C-112.07703125 -7.62777344 -111.1540625 -8.25554687 -110.203125 -8.90234375 C-76.09261898 -30.43342282 -30.51571689 -25.21042379 0 0 Z " fill="#DDEBEE" transform="translate(301,73)"/>
<path d="M0 0 C26.10545463 1.53561498 47.12745435 8.61386017 66 27 C67.06347656 27.98806641 67.06347656 27.98806641 68.1484375 28.99609375 C84.83034667 44.87906091 94.91350707 67.90588546 95.60913086 90.83129883 C95.73888129 118.27251624 86.89565295 143.31223959 67.77734375 163.34375 C48.70406353 181.58542448 26.47478898 191 0 191 C0 175.16 0 159.32 0 143 C4.62 142.01 9.24 141.02 14 140 C27.24954534 135.11858856 35.82494446 127.44353201 42.60546875 115.0703125 C47.43796196 104.43070561 48.07273701 91.18282706 44.5 80 C38.28903512 65.91598106 27.96941624 56.83189222 14 51 C9.05 50.34 4.1 49.68 -1 49 C-0.67 32.83 -0.34 16.66 0 0 Z " fill="#00B9F0" transform="translate(240,51)"/>
<path d="M0 0 C0.80743149 0.00204437 1.61486298 0.00408875 2.44676208 0.00619507 C3.36752281 0.01013779 3.36752281 0.01013779 4.30688477 0.01416016 C4.33215367 6.8317791 4.34971721 13.64938605 4.36181641 20.46704102 C4.3668581 22.78833467 4.37369128 25.10962513 4.38232422 27.4309082 C4.39439701 30.7594481 4.40011455 34.08794618 4.40454102 37.41650391 C4.4097023 38.46128403 4.41486359 39.50606415 4.42018127 40.58250427 C4.42025681 41.54342484 4.42033234 42.5043454 4.42041016 43.49438477 C4.42263077 44.344879 4.42485138 45.19537323 4.42713928 46.07164001 C4.30688477 48.01416016 4.30688477 48.01416016 3.30688477 49.01416016 C1.41278499 49.23770622 -0.48355003 49.44235967 -2.38061523 49.63916016 C-14.62113652 51.45506167 -25.94711581 57.64506398 -33.58764648 67.44384766 C-39.9266111 76.65202784 -42.31802668 86.01345172 -43.69311523 97.01416016 C-59.53311523 97.01416016 -75.37311523 97.01416016 -91.69311523 97.01416016 C-91.69311523 88.03644521 -90.69161856 80.59651791 -88.69311523 72.01416016 C-88.49975586 71.14919922 -88.30639648 70.28423828 -88.10717773 69.39306641 C-82.34275083 47.1962797 -66.36707785 27.63105541 -47.69311523 15.01416016 C-46.77014648 14.38638672 -45.84717773 13.75861328 -44.89624023 13.11181641 C-31.74840372 4.8126986 -15.55452818 -0.05114011 0 0 Z " fill="#D5FE01" transform="translate(235.693115234375,50.98583984375)"/>
<path d="M0 0 C26.10545463 1.53561498 47.12745435 8.61386017 66 27 C67.06347656 27.98806641 67.06347656 27.98806641 68.1484375 28.99609375 C80.03412809 40.31254629 87.84230681 54.96310335 92.5 70.5625 C92.75531494 71.38790283 93.01062988 72.21330566 93.27368164 73.0637207 C95.43857986 80.85872304 95 86.2968203 95 95 C79.49 95 63.98 95 48 95 C48 96.65 48 98.3 48 100 C47.67 100 47.34 100 47 100 C46.97421875 99.11699219 46.9484375 98.23398438 46.921875 97.32421875 C46.20233969 82.09950567 41.44531467 70.79972536 30.25 60.1875 C20.49752317 52.30977114 11.77815597 50.70375413 -1 49 C-0.67 32.83 -0.34 16.66 0 0 Z " fill="#33E17B" transform="translate(240,51)"/>
<path d="M0 0 C6.37147037 3.49443046 11.2420195 8.64718186 13.875 15.4375 C15.47151251 20.99572872 16.23331701 25.97639321 16.1875 31.75 C16.18012817 32.85976196 16.18012817 32.85976196 16.17260742 33.99194336 C15.95758002 44.12028512 13.56106729 53.40491337 6.46484375 60.93359375 C-0.64628833 67.32413111 -7.95661057 68.16351702 -17.171875 67.84765625 C-25.21606449 67.01303185 -31.207249 63.27544152 -36.65625 57.40234375 C-43.94419908 47.65277357 -43.86590664 36.0795599 -43.125 24.4375 C-42.55316484 20.83538874 -41.64154364 17.74800381 -40.125 14.4375 C-39.64933594 13.38369141 -39.64933594 13.38369141 -39.1640625 12.30859375 C-31.89212873 -1.28115483 -13.88178598 -5.63947556 0 0 Z " fill="#FDFEFE" transform="translate(812.125,155.5625)"/>
<path d="M0 0 C6.32049049 4.36876439 9.2799413 9.91731162 10.91015625 17.3203125 C11.35846209 22.20413269 11.39946867 27.07974656 11.421875 31.98046875 C11.43875159 33.38009688 11.45690576 34.77971014 11.47627258 36.17930603 C11.52345607 39.83372342 11.55346869 43.48808046 11.57971191 47.1427002 C11.60967878 50.88366612 11.65615297 54.62442467 11.70117188 58.36523438 C11.78684396 65.68349012 11.85434796 73.00176155 11.91015625 80.3203125 C8.94015625 80.3203125 5.97015625 80.3203125 2.91015625 80.3203125 C2.58015625 76.6903125 2.25015625 73.0603125 1.91015625 69.3203125 C0.92015625 70.2278125 -0.06984375 71.1353125 -1.08984375 72.0703125 C-10.7187392 80.31809365 -21.67431476 82.33351846 -34.06201172 81.56738281 C-39.9614216 80.84860087 -44.36126223 78.00457141 -48.52734375 73.9453125 C-52.89786439 66.60283783 -54.35421396 60.65355427 -52.65625 52.1484375 C-50.70869838 45.90659503 -46.57695618 41.48124511 -41.06640625 38.06640625 C-27.25405547 30.89562644 -12.24748587 31.01097286 2.91015625 31.3203125 C2.82277912 28.75624578 2.71586506 26.19549034 2.59765625 23.6328125 C2.56381836 22.5509668 2.56381836 22.5509668 2.52929688 21.44726562 C2.30381173 16.95806144 1.714685 14.0076227 -1.08984375 10.3203125 C-7.8638936 4.22366764 -15.35583244 4.64811448 -24.01806641 5.10253906 C-28.73373103 5.59822288 -32.47931885 7.29469264 -36.08984375 10.3203125 C-37.7006432 12.32614134 -38.96647622 14.27060213 -40.15234375 16.55078125 C-41.08984375 18.3203125 -41.08984375 18.3203125 -43.08984375 20.3203125 C-45.39984375 19.6603125 -47.70984375 19.0003125 -50.08984375 18.3203125 C-47.15088667 9.01361507 -42.89085827 3.84997282 -34.23828125 -0.734375 C-24.82767366 -4.87504234 -9.09920743 -4.58972368 0 0 Z " fill="#535353" transform="translate(568.08984375,148.6796875)"/>
<path d="M0 0 C1.18517212 0.01353516 1.18517212 0.01353516 2.39428711 0.02734375 C12.18192514 0.31707957 18.95462521 3.32346679 26.08203125 10.09765625 C33.86151528 19.00761979 36.51705744 29.1942821 36.4375 40.75 C36.43331055 41.58378174 36.42912109 42.41756348 36.42480469 43.27661133 C36.21220574 54.91414202 32.93271825 65.97725725 25.03125 74.765625 C15.57239286 83.0615079 5.07893661 84.17645346 -6.95556641 83.60351562 C-17.31064135 82.70788462 -23.89778786 75.41471214 -30.875 68.4375 C-30.545 83.9475 -30.215 99.4575 -29.875 115.4375 C-32.845 115.4375 -35.815 115.4375 -38.875 115.4375 C-39.205 77.8175 -39.535 40.1975 -39.875 1.4375 C-36.905 1.4375 -33.935 1.4375 -30.875 1.4375 C-30.545 5.7275 -30.215 10.0175 -29.875 14.4375 C-28.555 12.7875 -27.235 11.1375 -25.875 9.4375 C-23.796875 7.7421875 -23.796875 7.7421875 -21.625 6.3125 C-20.91859375 5.83554688 -20.2121875 5.35859375 -19.484375 4.8671875 C-13.03582368 1.3339992 -7.34790315 -0.10075325 0 0 Z M-23.875 17.4375 C-31.46331554 27.70274318 -31.98618333 39.07807208 -30.875 51.4375 C-29.1780528 60.10514051 -24.85436249 66.76705081 -17.75 72.00390625 C-9.95661206 77.0323606 -1.94647401 77.46093682 7.125 76.4375 C15.53120242 74.049496 20.45514459 68.82369103 24.875 61.5625 C29.3532901 50.36677475 30.22553795 35.89063811 26.02734375 24.4375 C22.87864279 17.45856108 17.51263746 11.32149269 10.38671875 8.26171875 C-2.67038772 4.96225831 -14.9610042 6.79022723 -23.875 17.4375 Z " fill="#515151" transform="translate(799.875,146.5625)"/>
<path d="M0 0 C62.72881356 0 62.72881356 0 73.625 8.6875 C80.99835725 17.26337903 81.962073 26.38762822 81.50390625 37.35546875 C80.78227494 46.27367421 76.84538922 52.62518454 70.375 58.625 C58.82225447 68.23201997 43.45456411 66.24805496 29.3125 66.125 C22.609375 66.08375 15.90625 66.0425 9 66 C9.33 82.17 9.66 98.34 10 115 C6.7 115 3.4 115 0 115 C0 77.05 0 39.1 0 0 Z M9 7 C9 24.16 9 41.32 9 59 C18.7453125 59.12375 18.7453125 59.12375 28.6875 59.25 C30.70963623 59.28641602 32.73177246 59.32283203 34.81518555 59.36035156 C52.0993344 59.5730765 52.0993344 59.5730765 67.125 51.8125 C73.06488501 44.82613401 73.50550334 37.15187409 73.28515625 28.2421875 C72.71637705 21.77524592 70.04260132 16.26586811 65 12 C62.08540948 10.41389701 59.09494356 9.18568565 56 8 C55.34 7.67 54.68 7.34 54 7 C52.54962893 6.91050583 51.09521371 6.8824156 49.64208984 6.88647461 C48.7287085 6.88659546 47.81532715 6.88671631 46.87426758 6.88684082 C45.91286865 6.89195679 44.95146973 6.89707275 43.9609375 6.90234375 C42.63703003 6.90385437 42.63703003 6.90385437 41.28637695 6.90539551 C37.98257146 6.91063605 34.67878445 6.92459727 31.375 6.9375 C23.99125 6.958125 16.6075 6.97875 9 7 Z " fill="#4E4E4E" transform="translate(419,114)"/>
<path d="M0 0 C7.83544468 5.73640812 13.30525065 14.88861432 15.125 24.375 C16.39418807 37.61954689 16.22456279 51.44748746 8.375 62.75 C2.08833369 70.19969958 -4.94395392 76.60847081 -15.01708984 77.58203125 C-27.038665 78.2756313 -38.33959355 78.07135412 -48 70.0859375 C-56.72403793 62.12525289 -61.59783933 53.77464767 -62.3203125 41.84375 C-62.77760449 27.61533675 -61.8016803 15.71240153 -52.140625 4.56640625 C-37.75771963 -9.34533498 -16.80759437 -10.04460648 0 0 Z M-47 10.4375 C-54.60199589 20.00001062 -54.96269571 31.25714267 -54.15869141 42.99560547 C-53.15749033 51.39294255 -49.55108394 59.24339159 -43.1640625 64.88671875 C-42.61492188 65.27472656 -42.06578125 65.66273438 -41.5 66.0625 C-40.95601562 66.45824219 -40.41203125 66.85398437 -39.8515625 67.26171875 C-31.95653181 71.70852457 -21.51831084 71.71005436 -12.8203125 69.65234375 C-3.84273915 66.28234281 0.39919291 61.53434415 4.92578125 53.2890625 C9.22176542 42.84996091 8.59415808 27.48608128 4.515625 17.03125 C0.65717666 9.66118015 -4.91196714 4.04523857 -12.875 1.375 C-25.63600769 -1.68598726 -37.78181522 0.80553136 -47 10.4375 Z " fill="#515151" transform="translate(913.875,152.625)"/>
<path d="M0 0 C4.19769753 3.22666388 6.2633033 8.02772518 8.125 12.875 C8.125 13.535 8.125 14.195 8.125 14.875 C5.155 15.205 2.185 15.535 -0.875 15.875 C-1.24625 14.6375 -1.6175 13.4 -2 12.125 C-4.03782962 6.70992224 -7.4491223 5.00331521 -12.5625 2.625 C-20.26466108 0.88111447 -27.83790407 1.09315933 -34.875 4.875 C-38.48005103 7.35507878 -38.48005103 7.35507878 -40.875 10.875 C-40.94565617 12.91555005 -40.95921976 14.95834257 -40.9375 17 C-40.92396484 18.64355469 -40.92396484 18.64355469 -40.91015625 20.3203125 C-40.89855469 21.16335937 -40.88695312 22.00640625 -40.875 22.875 C-31.69767089 27.57195548 -22.25339107 30.20665291 -12.265625 32.5859375 C-3.2366278 34.82512881 3.63145786 37.11941109 9.125 44.875 C11.94042993 49.73532115 11.88167454 54.61775255 10.625 60.02734375 C8.52658843 66.2391189 5.18687457 70.99200023 -0.6875 74.125 C-10.92631229 79.10250363 -24.02637451 79.48720228 -35.05078125 77.22265625 C-43.30834302 74.2304138 -49.5397634 68.68793607 -53.28125 60.76953125 C-53.875 58.875 -53.875 58.875 -53.875 54.875 C-49.42 54.38 -49.42 54.38 -44.875 53.875 C-44.483125 55.091875 -44.09125 56.30875 -43.6875 57.5625 C-41.57747437 63.09154865 -38.73553415 65.87582425 -33.5 68.6875 C-25.17912518 71.45059885 -14.79473347 71.04972359 -6.67578125 67.79296875 C-3.31147286 66.07797423 -0.82509474 64.14179299 1.4375 61.125 C2.80128844 56.66169236 2.67333531 52.55917274 1.25 48.1875 C-5.07111651 41.30863792 -14.06442023 40.03819695 -22.82519531 38.31958008 C-32.22860758 36.46178286 -41.3710194 34.45981703 -47.875 26.875 C-51.14875594 21.78740631 -50.54077918 15.67282703 -49.875 9.875 C-47.42508771 3.00649589 -42.25942783 -0.95466447 -35.91796875 -4.09375 C-23.87679501 -8.91915543 -10.8432057 -6.55256086 0 0 Z " fill="#515151" transform="translate(651.875,152.125)"/>
<path d="M0 0 C4.030166 3.07060266 7.00643295 6.31090567 9 11 C9.125 13.75 9.125 13.75 9 16 C5.04 16.495 5.04 16.495 1 17 C0.62875 15.948125 0.2575 14.89625 -0.125 13.8125 C-2.29073236 8.78962777 -5.81097775 6.06905738 -10.6875 3.6875 C-18.58101841 2.04922259 -26.75090011 2.17933212 -34 6 C-37.12092322 8.61138474 -38.69062341 10.40453727 -39.47265625 14.4375 C-39.72608073 18.8041988 -39.74040794 21.00785336 -37.046875 24.6171875 C-33.11123952 27.69505627 -29.4001835 28.78166121 -24.625 30.0625 C-23.74102539 30.31580078 -22.85705078 30.56910156 -21.94628906 30.83007812 C-17.8607522 31.98978631 -13.76383826 33.07341427 -9.6328125 34.05859375 C-0.85464974 36.18690082 5.3540499 38.32862644 11 45.5625 C13.00130713 52.44199328 13.31515186 60.50651206 10 67 C7.20692195 71.16467888 4.50654622 73.10939054 0 75.25 C-1.03125 75.75015625 -2.0625 76.2503125 -3.125 76.765625 C-8.42580383 79.0415136 -13.05498522 79.18284721 -18.75 79.1875 C-19.91015625 79.20586914 -19.91015625 79.20586914 -21.09375 79.22460938 C-29.84594658 79.24663672 -37.92509413 77.39102606 -45 72 C-49.37475617 67.1218723 -51.72141011 62.54686241 -52 56 C-47.545 55.505 -47.545 55.505 -43 55 C-42.608125 56.4025 -42.21625 57.805 -41.8125 59.25 C-39.88249541 64.9771764 -37.18457615 66.91576319 -31.8203125 69.578125 C-27.96135997 71.19981347 -24.2765967 71.46152286 -20.125 71.375 C-19.07445435 71.3608606 -19.07445435 71.3608606 -18.00268555 71.34643555 C-10.78793158 71.1367189 -5.51749508 70.15036038 0 65.4375 C2.82002682 62.00059232 3.22043938 60.08058845 3.375 55.6875 C3.42398438 54.74261719 3.47296875 53.79773438 3.5234375 52.82421875 C2.77808807 48.80266919 1.20538387 47.48839011 -2 45 C-4.68219991 43.94932934 -7.11064275 43.14215238 -9.875 42.4375 C-10.98959595 42.13017944 -10.98959595 42.13017944 -12.12670898 41.81665039 C-15.79578365 40.81259332 -19.48159303 39.87562575 -23.16796875 38.9375 C-41.36283615 34.28994683 -41.36283615 34.28994683 -47 26 C-49.49928611 20.88782387 -49.16385405 16.42805879 -48 11 C-45.7388161 4.59331228 -41.49383054 0.83468573 -35.58984375 -2.265625 C-23.59574065 -7.28230435 -11.33944059 -6.19641562 0 0 Z " fill="#515151" transform="translate(729,151)"/>
<path d="M0 0 C1.09505859 0.01353516 2.19011719 0.02707031 3.31835938 0.04101562 C5.98361414 0.07593163 8.64777504 0.12496283 11.3125 0.1875 C11.39414159 2.8756249 11.45329668 5.561223 11.5 8.25 C11.52513672 9.00216797 11.55027344 9.75433594 11.57617188 10.52929688 C11.65431489 16.54630905 10.73799929 21.18940274 6.83984375 26.0078125 C-3.15323498 34.20852085 -12.82357794 37.28563969 -25.6875 36.1875 C-29.8898621 34.98475498 -32.69449349 32.60385449 -35.125 29 C-37.20290129 24.77192259 -37.58433755 20.79867361 -36.6875 16.1875 C-34.16393718 9.70996779 -29.86092618 6.07569334 -23.6875 3.1875 C-15.75717342 0.31996397 -8.3718743 -0.19994066 0 0 Z " fill="#FCFDFC" transform="translate(559.6875,186.8125)"/>
<path d="M0 0 C3.3 0 6.6 0 10 0 C9.67 7.59 9.34 15.18 9 23 C16.92 22.67 24.84 22.34 33 22 C33 24.97 33 27.94 33 31 C25.08 30.67 17.16 30.34 9 30 C9.08553101 38.01488147 9.179296 46.02953721 9.28752708 54.04413986 C9.33745556 57.76571684 9.38378574 61.48726591 9.421875 65.20898438 C9.45877163 68.80120413 9.50514317 72.39318843 9.55806351 75.9852066 C9.57658426 77.35507321 9.59170081 78.72499024 9.60334396 80.09493256 C9.62024532 82.01488656 9.65041426 83.93470986 9.68115234 85.85449219 C9.69447601 86.94703308 9.70779968 88.03957397 9.7215271 89.16522217 C9.99831109 91.98280736 10.45253048 93.64967196 12 96 C15.92448803 97.96224402 20.39986888 97.42538262 24.52734375 96.328125 C26.70605632 95.59844559 28.85873768 94.83271312 31 94 C34 98.625 34 98.625 34 102 C25.68381803 105.38285368 17.1275098 106.70916993 8.4375 103.8125 C4.43435633 100.83580342 1.88986136 97.94016572 1 93 C0.91302944 90.92237361 0.88231573 88.84213707 0.88647461 86.76269531 C0.88655014 85.50169006 0.88662567 84.24068481 0.88670349 82.94146729 C0.89180972 81.57035279 0.8970257 80.19923869 0.90234375 78.828125 C0.90420972 77.42136689 0.90563278 76.01460812 0.90663147 74.60784912 C0.91044256 70.91219273 0.9202608 67.21657587 0.93133545 63.52093506 C0.94157986 59.74703506 0.94613558 55.97312865 0.95117188 52.19921875 C0.96188437 44.79945909 0.97946973 37.39974013 1 30 C-5.6 30 -12.2 30 -19 30 C-19 27.69 -19 25.38 -19 23 C-12.4 23 -5.8 23 1 23 C0.505 11.615 0.505 11.615 0 0 Z " fill="#515151" transform="translate(1020,125)"/>
<path d="M0 0 C-0.66 2.64 -1.32 5.28 -2 8 C-2.804375 7.835 -3.60875 7.67 -4.4375 7.5 C-12.68143386 6.34295665 -19.77108976 6.59532555 -27.1875 10.8125 C-32.73429171 15.12667133 -35.89591112 20.35120889 -38 27 C-38.51407522 31.24165808 -38.46826704 35.42391556 -38.390625 39.69140625 C-38.38496521 40.87725815 -38.37930542 42.06311005 -38.37347412 43.28489685 C-38.35121801 47.0445216 -38.3010393 50.80316694 -38.25 54.5625 C-38.2299212 57.12303304 -38.21167286 59.68358113 -38.1953125 62.24414062 C-38.15138811 68.4964668 -38.08243331 74.74806777 -38 81 C-41.3 81 -44.6 81 -48 81 C-47.67 54.27 -47.34 27.54 -47 0 C-44.36 0 -41.72 0 -39 0 C-38.67 3.96 -38.34 7.92 -38 12 C-37.05125 10.783125 -36.1025 9.56625 -35.125 8.3125 C-25.81582783 -2.08643638 -13.12814065 -3.28203516 0 0 Z " fill="#525252" transform="translate(996,148)"/>
<path d="M0 0 C0 2.97 0 5.94 0 9 C-2.31 8.67 -4.62 8.34 -7 8 C-7 7.67 -7 7.34 -7 7 C-5.35 7 -3.7 7 -2 7 C-2 5.35 -2 3.7 -2 2 C-4.31 2 -6.62 2 -9 2 C-9 1.67 -9 1.34 -9 1 C-5.846632 0.29925156 -3.27275026 0 0 0 Z " fill="#5F6060" transform="translate(1053,147)"/>
<path d="M0 0 C0.33 0.99 0.66 1.98 1 3 C3.64 3 6.28 3 9 3 C9 3.66 9 4.32 9 5 C5.7 5 2.4 5 -1 5 C-0.67 3.35 -0.34 1.7 0 0 Z " fill="#616262" transform="translate(949,224)"/>
</svg>
