<svg version="1.1" id="Layer_1" xmlns="http://www.w3.org/2000/svg" xmlns:xlink="http://www.w3.org/1999/xlink" x="0px" y="0px"
	 width="100%" viewBox="0 0 221 228" enable-background="new 0 0 221 228" xml:space="preserve">
<path fill="#FEFEFE" opacity="1.000000" stroke="none" 
	d="
M127.000000,229.000000 
	C85.064323,229.000000 43.128651,229.000000 1.000000,229.000000 
	C1.000000,175.979263 1.000000,122.958290 1.374339,69.618050 
	C4.503882,82.087044 6.820174,94.989891 10.121574,107.635559 
	C14.593531,124.764893 19.811859,141.722595 29.815157,156.652893 
	C39.681061,171.378098 49.155552,173.874222 64.610985,166.130997 
	C74.582314,174.277802 85.173668,175.725418 102.824295,171.304047 
	C103.208054,177.937820 103.288643,184.582199 104.032631,191.151459 
	C105.854355,207.236969 108.533455,222.952423 127.000000,229.000000 
z"/>
<path fill="#070707" opacity="1.000000" stroke="none" 
	d="
M127.458069,229.000000 
	C108.533455,222.952423 105.854355,207.236969 104.032631,191.151459 
	C103.288643,184.582199 103.208054,177.937820 102.824295,171.304047 
	C85.173668,175.725418 74.582314,174.277802 64.610985,166.130997 
	C49.155552,173.874222 39.681061,171.378098 29.815157,156.652893 
	C19.811859,141.722595 14.593531,124.764893 10.121574,107.635559 
	C6.820174,94.989891 4.503882,82.087044 1.374339,69.149391 
	C1.000000,67.285645 1.000000,65.571281 1.350017,63.229347 
	C1.466689,60.067844 1.233344,57.533924 1.000000,55.000000 
	C1.000000,53.285641 1.000000,51.571285 1.366112,49.283653 
	C2.147969,46.422855 2.541202,44.130974 2.982973,41.848484 
	C6.997853,21.104940 22.233732,7.311496 43.126110,4.765190 
	C57.512188,3.011854 71.238144,5.612437 84.936462,9.412383 
	C86.670593,9.893435 89.004318,10.022353 90.506271,9.244603 
	C102.450806,3.059446 115.215462,2.761271 128.026154,4.277803 
	C135.515991,5.164454 142.134842,2.849027 149.000000,1.000000 
	C155.687637,1.000000 162.375290,1.000000 169.690186,1.373788 
	C183.905121,3.110230 195.951065,8.158896 206.422592,16.919750 
	C214.600235,23.761457 220.829681,31.843391 220.883408,43.040859 
	C220.915161,49.661922 220.574799,56.373592 219.497574,62.895161 
	C215.648941,86.194885 206.939697,107.781258 195.490677,128.330826 
	C194.900299,129.390457 194.434296,130.519379 193.589630,132.287415 
	C197.944305,131.638000 201.565155,131.232361 205.130234,130.539642 
	C213.702774,128.873917 217.937927,130.691254 222.000000,138.000000 
	C222.000000,140.041672 222.000000,142.083328 221.649170,144.603256 
	C218.823746,148.134506 216.758652,151.676590 213.801147,154.152832 
	C203.028961,163.172104 189.994446,165.039612 176.597000,164.921661 
	C175.395309,174.914688 174.685135,184.860641 172.912079,194.613358 
	C170.282150,209.079514 163.489899,220.773514 148.605469,225.893951 
	C145.125916,227.090942 141.538040,227.973022 138.000000,229.000000 
	C134.638718,229.000000 131.277420,229.000000 127.458069,229.000000 
M85.506302,139.011429 
	C88.016968,139.668304 90.527641,140.325165 92.966301,140.963196 
	C89.812035,148.589783 82.785622,148.963364 76.429886,150.654800 
	C72.624733,151.667480 68.076118,152.469955 67.890961,157.548264 
	C67.699341,162.804291 72.425308,163.904770 76.131065,165.646408 
	C76.571991,165.853638 77.095093,165.887299 77.581039,165.997269 
	C88.385246,168.442276 98.603775,167.684189 108.393143,160.340378 
	C109.048874,172.064926 108.636658,183.663620 109.166084,195.219162 
	C109.684097,206.525650 113.350952,216.787659 124.798485,221.504440 
	C141.017822,228.187393 161.965652,216.873306 165.801895,199.748428 
	C166.780533,195.379730 167.341461,190.909576 167.940186,186.465271 
	C169.224243,176.933929 170.407806,167.389069 171.654465,157.678833 
	C173.219238,157.791473 174.519669,157.888992 175.820648,157.978134 
	C188.480240,158.845444 200.389954,156.831070 210.464508,148.459641 
	C213.316193,146.090057 217.062943,143.530319 215.116531,139.041656 
	C213.076202,134.336365 208.714600,136.121689 205.025970,136.462021 
	C204.702499,136.491898 204.398163,136.714478 204.073822,136.752335 
	C197.254272,137.548264 190.391479,139.482941 183.317307,136.149490 
	C184.086212,134.772171 184.665344,133.635284 185.333191,132.553116 
	C198.062439,111.926926 207.505951,89.942947 212.368225,66.138718 
	C213.561905,60.294785 214.145325,54.303162 214.666550,48.349430 
	C215.997650,33.144909 207.184616,23.745583 195.480606,16.495262 
	C176.830185,4.941810 156.771194,5.146979 136.231628,10.163688 
	C133.764114,10.766368 131.000580,10.883083 128.494446,10.479218 
	C115.879936,8.446404 103.696472,8.973554 92.083763,15.062629 
	C90.338615,15.977690 87.699203,16.311937 85.851425,15.724990 
	C73.393265,11.767662 60.759960,9.426919 47.626331,10.040206 
	C29.695265,10.877512 15.521909,20.348080 10.799291,36.913181 
	C8.256789,45.831284 7.119817,55.675507 7.863497,64.899101 
	C9.575465,86.131989 15.073229,106.770592 22.528736,126.684120 
	C26.380716,136.972702 31.428356,147.076889 37.540199,156.188110 
	C44.835155,167.063080 55.068043,166.773941 63.654854,156.934174 
	C68.579239,151.291260 73.638466,145.759811 78.390671,139.975800 
	C80.385651,137.547684 82.248970,137.294739 85.506302,139.011429 
z"/>
<path fill="#FEFEFE" opacity="1.000000" stroke="none" 
	d="
M138.468658,229.000000 
	C141.538040,227.973022 145.125916,227.090942 148.605469,225.893951 
	C163.489899,220.773514 170.282150,209.079514 172.912079,194.613358 
	C174.685135,184.860641 175.395309,174.914688 176.597000,164.921661 
	C189.994446,165.039612 203.028961,163.172104 213.801147,154.152832 
	C216.758652,151.676590 218.823746,148.134506 221.649170,145.040756 
	C222.000000,172.926895 222.000000,200.853790 222.000000,229.000000 
	C194.312820,229.000000 166.625076,229.000000 138.468658,229.000000 
z"/>
<path fill="#FCFCFC" opacity="1.000000" stroke="none" 
	d="
M222.000000,137.531342 
	C217.937927,130.691254 213.702774,128.873917 205.130234,130.539642 
	C201.565155,131.232361 197.944305,131.638000 193.589630,132.287415 
	C194.434296,130.519379 194.900299,129.390457 195.490677,128.330826 
	C206.939697,107.781258 215.648941,86.194885 219.497574,62.895161 
	C220.574799,56.373592 220.915161,49.661922 220.883408,43.040859 
	C220.829681,31.843391 214.600235,23.761457 206.422592,16.919750 
	C195.951065,8.158896 183.905121,3.110230 170.158722,1.373788 
	C187.293121,1.000000 204.586243,1.000000 222.000000,1.000000 
	C222.000000,46.354160 222.000000,91.708420 222.000000,137.531342 
z"/>
<path fill="#F9F9F9" opacity="1.000000" stroke="none" 
	d="
M148.531342,1.000000 
	C142.134842,2.849027 135.515991,5.164454 128.026154,4.277803 
	C115.215462,2.761271 102.450806,3.059446 90.506271,9.244603 
	C89.004318,10.022353 86.670593,9.893435 84.936462,9.412383 
	C71.238144,5.612437 57.512188,3.011854 43.126110,4.765190 
	C22.233732,7.311496 6.997853,21.104940 2.982973,41.848484 
	C2.541202,44.130974 2.147969,46.422855 1.366112,48.855190 
	C1.000000,33.035789 1.000000,17.071577 1.000000,1.000000 
	C50.020844,1.000000 99.041763,1.000000 148.531342,1.000000 
z"/>
<path fill="#727272" opacity="1.000000" stroke="none" 
	d="
M1.000000,55.444164 
	C1.233344,57.533924 1.466689,60.067844 1.350017,62.800884 
	C1.000000,60.629444 1.000000,58.258884 1.000000,55.444164 
z"/>
<path fill="#F8F9FA" opacity="1.000000" stroke="none" 
	d="
M85.101486,138.932098 
	C82.248970,137.294739 80.385651,137.547684 78.390671,139.975800 
	C73.638466,145.759811 68.579239,151.291260 63.654854,156.934174 
	C55.068043,166.773941 44.835155,167.063080 37.540199,156.188110 
	C31.428356,147.076889 26.380716,136.972702 22.528736,126.684120 
	C15.073229,106.770592 9.575465,86.131989 7.863497,64.899101 
	C7.119817,55.675507 8.256789,45.831284 10.799291,36.913181 
	C15.521909,20.348080 29.695265,10.877512 47.626331,10.040206 
	C60.759960,9.426919 73.393265,11.767662 85.851425,15.724990 
	C87.699203,16.311937 90.338615,15.977690 92.083763,15.062629 
	C103.696472,8.973554 115.879936,8.446404 128.494446,10.479218 
	C131.000580,10.883083 133.764114,10.766368 136.231628,10.163688 
	C156.771194,5.146979 176.830185,4.941810 195.480606,16.495262 
	C207.184616,23.745583 215.997650,33.144909 214.666550,48.349430 
	C214.145325,54.303162 213.561905,60.294785 212.368225,66.138718 
	C207.505951,89.942947 198.062439,111.926926 185.333191,132.553116 
	C184.665344,133.635284 184.086212,134.772171 183.317307,136.149490 
	C190.391479,139.482941 197.254272,137.548264 204.073822,136.752335 
	C204.398163,136.714478 204.702499,136.491898 205.025970,136.462021 
	C208.714600,136.121689 213.076202,134.336365 215.116531,139.041656 
	C217.062943,143.530319 213.316193,146.090057 210.464508,148.459641 
	C200.389954,156.831070 188.480240,158.845444 175.820648,157.978134 
	C174.519669,157.888992 173.219238,157.791473 171.654465,157.678833 
	C170.407806,167.389069 169.224243,176.933929 167.940186,186.465271 
	C167.341461,190.909576 166.780533,195.379730 165.801895,199.748428 
	C161.965652,216.873306 141.017822,228.187393 124.798485,221.504440 
	C113.350952,216.787659 109.684097,206.525650 109.166084,195.219162 
	C108.636658,183.663620 109.048874,172.064926 108.393143,160.340378 
	C98.603775,167.684189 88.385246,168.442276 77.581039,165.997269 
	C77.095093,165.887299 76.571991,165.853638 76.131065,165.646408 
	C72.425308,163.904770 67.699341,162.804291 67.890961,157.548264 
	C68.076118,152.469955 72.624733,151.667480 76.429886,150.654800 
	C82.785622,148.963364 89.812035,148.589783 92.966301,140.963196 
	C90.527641,140.325165 88.016968,139.668304 85.101486,138.932098 
M95.243896,68.027168 
	C93.911171,68.473915 92.578453,68.920654 90.965012,69.282310 
	C90.780525,69.217880 90.590950,69.177116 89.732094,68.949127 
	C84.939835,70.164108 80.112991,71.260170 75.368713,72.640114 
	C72.663269,73.427025 71.898521,75.402328 71.889526,78.360252 
	C71.862236,87.332016 71.480141,96.308784 71.009018,105.271660 
	C70.340279,117.994347 76.025391,128.232468 86.334518,132.418457 
	C93.164459,135.191727 93.785828,134.914856 96.208969,128.217239 
	C96.999054,126.033432 97.707619,123.791641 98.767769,121.738678 
	C105.471581,108.756844 106.592667,95.125732 103.718452,80.272827 
	C103.226738,78.974754 102.735016,77.676682 102.634033,76.259254 
	C102.634033,76.259254 102.628235,75.850723 102.496750,75.117294 
	C100.331955,72.835052 98.167152,70.552818 95.243896,68.027168 
M157.726013,71.238808 
	C154.012482,77.771339 155.996353,84.366241 158.502930,90.388428 
	C162.962677,101.103149 168.299850,111.452652 173.270020,121.954918 
	C173.859024,121.951302 174.448029,121.947685 175.037018,121.944069 
	C175.654633,117.311157 177.191757,112.581139 176.714722,108.063828 
	C175.369034,95.320969 174.325623,82.664970 177.012863,69.173897 
	C176.009521,68.452599 175.006165,67.731308 173.218658,66.802925 
	C172.147598,66.845535 171.076538,66.888145 169.157104,66.788124 
	C165.527618,68.118088 161.898148,69.448059 157.726013,71.238808 
M114.032791,144.656479 
	C114.265999,145.001999 114.499214,145.347534 114.620155,146.439255 
	C114.711975,147.946915 114.803787,149.454559 114.616982,151.727264 
	C114.710480,160.164978 114.803978,168.602692 114.757286,177.859634 
	C114.833290,179.238815 114.909302,180.618011 114.855072,182.863892 
	C114.944160,184.902039 115.033249,186.940186 115.053917,189.819717 
	C115.408554,193.128616 115.483856,196.497177 116.175087,199.734207 
	C117.685471,206.807373 120.463081,213.357010 128.011276,215.774109 
	C141.958908,220.240448 157.672226,210.600891 159.840698,196.104614 
	C162.102402,180.985016 164.129486,165.809052 165.522537,150.590302 
	C166.158569,143.641846 167.437775,137.852249 173.964935,135.390259 
	C168.091003,124.428001 161.910843,113.996910 156.846237,103.049713 
	C153.541275,95.905998 151.150391,88.152351 149.622879,80.420456 
	C147.689072,70.631859 153.313965,63.086292 163.087860,60.989849 
	C167.043350,60.141415 171.153412,60.013588 175.257919,59.550533 
	C175.316437,58.805878 175.521927,58.273346 175.364822,57.889034 
	C169.794861,44.262894 160.952286,33.319878 148.623413,25.201302 
	C136.704803,17.352898 123.353378,15.309135 109.579369,16.379253 
	C99.990173,17.124250 91.654678,21.439421 85.448967,29.116758 
	C76.649864,40.002472 73.446091,52.879658 72.066269,66.220764 
	C77.486519,64.570885 82.629593,62.606724 87.949646,61.473015 
	C97.578598,59.421085 106.244339,64.008308 108.565529,72.768173 
	C112.823006,88.835312 113.829926,104.874374 106.311516,120.512711 
	C104.127121,125.056267 102.610130,129.920685 100.594803,135.135895 
	C107.568428,135.248917 111.516579,138.650864 114.032791,144.656479 
M29.054554,126.294151 
	C30.703836,130.283676 31.981974,134.482849 34.089310,138.213654 
	C37.256332,143.820480 40.528866,149.497513 44.640213,154.404266 
	C48.664948,159.207657 52.872684,159.005569 57.045998,154.492889 
	C63.349709,147.676575 69.318756,140.550781 75.518997,133.454681 
	C66.382454,124.520447 63.173656,113.961746 64.846451,101.490601 
	C65.747971,94.769547 65.218971,87.868431 65.612846,81.064621 
	C66.158279,71.642799 66.350357,62.139191 67.815460,52.847481 
	C69.644257,41.249195 74.915596,30.930956 83.153114,21.812517 
	C69.746086,17.436806 56.683708,15.206436 43.296387,17.152245 
	C29.338011,19.181055 19.442270,26.952351 16.271130,40.907047 
	C14.419554,49.054951 12.974500,58.052616 14.507426,66.063095 
	C18.335846,86.068939 23.969467,105.729332 29.054554,126.294151 
M189.810608,111.273590 
	C197.450470,95.519005 203.665390,79.234947 206.581573,61.922840 
	C210.640427,37.827328 208.664642,29.591301 182.801941,17.319637 
	C182.356384,17.108215 181.839706,17.051973 181.377884,16.868706 
	C173.612885,13.787268 165.599258,13.684164 157.437103,14.634549 
	C155.222092,14.892461 152.914551,14.228496 150.657166,14.286548 
	C148.532578,14.341185 146.418137,14.790059 143.456512,15.175031 
	C161.086456,23.540457 172.513824,36.421738 180.337891,52.837425 
	C183.284775,59.020313 184.291458,65.266411 183.360977,72.162102 
	C182.365723,79.537994 182.224136,87.049713 182.048706,94.510109 
	C181.850616,102.934021 182.007507,111.367004 182.085632,119.795341 
	C182.092148,120.498177 182.674088,121.195671 183.546799,123.137405 
	C185.821503,118.788620 187.620346,115.349625 189.810608,111.273590 
M95.911385,148.399521 
	C91.157089,155.313339 82.892715,155.156311 76.011108,158.377502 
	C80.032784,159.659378 84.007683,160.745697 87.995201,160.794159 
	C95.533310,160.885803 101.898621,157.857376 106.554726,151.815506 
	C108.960480,148.693741 108.501480,145.475357 105.496201,143.011749 
	C102.378059,140.455612 100.380516,142.817535 98.529854,145.109848 
	C97.800537,146.013199 97.073654,146.918503 95.911385,148.399521 
M178.810959,151.843857 
	C188.250626,151.661407 197.414719,150.590836 204.869003,143.878662 
	C203.872971,143.513260 202.974823,143.716629 202.089523,143.670944 
	C195.203491,143.315582 188.231552,143.428497 181.478668,142.272308 
	C178.737671,141.802994 176.203018,140.752686 174.365326,142.912354 
	C173.008316,144.507095 171.827682,147.356705 172.361160,149.097977 
	C172.771652,150.437790 175.972290,150.922760 178.810959,151.843857 
z"/>
<path fill="#346891" opacity="1.000000" stroke="none" 
	d="
M114.895615,150.962219 
	C114.803787,149.454559 114.711975,147.946915 114.690178,145.740875 
	C114.524017,144.696732 114.287834,144.350952 114.051651,144.005173 
	C111.516579,138.650864 107.568428,135.248917 100.594803,135.135895 
	C102.610130,129.920685 104.127121,125.056267 106.311516,120.512711 
	C113.829926,104.874374 112.823006,88.835312 108.565529,72.768173 
	C106.244339,64.008308 97.578598,59.421085 87.949646,61.473015 
	C82.629593,62.606724 77.486519,64.570885 72.066269,66.220764 
	C73.446091,52.879658 76.649864,40.002472 85.448967,29.116758 
	C91.654678,21.439421 99.990173,17.124250 109.579369,16.379253 
	C123.353378,15.309135 136.704803,17.352898 148.623413,25.201302 
	C160.952286,33.319878 169.794861,44.262894 175.364822,57.889034 
	C175.521927,58.273346 175.316437,58.805878 175.257919,59.550533 
	C171.153412,60.013588 167.043350,60.141415 163.087860,60.989849 
	C153.313965,63.086292 147.689072,70.631859 149.622879,80.420456 
	C151.150391,88.152351 153.541275,95.905998 156.846237,103.049713 
	C161.910843,113.996910 168.091003,124.428001 173.964935,135.390259 
	C167.437775,137.852249 166.158569,143.641846 165.522537,150.590302 
	C164.129486,165.809052 162.102402,180.985016 159.840698,196.104614 
	C157.672226,210.600891 141.958908,220.240448 128.011276,215.774109 
	C120.463081,213.357010 117.685471,206.807373 116.175087,199.734207 
	C115.483856,196.497177 115.408554,193.128616 115.338486,189.120773 
	C115.410469,186.280289 115.197884,184.138733 114.985306,181.997192 
	C114.909302,180.618011 114.833290,179.238815 115.138611,177.163086 
	C115.677368,170.673035 115.969841,164.878632 115.932678,159.086365 
	C115.915291,156.376221 115.261162,153.670135 114.895615,150.962219 
z"/>
<path fill="#346891" opacity="1.000000" stroke="none" 
	d="
M28.966597,125.911255 
	C23.969467,105.729332 18.335846,86.068939 14.507426,66.063095 
	C12.974500,58.052616 14.419554,49.054951 16.271130,40.907047 
	C19.442270,26.952351 29.338011,19.181055 43.296387,17.152245 
	C56.683708,15.206436 69.746086,17.436806 83.153114,21.812517 
	C74.915596,30.930956 69.644257,41.249195 67.815460,52.847481 
	C66.350357,62.139191 66.158279,71.642799 65.612846,81.064621 
	C65.218971,87.868431 65.747971,94.769547 64.846451,101.490601 
	C63.173656,113.961746 66.382454,124.520447 75.518997,133.454681 
	C69.318756,140.550781 63.349709,147.676575 57.045998,154.492889 
	C52.872684,159.005569 48.664948,159.207657 44.640213,154.404266 
	C40.528866,149.497513 37.256332,143.820480 34.089310,138.213654 
	C31.981974,134.482849 30.703836,130.283676 28.966597,125.911255 
z"/>
<path fill="#346892" opacity="1.000000" stroke="none" 
	d="
M189.614899,111.592110 
	C187.620346,115.349625 185.821503,118.788620 183.546799,123.137405 
	C182.674088,121.195671 182.092148,120.498177 182.085632,119.795341 
	C182.007507,111.367004 181.850616,102.934021 182.048706,94.510109 
	C182.224136,87.049713 182.365723,79.537994 183.360977,72.162102 
	C184.291458,65.266411 183.284775,59.020313 180.337891,52.837425 
	C172.513824,36.421738 161.086456,23.540457 143.456512,15.175031 
	C146.418137,14.790059 148.532578,14.341185 150.657166,14.286548 
	C152.914551,14.228496 155.222092,14.892461 157.437103,14.634549 
	C165.599258,13.684164 173.612885,13.787268 181.377884,16.868706 
	C181.839706,17.051973 182.356384,17.108215 182.801941,17.319637 
	C208.664642,29.591301 210.640427,37.827328 206.581573,61.922840 
	C203.665390,79.234947 197.450470,95.519005 189.614899,111.592110 
z"/>
<path fill="#346892" opacity="1.000000" stroke="none" 
	d="
M102.628235,75.850723 
	C102.628235,75.850723 102.634033,76.259254 102.365852,76.723923 
	C102.641167,78.457336 103.184662,79.726067 103.728157,80.994797 
	C106.592667,95.125732 105.471581,108.756844 98.767769,121.738678 
	C97.707619,123.791641 96.999054,126.033432 96.208969,128.217239 
	C93.785828,134.914856 93.164459,135.191727 86.334518,132.418457 
	C76.025391,128.232468 70.340279,117.994347 71.009018,105.271660 
	C71.480141,96.308784 71.862236,87.332016 71.889526,78.360252 
	C71.898521,75.402328 72.663269,73.427025 75.368713,72.640114 
	C80.112991,71.260170 84.939835,70.164108 89.944611,69.555527 
	C90.122910,70.500877 90.088684,70.839836 89.897987,71.403595 
	C89.172478,72.083839 88.603447,72.539268 87.863007,73.074097 
	C87.617874,73.253906 87.460312,73.407974 87.484467,73.445724 
	C87.611542,73.644234 87.784538,73.813347 88.088051,74.293198 
	C92.605644,80.272499 94.455574,80.492035 100.389862,75.984924 
	C101.434250,75.941376 102.031242,75.896049 102.628235,75.850723 
z"/>
<path fill="#356992" opacity="1.000000" stroke="none" 
	d="
M170.005463,66.930756 
	C171.076538,66.888145 172.147598,66.845535 173.771133,67.159225 
	C175.173569,68.334732 176.023529,69.153938 176.873489,69.973145 
	C174.325623,82.664970 175.369034,95.320969 176.714722,108.063828 
	C177.191757,112.581139 175.654633,117.311157 175.037018,121.944069 
	C174.448029,121.947685 173.859024,121.951302 173.270020,121.954918 
	C168.299850,111.452652 162.962677,101.103149 158.502930,90.388428 
	C155.996353,84.366241 154.012482,77.771339 158.479401,71.075485 
	C159.876144,70.962868 160.519516,71.013580 161.040161,71.448265 
	C162.138123,73.225525 163.212967,75.554573 164.616653,75.773300 
	C166.339981,76.041840 168.549973,74.829765 170.104416,73.664108 
	C170.661652,73.246239 169.923599,71.101067 169.834503,69.277069 
	C169.930008,68.183510 169.967743,67.557137 170.005463,66.930756 
z"/>
<path fill="#366A93" opacity="1.000000" stroke="none" 
	d="
M96.128525,148.111221 
	C97.073654,146.918503 97.800537,146.013199 98.529854,145.109848 
	C100.380516,142.817535 102.378059,140.455612 105.496201,143.011749 
	C108.501480,145.475357 108.960480,148.693741 106.554726,151.815506 
	C101.898621,157.857376 95.533310,160.885803 87.995201,160.794159 
	C84.007683,160.745697 80.032784,159.659378 76.011108,158.377502 
	C82.892715,155.156311 91.157089,155.313339 96.128525,148.111221 
z"/>
<path fill="#3B6D95" opacity="1.000000" stroke="none" 
	d="
M178.371582,151.815857 
	C175.972290,150.922760 172.771652,150.437790 172.361160,149.097977 
	C171.827682,147.356705 173.008316,144.507095 174.365326,142.912354 
	C176.203018,140.752686 178.737671,141.802994 181.478668,142.272308 
	C188.231552,143.428497 195.203491,143.315582 202.089523,143.670944 
	C202.974823,143.716629 203.872971,143.513260 204.869003,143.878662 
	C197.414719,150.590836 188.250626,151.661407 178.371582,151.815857 
z"/>
<path fill="#3A6F97" opacity="1.000000" stroke="none" 
	d="
M114.756302,151.344742 
	C115.261162,153.670135 115.915291,156.376221 115.932678,159.086365 
	C115.969841,164.878632 115.677368,170.673035 115.208710,176.753479 
	C114.803978,168.602692 114.710480,160.164978 114.756302,151.344742 
z"/>
<path fill="#306892" opacity="1.000000" stroke="none" 
	d="
M102.562492,75.484009 
	C102.031242,75.896049 101.434250,75.941376 100.395935,75.606667 
	C98.247696,69.980896 93.828918,71.367760 90.054459,71.178787 
	C90.088684,70.839836 90.122910,70.500877 90.276711,69.660973 
	C90.590950,69.177116 90.780525,69.217880 91.497910,69.521301 
	C93.354652,69.263718 94.678505,68.767151 96.002357,68.270576 
	C98.167152,70.552818 100.331955,72.835052 102.562492,75.484009 
z"/>
<path fill="#28638F" opacity="1.000000" stroke="none" 
	d="
M169.581284,66.859436 
	C169.967743,67.557137 169.930008,68.183510 169.458267,69.230019 
	C166.403793,70.121529 163.783340,70.592911 161.162872,71.064285 
	C160.519516,71.013580 159.876144,70.962868 158.750732,70.845093 
	C161.898148,69.448059 165.527618,68.118088 169.581284,66.859436 
z"/>
<path fill="#346892" opacity="1.000000" stroke="none" 
	d="
M95.623123,68.148872 
	C94.678505,68.767151 93.354652,69.263718 91.638260,69.563843 
	C92.578453,68.920654 93.911171,68.473915 95.623123,68.148872 
z"/>
<path fill="#3A6F97" opacity="1.000000" stroke="none" 
	d="
M114.920189,182.430542 
	C115.197884,184.138733 115.410469,186.280289 115.372696,188.700073 
	C115.033249,186.940186 114.944160,184.902039 114.920189,182.430542 
z"/>
<path fill="#306892" opacity="1.000000" stroke="none" 
	d="
M103.723305,80.633812 
	C103.184662,79.726067 102.641167,78.457336 102.170486,76.783600 
	C102.735016,77.676682 103.226738,78.974754 103.723305,80.633812 
z"/>
<path fill="#28638F" opacity="1.000000" stroke="none" 
	d="
M176.943176,69.573517 
	C176.023529,69.153938 175.173569,68.334732 174.163208,67.262772 
	C175.006165,67.731308 176.009521,68.452599 176.943176,69.573517 
z"/>
<path fill="#3A6F97" opacity="1.000000" stroke="none" 
	d="
M114.042221,144.330826 
	C114.287834,144.350952 114.524017,144.696732 114.746315,145.367783 
	C114.499214,145.347534 114.265999,145.001999 114.042221,144.330826 
z"/>
<path fill="#F5F7F9" opacity="1.000000" stroke="none" 
	d="
M89.897987,71.403595 
	C93.828918,71.367760 98.247696,69.980896 99.948540,75.604889 
	C94.455574,80.492035 92.605644,80.272499 88.140305,74.046402 
	C88.042198,73.330963 88.038307,73.162834 88.034416,72.994698 
	C88.603447,72.539268 89.172478,72.083839 89.897987,71.403595 
z"/>
<path fill="#306892" opacity="1.000000" stroke="none" 
	d="
M87.863007,73.074097 
	C88.038307,73.162834 88.042198,73.330963 87.993835,73.745880 
	C87.784538,73.813347 87.611542,73.644234 87.484467,73.445724 
	C87.460312,73.407974 87.617874,73.253906 87.863007,73.074097 
z"/>
<path fill="#F2F5F7" opacity="1.000000" stroke="none" 
	d="
M161.040161,71.448273 
	C163.783340,70.592911 166.403793,70.121529 169.400482,69.697197 
	C169.923599,71.101067 170.661652,73.246239 170.104416,73.664108 
	C168.549973,74.829765 166.339981,76.041840 164.616653,75.773300 
	C163.212967,75.554573 162.138123,73.225525 161.040161,71.448273 
z"/>
</svg>