<?xml version="1.0" encoding="UTF-8"?>
<svg version="1.1" xmlns="http://www.w3.org/2000/svg" width="225" height="225">
<path d="M0 0 C74.25 0 148.5 0 225 0 C225 74.25 225 148.5 225 225 C150.75 225 76.5 225 0 225 C0 150.75 0 76.5 0 0 Z " fill="#ED6D3F" transform="translate(0,0)"/>
<path d="M0 0 C74.25 0 148.5 0 225 0 C225 74.25 225 148.5 225 225 C150.75 225 76.5 225 0 225 C0 150.75 0 76.5 0 0 Z M27.50048828 39.30566406 C6.79757181 62.68318446 -0.20743014 91.9362721 0.76904297 122.50927734 C1.32740385 130.94843578 3.45436748 138.96562966 6 147 C6.37253906 148.19496094 6.74507813 149.38992187 7.12890625 150.62109375 C11.85252436 164.0677697 19.37343814 176.52847346 29 187 C29.46889648 187.5165918 29.93779297 188.03318359 30.42089844 188.56542969 C48.68934 208.48926401 74.52947871 222.33016223 101.82641602 224.19287109 C134.51403113 225.0924552 164.12392923 217.22913436 188.734375 194.6171875 C208.72086374 175.68208968 223.04876453 149.22774253 224.10449219 121.22875977 C224.17011827 118.06835886 224.18559804 114.91105397 224.1875 111.75 C224.19974609 110.69425781 224.21199219 109.63851562 224.22460938 108.55078125 C224.24376659 98.1164823 222.7944981 88.2003853 219.4375 78.3125 C219.18137939 77.55630371 218.92525879 76.80010742 218.66137695 76.02099609 C208.58169375 47.55689216 187.77972734 24.21281092 160.5625 11.1875 C113.72859025 -10.11851825 61.9756392 1.78827189 27.50048828 39.30566406 Z " fill="#FEFDFD" transform="translate(0,0)"/>
<path d="M0 0 C2.84619141 0.15673828 2.84619141 0.15673828 5.72119141 2.65673828 C6.42244141 3.48173828 7.12369141 4.30673828 7.84619141 5.15673828 C2.33005273 19.57093398 -25.12025575 30.40968708 -38.15380859 37.15673828 C-37.82380859 40.78673828 -37.49380859 44.41673828 -37.15380859 48.15673828 C-40.82152705 46.32287906 -42.62215855 44.90610999 -45.40380859 42.03173828 C-46.11021484 41.30728516 -46.81662109 40.58283203 -47.54443359 39.83642578 C-48.07552734 39.28212891 -48.60662109 38.72783203 -49.15380859 38.15673828 C-47.83105658 35.24838954 -46.38121945 33.10568401 -44.1796875 30.796875 C-43.5779068 30.16296844 -42.9761261 29.52906189 -42.35610962 28.87594604 C-39.5761883 26.00628197 -36.79227735 23.14105907 -33.99023438 20.29296875 C-32.52287407 18.79256125 -31.06631181 17.28151254 -29.62109375 15.75976562 C-15.10290669 0.47798766 -15.10290669 0.47798766 -5.78027344 0.03613281 C-3.06574432 0.20263055 -3.06574432 0.20263055 0 0 Z " fill="#FEF9F8" transform="translate(105.15380859375,125.84326171875)"/>
<path d="M0 0 C0.495 0.99 0.495 0.99 1 2 C0.3191333 2.35416992 -0.3617334 2.70833984 -1.06323242 3.07324219 C-4.86463841 5.56727295 -7.81739244 8.58918765 -10.98828125 11.828125 C-11.65031052 12.49535583 -12.31233978 13.16258667 -12.99443054 13.85003662 C-15.1052836 15.97864099 -17.2093301 18.11380611 -19.3125 20.25 C-21.405773 22.37107371 -23.50055258 24.49060103 -25.59843445 26.6071167 C-26.90030852 27.92104872 -28.19950491 29.23764173 -29.49543762 30.55743408 C-32.66685711 33.76315105 -35.89412236 36.90542331 -39.21166992 39.95996094 C-40.15583015 40.8348819 -40.15583015 40.8348819 -41.11906433 41.72747803 C-43 43 -43 43 -47 43 C-49.75 40.5 -49.75 40.5 -52 38 C-49.72101264 32.82618009 -45.71023652 29.37016731 -41.75 25.4375 C-40.94240234 24.6340918 -40.13480469 23.83068359 -39.30273438 23.00292969 C-32.58977991 16.41448543 -25.65935096 10.4517686 -18 5 C-17.07445312 4.3296875 -16.14890625 3.659375 -15.1953125 2.96875 C-9.71470157 -0.69609621 -6.43334398 -1.87151825 0 0 Z " fill="#FEF8F6" transform="translate(145,69)"/>
<path d="M0 0 C2 2 2 2 2.42578125 4.82421875 C1.86038885 9.04131985 0.40729819 10.0970618 -2.8125 12.8125 C-3.30951416 13.23990479 -3.80652832 13.66730957 -4.31860352 14.10766602 C-5.86290051 15.42602771 -7.42665281 16.71650604 -9 18 C-9.91007812 18.74507812 -10.82015625 19.49015625 -11.7578125 20.2578125 C-13.56191215 21.72528714 -15.36927398 23.18875936 -17.1796875 24.6484375 C-20.75803178 27.63204312 -24.154619 30.78590803 -27.56323242 33.95996094 C-32.17900049 38.22952746 -37.02550126 42.15907066 -42 46 C-43.32 45.34 -44.64 44.68 -46 44 C-46 39.34464027 -45.54053616 39.03269896 -42.42333984 35.87402344 C-41.25114395 34.67323151 -41.25114395 34.67323151 -40.05526733 33.44818115 C-39.19913849 32.59387512 -38.34300964 31.73956909 -37.4609375 30.859375 C-36.58732574 29.97719299 -35.71371399 29.09501099 -34.81362915 28.18609619 C-32.48582801 25.84385083 -30.14795262 23.51219356 -27.80725098 21.18286133 C-26.37780855 19.75280975 -24.95850869 18.31344499 -23.54248047 16.87011719 C-20.82219656 14.10090902 -18.08233576 11.35265939 -15.3359375 8.609375 C-14.49195404 7.74697205 -13.64797058 6.88456909 -12.77841187 5.99603271 C-11.97803497 5.2081134 -11.17765808 4.42019409 -10.35302734 3.60839844 C-9.65575531 2.90986755 -8.95848328 2.21133667 -8.24008179 1.49163818 C-5.31152414 -0.45844615 -3.45036457 -0.42392777 0 0 Z " fill="#FEF9F8" transform="translate(150,74)"/>
<path d="M0 0 C2.3359375 1.0234375 2.3359375 1.0234375 4 2 C2.17744436 6.68341571 -1.6369584 9.64871152 -5.27539062 12.93359375 C-8.13635245 15.50025818 -8.13635245 15.50025818 -9.1171875 19.046875 C-7.58421235 21.72690148 -5.66494478 23.61667261 -3.4375 25.75 C-2.61121094 26.54921875 -1.78492188 27.3484375 -0.93359375 28.171875 C-0.29550781 28.77515625 0.34257812 29.3784375 1 30 C-1.36092149 32.36092149 -1.96250484 32.31949234 -5.1875 32.375 C-11.45835794 32.21369176 -15.03343183 30.016993 -19.4375 25.5 C-21.74743187 20.32575261 -21.75070518 15.57666708 -21 10 C-16.71786649 0.77694321 -9.50634368 -1.23496308 0 0 Z " fill="#FEFBFA" transform="translate(168,43)"/>
<path d="M0 0 C0.495 0.99 0.495 0.99 1 2 C-2.99831986 11.33970469 -9.62697966 18.323253 -16.59155273 25.49414062 C-17.99831708 26.99820069 -19.30578316 28.5514317 -20.60546875 30.1484375 C-22.68178417 32.62104803 -24.72764861 34.67554119 -27.1875 36.75 C-29.19900698 38.45766558 -31.13323413 40.13323413 -33 42 C-35.8966677 41.80688882 -37.03210237 40.97235629 -39.25 39.0625 C-41 37 -41 37 -41 35 C-39.44759659 33.60674046 -37.82970015 32.28619872 -36.1875 31 C-32.16052706 27.78254658 -28.28942988 24.49961778 -24.5 21 C-19.99858542 16.85818487 -15.35195362 12.9593002 -10.59375 9.1171875 C-6.98165769 6.16876275 -3.48066574 3.10168208 0 0 Z " fill="#FEF9F8" transform="translate(151,87)"/>
<path d="M0 0 C3 1 3 1 4.16796875 2.7890625 C6.01276739 7.69120349 5.54159824 12.53768475 3.75 17.375 C2 20 2 20 -2 23 C-5.3 19.7 -8.6 16.4 -12 13 C-8.17420552 8.44548277 -4.25602708 4.15469311 0 0 Z " fill="#FEF9F7" transform="translate(174,49)"/>
<path d="M0 0 C5.29158974 1.40071493 7.77478044 4.85487245 11 9 C4.88514973 9.09706112 -0.93303301 8.77040851 -7 8 C-6.02133662 6.85373678 -5.04205413 5.70800212 -4.0625 4.5625 C-3.51722656 3.92441406 -2.97195312 3.28632813 -2.41015625 2.62890625 C-1.63204305 1.73008851 -0.84063472 0.84063472 0 0 Z " fill="#FDEFEB" transform="translate(52,166)"/>
<path d="M0 0 C3.76687864 1.88343932 4.79421646 2.69132469 7 6 C5.25364835 6.53293835 3.50272348 7.05090663 1.75 7.5625 C0.77546875 7.85253906 -0.1990625 8.14257812 -1.203125 8.44140625 C-4 9 -4 9 -8 8 C-5.36 5.36 -2.72 2.72 0 0 Z " fill="#FEF7F5" transform="translate(89,109)"/>
<path d="M0 0 C3.875 1.75 3.875 1.75 5 4 C0.545 4.495 0.545 4.495 -4 5 C-2.68 3.35 -1.36 1.7 0 0 Z " fill="#FCECE7" transform="translate(99,119)"/>
<path d="M0 0 C0.99 0.33 1.98 0.66 3 1 C3 2.98 3 4.96 3 7 C2.01 7.33 1.02 7.66 0 8 C0 5.36 0 2.72 0 0 Z " fill="#EE774B" transform="translate(173,56)"/>
<path d="M0 0 C0.66 1.32 1.32 2.64 2 4 C1.01 4.66 0.02 5.32 -1 6 C-1.99 5.34 -2.98 4.68 -4 4 C-2.68 2.68 -1.36 1.36 0 0 Z " fill="#EE7E56" transform="translate(105,108)"/>
</svg>
