<svg version="1.1" id="Layer_1" xmlns="http://www.w3.org/2000/svg" xmlns:xlink="http://www.w3.org/1999/xlink" x="0px" y="0px"
	 width="100%" viewBox="0 0 204 247" enable-background="new 0 0 204 247" xml:space="preserve">
<path fill="#133A51" opacity="1.000000" stroke="none" 
	d="
M205.000000,192.000000 
	C205.000000,193.714157 205.000000,195.428329 204.657196,197.690277 
	C203.010895,203.991638 199.348267,207.347809 193.761154,208.957413 
	C183.415314,211.938004 173.103424,215.036636 162.781036,218.098297 
	C129.186462,228.062546 95.593552,238.032349 62.000000,248.000000 
	C60.933342,248.000000 59.866680,248.000000 58.203316,247.695541 
	C54.516624,245.386993 50.599152,244.012344 48.500900,241.253876 
	C43.402359,234.551117 39.091118,227.242172 34.566849,220.111343 
	C23.346870,202.427246 12.185136,184.706207 1.000002,167.000000 
	C1.000000,165.285843 1.000000,163.571671 1.332585,161.288788 
	C2.874143,158.204437 3.869426,155.557388 5.323650,153.192581 
	C34.156334,106.305855 63.070194,59.469032 91.876190,12.565952 
	C94.943794,7.571156 98.035385,2.844530 104.000000,1.000000 
	C105.388893,1.000000 106.777779,1.000000 108.747650,1.319277 
	C115.125717,2.568353 117.825424,6.722756 120.108788,11.582992 
	C148.370285,71.738708 176.693039,131.865646 205.000000,192.000000 
M95.912361,91.340370 
	C92.002602,109.841904 88.052704,128.335068 84.192818,146.847000 
	C78.877281,172.340240 73.619591,197.845566 68.362831,223.351013 
	C67.452057,227.770020 70.521744,230.550873 74.884254,229.298096 
	C78.332039,228.307999 81.748871,227.210678 85.189217,226.194016 
	C104.523270,220.480713 123.850578,214.744186 143.201920,209.089920 
	C149.401031,207.278610 155.700775,205.809845 161.891388,203.971848 
	C167.721802,202.240799 173.349899,199.558884 179.281921,198.504868 
	C187.452316,197.053116 189.815155,193.823395 186.428726,186.587250 
	C162.965958,136.451477 139.494949,86.319542 116.045738,36.177429 
	C114.993713,33.927864 114.197037,30.765182 111.050568,32.100960 
	C109.279366,32.852894 107.582581,35.388981 107.138000,37.404869 
	C103.243591,55.063282 99.639328,72.785683 95.912361,91.340370 
z"/>
<path fill="#FEFEFE" opacity="1.000000" stroke="none" 
	d="
M205.000000,191.531342 
	C176.693039,131.865646 148.370285,71.738708 120.108788,11.582992 
	C117.825424,6.722756 115.125717,2.568353 109.164314,1.319277 
	C140.951157,1.000000 172.902328,1.000000 205.000000,1.000000 
	C205.000000,64.354156 205.000000,127.708420 205.000000,191.531342 
z"/>
<path fill="#FEFEFF" opacity="1.000000" stroke="none" 
	d="
M103.531342,1.000000 
	C98.035385,2.844530 94.943794,7.571156 91.876190,12.565952 
	C63.070194,59.469032 34.156334,106.305855 5.323650,153.192581 
	C3.869426,155.557388 2.874143,158.204437 1.332585,160.860031 
	C1.000000,107.755516 1.000000,54.511036 1.000000,1.000000 
	C35.020432,1.000000 69.041557,1.000000 103.531342,1.000000 
z"/>
<path fill="#FEFEFE" opacity="1.000000" stroke="none" 
	d="
M62.468658,248.000000 
	C95.593552,238.032349 129.186462,228.062546 162.781036,218.098297 
	C173.103424,215.036636 183.415314,211.938004 193.761154,208.957413 
	C199.348267,207.347809 203.010895,203.991638 204.657196,198.119034 
	C205.000000,214.628815 205.000000,231.257614 205.000000,248.000000 
	C157.645828,248.000000 110.291573,248.000000 62.468658,248.000000 
z"/>
<path fill="#FEFEFE" opacity="1.000000" stroke="none" 
	d="
M1.000002,167.468658 
	C12.185136,184.706207 23.346870,202.427246 34.566849,220.111343 
	C39.091118,227.242172 43.402359,234.551117 48.500900,241.253876 
	C50.599152,244.012344 54.516624,245.386993 57.803307,247.695541 
	C39.060429,248.000000 20.120859,248.000000 1.000000,248.000000 
	C1.000000,221.312714 1.000000,194.625015 1.000002,167.468658 
z"/>
<path fill="#FEFEFE" opacity="1.000000" stroke="none" 
	d="
M95.930695,90.914742 
	C99.639328,72.785683 103.243591,55.063282 107.138000,37.404869 
	C107.582581,35.388981 109.279366,32.852894 111.050568,32.100960 
	C114.197037,30.765182 114.993713,33.927864 116.045738,36.177429 
	C139.494949,86.319542 162.965958,136.451477 186.428726,186.587250 
	C189.815155,193.823395 187.452316,197.053116 179.281921,198.504868 
	C173.349899,199.558884 167.721802,202.240799 161.891388,203.971848 
	C155.700775,205.809845 149.401031,207.278610 143.201920,209.089920 
	C123.850578,214.744186 104.523270,220.480713 85.189217,226.194016 
	C81.748871,227.210678 78.332039,228.307999 74.884254,229.298096 
	C70.521744,230.550873 67.452057,227.770020 68.362831,223.351013 
	C73.619591,197.845566 78.877281,172.340240 84.192818,146.847000 
	C88.052704,128.335068 92.002602,109.841904 95.930695,90.914742 
z"/>
</svg>