<svg version="1.1" id="Layer_1" xmlns="http://www.w3.org/2000/svg" xmlns:xlink="http://www.w3.org/1999/xlink" x="0px" y="0px"
	 width="100%" viewBox="0 0 225 225" enable-background="new 0 0 225 225" xml:space="preserve">
<path fill="#FEFEFE" opacity="1.000000" stroke="none" 
	d="
M1.000000,125.000000 
	C1.000000,83.706528 1.000000,42.413052 1.000000,1.059789 
	C75.887772,1.059789 150.775604,1.059789 226.000000,1.059789 
	C226.000000,35.686836 226.000000,70.374756 225.730133,105.878922 
	C221.396851,105.904510 218.575363,107.267784 216.564362,111.048309 
	C215.152496,113.702522 213.009613,115.967880 210.604294,119.197609 
	C209.880569,114.453606 209.317093,110.760063 208.724380,106.874832 
	C206.669296,106.874832 204.751648,106.874832 202.449661,106.874832 
	C203.399826,117.183426 209.439377,127.943405 197.923798,136.321472 
	C202.878281,137.756958 205.176788,136.375061 207.305023,133.116180 
	C212.198654,125.622704 217.525070,118.409714 222.758606,111.142494 
	C223.624344,109.940361 224.908966,109.039886 226.000000,108.000000 
	C226.000000,147.294281 226.000000,186.588577 226.000000,225.941437 
	C151.113541,225.941437 76.227036,225.941437 1.000000,225.941437 
	C1.000000,193.646576 1.000000,161.291946 1.413350,128.234314 
	C6.840305,127.030594 11.853910,126.529861 17.048004,126.376602 
	C22.535994,129.415253 24.275587,128.710983 25.746988,123.235313 
	C26.823927,119.227592 27.925772,115.225113 28.910772,111.194458 
	C30.636087,104.134407 32.280231,97.054527 34.015747,89.940842 
	C34.073112,89.898727 34.119156,89.818489 34.119156,89.818489 
	C34.119156,89.818489 34.003807,90.029091 33.651058,90.033508 
	C28.442894,93.138527 23.422810,96.016701 18.803623,99.436394 
	C16.593521,101.072578 15.143324,103.735229 13.348955,105.932976 
	C13.746543,106.320251 14.144131,106.707520 14.541718,107.094795 
	C15.686776,106.649971 16.831833,106.205147 17.984943,106.080078 
	C18.001564,106.612892 18.010128,106.825951 17.858976,107.338669 
	C10.849879,112.191544 2.875514,115.662689 1.000000,125.000000 
M35.513554,112.815216 
	C34.299473,117.567253 33.085388,122.319290 31.802649,127.340057 
	C34.174366,127.340057 35.953819,127.340057 37.969421,127.340057 
	C38.662102,124.845833 39.464798,122.485260 39.951290,120.061226 
	C40.484810,117.402878 41.100864,115.483635 44.611137,115.638710 
	C48.480404,115.809654 48.724602,118.121674 48.906307,120.960754 
	C49.041252,123.069122 49.422585,125.161720 49.689705,127.226860 
	C52.116695,127.226860 54.043041,127.226860 56.533875,127.226860 
	C55.779587,122.697433 55.087959,118.544273 54.411041,114.479416 
	C55.854618,113.193329 58.100044,112.059761 58.893982,110.279053 
	C60.038284,107.712532 61.214966,104.254150 60.329090,101.971458 
	C59.601894,100.097649 55.974499,98.552254 53.483421,98.292587 
	C39.820850,96.868439 39.804111,97.019638 36.208820,110.093895 
	C36.032223,110.736107 35.897171,111.389732 35.513554,112.815216 
M171.026962,120.345337 
	C171.629532,117.950531 172.637360,115.574005 172.746353,113.156944 
	C172.944534,108.762177 169.821564,105.792252 165.603973,106.086502 
	C161.507660,106.372299 157.430634,106.934692 152.780838,107.436523 
	C150.297531,116.678444 147.655350,126.511703 144.923233,136.679611 
	C147.233032,136.679611 149.005722,136.679611 151.022186,136.679611 
	C152.113510,133.038757 153.195419,129.429352 154.284439,125.796196 
	C161.425339,129.422592 165.890594,128.093414 171.026962,120.345337 
M199.564072,108.510986 
	C197.764801,108.030304 195.983505,107.452110 194.157700,107.115288 
	C193.390503,106.973755 192.427872,107.657616 191.725952,107.431862 
	C182.769791,104.551498 174.539124,110.978104 174.719208,120.784805 
	C174.809830,125.719513 177.960098,128.423126 182.888077,127.768959 
	C185.555038,127.414925 188.024963,124.974823 191.046646,127.336288 
	C191.468887,127.666275 194.574615,125.905983 195.025223,124.618706 
	C196.778870,119.608810 197.963150,114.399597 199.564072,108.510986 
M84.024033,110.810585 
	C84.263557,109.556091 84.503082,108.301598 84.839035,106.542068 
	C81.814499,106.871582 78.819572,108.122849 76.728004,107.238235 
	C71.991173,105.234833 68.231171,106.192116 64.862030,109.399422 
	C61.054615,113.023956 58.850578,117.695351 60.214497,122.871735 
	C60.738110,124.858963 63.623955,127.376808 65.644493,127.582825 
	C70.219398,128.049316 74.925522,127.228996 79.765045,126.920052 
	C81.115593,121.840858 82.478935,116.713547 84.024033,110.810585 
M106.794472,120.399269 
	C107.827751,125.950058 110.031281,127.868645 115.399277,127.891373 
	C122.449585,127.921211 127.819656,123.417259 129.415558,116.135696 
	C130.714752,110.207893 127.802170,106.380203 121.761269,106.076523 
	C114.000610,105.686401 108.476616,110.709297 106.794472,120.399269 
M105.580330,106.700974 
	C101.426720,106.693695 97.258423,106.898918 93.124031,106.613373 
	C89.681686,106.375626 88.336098,107.672813 88.619522,111.419495 
	C91.432755,111.419495 94.174255,111.419495 98.389702,111.419495 
	C94.778763,114.541626 92.072754,116.630615 89.674202,119.027298 
	C87.379951,121.319763 82.751518,122.674019 85.589508,127.499252 
	C102.191673,127.539932 102.191673,127.539932 102.636414,122.736595 
	C99.561577,122.736595 96.511307,122.736595 93.452736,122.736595 
	C93.524117,122.139465 93.484489,121.927101 93.567673,121.853462 
	C97.042809,118.776840 100.723846,115.899170 103.921097,112.558273 
	C105.265343,111.153633 105.589790,108.773033 105.580330,106.700974 
M130.652405,125.598221 
	C131.777145,126.243279 132.884232,127.346558 134.032104,127.390762 
	C134.978027,127.427177 136.424469,126.419373 136.851166,125.502846 
	C137.745804,123.581100 138.109253,121.413124 138.701324,119.349266 
	C140.765945,112.152290 141.182922,111.818657 148.873856,111.458916 
	C149.216461,109.923615 149.580353,108.292992 149.943802,106.664276 
	C145.461578,106.664276 141.567673,106.475571 137.716187,106.796188 
	C136.746185,106.876945 135.448166,108.443558 135.095169,109.575127 
	C133.520767,114.621902 132.234207,119.758461 130.652405,125.598221 
z"/>
<path fill="#142F5C" opacity="1.000000" stroke="none" 
	d="
M226.000000,107.666672 
	C224.908966,109.039886 223.624344,109.940361 222.758606,111.142494 
	C217.525070,118.409714 212.198654,125.622704 207.305023,133.116180 
	C205.176788,136.375061 202.878281,137.756958 197.923798,136.321472 
	C209.439377,127.943405 203.399826,117.183426 202.449661,106.874832 
	C204.751648,106.874832 206.669296,106.874832 208.724380,106.874832 
	C209.317093,110.760063 209.880569,114.453606 210.604294,119.197609 
	C213.009613,115.967880 215.152496,113.702522 216.564362,111.048309 
	C218.575363,107.267784 221.396851,105.904510 225.730133,106.347580 
	C226.000000,106.444443 226.000000,106.888893 226.000000,107.666672 
z"/>
<path fill="#0F2C5A" opacity="1.000000" stroke="none" 
	d="
M16.867516,126.029129 
	C11.853910,126.529861 6.840305,127.030594 1.413350,127.765656 
	C1.000000,127.250000 1.000000,126.500000 1.000000,125.375000 
	C2.875514,115.662689 10.849879,112.191544 18.206715,107.296265 
	C19.380615,106.756332 20.047058,106.558464 20.751070,106.349442 
	C20.521473,108.806053 20.320181,110.959785 20.041557,113.498367 
	C18.931988,117.931847 17.899752,121.980492 16.867516,126.029129 
z"/>
<path fill="#14305C" opacity="1.000000" stroke="none" 
	d="
M35.628162,112.426636 
	C35.897171,111.389732 36.032223,110.736107 36.208820,110.093895 
	C39.804111,97.019638 39.820850,96.868439 53.483421,98.292587 
	C55.974499,98.552254 59.601894,100.097649 60.329090,101.971458 
	C61.214966,104.254150 60.038284,107.712532 58.893982,110.279053 
	C58.100044,112.059761 55.854618,113.193329 54.411041,114.479416 
	C55.087959,118.544273 55.779587,122.697433 56.533875,127.226860 
	C54.043041,127.226860 52.116695,127.226860 49.689705,127.226860 
	C49.422585,125.161720 49.041252,123.069122 48.906307,120.960754 
	C48.724602,118.121674 48.480404,115.809654 44.611137,115.638710 
	C41.100864,115.483635 40.484810,117.402878 39.951290,120.061226 
	C39.464798,122.485260 38.662102,124.845833 37.969421,127.340057 
	C35.953819,127.340057 34.174366,127.340057 31.802649,127.340057 
	C33.085388,122.319290 34.299473,117.567253 35.628162,112.426636 
M50.805984,110.568901 
	C52.111954,108.748024 53.417919,106.927139 54.723885,105.106262 
	C51.484936,104.169647 48.245983,103.233032 44.565449,102.168732 
	C43.721798,105.950714 43.141247,108.553238 42.326050,112.207657 
	C45.570740,111.713226 47.850471,111.365837 50.805984,110.568901 
z"/>
<path fill="#16315D" opacity="1.000000" stroke="none" 
	d="
M170.858917,120.683220 
	C165.890594,128.093414 161.425339,129.422592 154.284439,125.796196 
	C153.195419,129.429352 152.113510,133.038757 151.022186,136.679611 
	C149.005722,136.679611 147.233032,136.679611 144.923233,136.679611 
	C147.655350,126.511703 150.297531,116.678444 152.780838,107.436523 
	C157.430634,106.934692 161.507660,106.372299 165.603973,106.086502 
	C169.821564,105.792252 172.944534,108.762177 172.746353,113.156944 
	C172.637360,115.574005 171.629532,117.950531 170.858917,120.683220 
M157.202499,122.351646 
	C162.432755,123.599419 165.881256,121.183952 166.170486,115.730888 
	C166.246750,114.293182 165.634781,112.135696 164.606827,111.508614 
	C163.507141,110.837738 161.187515,111.045151 160.022171,111.812965 
	C156.483459,114.144539 155.224091,117.585167 157.202499,122.351646 
z"/>
<path fill="#132F5B" opacity="1.000000" stroke="none" 
	d="
M199.461655,108.887756 
	C197.963150,114.399597 196.778870,119.608810 195.025223,124.618706 
	C194.574615,125.905983 191.468887,127.666275 191.046646,127.336288 
	C188.024963,124.974823 185.555038,127.414925 182.888077,127.768959 
	C177.960098,128.423126 174.809830,125.719513 174.719208,120.784805 
	C174.539124,110.978104 182.769791,104.551498 191.725952,107.431862 
	C192.427872,107.657616 193.390503,106.973755 194.157700,107.115288 
	C195.983505,107.452110 197.764801,108.030304 199.461655,108.887756 
M181.956161,115.678139 
	C181.060059,118.355354 179.629120,121.509850 183.389847,122.809097 
	C186.973572,124.047173 189.281342,121.662262 190.654831,118.466721 
	C190.977509,117.715935 191.374756,116.857277 191.287918,116.099815 
	C191.112274,114.567612 191.081741,112.273308 190.162811,111.751030 
	C188.868423,111.015381 186.667725,111.190460 185.145279,111.757156 
	C183.934784,112.207748 183.160065,113.829071 181.956161,115.678139 
z"/>
<path fill="#14305C" opacity="1.000000" stroke="none" 
	d="
M83.933151,111.198410 
	C82.478935,116.713547 81.115593,121.840858 79.765045,126.920052 
	C74.925522,127.228996 70.219398,128.049316 65.644493,127.582825 
	C63.623955,127.376808 60.738110,124.858963 60.214497,122.871735 
	C58.850578,117.695351 61.054615,113.023956 64.862030,109.399422 
	C68.231171,106.192116 71.991173,105.234833 76.728004,107.238235 
	C78.819572,108.122849 81.814499,106.871582 84.839035,106.542068 
	C84.503082,108.301598 84.263557,109.556091 83.933151,111.198410 
M72.579918,122.462570 
	C73.932983,120.093689 75.696220,117.845795 76.447395,115.299362 
	C76.770660,114.203545 75.048454,111.334114 74.163536,111.293884 
	C72.277504,111.208130 69.500198,111.897667 68.600700,113.264748 
	C67.179466,115.424782 66.706306,118.386986 66.565216,121.048584 
	C66.539429,121.534981 70.009109,122.206673 72.579918,122.462570 
z"/>
<path fill="#3F9BFD" opacity="1.000000" stroke="none" 
	d="
M17.048004,126.376602 
	C17.899752,121.980492 18.931988,117.931847 20.397995,113.409843 
	C22.007727,109.505287 23.183689,106.074089 24.359652,102.642899 
	C24.048765,102.430000 23.737881,102.217102 23.426996,102.004204 
	C21.610292,103.256241 19.793591,104.508286 17.976891,105.760323 
	C16.831833,106.205147 15.686776,106.649971 14.541718,107.094795 
	C14.144131,106.707520 13.746543,106.320251 13.348955,105.932976 
	C15.143324,103.735229 16.593521,101.072578 18.803623,99.436394 
	C23.422810,96.016701 28.442894,93.138527 33.643753,90.018417 
	C33.989197,89.998917 33.958385,89.982956 33.958385,89.982956 
	C32.280231,97.054527 30.636087,104.134407 28.910772,111.194458 
	C27.925772,115.225113 26.823927,119.227592 25.746988,123.235313 
	C24.275587,128.710983 22.535994,129.415253 17.048004,126.376602 
z"/>
<path fill="#17335E" opacity="1.000000" stroke="none" 
	d="
M106.806915,120.031143 
	C108.476616,110.709297 114.000610,105.686401 121.761269,106.076523 
	C127.802170,106.380203 130.714752,110.207893 129.415558,116.135696 
	C127.819656,123.417259 122.449585,127.921211 115.399277,127.891373 
	C110.031281,127.868645 107.827751,125.950058 106.806915,120.031143 
M113.023308,119.510010 
	C114.276794,120.700104 115.491531,122.852142 116.790855,122.904495 
	C121.128578,123.079269 122.728905,119.659767 123.055656,116.083847 
	C123.203735,114.463242 121.961426,111.527817 120.783852,111.195679 
	C117.194931,110.183434 114.996513,112.578712 113.819397,115.853851 
	C113.488533,116.774452 113.324524,117.755020 113.023308,119.510010 
z"/>
<path fill="#112D5A" opacity="1.000000" stroke="none" 
	d="
M105.979080,106.768539 
	C105.589790,108.773033 105.265343,111.153633 103.921097,112.558273 
	C100.723846,115.899170 97.042809,118.776840 93.567673,121.853462 
	C93.484489,121.927101 93.524117,122.139465 93.452736,122.736595 
	C96.511307,122.736595 99.561577,122.736595 102.636414,122.736595 
	C102.191673,127.539932 102.191673,127.539932 85.589508,127.499252 
	C82.751518,122.674019 87.379951,121.319763 89.674202,119.027298 
	C92.072754,116.630615 94.778763,114.541626 98.389702,111.419495 
	C94.174255,111.419495 91.432755,111.419495 88.619522,111.419495 
	C88.336098,107.672813 89.681686,106.375626 93.124031,106.613373 
	C97.258423,106.898918 101.426720,106.693695 105.979080,106.768539 
z"/>
<path fill="#18335F" opacity="1.000000" stroke="none" 
	d="
M130.748016,125.230408 
	C132.234207,119.758461 133.520767,114.621902 135.095169,109.575127 
	C135.448166,108.443558 136.746185,106.876945 137.716187,106.796188 
	C141.567673,106.475571 145.461578,106.664276 149.943802,106.664276 
	C149.580353,108.292992 149.216461,109.923615 148.873856,111.458916 
	C141.182922,111.818657 140.765945,112.152290 138.701324,119.349266 
	C138.109253,121.413124 137.745804,123.581100 136.851166,125.502846 
	C136.424469,126.419373 134.978027,127.427177 134.032104,127.390762 
	C132.884232,127.346558 131.777145,126.243279 130.748016,125.230408 
z"/>
<path fill="#D7E3F2" opacity="1.000000" stroke="none" 
	d="
M17.984943,106.080078 
	C19.793591,104.508286 21.610292,103.256241 23.426996,102.004204 
	C23.737881,102.217102 24.048765,102.430000 24.359652,102.642899 
	C23.183689,106.074089 22.007727,109.505287 20.475327,113.024994 
	C20.320181,110.959785 20.521473,108.806053 20.751070,106.349442 
	C20.047058,106.558464 19.380615,106.756332 18.366432,106.996605 
	C18.010128,106.825951 18.001564,106.612892 17.984943,106.080078 
z"/>
<path fill="#3F9BFD" opacity="1.000000" stroke="none" 
	d="
M33.996502,90.014008 
	C34.003807,90.029091 34.119156,89.818489 34.119156,89.818489 
	C34.119156,89.818489 34.073112,89.898727 34.015747,89.940842 
	C33.958385,89.982956 33.989197,89.998917 33.996502,90.014008 
z"/>
<path fill="#E9EBEF" opacity="1.000000" stroke="none" 
	d="
M50.468094,110.793671 
	C47.850471,111.365837 45.570740,111.713226 42.326050,112.207657 
	C43.141247,108.553238 43.721798,105.950714 44.565449,102.168732 
	C48.245983,103.233032 51.484936,104.169647 54.723885,105.106262 
	C53.417919,106.927139 52.111954,108.748024 50.468094,110.793671 
z"/>
<path fill="#EFF1F3" opacity="1.000000" stroke="none" 
	d="
M156.919556,122.060181 
	C155.224091,117.585167 156.483459,114.144539 160.022171,111.812965 
	C161.187515,111.045151 163.507141,110.837738 164.606827,111.508614 
	C165.634781,112.135696 166.246750,114.293182 166.170486,115.730888 
	C165.881256,121.183952 162.432755,123.599419 156.919556,122.060181 
z"/>
<path fill="#F0F1F4" opacity="1.000000" stroke="none" 
	d="
M182.074005,115.304390 
	C183.160065,113.829071 183.934784,112.207748 185.145279,111.757156 
	C186.667725,111.190460 188.868423,111.015381 190.162811,111.751030 
	C191.081741,112.273308 191.112274,114.567612 191.287918,116.099815 
	C191.374756,116.857277 190.977509,117.715935 190.654831,118.466721 
	C189.281342,121.662262 186.973572,124.047173 183.389847,122.809097 
	C179.629120,121.509850 181.060059,118.355354 182.074005,115.304390 
z"/>
<path fill="#EEEFF2" opacity="1.000000" stroke="none" 
	d="
M72.222580,122.627701 
	C70.009109,122.206673 66.539429,121.534981 66.565216,121.048584 
	C66.706306,118.386986 67.179466,115.424782 68.600700,113.264748 
	C69.500198,111.897667 72.277504,111.208130 74.163536,111.293884 
	C75.048454,111.334114 76.770660,114.203545 76.447395,115.299362 
	C75.696220,117.845795 73.932983,120.093689 72.222580,122.627701 
z"/>
<path fill="#F0F2F4" opacity="1.000000" stroke="none" 
	d="
M113.053635,119.109047 
	C113.324524,117.755020 113.488533,116.774452 113.819397,115.853851 
	C114.996513,112.578712 117.194931,110.183434 120.783852,111.195679 
	C121.961426,111.527817 123.203735,114.463242 123.055656,116.083847 
	C122.728905,119.659767 121.128578,123.079269 116.790855,122.904495 
	C115.491531,122.852142 114.276794,120.700104 113.053635,119.109047 
z"/>
</svg>