<?xml version="1.0" encoding="UTF-8"?>
<svg version="1.1" xmlns="http://www.w3.org/2000/svg" width="225" height="225">
<path d="M0 0 C74.25 0 148.5 0 225 0 C225 74.25 225 148.5 225 225 C150.75 225 76.5 225 0 225 C0 150.75 0 76.5 0 0 Z " fill="#062C3C" transform="translate(0,0)"/>
<path d="M0 0 C74.25 0 148.5 0 225 0 C225 74.25 225 148.5 225 225 C150.75 225 76.5 225 0 225 C0 150.75 0 76.5 0 0 Z M51.75 21.0625 C41.8385296 33.87158607 44.63325743 50.01559349 46.46484375 65.00390625 C46.89659574 68.35058052 47.41710842 71.67594259 48 75 C46.82824219 75.36351562 45.65648437 75.72703125 44.44921875 76.1015625 C29.05647042 80.97986957 12.16435679 87.16962341 4 102.22265625 C1.6269145 108.81353043 1.75597302 116.10613458 4.6875 122.5 C6.68743096 125.84254195 9.07453311 128.41470368 12 131 C12.50273437 131.48210937 13.00546875 131.96421875 13.5234375 132.4609375 C21.28244297 139.63710688 31.33126893 143.102421 41 147 C41.88042969 147.37769531 42.76085938 147.75539062 43.66796875 148.14453125 C46.05541473 149.17219663 46.05541473 149.17219663 49 149 C48.69280029 149.72074707 48.38560059 150.44149414 48.0690918 151.18408203 C44.90941938 159.50645281 44.65946033 168.32054239 44.6875 177.125 C44.67138672 178.14464844 44.65527344 179.16429687 44.63867188 180.21484375 C44.63213552 190.39847951 46.86682372 198.52560116 54 206 C58.18598779 209.85822588 61.99887355 211.34019393 67.6875 211.625 C84.63361292 210.83531967 100.61869663 198.83056534 112 187 C115.69718772 188.55401424 118.077287 190.84650738 120.9375 193.625 C126.82190977 199.06099886 132.94520499 203.14436498 140 207 C140.68449219 207.38285156 141.36898437 207.76570312 142.07421875 208.16015625 C149.00441823 211.39224494 158.26366733 211.22604605 165.53515625 209.34375 C171.07222163 206.8686071 175.27855655 202.57330632 177.90551758 197.12036133 C180.34709677 190.38605521 180.4585266 183.98520178 180.375 176.875 C180.36919922 175.68608154 180.36339844 174.49716309 180.35742188 173.2722168 C180.22875544 164.53540817 179.36889105 156.41802354 177 148 C178.051875 147.86722656 179.10375 147.73445312 180.1875 147.59765625 C193.83785045 145.45779598 208.61756869 138.18119993 217.32421875 127.359375 C222.38863312 120.22905734 222.9444056 113.56478185 222 105 C221.16119128 102.14594013 219.91441557 100.25647253 218 98 C217.52175781 97.37996094 217.04351562 96.75992188 216.55078125 96.12109375 C207.47035571 85.69390846 192.06498836 79.6826242 179 76 C178.01 76 177.02 76 176 76 C176.19335938 75.27296875 176.38671875 74.5459375 176.5859375 73.796875 C181.13722172 56.2226092 183.93601482 40.3766 175.25 23.625 C171.06120287 18.73807002 166.08144981 14.44710718 159.50390625 13.7265625 C143.08630722 13.15968657 130.13005038 22.9109029 118.32641602 33.35595703 C115.87916725 35.50795927 114.12893366 36.95702211 111 38 C111 37.34 111 36.68 111 36 C102.07342462 26.26436945 86.492921 14.84665103 73.046875 13.76171875 C64.0615192 13.55944178 58.11344973 14.49377769 51.75 21.0625 Z " fill="#FDFDFD" transform="translate(0,0)"/>
<path d="M0 0 C0.70974976 -0.0038269 1.41949951 -0.00765381 2.15075684 -0.01159668 C3.64332508 -0.01430462 5.13594168 -0.00702191 6.62841797 0.00976562 C8.90050013 0.03119577 11.16942129 0.00993053 13.44140625 -0.015625 C14.89844441 -0.01298152 16.35548062 -0.00785611 17.8125 0 C19.78186523 0.00676758 19.78186523 0.00676758 21.79101562 0.01367188 C25.98700711 0.61439459 28.12912289 1.89085633 31.40625 4.53125 C33.4609375 7.2734375 33.4609375 7.2734375 35.28125 10.40625 C35.60931641 10.96779785 35.93738281 11.5293457 36.27539062 12.10791016 C36.96859118 13.29799213 37.65632266 14.49127465 38.33886719 15.6875 C39.42491785 17.56349602 40.55414336 19.40709412 41.6953125 21.25 C42.43308402 22.46827051 43.17008517 23.68700794 43.90625 24.90625 C44.5765625 26.00710937 45.246875 27.10796875 45.9375 28.2421875 C47.92522675 32.69342665 48.17690318 36.27486642 46.59375 40.91015625 C46.201875 41.63074219 45.81 42.35132813 45.40625 43.09375 C44.95121094 43.93679687 44.49617188 44.77984375 44.02734375 45.6484375 C43.22490234 47.07542969 43.22490234 47.07542969 42.40625 48.53125 C41.77847656 49.68882813 41.15070313 50.84640625 40.50390625 52.0390625 C31.84531451 67.81171775 31.84531451 67.81171775 26.40625 70.53125 C23.83873197 70.6664807 21.29959323 70.74387062 18.73046875 70.76953125 C17.96829544 70.777603 17.20612213 70.78567474 16.42085266 70.79399109 C14.80606357 70.80782975 13.19124526 70.81855289 11.57641602 70.82641602 C9.11352667 70.84361192 6.65198594 70.88749507 4.18945312 70.93164062 C2.61980153 70.94176935 1.05013853 70.95028489 -0.51953125 70.95703125 C-1.25303299 70.97453934 -1.98653473 70.99204742 -2.74226379 71.01008606 C-6.27633103 70.99518585 -8.38505375 70.6605419 -11.41259766 68.78491211 C-13.50521416 66.62272911 -15.04300244 64.63385901 -16.56640625 62.046875 C-17.07365234 61.19351563 -17.58089844 60.34015625 -18.10351562 59.4609375 C-18.61591797 58.57664063 -19.12832031 57.69234375 -19.65625 56.78125 C-20.4306543 55.47800781 -20.4306543 55.47800781 -21.22070312 54.1484375 C-22.70790184 51.62493599 -24.15937774 49.08509503 -25.59375 46.53125 C-26.00995605 45.80099609 -26.42616211 45.07074219 -26.85498047 44.31835938 C-29.05030344 40.258026 -30.39138278 37.24284828 -29.59375 32.53125 C-28.46209739 29.84755323 -27.03538654 27.39656225 -25.53125 24.90625 C-25.12221436 24.20983398 -24.71317871 23.51341797 -24.29174805 22.79589844 C-23.45967761 21.37987055 -22.62319476 19.96642579 -21.78222656 18.55566406 C-20.698156 16.70909194 -19.66312485 14.84627142 -18.6484375 12.9609375 C-18.07351562 11.91164063 -17.49859375 10.86234375 -16.90625 9.78125 C-16.40738281 8.85828125 -15.90851563 7.9353125 -15.39453125 6.984375 C-11.25006207 1.33854714 -6.80184106 0.02337402 0 0 Z " fill="#FCD74B" transform="translate(102.59375,76.46875)"/>
<path d="M0 0 C5.53661982 2.86717812 7.42949623 6.86521837 9.30859375 12.72265625 C13.12077482 30.79282529 7.76636412 56.34940149 -2 72 C-4.1875 72.875 -4.1875 72.875 -6 73 C-8.85349313 68.82415639 -11.63913194 64.6147593 -14.2734375 60.296875 C-20.40677466 50.25502661 -26.94095221 40.86320612 -34.62890625 31.92578125 C-35.86447266 30.47751953 -35.86447266 30.47751953 -37.125 29 C-37.87007813 28.154375 -38.61515625 27.30875 -39.3828125 26.4375 C-41 24 -41 24 -41.5625 21.48828125 C-40.20199951 15.46995619 -32.14101491 11.02437156 -27.10595703 7.77929688 C-18.08515357 2.26696709 -10.88819314 -1.19698017 0 0 Z " fill="#FB4053" transform="translate(162,24)"/>
<path d="M0 0 C2.7189771 1.08149244 3.33606063 2.31852727 4.78857422 4.83740234 C5.29050293 5.68471924 5.79243164 6.53203613 6.30957031 7.4050293 C6.84146973 8.32372803 7.37336914 9.24242676 7.92138672 10.18896484 C12.44603789 17.75233798 17.17076827 25.04559023 22.42138672 32.12646484 C22.97938965 32.8829834 23.53739258 33.63950195 24.11230469 34.41894531 C27.42072363 38.83508066 30.89756995 42.92492517 34.74804688 46.88110352 C36.42616724 49.37935077 36.44544542 50.86045256 36.04638672 53.81396484 C28.40788246 62.38979472 14.98377647 71.86892363 3.46044922 73.08740234 C-1.20396357 73.25725491 -4.20140432 73.21058412 -8.39111328 71.00146484 C-14.59644686 64.52633415 -15.50137987 55.55744179 -15.35595703 46.99365234 C-14.80899032 33.74214075 -10.80157596 21.32423511 -6.625 8.84472656 C-6.01904207 7.01186909 -5.4544568 5.16545911 -4.89501953 3.31787109 C-3.77642371 0.34268469 -3.18810643 -0.30359124 0 0 Z " fill="#FB4053" transform="translate(67.95361328125,128.18603515625)"/>
<path d="M0 0 C10.01208975 2.93640795 19.25100688 9.41714134 26.7734375 16.5234375 C26.7734375 17.1834375 26.7734375 17.8434375 26.7734375 18.5234375 C27.33289063 18.74644531 27.89234375 18.96945313 28.46875 19.19921875 C33.47862069 22.07777157 36.99363402 27.22739712 40.7734375 31.5234375 C41.43988281 32.22984375 42.10632813 32.93625 42.79296875 33.6640625 C44.4609375 35.4609375 44.4609375 35.4609375 46.7734375 38.5234375 C46.2947141 42.0021609 46.2947141 42.0021609 44.7734375 43.5234375 C42.32127397 43.7187544 39.89020762 43.85467624 37.43359375 43.953125 C35.88758897 44.02501868 34.34160998 44.09746834 32.7956543 44.17041016 C31.5788649 44.22591034 31.5788649 44.22591034 30.3374939 44.28253174 C18.12608921 44.84832836 6.13080882 45.46616023 -5.87109375 47.9375 C-9.47128736 48.56617176 -12.58433298 48.90128037 -16.2265625 48.5234375 C-19.39385303 45.95374896 -19.73170953 42.82483599 -20.20263672 38.88842773 C-20.27240723 38.16985596 -20.34217773 37.45128418 -20.4140625 36.7109375 C-20.53031982 35.58957397 -20.53031982 35.58957397 -20.64892578 34.44555664 C-22.85597884 11.47037682 -22.85597884 11.47037682 -15.94140625 2.9375 C-11.22095691 -1.822396 -6.07683569 -1.30065606 0 0 Z " fill="#FA4053" transform="translate(75.2265625,23.4765625)"/>
<path d="M0 0 C2.73494626 2.73494626 2.70588677 5.50267033 3.125 9.1875 C3.2077417 9.897854 3.2904834 10.60820801 3.37573242 11.34008789 C4.63163185 23.00717419 5.88022286 34.90149402 -1.0625 45 C-3.4612005 47.47607794 -4.34768933 47.95255922 -7.79296875 48.203125 C-14.2781304 48.29267844 -19.24870505 48.30166932 -25 45 C-25.80566406 44.54753906 -26.61132812 44.09507812 -27.44140625 43.62890625 C-35.22905476 39.00949028 -41.53624854 33.26065544 -48 27 C-48.84046875 26.19949219 -49.6809375 25.39898437 -50.546875 24.57421875 C-62.85414001 12.61799989 -62.85414001 12.61799989 -63.15234375 7.265625 C-63.10207031 6.51796875 -63.05179687 5.7703125 -63 5 C-60.17019419 3.58509709 -57.74116795 3.83574158 -54.578125 3.7890625 C-53.23883709 3.76298875 -51.89956325 3.73618463 -50.56030273 3.70874023 C-49.85638397 3.69543671 -49.15246521 3.68213318 -48.42721558 3.66842651 C-35.91355747 3.4188304 -23.74674122 2.62107353 -11.37109375 0.62109375 C-7.54275035 0.02988542 -3.88144197 -0.27474814 0 0 Z " fill="#FB4053" transform="translate(168,153)"/>
<path d="M0 0 C5.92755854 -0.60795472 9.83310388 1.45029799 15 4 C16.12535156 4.52078125 17.25070313 5.0415625 18.41015625 5.578125 C35.69941027 13.7013744 35.69941027 13.7013744 39 22 C39.81237176 27.11038514 39.42619034 31.81600409 36.5234375 36.2421875 C28.06283908 46.00441645 17.26209735 50.20323323 5.1875 53.625 C4.17107422 53.9240625 3.15464844 54.223125 2.10742188 54.53125 C-6.79162063 57.09490023 -15.68500961 59.41399957 -25 59 C-25.71484375 57.38671875 -25.71484375 57.38671875 -26 55 C-24.62890625 52.14453125 -24.62890625 52.14453125 -22.5625 48.8125 C-16.15717191 38.1468576 -11.19823735 26.80807104 -6.1875 15.4375 C-5.90962646 14.80730957 -5.63175293 14.17711914 -5.34545898 13.52783203 C-3.40578237 9.07017547 -1.67807619 4.56053738 0 0 Z " fill="#FB4053" transform="translate(174,85)"/>
<path d="M0 0 C1.32451172 0.01353516 1.32451172 0.01353516 2.67578125 0.02734375 C3.67158203 0.04474609 3.67158203 0.04474609 4.6875 0.0625 C5.90495611 3.61426828 5.73403819 3.9663908 3.94921875 7.65234375 C3.1006 9.10711876 2.24176603 10.55596372 1.375 12 C-6.46381699 25.58486124 -13.54996987 39.58892317 -18.375 54.54296875 C-19.3125 57.0625 -19.3125 57.0625 -21.3125 59.0625 C-27.97806329 58.9206795 -33.41507206 55.94226193 -39.3125 53.0625 C-40.19808594 52.65644531 -41.08367188 52.25039062 -41.99609375 51.83203125 C-48.88800752 48.59062888 -56.37562614 44.49106328 -59.3125 37.0625 C-60.11358501 31.76532538 -59.74435286 27.31868262 -56.67578125 22.7421875 C-44.80795169 8.11993331 -18.49165864 -0.24655545 0 0 Z " fill="#FB4053" transform="translate(71.3125,79.9375)"/>
</svg>
