<svg version="1.1" id="Layer_1" xmlns="http://www.w3.org/2000/svg" xmlns:xlink="http://www.w3.org/1999/xlink" x="0px" y="0px"
	 width="100%" viewBox="0 0 225 225" enable-background="new 0 0 225 225" xml:space="preserve">
<path fill="#FEFFFF" opacity="1.000000" stroke="none" 
	d="
M1.000000,88.000000 
	C1.000000,58.666672 1.000000,29.833344 1.000000,1.000012 
	C75.999977,1.000008 150.999954,1.000008 225.999969,1.000004 
	C226.000000,38.499973 226.000000,75.999947 226.000000,113.499924 
	C226.000000,150.999924 226.000000,188.499908 226.000000,225.999939 
	C151.000046,225.999954 76.000092,225.999954 1.000068,225.999969 
	C1.000000,180.166672 1.000000,134.333328 1.000000,88.000000 
M172.114365,28.499594 
	C168.025467,22.152273 162.071045,19.056387 154.720047,20.116894 
	C149.384857,20.886589 143.719757,22.073307 139.124191,24.692532 
	C130.078400,29.848124 121.674026,36.129135 112.586273,42.225033 
	C111.383537,41.187214 109.416832,39.417168 107.373978,37.739883 
	C97.791977,29.872641 87.725883,22.883503 75.199600,20.530857 
	C63.723885,18.375521 54.861427,23.151665 51.561134,34.369713 
	C49.762341,40.484009 48.976192,47.128391 49.079048,53.512020 
	C49.211739,61.747543 50.691093,69.961365 51.617573,78.432076 
	C50.221619,78.891647 48.658401,79.385262 47.109238,79.919624 
	C34.759872,84.179390 22.810465,89.173981 13.910355,99.293488 
	C6.052530,108.227913 5.725977,118.381836 13.755124,127.156532 
	C17.957674,131.749313 23.015430,135.890686 28.404846,138.985931 
	C35.817459,143.243118 43.910187,146.316086 51.940140,150.001343 
	C51.824860,150.669037 51.689438,151.638657 51.487637,152.594269 
	C48.748280,165.566086 47.121319,178.586792 51.040356,191.592621 
	C54.694008,203.717728 64.083336,209.148056 76.497757,206.425049 
	C79.878288,205.683548 83.455070,204.889862 86.372902,203.160370 
	C95.755630,197.598892 104.872513,191.588928 114.708801,185.361389 
	C115.321472,185.897598 116.912292,187.323975 118.539101,188.708054 
	C127.719826,196.518829 137.322952,203.613892 149.382523,206.385162 
	C162.213058,209.333572 171.345352,204.409866 175.315155,191.783340 
	C176.889191,186.776917 177.922409,181.346420 177.841766,176.130035 
	C177.701416,167.051483 176.505554,157.989243 175.719772,148.529953 
	C176.768219,148.165787 178.319794,147.643478 179.859894,147.089325 
	C192.641312,142.490158 204.921417,137.037292 213.701462,126.051430 
	C220.018448,118.147408 220.294220,109.216881 213.959930,101.337448 
	C210.882172,97.508926 207.208267,93.720840 202.999847,91.330986 
	C194.102417,86.278374 184.676285,82.156807 174.838669,77.346069 
	C175.314865,74.571167 176.074997,70.871559 176.568008,67.136681 
	C178.282730,54.147022 179.021988,41.239708 172.114365,28.499594 
z"/>
<path fill="#05D8FF" opacity="1.000000" stroke="none" 
	d="
M172.315643,28.808235 
	C179.021988,41.239708 178.282730,54.147022 176.568008,67.136681 
	C176.074997,70.871559 175.314865,74.571167 174.838669,77.346069 
	C184.676285,82.156807 194.102417,86.278374 202.999847,91.330986 
	C207.208267,93.720840 210.882172,97.508926 213.959930,101.337448 
	C220.294220,109.216881 220.018448,118.147408 213.701462,126.051430 
	C204.921417,137.037292 192.641312,142.490158 179.859894,147.089325 
	C178.319794,147.643478 176.768219,148.165787 175.719772,148.529953 
	C176.505554,157.989243 177.701416,167.051483 177.841766,176.130035 
	C177.922409,181.346420 176.889191,186.776917 175.315155,191.783340 
	C171.345352,204.409866 162.213058,209.333572 149.382523,206.385162 
	C137.322952,203.613892 127.719826,196.518829 118.539101,188.708054 
	C116.912292,187.323975 115.321472,185.897598 114.708801,185.361389 
	C104.872513,191.588928 95.755630,197.598892 86.372902,203.160370 
	C83.455070,204.889862 79.878288,205.683548 76.497757,206.425049 
	C64.083336,209.148056 54.694008,203.717728 51.040356,191.592621 
	C47.121319,178.586792 48.748280,165.566086 51.487637,152.594269 
	C51.689438,151.638657 51.824860,150.669037 51.940140,150.001343 
	C43.910187,146.316086 35.817459,143.243118 28.404846,138.985931 
	C23.015430,135.890686 17.957674,131.749313 13.755124,127.156532 
	C5.725977,118.381836 6.052530,108.227913 13.910355,99.293488 
	C22.810465,89.173981 34.759872,84.179390 47.109238,79.919624 
	C48.658401,79.385262 50.221619,78.891647 51.617573,78.432076 
	C50.691093,69.961365 49.211739,61.747543 49.079048,53.512020 
	C48.976192,47.128391 49.762341,40.484009 51.561134,34.369713 
	C54.861427,23.151665 63.723885,18.375521 75.199600,20.530857 
	C87.725883,22.883503 97.791977,29.872641 107.373978,37.739883 
	C109.416832,39.417168 111.383537,41.187214 112.586273,42.225033 
	C121.674026,36.129135 130.078400,29.848124 139.124191,24.692532 
	C143.719757,22.073307 149.384857,20.886589 154.720047,20.116894 
	C162.071045,19.056387 168.025467,22.152273 172.315643,28.808235 
M84.258057,131.222382 
	C86.990837,135.586548 89.553696,140.072937 92.554207,144.244522 
	C93.524185,145.593063 95.628044,146.862000 97.239082,146.894730 
	C108.199333,147.117416 119.167862,147.079071 130.129654,146.890137 
	C131.464142,146.867126 133.321899,145.770508 134.009613,144.617981 
	C139.620850,135.214279 145.110428,125.732971 150.359848,116.123871 
	C151.124969,114.723328 151.074402,112.162117 150.294586,110.748466 
	C145.166122,101.451660 139.866150,92.240547 134.276855,83.215317 
	C133.295120,81.630066 130.709915,80.205429 128.823730,80.151207 
	C118.530762,79.855362 108.218803,79.829063 97.928497,80.168549 
	C95.922417,80.234734 93.250908,81.851311 92.140396,83.565292 
	C87.452118,90.801201 83.458427,98.486832 78.777000,105.727585 
	C75.373596,110.991646 74.592026,115.713112 78.602989,121.020279 
	C80.781693,123.903084 82.210464,127.352646 84.258057,131.222382 
M55.776146,137.318069 
	C58.392185,130.506638 61.019547,123.699501 63.613750,116.879761 
	C64.076485,115.663307 65.052734,114.147690 64.688957,113.188499 
	C61.369423,104.435814 57.805645,95.775764 54.299889,87.055542 
	C42.910282,90.464127 32.210804,94.510147 23.440725,102.308739 
	C14.967947,109.842949 14.843452,116.469337 23.025389,124.253716 
	C31.294197,132.120743 41.538555,136.474213 52.252087,139.785095 
	C53.067226,140.037003 54.381222,138.674683 55.776146,137.318069 
M86.066208,193.720001 
	C93.250023,188.775818 100.433830,183.831650 107.634560,178.875809 
	C101.415756,171.001617 96.005363,164.099411 90.513222,157.262878 
	C89.834053,156.417465 88.781586,155.469223 87.797318,155.334579 
	C78.964813,154.126465 70.108833,153.089890 60.711506,151.935547 
	C59.948441,155.809601 58.933586,159.633636 58.481647,163.523087 
	C57.424454,172.621536 56.682175,181.772781 60.176933,190.577927 
	C62.484604,196.392151 65.665169,198.763077 71.621132,197.945099 
	C76.294991,197.303207 80.791351,195.368805 86.066208,193.720001 
M165.629898,35.103779 
	C161.847031,29.234240 158.925568,27.627556 152.275467,29.219509 
	C139.258499,32.335606 129.308792,40.450256 120.020515,49.266151 
	C125.733482,56.579994 131.045120,63.397369 136.387512,70.190559 
	C136.879242,70.815842 137.508911,71.670807 138.172791,71.771545 
	C147.302353,73.156837 156.449203,74.428360 165.885040,75.769485 
	C168.625839,62.284344 171.046448,49.080063 165.629898,35.103779 
M145.763336,195.936310 
	C148.311691,196.630173 150.821335,197.620590 153.416046,197.959457 
	C159.871964,198.802582 163.468353,197.226913 165.740082,191.968994 
	C171.581390,178.449158 169.197433,164.848557 166.291656,151.428040 
	C157.055313,152.710434 148.526871,153.846939 140.020615,155.130524 
	C138.840561,155.308594 137.412476,155.930450 136.705597,156.825684 
	C131.198959,163.799561 125.840874,170.890717 119.531311,179.127869 
	C128.185913,184.738876 136.611343,190.201324 145.763336,195.936310 
M90.247406,36.162048 
	C84.926865,33.889606 79.757637,31.105690 74.247093,29.475534 
	C67.517365,27.484716 62.716442,29.818174 60.454670,35.915684 
	C55.495682,49.284641 57.905590,62.574265 61.028103,75.737823 
	C70.153503,74.413696 78.682755,73.213310 87.193268,71.892197 
	C88.212791,71.733925 89.418953,71.153076 90.050240,70.372910 
	C95.667061,63.431564 101.173912,56.401237 107.122559,48.879505 
	C101.675644,44.766998 96.258606,40.677048 90.247406,36.162048 
M195.552963,96.871506 
	C187.932373,93.401115 180.311768,89.930725 172.658066,86.445259 
	C168.951416,95.591751 165.633331,103.701904 162.409988,111.849541 
	C162.076431,112.692673 161.991882,113.887070 162.323822,114.701721 
	C165.743698,123.095131 169.273193,131.443863 172.882141,140.067795 
	C176.858490,138.615387 180.822388,137.405624 184.586716,135.743820 
	C192.830719,132.104385 200.832779,127.990967 206.562607,120.691574 
	C210.786453,115.310669 210.903992,110.969742 206.358337,105.941261 
	C203.387192,102.654549 199.610825,100.095741 195.552963,96.871506 
M118.305382,156.215973 
	C112.862854,156.215973 107.420326,156.215973 100.774071,156.215973 
	C105.345169,161.716614 109.300735,166.476547 113.692955,171.761932 
	C117.987991,166.463364 121.874207,161.669128 126.310753,156.195984 
	C123.162880,156.195984 121.198112,156.195984 118.305382,156.215973 
M157.755722,126.112556 
	C157.399292,125.561928 157.042847,125.011299 156.512787,124.192474 
	C152.477203,131.282028 148.559967,138.163666 144.125534,145.953903 
	C151.224945,144.727341 157.165939,143.700912 163.929596,142.532364 
	C161.786438,136.849533 159.888321,131.816406 157.755722,126.112556 
M74.538971,144.923279 
	C76.945572,145.210617 79.352165,145.497940 82.539970,145.878555 
	C78.282425,138.503876 74.388466,131.758972 69.940651,124.054733 
	C67.519440,130.770844 65.437294,136.546432 63.213829,142.714020 
	C67.239677,143.536392 70.462997,144.194839 74.538971,144.923279 
M115.017395,57.651146 
	C114.118118,57.476128 112.710587,56.845535 112.396935,57.195454 
	C108.594627,61.437321 104.953552,65.823708 100.918953,70.587662 
	C109.570534,70.587662 117.213623,70.587662 125.799561,70.587662 
	C121.994667,65.990532 118.746925,62.066551 115.017395,57.651146 
M160.860657,92.324364 
	C161.629318,89.880135 162.397964,87.435898 163.314240,84.522247 
	C156.857574,83.474556 151.079056,82.536919 144.185898,81.418404 
	C148.661270,89.167816 152.483063,95.785530 156.667252,103.030746 
	C158.164017,99.211998 159.370758,96.133163 160.860657,92.324364 
M68.112053,98.199318 
	C68.750481,99.610962 69.388908,101.022614 70.192329,102.799072 
	C74.302147,95.597343 78.065681,89.002411 82.425842,81.362015 
	C75.610481,82.512077 69.749405,83.501114 63.227966,84.601585 
	C64.997597,89.436348 66.468826,93.455833 68.112053,98.199318 
z"/>
<path fill="#FBFEFF" opacity="1.000000" stroke="none" 
	d="
M84.117783,130.884476 
	C82.210464,127.352646 80.781693,123.903084 78.602989,121.020279 
	C74.592026,115.713112 75.373596,110.991646 78.777000,105.727585 
	C83.458427,98.486832 87.452118,90.801201 92.140396,83.565292 
	C93.250908,81.851311 95.922417,80.234734 97.928497,80.168549 
	C108.218803,79.829063 118.530762,79.855362 128.823730,80.151207 
	C130.709915,80.205429 133.295120,81.630066 134.276855,83.215317 
	C139.866150,92.240547 145.166122,101.451660 150.294586,110.748466 
	C151.074402,112.162117 151.124969,114.723328 150.359848,116.123871 
	C145.110428,125.732971 139.620850,135.214279 134.009613,144.617981 
	C133.321899,145.770508 131.464142,146.867126 130.129654,146.890137 
	C119.167862,147.079071 108.199333,147.117416 97.239082,146.894730 
	C95.628044,146.862000 93.524185,145.593063 92.554207,144.244522 
	C89.553696,140.072937 86.990837,135.586548 84.117783,130.884476 
M125.422958,98.976845 
	C123.551796,97.926056 121.774651,96.632339 119.793549,95.865646 
	C110.135704,92.128044 99.554794,97.025101 95.800148,106.843468 
	C92.142250,116.408844 97.123260,127.341682 106.752640,130.883102 
	C114.902489,133.880371 123.891182,131.045532 128.764954,123.940872 
	C134.061310,116.220215 133.032883,107.122818 125.422958,98.976845 
z"/>
<path fill="#FCFEFF" opacity="1.000000" stroke="none" 
	d="
M55.619743,137.690384 
	C54.381222,138.674683 53.067226,140.037003 52.252087,139.785095 
	C41.538555,136.474213 31.294197,132.120743 23.025389,124.253716 
	C14.843452,116.469337 14.967947,109.842949 23.440725,102.308739 
	C32.210804,94.510147 42.910282,90.464127 54.299889,87.055542 
	C57.805645,95.775764 61.369423,104.435814 64.688957,113.188499 
	C65.052734,114.147690 64.076485,115.663307 63.613750,116.879761 
	C61.019547,123.699501 58.392185,130.506638 55.619743,137.690384 
z"/>
<path fill="#FCFEFF" opacity="1.000000" stroke="none" 
	d="
M85.716385,193.864319 
	C80.791351,195.368805 76.294991,197.303207 71.621132,197.945099 
	C65.665169,198.763077 62.484604,196.392151 60.176933,190.577927 
	C56.682175,181.772781 57.424454,172.621536 58.481647,163.523087 
	C58.933586,159.633636 59.948441,155.809601 60.711506,151.935547 
	C70.108833,153.089890 78.964813,154.126465 87.797318,155.334579 
	C88.781586,155.469223 89.834053,156.417465 90.513222,157.262878 
	C96.005363,164.099411 101.415756,171.001617 107.634560,178.875809 
	C100.433830,183.831650 93.250023,188.775818 85.716385,193.864319 
z"/>
<path fill="#FCFEFF" opacity="1.000000" stroke="none" 
	d="
M165.787766,35.459106 
	C171.046448,49.080063 168.625839,62.284344 165.885040,75.769485 
	C156.449203,74.428360 147.302353,73.156837 138.172791,71.771545 
	C137.508911,71.670807 136.879242,70.815842 136.387512,70.190559 
	C131.045120,63.397369 125.733482,56.579994 120.020515,49.266151 
	C129.308792,40.450256 139.258499,32.335606 152.275467,29.219509 
	C158.925568,27.627556 161.847031,29.234240 165.787766,35.459106 
z"/>
<path fill="#FCFFFF" opacity="1.000000" stroke="none" 
	d="
M145.400055,195.800034 
	C136.611343,190.201324 128.185913,184.738876 119.531311,179.127869 
	C125.840874,170.890717 131.198959,163.799561 136.705597,156.825684 
	C137.412476,155.930450 138.840561,155.308594 140.020615,155.130524 
	C148.526871,153.846939 157.055313,152.710434 166.291656,151.428040 
	C169.197433,164.848557 171.581390,178.449158 165.740082,191.968994 
	C163.468353,197.226913 159.871964,198.802582 153.416046,197.959457 
	C150.821335,197.620590 148.311691,196.630173 145.400055,195.800034 
z"/>
<path fill="#FCFEFF" opacity="1.000000" stroke="none" 
	d="
M90.544487,36.374573 
	C96.258606,40.677048 101.675644,44.766998 107.122559,48.879505 
	C101.173912,56.401237 95.667061,63.431564 90.050240,70.372910 
	C89.418953,71.153076 88.212791,71.733925 87.193268,71.892197 
	C78.682755,73.213310 70.153503,74.413696 61.028103,75.737823 
	C57.905590,62.574265 55.495682,49.284641 60.454670,35.915684 
	C62.716442,29.818174 67.517365,27.484716 74.247093,29.475534 
	C79.757637,31.105690 84.926865,33.889606 90.544487,36.374573 
z"/>
<path fill="#FCFEFF" opacity="1.000000" stroke="none" 
	d="
M195.874054,97.041199 
	C199.610825,100.095741 203.387192,102.654549 206.358337,105.941261 
	C210.903992,110.969742 210.786453,115.310669 206.562607,120.691574 
	C200.832779,127.990967 192.830719,132.104385 184.586716,135.743820 
	C180.822388,137.405624 176.858490,138.615387 172.882141,140.067795 
	C169.273193,131.443863 165.743698,123.095131 162.323822,114.701721 
	C161.991882,113.887070 162.076431,112.692673 162.409988,111.849541 
	C165.633331,103.701904 168.951416,95.591751 172.658066,86.445259 
	C180.311768,89.930725 187.932373,93.401115 195.874054,97.041199 
z"/>
<path fill="#F0FCFF" opacity="1.000000" stroke="none" 
	d="
M118.769363,156.205978 
	C121.198112,156.195984 123.162880,156.195984 126.310753,156.195984 
	C121.874207,161.669128 117.987991,166.463364 113.692955,171.761932 
	C109.300735,166.476547 105.345169,161.716614 100.774071,156.215973 
	C107.420326,156.215973 112.862854,156.215973 118.769363,156.205978 
z"/>
<path fill="#F5FDFF" opacity="1.000000" stroke="none" 
	d="
M157.872955,126.447922 
	C159.888321,131.816406 161.786438,136.849533 163.929596,142.532364 
	C157.165939,143.700912 151.224945,144.727341 144.125534,145.953903 
	C148.559967,138.163666 152.477203,131.282028 156.512787,124.192474 
	C157.042847,125.011299 157.399292,125.561928 157.872955,126.447922 
z"/>
<path fill="#F5FDFF" opacity="1.000000" stroke="none" 
	d="
M74.112648,144.888275 
	C70.462997,144.194839 67.239677,143.536392 63.213829,142.714020 
	C65.437294,136.546432 67.519440,130.770844 69.940651,124.054733 
	C74.388466,131.758972 78.282425,138.503876 82.539970,145.878555 
	C79.352165,145.497940 76.945572,145.210617 74.112648,144.888275 
z"/>
<path fill="#F1FDFF" opacity="1.000000" stroke="none" 
	d="
M115.258286,57.896858 
	C118.746925,62.066551 121.994667,65.990532 125.799561,70.587662 
	C117.213623,70.587662 109.570534,70.587662 100.918953,70.587662 
	C104.953552,65.823708 108.594627,61.437321 112.396935,57.195454 
	C112.710587,56.845535 114.118118,57.476128 115.258286,57.896858 
z"/>
<path fill="#F3FDFF" opacity="1.000000" stroke="none" 
	d="
M160.719086,92.689346 
	C159.370758,96.133163 158.164017,99.211998 156.667252,103.030746 
	C152.483063,95.785530 148.661270,89.167816 144.185898,81.418404 
	C151.079056,82.536919 156.857574,83.474556 163.314240,84.522247 
	C162.397964,87.435898 161.629318,89.880135 160.719086,92.689346 
z"/>
<path fill="#F5FDFF" opacity="1.000000" stroke="none" 
	d="
M68.026047,97.837318 
	C66.468826,93.455833 64.997597,89.436348 63.227966,84.601585 
	C69.749405,83.501114 75.610481,82.512077 82.425842,81.362015 
	C78.065681,89.002411 74.302147,95.597343 70.192329,102.799072 
	C69.388908,101.022614 68.750481,99.610962 68.026047,97.837318 
z"/>
<path fill="#02D8FF" opacity="1.000000" stroke="none" 
	d="
M125.709076,99.208313 
	C133.032883,107.122818 134.061310,116.220215 128.764954,123.940872 
	C123.891182,131.045532 114.902489,133.880371 106.752640,130.883102 
	C97.123260,127.341682 92.142250,116.408844 95.800148,106.843468 
	C99.554794,97.025101 110.135704,92.128044 119.793549,95.865646 
	C121.774651,96.632339 123.551796,97.926056 125.709076,99.208313 
z"/>
</svg>