<?xml version="1.0" encoding="UTF-8"?>
<svg version="1.1" xmlns="http://www.w3.org/2000/svg" width="225" height="224">
<path d="M0 0 C74.25 0 148.5 0 225 0 C225 73.92 225 147.84 225 224 C150.75 224 76.5 224 0 224 C0 150.08 0 76.16 0 0 Z " fill="#7C7C7C" transform="translate(0,0)"/>
<path d="M0 0 C74.25 0 148.5 0 225 0 C225 73.92 225 147.84 225 224 C150.75 224 76.5 224 0 224 C0 150.08 0 76.16 0 0 Z M24.4609375 30.953125 C20.76791748 36.61143637 18.75562728 42.03394487 18.73257446 48.85528564 C18.72404449 50.00182114 18.71551453 51.14835663 18.70672607 52.32963562 C18.70763245 53.57340469 18.70853882 54.81717377 18.70947266 56.09863281 C18.7034826 57.43303298 18.69667595 58.76742969 18.68911743 60.1018219 C18.6714963 63.71567781 18.66676363 67.32943891 18.66548586 70.94333363 C18.66406121 73.20517008 18.65978563 75.46698266 18.65449142 77.72881317 C18.63600225 85.63123597 18.6278192 93.53359144 18.62939453 101.43603516 C18.63059483 108.78307783 18.6095117 116.12982622 18.5779072 123.47679448 C18.5516845 129.799751 18.54102978 136.12261178 18.54230535 142.44562221 C18.54281333 146.21527002 18.53722175 149.98465629 18.51594925 153.75424957 C18.49646589 157.30355811 18.49651031 160.85235837 18.51098251 164.40168571 C18.51404277 166.31056582 18.497464 168.21944652 18.48010254 170.12825012 C18.55237055 180.10240722 20.86107918 189.62672067 28 197 C34.42295163 202.15025566 40.57368951 205.23960852 48.9379425 205.26742554 C50.68515594 205.28022049 50.68515594 205.28022049 52.46766663 205.29327393 C53.73170822 205.29236755 54.99574982 205.29146118 56.2980957 205.29052734 C57.65382251 205.29651716 59.00954592 205.30332374 60.36526489 205.31088257 C64.03690275 205.32850449 67.70844731 205.33323635 71.38012338 205.33451414 C73.67746394 205.33593854 75.974781 205.34021362 78.27211571 205.34550858 C86.29657871 205.36399677 94.32097539 205.37218077 102.34545898 205.37060547 C109.8095352 205.36940463 117.273322 205.39049859 124.73732501 205.4220928 C131.15877869 205.44829931 137.58013809 205.45897093 144.00164479 205.45769465 C147.83106275 205.45718627 151.66022339 205.46280039 155.48958778 205.48405075 C159.09388286 205.50350711 162.6976771 205.50350784 166.30199051 205.48901749 C168.24326777 205.48595113 170.18454547 205.50255427 172.12574768 205.51989746 C182.24012381 205.44757874 190.38984962 202.83010997 198 196 C205.84069356 187.49881323 206.44451028 177.64019959 206.40405273 166.54492188 C206.40976589 165.20845472 206.41673379 163.87199244 206.42485046 162.53553772 C206.44269078 158.93013821 206.44163112 155.32498327 206.43590808 151.71955299 C206.43280357 148.70025832 206.43892249 145.68100978 206.44494683 142.66172171 C206.45895985 135.53534654 206.45745714 128.40909134 206.44604492 121.28271484 C206.43456088 113.94977558 206.44865131 106.61720193 206.4754414 99.28431082 C206.49764353 92.96894059 206.50422582 86.65368475 206.49836498 80.33827829 C206.49500568 76.57487121 206.49734192 72.81169855 206.51461601 69.04832458 C206.53015603 65.50880517 206.5260526 61.96982512 206.50731087 58.43032646 C206.50190694 56.52487711 206.51608441 54.61940311 206.53100586 52.71400452 C206.44544868 42.69067255 203.78029354 34.53365949 197 27 C188.48074102 19.31596249 179.52592759 18.55636577 168.47485352 18.59594727 C167.11882975 18.59023617 165.7628108 18.58326906 164.40679932 18.57514954 C160.74349246 18.55728464 157.080426 18.5583738 153.41708875 18.56409192 C150.35062325 18.56719343 147.28420329 18.56108068 144.21774429 18.55505317 C136.97967797 18.54103152 129.74172975 18.54254956 122.50366211 18.55395508 C115.05429816 18.56543466 107.6052943 18.55135814 100.15597779 18.5245586 C93.74296437 18.50235718 87.33006363 18.49577418 80.91701454 18.50163502 C77.09434914 18.50499513 73.27191451 18.50265286 69.44928169 18.48538399 C65.85314491 18.46984563 62.25753906 18.47394567 58.66142273 18.49268913 C56.72495176 18.49809448 54.78845656 18.48391354 52.85203552 18.46899414 C41.79593045 18.56189339 31.54727889 21.96030597 24.4609375 30.953125 Z " fill="#FEFEFE" transform="translate(0,0)"/>
<path d="M0 0 C4.65210955 2.81064952 4.65210955 2.81064952 5.625 6.13671875 C5.74875 6.75160156 5.8725 7.36648437 6 8 C6.77601562 7.97905273 7.55203125 7.95810547 8.3515625 7.93652344 C11.90090748 7.85287241 15.45004435 7.80118371 19 7.75 C20.22074219 7.71648438 21.44148438 7.68296875 22.69921875 7.6484375 C29.9837163 7.56968618 34.85446663 7.97134284 41 12 C45.9024623 17.27957479 46.15560937 20.93141077 46.17700195 27.9284668 C46.18357315 28.85385757 46.19014435 29.77924835 46.19691467 30.73268127 C46.21667554 33.80486121 46.22831762 36.87699215 46.23828125 39.94921875 C46.24235678 40.99777353 46.2464323 42.04632832 46.25063133 43.12665749 C46.27150581 48.67843047 46.28580052 54.23017865 46.29516602 59.78198242 C46.30622212 65.51421962 46.34060912 71.24606775 46.38033772 76.97816753 C46.40649952 81.38687354 46.41485758 85.79548689 46.41844749 90.20426369 C46.42331602 92.31693964 46.43493752 94.42961139 46.45348549 96.54221153 C46.47786297 99.50330647 46.47691404 102.46339574 46.4699707 105.42456055 C46.48278076 106.29392242 46.49559082 107.1632843 46.50878906 108.05899048 C46.45929771 113.86419283 45.37007599 117.23724043 42 122 C36.21570454 126.5792339 31.78526261 127.14873375 24.60449219 127.19287109 C23.49635414 127.20513733 23.49635414 127.20513733 22.36582947 127.21765137 C19.92618605 127.24241932 17.48660052 127.2589997 15.046875 127.2734375 C14.21102119 127.27876118 13.37516739 127.28408485 12.51398468 127.28956985 C8.08924783 127.31626475 3.66453883 127.33565086 -0.76025391 127.35009766 C-4.41317823 127.36343098 -8.06554316 127.39127715 -11.71826172 127.43212891 C-16.13849579 127.48155652 -20.55822302 127.50623078 -24.97872162 127.51332474 C-26.65798226 127.52001871 -28.3372324 127.53519237 -30.01633453 127.55921555 C-45.76138312 127.77162323 -45.76138312 127.77162323 -51.47406006 123.75894165 C-56.62412097 117.8224979 -57.58919534 113.12195172 -57.51757812 105.48803711 C-57.5245874 104.56030991 -57.53159668 103.6325827 -57.53881836 102.67674255 C-57.55634627 99.62663364 -57.54479488 96.5774612 -57.53125 93.52734375 C-57.53394617 91.39937666 -57.53782964 89.27141076 -57.54284668 87.14344788 C-57.54873449 82.69080844 -57.54020081 78.23849064 -57.52148438 73.78588867 C-57.49868163 68.08387915 -57.51183121 62.38262223 -57.53577423 56.68064022 C-57.55023958 52.28909144 -57.54562301 47.89772064 -57.53526306 43.50616646 C-57.53259855 41.40385409 -57.53585582 39.30152547 -57.54518127 37.1992321 C-57.55536031 34.25990963 -57.53982699 31.32180063 -57.51757812 28.38256836 C-57.52567505 27.51746643 -57.53377197 26.6523645 -57.54211426 25.76104736 C-57.45486223 19.52700652 -55.81498241 15.88030011 -51.36914062 11.33129883 C-44.87358846 6.83088847 -38.14198459 7.43509705 -30.5 7.6875 C-28.5509375 7.72133789 -28.5509375 7.72133789 -26.5625 7.75585938 C-23.37379503 7.81447528 -20.18751068 7.89648871 -17 8 C-16.72285156 7.22398438 -16.44570312 6.44796875 -16.16015625 5.6484375 C-13.02169694 -1.51612617 -6.7020796 -1.93780202 0 0 Z " fill="#7C7C7C" transform="translate(118,49)"/>
<path d="M0 0 C4.65210955 2.81064952 4.65210955 2.81064952 5.625 6.13671875 C5.74875 6.75160156 5.8725 7.36648437 6 8 C6.77601562 7.97905273 7.55203125 7.95810547 8.3515625 7.93652344 C11.90090748 7.85287241 15.45004435 7.80118371 19 7.75 C20.22074219 7.71648438 21.44148438 7.68296875 22.69921875 7.6484375 C29.9837163 7.56968618 34.85446663 7.97134284 41 12 C45.9024623 17.27957479 46.15560937 20.93141077 46.17700195 27.9284668 C46.18357315 28.85385757 46.19014435 29.77924835 46.19691467 30.73268127 C46.21667554 33.80486121 46.22831762 36.87699215 46.23828125 39.94921875 C46.24235678 40.99777353 46.2464323 42.04632832 46.25063133 43.12665749 C46.27150581 48.67843047 46.28580052 54.23017865 46.29516602 59.78198242 C46.30622212 65.51421962 46.34060912 71.24606775 46.38033772 76.97816753 C46.40649952 81.38687354 46.41485758 85.79548689 46.41844749 90.20426369 C46.42331602 92.31693964 46.43493752 94.42961139 46.45348549 96.54221153 C46.47786297 99.50330647 46.47691404 102.46339574 46.4699707 105.42456055 C46.48278076 106.29392242 46.49559082 107.1632843 46.50878906 108.05899048 C46.45929771 113.86419283 45.37007599 117.23724043 42 122 C36.21570454 126.5792339 31.78526261 127.14873375 24.60449219 127.19287109 C23.49635414 127.20513733 23.49635414 127.20513733 22.36582947 127.21765137 C19.92618605 127.24241932 17.48660052 127.2589997 15.046875 127.2734375 C14.21102119 127.27876118 13.37516739 127.28408485 12.51398468 127.28956985 C8.08924783 127.31626475 3.66453883 127.33565086 -0.76025391 127.35009766 C-4.41317823 127.36343098 -8.06554316 127.39127715 -11.71826172 127.43212891 C-16.13849579 127.48155652 -20.55822302 127.50623078 -24.97872162 127.51332474 C-26.65798226 127.52001871 -28.3372324 127.53519237 -30.01633453 127.55921555 C-45.76138312 127.77162323 -45.76138312 127.77162323 -51.47406006 123.75894165 C-56.62412097 117.8224979 -57.58919534 113.12195172 -57.51757812 105.48803711 C-57.5245874 104.56030991 -57.53159668 103.6325827 -57.53881836 102.67674255 C-57.55634627 99.62663364 -57.54479488 96.5774612 -57.53125 93.52734375 C-57.53394617 91.39937666 -57.53782964 89.27141076 -57.54284668 87.14344788 C-57.54873449 82.69080844 -57.54020081 78.23849064 -57.52148438 73.78588867 C-57.49868163 68.08387915 -57.51183121 62.38262223 -57.53577423 56.68064022 C-57.55023958 52.28909144 -57.54562301 47.89772064 -57.53526306 43.50616646 C-57.53259855 41.40385409 -57.53585582 39.30152547 -57.54518127 37.1992321 C-57.55536031 34.25990963 -57.53982699 31.32180063 -57.51757812 28.38256836 C-57.52567505 27.51746643 -57.53377197 26.6523645 -57.54211426 25.76104736 C-57.45486223 19.52700652 -55.81498241 15.88030011 -51.36914062 11.33129883 C-44.87358846 6.83088847 -38.14198459 7.43509705 -30.5 7.6875 C-28.5509375 7.72133789 -28.5509375 7.72133789 -26.5625 7.75585938 C-23.37379503 7.81447528 -20.18751068 7.89648871 -17 8 C-16.72285156 7.22398438 -16.44570312 6.44796875 -16.16015625 5.6484375 C-13.02169694 -1.51612617 -6.7020796 -1.93780202 0 0 Z M-51 15 C-54.58041502 19.52140321 -54.42752434 23.58461005 -54.38818359 29.10131836 C-54.39344055 30.00924637 -54.39869751 30.91717438 -54.40411377 31.85261536 C-54.417298 34.8485341 -54.40858043 37.84391976 -54.3984375 40.83984375 C-54.40045886 42.92582806 -54.40337082 45.01181168 -54.40713501 47.09779358 C-54.41155638 51.46817762 -54.40513387 55.8383776 -54.39111328 60.20874023 C-54.37403224 65.8053222 -54.38385707 71.40147221 -54.40183067 76.99803829 C-54.41268253 81.30549867 -54.40921552 85.61285702 -54.4014473 89.92032051 C-54.39944862 91.98355727 -54.40189286 94.04680335 -54.40888596 96.11002922 C-54.41652219 98.99669724 -54.40486508 101.88267068 -54.38818359 104.76928711 C-54.39425629 105.61882965 -54.40032898 106.46837219 -54.40658569 107.34365845 C-54.35404187 112.26266764 -53.95476088 115.87175701 -51 120 C-46.01542082 123.63803926 -42.61214117 124.50238474 -36.35571289 124.51757812 C-35.62626968 124.5245874 -34.89682648 124.53159668 -34.14527893 124.53881836 C-31.75400775 124.55630319 -29.36393772 124.54480939 -26.97265625 124.53125 C-25.29788488 124.53394797 -23.62311504 124.53783292 -21.948349 124.54284668 C-18.44563826 124.54872907 -14.94333681 124.54022086 -11.44067383 124.52148438 C-6.96740856 124.49871294 -2.49510436 124.51181394 1.97812557 124.53577423 C5.4347294 124.55028164 8.8911083 124.5456034 12.34771919 124.53526306 C13.99622272 124.53260848 15.64474715 124.53582056 17.29322624 124.54518127 C29.32553502 124.85594735 29.32553502 124.85594735 40 120 C43.29599476 114.92514174 43.43508226 110.63016147 43.40405273 104.78515625 C43.41434761 103.4230452 43.41434761 103.4230452 43.42485046 102.03341675 C43.44309599 99.04295045 43.43928455 96.05300982 43.43359375 93.0625 C43.43815622 90.97794423 43.44346199 88.89338997 43.44947815 86.80883789 C43.45840454 82.44443645 43.45599095 78.08021804 43.44604492 73.71582031 C43.43454869 68.12702535 43.45477945 62.53886159 43.48396206 56.95014954 C43.50231904 52.64697264 43.5020327 48.3439472 43.49632454 44.04074097 C43.4961713 41.9802868 43.50221757 39.91982239 43.51461601 37.85940552 C43.52951661 34.97748323 43.51885603 32.0967298 43.50170898 29.21484375 C43.51137695 28.36687225 43.52104492 27.51890076 43.53100586 26.64523315 C43.46452333 21.30109985 42.56769279 18.22791029 39 14 C32.4517041 9.6344694 24.56606163 10.73708666 17 11 C16.96261719 11.81984375 16.92523438 12.6396875 16.88671875 13.484375 C16.82097656 14.56203125 16.75523437 15.6396875 16.6875 16.75 C16.62949219 17.81734375 16.57148438 18.8846875 16.51171875 19.984375 C15.9293919 23.41610272 15.54261872 24.63776871 13 27 C10.11137301 27.40523354 7.60827374 27.56107562 4.71875 27.53125 C3.5039093 27.53699036 3.5039093 27.53699036 2.26452637 27.54284668 C0.55312862 27.54556724 -1.15831059 27.53819584 -2.86962891 27.52148438 C-5.49085087 27.50007473 -8.10933214 27.52127892 -10.73046875 27.546875 C-12.39323522 27.54423175 -14.05599999 27.53910681 -15.71875 27.53125 C-16.89540222 27.54339539 -16.89540222 27.54339539 -18.0958252 27.55578613 C-23.50216387 27.46251688 -23.50216387 27.46251688 -25.9855957 25.15527344 C-27.32255146 22.31468489 -27.51753915 19.87727967 -27.6875 16.75 C-27.75324219 15.67234375 -27.81898437 14.5946875 -27.88671875 13.484375 C-27.92410156 12.66453125 -27.96148437 11.8446875 -28 11 C-40.31315091 9.97621149 -40.31315091 9.97621149 -51 15 Z " fill="#F0F0F0" transform="translate(118,49)"/>
<path d="M0 0 C3.54326134 0.74395879 5.13315931 2.60053146 7.1953125 5.4609375 C7.1953125 6.4509375 7.1953125 7.4409375 7.1953125 8.4609375 C10.4953125 8.4609375 13.7953125 8.4609375 17.1953125 8.4609375 C17.24941937 10.23143439 17.28815369 12.00240599 17.3203125 13.7734375 C17.34351563 14.75957031 17.36671875 15.74570313 17.390625 16.76171875 C17.1953125 19.4609375 17.1953125 19.4609375 15.1953125 22.4609375 C12.52371392 22.76522416 10.08758436 22.88105162 7.4140625 22.859375 C6.64477417 22.86224518 5.87548584 22.86511536 5.08288574 22.86807251 C3.45547754 22.87011513 1.82804491 22.86457141 0.20068359 22.85205078 C-2.29515299 22.83599882 -4.78937023 22.85189161 -7.28515625 22.87109375 C-8.86458692 22.86911135 -10.44401658 22.86526774 -12.0234375 22.859375 C-12.7724231 22.86544769 -13.52140869 22.87152039 -14.29309082 22.8777771 C-16.39648437 22.84912109 -16.39648437 22.84912109 -19.8046875 22.4609375 C-22.08531578 19.03999508 -22.02393757 17.77906528 -21.9296875 13.7734375 C-21.91164063 12.77957031 -21.89359375 11.78570312 -21.875 10.76171875 C-21.85179688 10.00246094 -21.82859375 9.24320313 -21.8046875 8.4609375 C-18.5046875 8.4609375 -15.2046875 8.4609375 -11.8046875 8.4609375 C-11.4746875 7.1409375 -11.1446875 5.8209375 -10.8046875 4.4609375 C-7.91679933 0.12910524 -4.9047134 -0.21043325 0 0 Z " fill="#7E7E7E" transform="translate(114.8046875,51.5390625)"/>
<path d="M0 0 C0.33 0 0.66 0 1 0 C1.00586624 1.12673126 1.01173248 2.25346252 1.01777649 3.41433716 C1.0750131 14.03766474 1.14777983 24.66078781 1.23571491 35.28390694 C1.28042414 40.74524584 1.31967921 46.20651004 1.34643555 51.66796875 C1.37246277 56.93952557 1.41286145 62.21079502 1.46318626 67.48217392 C1.47985883 69.49234312 1.49137068 71.50256203 1.49761391 73.51279068 C1.50725061 76.33061021 1.5353051 79.14769393 1.56762695 81.96533203 C1.56619186 82.79467758 1.56475677 83.62402313 1.5632782 84.47850037 C1.64351148 89.43102064 2.47705205 92.61460301 5 97 C5 97.66 5 98.32 5 99 C6.175625 99.4640625 6.175625 99.4640625 7.375 99.9375 C10 101 10 101 12 102 C14.50236916 102.09288682 16.97662686 102.12582412 19.47900391 102.11352539 C20.24982803 102.11367142 21.02065216 102.11381744 21.81483459 102.1139679 C24.36877229 102.11326989 26.92263751 102.10548275 29.4765625 102.09765625 C31.24490316 102.09579167 33.01324433 102.09436796 34.78158569 102.09336853 C39.44064759 102.0895465 44.09967842 102.07971888 48.75872803 102.06866455 C53.51102274 102.05844369 58.26332247 102.05386946 63.015625 102.04882812 C72.34376367 102.03809634 81.67187925 102.02102367 91 102 C90 105 90 105 88 106 C85.60153892 106.11869328 83.23115977 106.17827306 80.83154297 106.19287109 C79.723843 106.20513733 79.723843 106.20513733 78.59376526 106.21765137 C76.14324758 106.24251553 73.69278806 106.25902787 71.2421875 106.2734375 C69.98565557 106.28142302 69.98565557 106.28142302 68.70373917 106.28956985 C64.26604375 106.31631156 59.82837651 106.3356793 55.390625 106.35009766 C51.72402883 106.36341508 48.05799208 106.39122489 44.39160156 106.43212891 C39.96070553 106.48156208 35.53031543 106.50623239 31.09915543 106.51332474 C29.41431281 106.520021 27.72948076 106.53520067 26.04479599 106.55921555 C10.22954147 106.77171421 10.22954147 106.77171421 4.52346802 102.75894165 C-0.57583212 96.87147221 -1.58496138 92.25027858 -1.4699707 84.68408203 C-1.4721611 83.77758408 -1.4743515 82.87108612 -1.47660828 81.93711853 C-1.47890786 78.96030408 -1.45273625 75.98449392 -1.42578125 73.0078125 C-1.42085552 70.93513299 -1.41755783 68.86244903 -1.41581726 66.7897644 C-1.4081925 62.4573535 -1.38767114 58.12527477 -1.35668945 53.79296875 C-1.31696718 48.227459 -1.29905549 42.66216442 -1.28938007 37.09652901 C-1.27943412 31.79609415 -1.25953516 26.49571229 -1.23828125 21.1953125 C-1.2348855 20.17880741 -1.23148975 19.16230232 -1.2279911 18.11499405 C-1.21647427 15.25644779 -1.19796628 12.39804143 -1.17700195 9.53955078 C-1.17431305 8.68452469 -1.17162415 7.8294986 -1.16885376 6.94856262 C-1.11490839 1.11490839 -1.11490839 1.11490839 0 0 Z " fill="#F6F6F6" transform="translate(62,70)"/>
<path d="M0 0 C9.57 0 19.14 0 29 0 C29 0.99 29 1.98 29 3 C19.43 3 9.86 3 0 3 C0 2.01 0 1.02 0 0 Z " fill="#F6F6F6" transform="translate(117,106)"/>
<path d="M0 0 C9.57 0 19.14 0 29 0 C29 0.99 29 1.98 29 3 C19.43 3 9.86 3 0 3 C0 2.01 0 1.02 0 0 Z " fill="#F7F7F7" transform="translate(78,106)"/>
<path d="M0 0 C9.24 0 18.48 0 28 0 C28 0.99 28 1.98 28 3 C18.43 3 8.86 3 -1 3 C-0.67 2.01 -0.34 1.02 0 0 Z " fill="#F7F7F7" transform="translate(118,142)"/>
<path d="M0 0 C9.24 0 18.48 0 28 0 C28 0.99 28 1.98 28 3 C18.43 3 8.86 3 -1 3 C-0.67 2.01 -0.34 1.02 0 0 Z " fill="#F7F7F7" transform="translate(79,142)"/>
<path d="M0 0 C1.19882813 0.00966797 2.39765625 0.01933594 3.6328125 0.02929688 C5.4890625 0.06700195 5.4890625 0.06700195 7.3828125 0.10546875 C8.64351562 0.11900391 9.90421875 0.13253906 11.203125 0.14648438 C14.30512704 0.1817344 17.40624784 0.23101371 20.5078125 0.29296875 C20.5078125 0.62296875 20.5078125 0.95296875 20.5078125 1.29296875 C19.35780762 1.3069873 19.35780762 1.3069873 18.18457031 1.32128906 C14.70833147 1.37499648 11.23343776 1.45864451 7.7578125 1.54296875 C6.55125 1.55714844 5.3446875 1.57132813 4.1015625 1.5859375 C2.94140625 1.61816406 1.78125 1.65039062 0.5859375 1.68359375 C-0.48237305 1.70454102 -1.55068359 1.72548828 -2.65136719 1.74707031 C-6.13711299 2.41689909 -7.2461513 3.61302494 -9.4921875 6.29296875 C-10.1728125 6.95296875 -10.8534375 7.61296875 -11.5546875 8.29296875 C-13.54232045 10.24897475 -13.54232045 10.24897475 -15.1171875 12.54296875 C-15.5709375 13.12046875 -16.0246875 13.69796875 -16.4921875 14.29296875 C-17.1521875 14.29296875 -17.8121875 14.29296875 -18.4921875 14.29296875 C-18.07933565 9.61398109 -15.98496326 6.32944364 -12.4921875 3.29296875 C-8.13179494 0.75299173 -5.03008913 -0.07185842 0 0 Z " fill="#EFEFEF" transform="translate(79.4921875,56.70703125)"/>
<path d="M0 0 C0 0.33 0 0.66 0 1 C-0.763125 1.0825 -1.52625 1.165 -2.3125 1.25 C-5.55524435 2.15495191 -6.16265816 3.28773348 -8 6 C-8.66 6 -9.32 6 -10 6 C-10.33 6.99 -10.66 7.98 -11 9 C-11.99 9 -12.98 9 -14 9 C-13.02552263 5.49188148 -12.07842969 4.06595224 -9.25 1.6875 C-5.78812732 -0.11001082 -3.83428028 -0.36516955 0 0 Z " fill="#EAEAEA" transform="translate(115,48)"/>
</svg>
