<?xml version="1.0" encoding="UTF-8"?>
<svg version="1.1" xmlns="http://www.w3.org/2000/svg" width="318" height="159">
<path d="M0 0 C104.94 0 209.88 0 318 0 C318 52.47 318 104.94 318 159 C213.06 159 108.12 159 0 159 C0 106.53 0 54.06 0 0 Z " fill="#FEFEFE" transform="translate(0,0)"/>
<path d="M0 0 C3.6526101 1.2850483 6.31699728 3.25090024 8.9375 6.125 C10.53782325 10.45528645 10.65100955 14.44293313 10 19 C7.63049099 23.92128794 4.72220935 26.35379124 0 29 C-3.91357713 29.48767316 -7.6958122 29.50006577 -11.63671875 29.53125 C-14.99123082 29.65455596 -14.99123082 29.65455596 -16.67822266 31.67675781 C-18.28502438 34.50097746 -18.42559449 36.40235288 -18.51171875 39.640625 C-18.54483154 40.60516602 -18.57794434 41.56970703 -18.61206055 42.56347656 C-18.64940308 44.38830566 -18.64940308 44.38830566 -18.6875 46.25 C-18.790625 50.1275 -18.89375 54.005 -19 58 C-28.57 58 -38.14 58 -48 58 C-48 47.77 -48 37.54 -48 27 C-46.35 27.33 -44.7 27.66 -43 28 C-36.25727678 28.67097246 -30.46648364 28.31693227 -25 24 C-21.416524 19.9387272 -19.70809069 15.32682512 -18 10.25 C-14.9418788 1.27453858 -8.93126727 -1.05245703 0 0 Z " fill="#020202" transform="translate(51,50)"/>
<path d="M0 0 C6.249375 -0.0928125 6.249375 -0.0928125 12.625 -0.1875 C13.92775879 -0.21481201 15.23051758 -0.24212402 16.57275391 -0.27026367 C27.31180586 -0.34757687 27.31180586 -0.34757687 32 3 C36.20074145 7.65487566 37.36023452 10.53267407 37.28125 16.68359375 C36.70016148 21.4695034 33.94856192 24.22237539 30.35546875 27.16796875 C29.57816406 27.77253906 28.80085938 28.37710938 28 29 C28.30292969 29.50450684 28.60585937 30.00901367 28.91796875 30.52880859 C30.28318269 32.80819079 31.64165783 35.09151668 33 37.375 C33.71542969 38.56609375 33.71542969 38.56609375 34.4453125 39.78125 C34.89648438 40.54179688 35.34765625 41.30234375 35.8125 42.0859375 C36.23144531 42.7876709 36.65039062 43.4894043 37.08203125 44.21240234 C38 46 38 46 38 48 C32.94743215 48.72333771 32.94743215 48.72333771 30 48 C27.51360782 45.56984041 26.07258831 42.70094316 24.5 39.625 C24.05914062 38.8309375 23.61828125 38.036875 23.1640625 37.21875 C20 31.42124418 20 31.42124418 20 29 C15.71 29 11.42 29 7 29 C7 35.27 7 41.54 7 48 C4.69 48 2.38 48 0 48 C0 32.16 0 16.32 0 0 Z " fill="#040404" transform="translate(91,60)"/>
<path d="M0 0 C2.31 0 4.62 0 7 0 C7 16.5 7 33 7 50 C4.69 50 2.38 50 0 50 C0 48.68 0 47.36 0 46 C-0.66 46 -1.32 46 -2 46 C-2 46.66 -2 47.32 -2 48 C-7.0001838 51.07703618 -11.26032756 52.02945056 -17 51 C-22.5998952 48.68893214 -26.13804416 45.38047699 -29 40 C-30.71521806 35.71195485 -30.88462942 30.45674229 -29.31640625 26.1015625 C-26.56941545 20.88114015 -22.68341978 16.89447326 -17 15 C-11.21513205 14.4270226 -7.06427231 14.88352473 -2 18 C-2 18.66 -2 19.32 -2 20 C-1.34 20 -0.68 20 0 20 C0 13.4 0 6.8 0 0 Z " fill="#0A0A0A" transform="translate(240,58)"/>
<path d="M0 0 C5.03636825 2.82186124 7.62295362 5.78256697 9.79296875 11.1171875 C9.79296875 13.7571875 9.79296875 16.3971875 9.79296875 19.1171875 C0.88296875 19.1171875 -8.02703125 19.1171875 -17.20703125 19.1171875 C-14.86854983 25.03449768 -14.86854983 25.03449768 -11.20703125 27.1171875 C-6.52226499 27.87166296 -3.15261224 27.73470978 0.85546875 25.1171875 C1.49484375 24.4571875 2.13421875 23.7971875 2.79296875 23.1171875 C7.66796875 24.8671875 7.66796875 24.8671875 8.79296875 27.1171875 C4.93761349 31.31272116 1.4610981 34.63558059 -4.37890625 35.40234375 C-9.39523407 35.59592687 -12.98015718 35.02903408 -17.20703125 32.1171875 C-21.97521553 27.38258198 -24.33051995 23.78820711 -24.58203125 16.9296875 C-24.50561534 11.15264476 -23.25646348 7.29439307 -19.20703125 3.1171875 C-13.55462978 -1.22041624 -6.71235517 -2.68494207 0 0 Z " fill="#070707" transform="translate(277.20703125,73.8828125)"/>
<path d="M0 0 C3.79644041 2.1823849 5.87521882 4.29736735 7.6875 8.375 C7.6875 11.675 7.6875 14.975 7.6875 18.375 C-0.8925 18.375 -9.4725 18.375 -18.3125 18.375 C-16.46378154 23.66122361 -16.46378154 23.66122361 -12.3125 26.375 C-7.54561982 27.10699284 -4.34366105 27.0484113 -0.25 24.375 C0.389375 23.715 1.02875 23.055 1.6875 22.375 C3.3375 23.035 4.9875 23.695 6.6875 24.375 C6.6875 25.365 6.6875 26.355 6.6875 27.375 C1.60115512 32.11454864 -1.9883919 34.84026158 -9.2265625 34.625 C-15.33179789 33.8932864 -19.41299486 30.94299173 -23.3125 26.375 C-26.53164723 21.22208941 -26.10667438 15.21287834 -25.3125 9.375 C-23.29675696 4.88475861 -20.46818035 2.19681714 -16.5 -0.625 C-10.69916757 -2.444869 -5.60787734 -2.49587092 0 0 Z " fill="#060606" transform="translate(157.3125,74.625)"/>
<path d="M0 0 C4.10599024 1.42130431 6.81737676 3.19313974 9.18847656 6.89111328 C11.05962793 11.75362997 10.39435632 17.25035064 10.25 22.375 C10.23195312 23.58800781 10.21390625 24.80101563 10.1953125 26.05078125 C10.14832216 29.0346679 10.08263372 32.01692279 10 35 C7.69 35 5.38 35 3 35 C2.98541748 34.2886792 2.97083496 33.5773584 2.95581055 32.84448242 C2.88138994 29.62493668 2.78471 26.40643482 2.6875 23.1875 C2.66494141 22.06794922 2.64238281 20.94839844 2.61914062 19.79492188 C2.5659668 18.18520508 2.5659668 18.18520508 2.51171875 16.54296875 C2.48553467 15.55321045 2.45935059 14.56345215 2.43237305 13.54370117 C1.93978998 10.64577744 1.33621041 9.72650083 -1 8 C-3.13608773 7.45281749 -3.13608773 7.45281749 -5.4375 7.5 C-6.19933594 7.4690625 -6.96117187 7.438125 -7.74609375 7.40625 C-10.16424938 7.87717509 -10.16424938 7.87717509 -12.23828125 9.82421875 C-14.85414136 14.53972711 -14.67523847 19.00103343 -14.75 24.3125 C-14.77964844 25.33923828 -14.80929688 26.36597656 -14.83984375 27.42382812 C-14.91032194 29.94929675 -14.9631266 32.47385415 -15 35 C-17.31 35 -19.62 35 -22 35 C-22 23.78 -22 12.56 -22 1 C-19.69 1 -17.38 1 -15 1 C-14.67 1.99 -14.34 2.98 -14 4 C-13.175 3.34 -12.35 2.68 -11.5 2 C-7.71161122 -0.51070106 -4.42825501 -0.71737731 0 0 Z " fill="#080808" transform="translate(194,73)"/>
<path d="M0 0 C4.32036821 2.28725376 7.05893629 4.47085134 9 9 C9.58496307 12.92760919 9.18285914 14.65459941 7.3125 18.1875 C4.22131681 21.94704712 1.91033988 23.62623785 -2.875 24.5625 C-7.31562107 23.76318821 -10.0451403 21.34558495 -13 18 C-14.50186547 13.49440359 -14.71589695 9.65786663 -12.8125 5.25 C-9.22301205 0.79408393 -5.70429035 -0.81489862 0 0 Z " fill="#F5F5F5" transform="translate(231,79)"/>
<path d="M0 0 C2.7302389 -0.1083667 5.45614543 -0.18746694 8.1875 -0.25 C8.95642578 -0.28351563 9.72535156 -0.31703125 10.51757812 -0.3515625 C14.46640715 -0.41935356 16.53119116 -0.27448393 20.015625 1.765625 C22.10101137 4.11373721 22.66463975 4.92379093 22.5625 8 C22.56443359 8.99 22.56443359 8.99 22.56640625 10 C21.69238576 13.08619648 20.64852658 14.16108446 18 16 C14.90077139 16.48356226 11.87687095 16.37702913 8.75 16.25 C7.90953125 16.23195313 7.0690625 16.21390625 6.203125 16.1953125 C4.13492605 16.14830798 2.06731559 16.07656724 0 16 C0 10.72 0 5.44 0 0 Z " fill="#F8F8F8" transform="translate(98,66)"/>
<path d="M0 0 C0.66 0.33 1.32 0.66 2 1 C2 2.98 2 4.96 2 7 C1.38511719 7.02578125 0.77023437 7.0515625 0.13671875 7.078125 C-0.67152344 7.13484375 -1.47976563 7.1915625 -2.3125 7.25 C-3.51326172 7.31960937 -3.51326172 7.31960937 -4.73828125 7.390625 C-7.77025835 8.20753075 -8.39146658 9.3386905 -10 12 C-10.49948459 14.60162971 -10.49948459 14.60162971 -10.51171875 17.421875 C-10.54716797 18.44667969 -10.58261719 19.47148438 -10.61914062 20.52734375 C-10.65297852 22.12255859 -10.65297852 22.12255859 -10.6875 23.75 C-10.72166016 24.82894531 -10.75582031 25.90789062 -10.79101562 27.01953125 C-10.87340663 29.67958377 -10.94258645 32.33931035 -11 35 C-13.31 35 -15.62 35 -18 35 C-18 23.78 -18 12.56 -18 1 C-15.69 1 -13.38 1 -11 1 C-10.67 1.66 -10.34 2.32 -10 3 C-9.195625 2.2575 -9.195625 2.2575 -8.375 1.5 C-5.37505704 -0.39470082 -3.48955396 -0.30343947 0 0 Z " fill="#050505" transform="translate(312,73)"/>
<path d="M0 0 C3.40789098 2.60075891 3.93293408 3.73173633 5 8 C-1.6 8 -8.2 8 -15 8 C-12.64705882 2.11764706 -12.64705882 2.11764706 -10 0 C-6.19426871 -1.2685771 -3.89430952 -0.88817586 0 0 Z " fill="#EDEDED" transform="translate(275,80)"/>
<path d="M0 0 C2.5 1.8125 2.5 1.8125 4 4 C4 5.32 4 6.64 4 8 C-2.27 8 -8.54 8 -15 8 C-13.94523499 3.78093998 -13.1470668 2.76560416 -10 0 C-6.73928782 -1.63035609 -3.41447263 -0.87723605 0 0 Z " fill="#EEEEEE" transform="translate(154,80)"/>
</svg>
