<?xml version="1.0" encoding="UTF-8"?>
<svg version="1.1" xmlns="http://www.w3.org/2000/svg" width="180" height="180">
<path d="M0 0 C59.4 0 118.8 0 180 0 C180 59.4 180 118.8 180 180 C120.6 180 61.2 180 0 180 C0 120.6 0 61.2 0 0 Z " fill="#FEFDFE" transform="translate(0,0)"/>
<path d="M0 0 C59.4 0 118.8 0 180 0 C180 59.4 180 118.8 180 180 C120.6 180 61.2 180 0 180 C0 120.6 0 61.2 0 0 Z M33.4375 42.84375 C20.05799129 59.65853797 15.44373748 78.69538845 17.24609375 99.89453125 C20.02424512 118.99790199 30.3192915 136.63427778 45.69873047 148.28710938 C59.29965461 157.98862562 72.32509274 162.37537524 89 162.25 C90.02867188 162.25773438 91.05734375 162.26546875 92.1171875 162.2734375 C111.08262513 162.22517939 127.82444367 154.41349808 141.5859375 141.50390625 C155.56083279 127.00890968 162.61394899 109.83618651 162.5 89.8125 C162.49355469 88.62575684 162.48710937 87.43901367 162.48046875 86.21630859 C162.06960477 66.40023058 153.99491409 50.99491409 140 37 C139.36449219 36.36449219 138.72898437 35.72898437 138.07421875 35.07421875 C123.39553951 21.36804 104.21640695 16.36093565 84.54296875 16.73046875 C64.42919136 17.59902795 46.69509 28.13105865 33.4375 42.84375 Z " fill="#A962AD" transform="translate(0,0)"/>
<path d="M0 0 C59.4 0 118.8 0 180 0 C180 59.4 180 118.8 180 180 C120.6 180 61.2 180 0 180 C0 120.6 0 61.2 0 0 Z M21.45117188 32.18798828 C5.1175178 52.58307249 -1.24379051 76.59471605 1.3984375 102.359375 C4.37525061 125.32753103 17.67591934 146.50714681 35.6875 160.75 C57.18001721 176.10976262 81.59655202 181.10775248 107.7578125 177.63378906 C112.73546975 176.64606087 117.3517385 175.01193408 122 173 C122.66741211 172.72124023 123.33482422 172.44248047 124.02246094 172.15527344 C146.01911773 162.75490378 163.33581826 145.77471413 172.375 123.5 C180.44814976 102.14363949 181.62317828 76.98105523 172.19921875 55.8984375 C161.28113945 32.53499125 144.20610641 15.15742427 120 6 C84.437247 -6.00531305 46.20074228 3.76963827 21.45117188 32.18798828 Z " fill="#FEFDFE" transform="translate(0,0)"/>
<path d="M0 0 C3.625 0.25 3.625 0.25 5.36499023 1.40356445 C7.19260385 4.08177445 6.75767343 5.8511875 6.41015625 9.04296875 C6.23250732 10.78392822 6.23250732 10.78392822 6.05126953 12.56005859 C5.91060059 13.77773926 5.76993164 14.99541992 5.625 16.25 C5.50108887 17.4354541 5.37717773 18.6209082 5.24951172 19.84228516 C4.87192087 23.41794868 4.47070572 26.99021168 4.0625 30.5625 C3.85463867 32.40618164 3.85463867 32.40618164 3.64257812 34.28710938 C3.30542577 37.27497681 2.96620697 40.26259336 2.625 43.25 C3.45225586 43.22905273 4.27951172 43.20810547 5.13183594 43.18652344 C8.8794337 43.10338381 12.62683749 43.05134469 16.375 43 C17.67695312 42.96648437 18.97890625 42.93296875 20.3203125 42.8984375 C21.57070312 42.88554688 22.82109375 42.87265625 24.109375 42.859375 C25.83752441 42.8279541 25.83752441 42.8279541 27.60058594 42.79589844 C31.26427072 43.3459835 32.44193987 44.30507327 34.625 47.25 C34.71304938 52.56964996 32.03144953 55.92947465 28.875 59.9375 C27.86429399 61.26603284 26.85661514 62.59687268 25.8515625 63.9296875 C25.05733887 64.9810791 25.05733887 64.9810791 24.24707031 66.05371094 C21.47005187 69.81380394 18.86641486 73.68976242 16.25 77.5625 C11.32324046 84.82663335 6.28354775 91.99549196 1.09179688 99.07299805 C-1.85053812 103.08982684 -4.59426923 107.160213 -7.25 111.375 C-9.60342754 114.77634677 -9.8687196 115.14030591 -14.125 116.0625 C-18.55737454 114.95440636 -18.55737454 114.95440636 -20.375 112.25 C-20.51793225 109.63993276 -20.46740313 107.33649569 -20.25 104.75 C-20.197229 103.98768066 -20.14445801 103.22536133 -20.09008789 102.43994141 C-19.205065 90.68030049 -17.7607346 78.95900115 -16.375 67.25 C-17.4419812 67.2814209 -17.4419812 67.2814209 -18.53051758 67.31347656 C-21.74936828 67.39655725 -24.96799366 67.44863466 -28.1875 67.5 C-29.30705078 67.53351563 -30.42660156 67.56703125 -31.58007812 67.6015625 C-32.65322266 67.61445312 -33.72636719 67.62734375 -34.83203125 67.640625 C-36.3166687 67.6720459 -36.3166687 67.6720459 -37.83129883 67.70410156 C-40.375 67.25 -40.375 67.25 -42.22143555 65.39916992 C-43.375 63.25 -43.375 63.25 -43.375 60.47265625 C-42.06681696 56.25683199 -39.94470159 53.24399922 -37.375 49.6875 C-36.21140144 48.03405618 -35.05017747 46.37894008 -33.890625 44.72265625 C-33.20548828 43.74699707 -32.52035156 42.77133789 -31.81445312 41.76611328 C-26.48476406 34.12159665 -21.32904873 26.35524215 -16.125 18.625 C-13.91302017 15.34008974 -11.69930528 12.05635888 -9.484375 8.7734375 C-8.98387634 8.02948227 -8.48337769 7.28552704 -7.9677124 6.51902771 C-3.75606505 0.27822704 -3.75606505 0.27822704 0 0 Z " fill="#A861AC" transform="translate(94.375,31.75)"/>
</svg>
