<?xml version="1.0" encoding="UTF-8"?>
<!DOCTYPE svg PUBLIC "-//W3C//DTD SVG 1.1//EN" "http://www.w3.org/Graphics/SVG/1.1/DTD/svg11.dtd">
<svg xmlns="http://www.w3.org/2000/svg" version="1.1" width="300px" height="168px" style="shape-rendering:geometricPrecision; text-rendering:geometricPrecision; image-rendering:optimizeQuality; fill-rule:evenodd; clip-rule:evenodd" xmlns:xlink="http://www.w3.org/1999/xlink">
<g><path style="opacity:1" fill="#fefefe" d="M -0.5,-0.5 C 99.5,-0.5 199.5,-0.5 299.5,-0.5C 299.5,55.5 299.5,111.5 299.5,167.5C 199.5,167.5 99.5,167.5 -0.5,167.5C -0.5,111.5 -0.5,55.5 -0.5,-0.5 Z"/></g>
<g><path style="opacity:1" fill="#8b8c8d" d="M 116.5,2.5 C 97.6592,2.16976 78.9925,2.5031 60.5,3.5C 59.9569,3.44001 59.6236,3.10667 59.5,2.5C 78.6625,1.17234 97.6625,1.17234 116.5,2.5 Z"/></g>
<g><path style="opacity:1" fill="#0f1418" d="M 116.5,2.5 C 129.583,19.6512 142.917,36.6512 156.5,53.5C 171.657,36.8411 186.657,20.0077 201.5,3C 210.5,2.33333 219.5,2.33333 228.5,3C 208.447,25.3827 188.78,48.0494 169.5,71C 192.435,102.272 215.768,133.272 239.5,164C 220.824,164.833 202.158,164.666 183.5,163.5C 169.518,144.856 155.184,126.523 140.5,108.5C 124.182,127.484 107.515,146.151 90.5,164.5C 81.6506,164.826 72.9839,164.493 64.5,163.5C 85.4775,139.52 106.478,115.52 127.5,91.5C 105.158,62.1368 82.8244,32.8034 60.5,3.5C 78.9925,2.5031 97.6592,2.16976 116.5,2.5 Z"/></g>
<g><path style="opacity:1" fill="#fafafa" d="M 91.5,18.5 C 96.9846,17.3483 102.651,17.1816 108.5,18C 141.257,61.5131 174.257,104.846 207.5,148C 201.916,148.806 196.416,148.639 191,147.5C 157.97,104.315 124.803,61.3146 91.5,18.5 Z"/></g>
<g><path style="opacity:1" fill="#898a8b" d="M 64.5,163.5 C 72.9839,164.493 81.6506,164.826 90.5,164.5C 81.6582,165.822 72.6582,165.822 63.5,164.5C 63.6236,163.893 63.9569,163.56 64.5,163.5 Z"/></g>
</svg>
