<svg version="1.1" id="Layer_1" xmlns="http://www.w3.org/2000/svg" xmlns:xlink="http://www.w3.org/1999/xlink" x="0px" y="0px"
	 width="100%" viewBox="0 0 225 225" enable-background="new 0 0 225 225" xml:space="preserve">
<path fill="#3178C6" opacity="1.000000" stroke="none" 
	d="
M1.000000,210.000000 
	C1.000000,145.979111 1.000000,81.958206 1.325293,17.339823 
	C4.425793,8.717146 10.397602,4.011838 18.000000,1.000000 
	C81.354225,1.000000 144.708450,1.000000 208.675812,1.329981 
	C218.133347,3.758254 222.775909,10.153789 226.000000,18.000000 
	C226.000000,81.687561 226.000000,145.375122 225.673431,209.657700 
	C222.580704,218.286758 216.598679,222.982483 209.000000,226.000000 
	C145.312439,226.000000 81.624878,226.000000 17.339901,225.674683 
	C8.966605,222.826050 4.608022,216.797913 1.000000,210.000000 
M53.717422,126.366348 
	C62.758183,126.570053 71.798943,126.773758 80.978874,127.908508 
	C80.978874,153.841324 80.978874,179.774124 80.978874,205.926437 
	C88.642982,205.926437 95.729736,205.926437 103.241302,205.926437 
	C103.241302,197.044342 103.206566,188.400162 103.248596,179.756348 
	C103.333588,162.279724 103.460228,144.803284 104.562248,127.201393 
	C108.339058,127.134872 112.119987,127.156342 115.891670,126.980194 
	C120.926689,126.745041 125.954536,126.356400 131.434982,125.333611 
	C131.434982,119.605972 131.434982,113.878334 131.434982,108.193481 
	C104.976273,108.193481 79.124733,108.193481 53.023205,108.193481 
	C53.023205,114.334091 53.023205,120.127281 53.717422,126.366348 
M140.122055,198.986481 
	C141.130936,200.433609 141.837982,202.705261 143.194778,203.201950 
	C159.054672,209.007797 175.267151,209.773682 191.016327,203.558777 
	C210.445816,195.891556 213.904236,169.866074 197.431946,156.929718 
	C192.795502,153.288544 187.117355,150.966751 181.892929,148.083435 
	C176.818481,145.282898 171.292816,143.092056 166.728806,139.627655 
	C161.155762,135.397354 162.071732,128.070984 168.614044,125.659050 
	C173.562637,123.834686 179.360916,123.073471 184.601776,123.605370 
	C190.815582,124.236023 196.837082,126.761345 203.131546,128.518463 
	C203.131546,123.028908 203.251999,117.369804 203.027603,111.724419 
	C202.983902,110.625221 201.785339,108.873161 200.804779,108.614319 
	C184.998108,104.441727 169.122345,103.280609 154.094666,111.029770 
	C136.671600,120.014130 134.447174,143.584686 149.842987,155.737625 
	C154.713547,159.582275 160.784866,161.905426 166.305588,164.926834 
	C170.954224,167.470993 176.044571,169.455826 180.148209,172.691620 
	C186.787811,177.927048 185.226059,186.120529 177.072037,188.369781 
	C172.099792,189.741348 166.370071,190.334442 161.401260,189.285126 
	C154.130234,187.749634 147.236557,184.427200 140.121109,181.844208 
	C140.121109,186.804825 140.121109,192.442459 140.122055,198.986481 
z"/>
<path fill="#FBFCFE" opacity="1.000000" stroke="none" 
	d="
M226.000000,17.529547 
	C222.775909,10.153789 218.133347,3.758254 209.144470,1.329981 
	C214.592087,1.000000 220.184174,1.000000 226.000000,1.000000 
	C226.000000,6.350975 226.000000,11.705034 226.000000,17.529547 
z"/>
<path fill="#FBFCFE" opacity="1.000000" stroke="none" 
	d="
M17.529547,1.000000 
	C10.397602,4.011838 4.425793,8.717146 1.325293,16.871166 
	C1.000000,11.739020 1.000000,6.478040 1.000000,1.000000 
	C6.351708,1.000000 11.705401,1.000000 17.529547,1.000000 
z"/>
<path fill="#FBFCFE" opacity="1.000000" stroke="none" 
	d="
M209.470459,226.000000 
	C216.598679,222.982483 222.580704,218.286758 225.673431,210.126358 
	C226.000000,215.260986 226.000000,220.521957 226.000000,226.000000 
	C220.648285,226.000000 215.294601,226.000000 209.470459,226.000000 
z"/>
<path fill="#FBFCFE" opacity="1.000000" stroke="none" 
	d="
M1.000000,210.471191 
	C4.608022,216.797913 8.966605,222.826050 16.871243,225.674683 
	C11.741570,226.000000 6.483140,226.000000 1.000000,226.000000 
	C1.000000,220.982285 1.000000,215.962341 1.000000,210.471191 
z"/>
<path fill="#FDFEFE" opacity="1.000000" stroke="none" 
	d="
M140.121582,198.533279 
	C140.121109,192.442459 140.121109,186.804825 140.121109,181.844208 
	C147.236557,184.427200 154.130234,187.749634 161.401260,189.285126 
	C166.370071,190.334442 172.099792,189.741348 177.072037,188.369781 
	C185.226059,186.120529 186.787811,177.927048 180.148209,172.691620 
	C176.044571,169.455826 170.954224,167.470993 166.305588,164.926834 
	C160.784866,161.905426 154.713547,159.582275 149.842987,155.737625 
	C134.447174,143.584686 136.671600,120.014130 154.094666,111.029770 
	C169.122345,103.280609 184.998108,104.441727 200.804779,108.614319 
	C201.785339,108.873161 202.983902,110.625221 203.027603,111.724419 
	C203.251999,117.369804 203.131546,123.028908 203.131546,128.518463 
	C196.837082,126.761345 190.815582,124.236023 184.601776,123.605370 
	C179.360916,123.073471 173.562637,123.834686 168.614044,125.659050 
	C162.071732,128.070984 161.155762,135.397354 166.728806,139.627655 
	C171.292816,143.092056 176.818481,145.282898 181.892929,148.083435 
	C187.117355,150.966751 192.795502,153.288544 197.431946,156.929718 
	C213.904236,169.866074 210.445816,195.891556 191.016327,203.558777 
	C175.267151,209.773682 159.054672,209.007797 143.194778,203.201950 
	C141.837982,202.705261 141.130936,200.433609 140.121582,198.533279 
z"/>
<path fill="#FEFEFF" opacity="1.000000" stroke="none" 
	d="
M103.569695,127.326759 
	C103.460228,144.803284 103.333588,162.279724 103.248596,179.756348 
	C103.206566,188.400162 103.241302,197.044342 103.241302,205.926437 
	C95.729736,205.926437 88.642982,205.926437 80.978874,205.926437 
	C80.978874,179.774124 80.978874,153.841324 80.759491,127.037949 
	C71.367805,126.085091 62.195507,126.002785 53.023205,125.920479 
	C53.023205,120.127281 53.023205,114.334091 53.023205,108.193481 
	C79.124733,108.193481 104.976273,108.193481 131.434982,108.193481 
	C131.434982,113.878334 131.434982,119.605972 130.743607,125.652313 
	C121.379654,126.059792 112.707085,126.148575 103.829636,126.237434 
	C103.526039,126.331177 103.333824,126.439499 103.345795,126.515793 
	C103.384727,126.764076 103.498299,127.000664 103.564331,127.260590 
	C103.545502,127.279434 103.569695,127.326759 103.569695,127.326759 
z"/>
<path fill="#136DC2" opacity="1.000000" stroke="none" 
	d="
M53.370316,126.143417 
	C62.195507,126.002785 71.367805,126.085091 80.689911,126.572433 
	C71.798943,126.773758 62.758183,126.570053 53.370316,126.143417 
z"/>
<path fill="#146DC2" opacity="1.000000" stroke="none" 
	d="
M104.034508,126.237350 
	C112.707085,126.148575 121.379654,126.059792 130.518845,126.002350 
	C125.954536,126.356400 120.926689,126.745041 115.891670,126.980194 
	C112.119987,127.156342 108.339058,127.134872 104.065971,127.264076 
	C103.569695,127.326759 103.545502,127.279434 103.709335,127.023529 
	C103.926956,126.590874 103.980728,126.414116 104.034508,126.237350 
z"/>
<path fill="#3178C6" opacity="1.000000" stroke="none" 
	d="
M103.829636,126.237434 
	C103.980728,126.414116 103.926956,126.590874 103.728165,127.004692 
	C103.498299,127.000664 103.384727,126.764076 103.345795,126.515793 
	C103.333824,126.439499 103.526039,126.331177 103.829636,126.237434 
z"/>
</svg>