<?xml version="1.0" encoding="UTF-8"?>
<svg version="1.1" xmlns="http://www.w3.org/2000/svg" width="300" height="168">
<path d="M0 0 C99 0 198 0 300 0 C300 55.44 300 110.88 300 168 C201 168 102 168 0 168 C0 112.56 0 57.12 0 0 Z " fill="#FDFDFD" transform="translate(0,0)"/>
<path d="M0 0 C3.02837983 2.81643014 5.1074732 5.5720448 7.14453125 9.1640625 C7.73202148 10.19184814 8.31951172 11.21963379 8.92480469 12.27856445 C9.85921387 13.93505005 9.85921387 13.93505005 10.8125 15.625 C11.80562626 17.3664176 12.79876291 19.10782938 13.79251099 20.84889221 C14.82860049 22.6659167 15.86196097 24.48447353 16.89501953 26.30322266 C20.31794432 32.32283528 23.78676261 38.31602774 27.25 44.3125 C28.19709839 45.95629639 28.19709839 45.95629639 29.16333008 47.63330078 C29.7539624 48.65794434 30.34459473 49.68258789 30.953125 50.73828125 C31.47036133 51.63587158 31.98759766 52.53346191 32.52050781 53.45825195 C33.54826225 55.2239205 34.60740082 56.97154305 35.69042969 58.70385742 C37 61 37 61 37 63 C12.91 63 -11.18 63 -36 63 C-32.20148409 55.40296818 -28.42838537 48.11062362 -24.0625 40.875 C-18.22419893 31.10374519 -12.51465895 21.26445259 -6.84985352 11.39208984 C-6.24584717 10.34102051 -5.64184082 9.28995117 -5.01953125 8.20703125 C-4.48432861 7.2735083 -3.94912598 6.33998535 -3.39770508 5.37817383 C-2.32325987 3.55002173 -1.17624861 1.76437292 0 0 Z " fill="#010101" transform="translate(44,53)"/>
<path d="M0 0 C4.38118201 2.48326106 7.42338864 5.84677729 9.6875 10.375 C9.6875 13.345 9.6875 16.315 9.6875 19.375 C0.4475 19.375 -8.7925 19.375 -18.3125 19.375 C-15.03421131 24.18875192 -15.03421131 24.18875192 -12.3125 25.375 C-8.17481668 25.72454889 -4.45531847 25.8799663 -0.625 24.1875 C1.6875 23.375 1.6875 23.375 5 24.75 C5.886875 25.28625 6.77375 25.8225 7.6875 26.375 C6.60540362 29.51307951 5.74018214 30.34407788 2.8125 32.0625 C-3.57278298 34.74431885 -9.74601587 35.40198642 -16.4375 33.3125 C-21.46871538 31.24841164 -24.90839277 27.18321447 -27.3125 22.375 C-28.50290407 10.2158727 -28.50290407 10.2158727 -25.3125 5.3125 C-18.75011847 -2.07707248 -9.01142152 -4.03901756 0 0 Z " fill="#040404" transform="translate(159.3125,69.625)"/>
<path d="M0 0 C5.38278268 2.47095357 9.06116855 5.96218086 11.73828125 11.31640625 C11.73828125 14.28640625 11.73828125 17.25640625 11.73828125 20.31640625 C2.49828125 20.31640625 -6.74171875 20.31640625 -16.26171875 20.31640625 C-12.98343006 25.13015817 -12.98343006 25.13015817 -10.26171875 26.31640625 C-5.99930391 26.52952699 -3.13585046 26.6485763 0.86328125 25.12890625 C3.73828125 24.31640625 3.73828125 24.31640625 7.11328125 25.69140625 C7.97953125 26.22765625 8.84578125 26.76390625 9.73828125 27.31640625 C8.65618487 30.45448576 7.79096339 31.28548413 4.86328125 33.00390625 C-1.52200173 35.6857251 -7.69523462 36.34339267 -14.38671875 34.25390625 C-19.41793413 32.18981789 -22.85761152 28.12462072 -25.26171875 23.31640625 C-25.94415797 15.94382516 -26.0284004 10.18309136 -21.26171875 4.31640625 C-18.98667613 2.66459357 -16.81920708 1.54778952 -14.26171875 0.31640625 C-10.01083417 -1.80903604 -4.46337282 -1.34903324 0 0 Z " fill="#040404" transform="translate(265.26171875,68.68359375)"/>
<path d="M0 0 C3.63 0 7.26 0 11 0 C11.37809814 0.6705542 11.75619629 1.3411084 12.14575195 2.03198242 C13.86730184 5.08421674 15.58989058 8.13586354 17.3125 11.1875 C17.90740234 12.24259766 18.50230469 13.29769531 19.11523438 14.38476562 C19.69208984 15.40634766 20.26894531 16.42792969 20.86328125 17.48046875 C21.65665894 18.88655396 21.65665894 18.88655396 22.46606445 20.32104492 C22.97226318 21.2051001 23.47846191 22.08915527 24 23 C24.51844482 23.91821533 25.03688965 24.83643066 25.57104492 25.7824707 C26.80860982 28.11664079 26.80860982 28.11664079 29 29 C29.27005859 28.29335205 29.54011719 27.5867041 29.81835938 26.85864258 C31.99244403 21.59906464 34.76242083 16.67047656 37.5 11.6875 C38.36238281 10.00430664 38.36238281 10.00430664 39.2421875 8.28710938 C40.97298225 5.17885898 42.52047617 2.55485259 45 0 C48.53113812 -0.95241081 51.44562104 -0.75913957 55 0 C53.68691557 3.45775056 52.17486529 6.63737461 50.34765625 9.8515625 C49.82341064 10.77702881 49.29916504 11.70249512 48.7590332 12.65600586 C48.19917725 13.63577393 47.63932129 14.61554199 47.0625 15.625 C46.48781982 16.63377197 45.91313965 17.64254395 45.32104492 18.68188477 C44.13412009 20.76320898 42.94571409 22.8436892 41.75585938 24.92333984 C40.08218921 27.85598603 38.4223367 30.79603089 36.765625 33.73828125 C35.78170823 35.47161436 34.79735613 37.20470045 33.8125 38.9375 C33.35560791 39.7536377 32.89871582 40.56977539 32.42797852 41.41064453 C31.34203431 43.30738026 30.17895202 45.15963227 29 47 C28.34 47 27.68 47 27 47 C25.6940918 45.14599609 25.6940918 45.14599609 24.19921875 42.5234375 C23.63992676 41.55220947 23.08063477 40.58098145 22.50439453 39.58032227 C21.60503174 37.99368774 21.60503174 37.99368774 20.6875 36.375 C19.42913486 34.18316331 18.17000149 31.99176753 16.91015625 29.80078125 C15.94360107 28.1139624 15.94360107 28.1139624 14.95751953 26.39306641 C11.33997962 20.12260373 7.62382196 13.9103059 3.9128418 7.69482422 C3.39761963 6.82744629 2.88239746 5.96006836 2.3515625 5.06640625 C1.89604004 4.30271729 1.44051758 3.53902832 0.97119141 2.75219727 C0 1 0 1 0 0 Z " fill="#060606" transform="translate(83,57)"/>
<path d="M0 0 C2.28256811 1.71329453 3.47991013 3.63741497 4.62890625 6.22265625 C0.23019242 9.27731863 0.23019242 9.27731863 -2.43359375 9.03515625 C-4.37109375 8.22265625 -4.37109375 8.22265625 -6.18359375 7.16015625 C-9.41850029 5.77376773 -11.88992933 5.85621789 -15.37109375 6.22265625 C-18.47853917 7.40847725 -18.47853917 7.40847725 -20.37109375 10.22265625 C-21.2373829 14.79727086 -21.18790725 18.73108377 -18.93359375 22.84765625 C-15.12338242 24.89215989 -11.60457569 24.91128178 -7.37109375 24.22265625 C-5.10655302 22.75494354 -5.10655302 22.75494354 -3.37109375 21.22265625 C-0.39057827 21.50207958 2.00956471 22.81943757 4.62890625 24.22265625 C3.1225516 28.44044928 0.38878203 29.99742365 -3.37109375 32.22265625 C-8.62103509 33.9726367 -14.52110538 34.35982049 -19.73046875 32.28125 C-24.38993076 29.48732447 -27.91316694 26.13850988 -30.37109375 21.22265625 C-30.87839025 15.66734377 -31.13369797 10.80435389 -28.68359375 5.72265625 C-20.68963438 -2.91946199 -10.71935429 -6.04181787 0 0 Z " fill="#070707" transform="translate(231.37109375,70.77734375)"/>
<path d="M0 0 C2.64 0 5.28 0 8 0 C8.33 1.98 8.66 3.96 9 6 C9.845625 5.195625 10.69125 4.39125 11.5625 3.5625 C14.8515158 0.78371338 17.68629604 0.25882224 22 0 C22 3.3 22 6.6 22 10 C19.78645833 10.09765625 17.57291667 10.1953125 15.359375 10.29296875 C11.81667936 11.35460437 10.84104974 12.81103884 9 16 C8.40018854 19.10348231 8.30478329 22.1574808 8.25 25.3125 C8.22035156 26.14845703 8.19070312 26.98441406 8.16015625 27.84570312 C8.08983893 29.89662485 8.04261027 31.94831562 8 34 C5.36 34 2.72 34 0 34 C0 22.78 0 11.56 0 0 Z " fill="#070707" transform="translate(176,69)"/>
<path d="M0 0 C2.64 0 5.28 0 8 0 C8 15.18 8 30.36 8 46 C5.36 46 2.72 46 0 46 C0 30.82 0 15.64 0 0 Z " fill="#000000" transform="translate(284,57)"/>
<path d="M0 0 C2.5107754 1.42189175 3.97112343 2.8696796 6 5 C6 5.66 6 6.32 6 7 C-0.27 7 -6.54 7 -13 7 C-10.30258568 0.25646419 -7.0533843 -1.34160417 0 0 Z " fill="#E7E7E7" transform="translate(262,76)"/>
<path d="M0 0 C2.5107754 1.42189175 3.97112343 2.8696796 6 5 C6 5.66 6 6.32 6 7 C-0.27 7 -6.54 7 -13 7 C-10.30258568 0.25646419 -7.0533843 -1.34160417 0 0 Z " fill="#E6E6E6" transform="translate(154,76)"/>
</svg>
