<?xml version="1.0" encoding="UTF-8"?>
<svg version="1.1" xmlns="http://www.w3.org/2000/svg" width="226" height="223">
<path d="M0 0 C74.58 0 149.16 0 226 0 C226 73.59 226 147.18 226 223 C151.42 223 76.84 223 0 223 C0 149.41 0 75.82 0 0 Z " fill="#FEFEFE" transform="translate(0,0)"/>
<path d="M0 0 C2.46478803 0.45342799 4.92963548 0.90653304 7.39453125 1.359375 C8.75342285 1.61130178 10.11230938 1.86325592 11.47119141 2.11523438 C19.14749364 3.53375434 26.83376578 4.89764235 34.51803589 6.27218628 C38.80923243 7.04027774 43.09992497 7.81117186 47.390625 8.58203125 C48.86100159 8.84611565 50.33137909 9.11019502 51.80175781 9.37426758 C52.83655273 9.56013428 53.87134766 9.74600098 54.9375 9.9375 C55.25080465 22.93674197 54.29200811 35.84959287 53.4375 48.8125 C53.29256039 51.06117163 53.14802592 53.30986942 53.00390625 55.55859375 C52.65310681 61.0185394 52.29731151 66.47814123 51.9375 71.9375 C52.54746826 71.78603516 53.15743652 71.63457031 53.78588867 71.47851562 C56.56415473 70.79219812 59.34451613 70.11477388 62.125 69.4375 C63.08470703 69.19902344 64.04441406 68.96054688 65.03320312 68.71484375 C65.96455078 68.48925781 66.89589844 68.26367188 67.85546875 68.03125 C68.70906982 67.82177734 69.5626709 67.61230469 70.44213867 67.39648438 C73.01308688 66.92359692 75.32955154 66.78547603 77.9375 66.9375 C78.9375 67.9375 78.9375 67.9375 79.15625 70.73828125 C79.07651389 76.31553711 77.64754251 81.70597179 76.4375 87.125 C75.96511004 89.26352211 75.49621112 91.40281916 75.03125 93.54296875 C74.71704102 94.95292114 74.71704102 94.95292114 74.39648438 96.39135742 C73.8192286 99.16239477 73.8192286 99.16239477 73.9375 102.9375 C77.62613956 102.48582985 81.00619072 101.91618219 84.5625 100.8125 C87.92479999 99.94079259 89.66394544 99.94551377 92.9375 100.9375 C92.37264692 110.5284748 90.09605715 119.73329772 87.94873047 129.06054688 C86.13222372 136.98645521 84.41719398 144.79249193 83.9375 152.9375 C85.2575 153.2675 86.5775 153.5975 87.9375 153.9375 C88.21648101 153.21660187 88.49546202 152.49570374 88.782897 151.75296021 C89.88674341 149.06126821 91.10458328 146.48869182 92.41114807 143.89013672 C92.90888733 142.89761902 93.40662659 141.90510132 93.91944885 140.88250732 C94.46238083 139.80495178 95.00531281 138.72739624 95.56469727 137.6171875 C96.44599682 135.8617611 97.32729474 134.10633389 98.20853126 132.35087585 C99.15329125 130.46974297 100.09901186 128.58909565 101.0449543 126.70855713 C103.01836452 122.78485242 104.98783454 118.85917861 106.95652771 114.93310547 C112.55415203 103.77124918 118.15509886 92.61106927 123.7644043 81.45507812 C126.86465453 75.28910517 129.96061136 69.1209966 133.05180782 62.95047951 C135.00701522 59.04815857 136.96744989 55.14852389 138.93176091 51.2507782 C140.43926229 48.25555119 141.93887596 45.25639205 143.43969727 42.2578125 C143.98465347 41.18025696 144.52960968 40.10270142 145.09107971 38.99249268 C145.58599915 37.99997498 146.08091858 37.00745728 146.59083557 35.98486328 C147.23818586 34.696259 147.23818586 34.696259 147.89861393 33.38162231 C148.95392158 30.89886597 149.50777711 28.59432937 149.9375 25.9375 C147.68713714 26.24737617 145.43722106 26.56049818 143.1875 26.875 C141.93453125 27.04902344 140.6815625 27.22304688 139.390625 27.40234375 C136.13401122 27.84737159 136.13401122 27.84737159 133.78125 28.5 C131.5379609 29.03230589 129.48976324 29.03385681 127.1875 29 C126.38828125 28.99097656 125.5890625 28.98195313 124.765625 28.97265625 C124.16234375 28.96105469 123.5590625 28.94945313 122.9375 28.9375 C123.81925676 14.64695946 123.81925676 14.64695946 126.9375 8.9375 C130.15927404 7.41739646 133.21853066 6.58727024 136.7265625 6.04296875 C137.6554126 5.8944043 138.5842627 5.74583984 139.54125977 5.59277344 C140.53826904 5.4384082 141.53527832 5.28404297 142.5625 5.125 C153.06107969 3.44991099 163.50571053 1.56082839 173.93798828 -0.48754883 C187.96964149 -3.16942041 187.96964149 -3.16942041 191.9375 -0.9375 C193.46143402 1.91987628 192.65985307 3.82891819 191.9375 6.9375 C190.56152344 9.91577148 190.56152344 9.91577148 188.796875 13.05859375 C188.4786528 13.63099289 188.1604306 14.20339203 187.83256531 14.7931366 C186.79265942 16.65862981 185.7402652 18.5167385 184.6875 20.375 C183.9550579 21.68300982 183.22337727 22.9914463 182.49243164 24.30029297 C180.65755249 27.58043756 178.81222666 30.85454343 176.9619751 34.1260376 C175.47615511 36.75324351 173.99436827 39.38272263 172.51171875 42.01171875 C170.94488271 44.78650525 169.37627945 47.56024506 167.80371094 50.33178711 C162.99033912 58.81731489 158.2583153 67.34710883 153.52978516 75.88012695 C149.47409872 83.19176491 145.37790201 90.4789244 141.25 97.75 C137.07431416 105.10812601 132.97164505 112.50084857 128.9375 119.9375 C124.3611572 128.37271131 119.68634002 136.74676663 114.94897461 145.0925293 C110.18527756 153.4850992 105.47268698 161.90566804 100.78173828 170.33911133 C90.98961029 187.88538971 90.98961029 187.88538971 88.9375 189.9375 C85.91893903 190.14696644 84.60965067 190.18671185 81.9375 188.9375 C79.20331863 185.75391922 77.34480324 182.12794896 75.375 178.4375 C74.7763916 177.36395264 74.1777832 176.29040527 73.56103516 175.18432617 C72.30008303 172.91813603 71.04964203 170.6460695 69.80908203 168.36865234 C67.43501901 164.01630671 65.00316619 159.69776403 62.57104492 155.37768555 C60.80555983 152.23765647 59.05022501 149.09213112 57.296875 145.9453125 C52.8000331 137.88740254 48.21185601 129.88256032 43.62109375 121.87792969 C41.69101228 118.50700433 39.76705662 115.13260539 37.84375 111.7578125 C36.76942763 109.87378482 35.69500303 107.98981548 34.62054443 106.10586548 C33.92703455 104.88941274 33.23386626 103.67276519 32.54107666 102.4559021 C29.35945855 96.86826437 26.17051123 91.29100698 22.8359375 85.79296875 C20.24056287 81.49911202 17.82672307 77.12385659 15.44238281 72.70996094 C12.95577498 68.128858 10.38223957 63.59733453 7.8125 59.0625 C7.25191895 58.07217773 6.69133789 57.08185547 6.11376953 56.06152344 C2.35743602 49.43071399 -1.40989454 42.80621184 -5.1875 36.1875 C-5.9153772 34.90951538 -5.9153772 34.90951538 -6.65795898 33.60571289 C-9.14328168 29.25256216 -11.65805606 24.9202615 -14.22265625 20.61328125 C-14.73103027 19.75379883 -15.2394043 18.89431641 -15.76318359 18.00878906 C-16.7255763 16.38488964 -17.69548692 14.76541238 -18.67431641 13.15136719 C-21.07172851 9.09503553 -22.80002061 5.75691332 -23.0625 0.9375 C-19.72816526 -5.73116947 -5.69567898 -1.07750529 0 0 Z " fill="#8975FD" transform="translate(28.0625,27.0625)"/>
<path d="M0 0 C6 1 6 1 7.4765625 2.765625 C7.85554687 3.58546875 8.23453125 4.4053125 8.625 5.25 C9.12 6.24773438 9.615 7.24546875 10.125 8.2734375 C10.41117188 8.85448242 10.69734375 9.43552734 10.9921875 10.03417969 C13.05674393 14.06126504 15.36450528 17.95575347 17.625 21.875 C18.67881076 23.7132979 19.73218873 25.55184397 20.78515625 27.390625 C21.58397217 28.7837793 21.58397217 28.7837793 22.39892578 30.20507812 C23.95504956 32.92153208 25.50758853 35.63999579 27.05859375 38.359375 C31.82418548 46.71404092 36.60626968 55.05810052 41.4375 63.375 C47.71933898 74.19668398 53.85714383 85.09903011 60 96 C62.10294315 99.72985821 64.20709245 103.45903231 66.3125 107.1875 C66.84157959 108.1244873 67.37065918 109.06147461 67.91577148 110.02685547 C72.56601728 118.25224183 77.25867151 126.45320665 81.95550537 134.65203857 C87.42798333 144.20760209 92.81729532 153.80734123 98.17211914 163.42944336 C101.81851444 169.9587384 105.55877049 176.41691714 109.51342773 182.76489258 C112 186.796181 112 186.796181 112 189 C113.65 189 115.3 189 117 189 C114.00189334 191.60284194 112.18806064 192.3739602 108.22906494 192.36076355 C107.27474705 192.36489604 106.32042915 192.36902853 105.33719254 192.37328625 C104.29296001 192.36249192 103.24872749 192.3516976 102.17285156 192.34057617 C101.05229244 192.34093778 99.93173332 192.34129938 98.77721786 192.34167194 C95.14817216 192.33943186 91.51958807 192.3165813 87.890625 192.29296875 C85.65088117 192.28855821 83.41113426 192.28549748 81.17138672 192.28381348 C72.86421067 192.26808126 64.55710081 192.22619767 56.25 192.1875 C37.6875 192.125625 19.125 192.06375 0 192 C0 128.64 0 65.28 0 0 Z " fill="#FEFEFE" transform="translate(0,31)"/>
<path d="M0 0 C0.25556486 5.33923339 -0.58814878 9.68535006 -2.3125 14.6875 C-2.77871333 16.10459258 -3.24223912 17.52257206 -3.703125 18.94140625 C-3.92806641 19.63250488 -4.15300781 20.32360352 -4.38476562 21.03564453 C-5.51429399 24.64206724 -6.36783065 28.31072594 -7.24609375 31.984375 C-8.40503734 36.62014937 -9.77440231 41.19275198 -11.1328125 45.7734375 C-11.95742646 48.84159573 -12.53506068 51.85928744 -13 55 C-10.91631462 54.68985608 -8.83306332 54.3767948 -6.75 54.0625 C-5.58984375 53.88847656 -4.4296875 53.71445312 -3.234375 53.53515625 C-0.17119476 53.08278113 -0.17119476 53.08278113 2.09375 52.4375 C4.51661479 51.88143267 6.76755354 51.90483623 9.25 51.9375 C10.14203125 51.94652344 11.0340625 51.95554688 11.953125 51.96484375 C12.62859375 51.97644531 13.3040625 51.98804688 14 52 C13.59565737 58.91543151 10.71163753 64.25550635 7.60986328 70.36376953 C7.04882904 71.48817444 6.4877948 72.61257935 5.90975952 73.77105713 C4.37734452 76.84157237 2.83265055 79.90575667 1.2855134 82.96887445 C-0.3349365 86.18213369 -1.94429229 89.40094082 -3.55496216 92.61911011 C-6.26036269 98.02072085 -8.97305379 103.41861527 -11.69091797 108.81396484 C-15.51950183 116.4143023 -19.33427092 124.02151141 -23.14658713 131.63001847 C-25.79317073 136.91071444 -28.44302895 142.18976772 -31.09351969 147.46850348 C-31.73472071 148.74555093 -32.37583484 150.02264202 -33.01686239 151.29977655 C-35.12513242 155.49977225 -37.23717972 159.69785084 -39.35107422 163.89501953 C-39.88106018 164.95073151 -40.41104614 166.00644348 -40.95709229 167.09414673 C-41.44779205 168.0669458 -41.93849182 169.03974487 -42.44406128 170.04202271 C-42.86770903 170.8837459 -43.29135677 171.72546909 -43.72784233 172.59269905 C-45.06380772 175.1207432 -46.50774407 177.56148496 -48 180 C-49.65 179.67 -51.3 179.34 -53 179 C-52.35091106 169.0060909 -50.06950656 159.38412056 -47.9375 149.625 C-47.37079415 147.0234035 -46.80576521 144.42149472 -46.2457428 141.81845093 C-45.89920632 140.20822611 -45.54882384 138.59882281 -45.19407654 136.99038696 C-44.45298956 133.55166921 -44 130.53650126 -44 127 C-47.98473311 127.41221377 -51.40363191 127.78951714 -55.1875 129.125 C-58.27747326 130.08632502 -59.93447141 129.90162606 -63 129 C-62.52380132 121.61892054 -61.13171572 114.67495864 -59.37207031 107.51025391 C-58.2709285 102.87434584 -57.80431459 98.76588649 -58 94 C-63.89195745 94.56653437 -69.36601775 95.79774232 -75.0703125 97.37890625 C-78.1333591 98.02827213 -80.87867896 98.04301352 -84 98 C-84.36164299 81.81291166 -83.30702128 65.73253 -82.20404053 49.59295654 C-82.01311209 46.76970208 -81.82992113 43.94596589 -81.6467371 41.12220001 C-81.42624751 37.73743268 -81.1992983 34.3531111 -80.97265625 30.96875 C-80.89032242 29.70953735 -80.80798859 28.45032471 -80.72315979 27.1529541 C-80.64315231 25.99324097 -80.56314484 24.83352783 -80.48071289 23.63867188 C-80.41187393 22.61898315 -80.34303497 21.59929443 -80.27210999 20.54870605 C-80 18 -80 18 -79 15 C-73.35005005 12.54448855 -66.81483621 11.74271387 -60.7890625 10.62890625 C-59.37003568 10.36539783 -57.95100899 10.10188869 -56.53198242 9.83837891 C-55.42250748 9.63320648 -55.42250748 9.63320648 -54.2906189 9.42388916 C-47.98176306 8.25640748 -41.67532384 7.07594323 -35.36938477 5.89282227 C-33.73223641 5.58629866 -32.09486153 5.28098274 -30.45727539 4.97680664 C-28.04253576 4.52802438 -25.62863 4.07497225 -23.21484375 3.62109375 C-22.49183578 3.48771103 -21.76882782 3.35432831 -21.02391052 3.21690369 C-17.67758654 2.58363944 -14.40867992 1.86734818 -11.13867188 0.91088867 C-7.19403479 -0.23390294 -4.07666665 -0.14304093 0 0 Z " fill="#FECA23" transform="translate(164,1)"/>
<path d="M0 0 C0.33 0 0.66 0 1 0 C1.495 2.97 1.495 2.97 2 6 C2.66 5.01 3.32 4.02 4 3 C5.25637937 6.84594539 4.46696005 8.77007306 2.68275452 12.39212036 C2.1374131 13.45280228 2.1374131 13.45280228 1.58105469 14.53491211 C1.01791817 15.66490883 1.01791817 15.66490883 0.44340515 16.81773376 C-0.80235855 19.31018045 -2.06502013 21.79364615 -3.328125 24.27734375 C-4.19774632 26.00793116 -5.06636481 27.73902282 -5.934021 29.47059631 C-8.22377988 34.03286492 -10.52820477 38.58757648 -12.83538818 43.14105225 C-14.71298351 46.85273991 -16.58022147 50.56958733 -18.44688797 54.28678036 C-20.674742 58.72284363 -22.90694163 63.15671328 -25.140625 67.58984375 C-25.56598793 68.43414381 -25.99135086 69.27844387 -26.42960358 70.14832878 C-27.63860933 72.54528076 -28.85049075 74.94075349 -30.06347656 77.33569336 C-30.41894058 78.04079041 -30.7744046 78.74588745 -31.14064026 79.47235107 C-32.9661937 83.06850543 -34.87345352 86.57270989 -37 90 C-38.65 89.67 -40.3 89.34 -42 89 C-41.45267431 82.1438811 -40.41758805 75.54815548 -38.93359375 68.8359375 C-38.73524429 67.91785309 -38.53689484 66.99976868 -38.33253479 66.05386353 C-37.70603894 63.15975478 -37.07191292 60.26738239 -36.4375 57.375 C-36.00795499 55.3972458 -35.57891391 53.41938208 -35.15039062 51.44140625 C-34.10607527 46.62631987 -33.05491982 41.81277371 -32 37 C-29.69 37 -27.38 37 -25 37 C-24.67 39.64 -24.34 42.28 -24 45 C-22.02 45 -20.04 45 -18 45 C-17.86722656 44.01257813 -17.73445313 43.02515625 -17.59765625 42.0078125 C-17.42105469 40.72648437 -17.24445313 39.44515625 -17.0625 38.125 C-16.88847656 36.84882812 -16.71445313 35.57265625 -16.53515625 34.2578125 C-16 31 -16 31 -15 29 C-13.7934375 29.0309375 -13.7934375 29.0309375 -12.5625 29.0625 C-10.06645115 29.29633621 -10.06645115 29.29633621 -9 28 C-8.92738667 24.66432524 -9.00391343 21.33967891 -9.0625 18.00390625 C-9 15 -9 15 -8 13 C-5.69 13 -3.38 13 -1 13 C-0.67 12.34 -0.34 11.68 0 11 C-0.495 10.505 -0.495 10.505 -1 10 C-1.13568319 6.33655389 -1.16461426 3.49384279 0 0 Z " fill="#FCAD0D" transform="translate(153,91)"/>
<path d="M0 0 C0.33 0 0.66 0 1 0 C1.495 6.93 1.495 6.93 2 14 C1.34 13.67 0.68 13.34 0 13 C0 13.99 0 14.98 0 16 C-0.804375 15.979375 -1.60875 15.95875 -2.4375 15.9375 C-4.93354885 15.70366379 -4.93354885 15.70366379 -6 17 C-6.07258946 19.18639453 -6.08373783 21.37500389 -6.0625 23.5625 C-6.05347656 24.76003906 -6.04445312 25.95757812 -6.03515625 27.19140625 C-6.02355469 28.11824219 -6.01195312 29.04507813 -6 30 C-6.66 29.67 -7.32 29.34 -8 29 C-8.66 29.99 -9.32 30.98 -10 32 C-12.125 33.1875 -12.125 33.1875 -14 34 C-13.98839844 34.84304687 -13.97679687 35.68609375 -13.96484375 36.5546875 C-13.95582031 37.65039062 -13.94679687 38.74609375 -13.9375 39.875 C-13.92589844 40.96554688 -13.91429687 42.05609375 -13.90234375 43.1796875 C-14 46 -14 46 -15 48 C-15.66 48 -16.32 48 -17 48 C-17 47.34 -17 46.68 -17 46 C-17.66 46 -18.32 46 -19 46 C-19 46.66 -19 47.32 -19 48 C-19.99 48.66 -20.98 49.32 -22 50 C-22.36558117 53.35503476 -22.36558117 53.35503476 -22.1875 57.125 C-22.16042969 58.40632813 -22.13335937 59.68765625 -22.10546875 61.0078125 C-22.05326172 62.48894531 -22.05326172 62.48894531 -22 64 C-25.465 64.495 -25.465 64.495 -29 65 C-29.78116316 68.12465262 -30.04666927 70.98482168 -30 74.1875 C-30 78 -30 78 -31 80 C-33.31 80 -35.62 80 -38 80 C-38 84.62 -38 89.24 -38 94 C-38.66 93.67 -39.32 93.34 -40 93 C-40 93.99 -40 94.98 -40 96 C-42.97 96.495 -42.97 96.495 -46 97 C-45.98839844 97.92683594 -45.97679687 98.85367188 -45.96484375 99.80859375 C-45.95582031 101.00613281 -45.94679687 102.20367187 -45.9375 103.4375 C-45.92589844 104.63246094 -45.91429687 105.82742187 -45.90234375 107.05859375 C-46 110 -46 110 -47 111 C-49.33317216 111.77772405 -51.61435923 112.42415568 -54 113 C-54 115.31 -54 117.62 -54 120 C-56.97 120 -59.94 120 -63 120 C-62.67 119.01 -62.34 118.02 -62 117 C-60.68 117 -59.36 117 -58 117 C-57.71880877 116.27509778 -57.43761753 115.55019556 -57.14790535 114.80332661 C-56.07537859 112.18408381 -54.90001196 109.67692972 -53.6335144 107.14677429 C-53.15957245 106.19751572 -52.68563049 105.24825714 -52.19732666 104.27023315 C-51.68087585 103.24092682 -51.16442505 102.21162048 -50.63232422 101.15112305 C-50.08583221 100.05799301 -49.53934021 98.96486298 -48.97628784 97.83860779 C-47.48203006 94.85066847 -45.98600568 91.86362635 -44.48918295 88.87697196 C-42.92357454 85.75201708 -41.36023977 82.62592518 -39.79666138 79.49995422 C-36.83755703 73.58485046 -33.87641529 67.6707691 -30.9145366 61.75705415 C-27.54175114 55.02267036 -24.17124405 48.28714721 -20.80092597 41.55152833 C-13.86981476 27.69975135 -6.93584991 13.84940489 0 0 Z " fill="#A94EF6" transform="translate(174,64)"/>
<path d="M0 0 C0.22577402 5.4185766 -0.53329887 9.77487721 -2 15 C-2.99 14.01 -2.99 14.01 -4 13 C-3.625 10.375 -3.625 10.375 -3 8 C-4.299375 8.144375 -5.59875 8.28875 -6.9375 8.4375 C-7.66839844 8.51871094 -8.39929688 8.59992187 -9.15234375 8.68359375 C-11.01140229 8.81886614 -11.01140229 8.81886614 -12 10 C-13.34411829 10.12027987 -14.69384686 10.17945173 -16.04296875 10.2109375 C-16.86990234 10.23929688 -17.69683594 10.26765625 -18.54882812 10.296875 C-20.28821247 10.34837417 -22.02782233 10.39281153 -23.76757812 10.4296875 C-29.05260154 10.62588326 -32.24836252 11.57025747 -37 14 C-39.87008714 14.45111118 -42.72354549 14.50563284 -45.625 14.5625 C-56.42717256 14.92617737 -56.42717256 14.92617737 -67 17 C-67.33 17.66 -67.66 18.32 -68 19 C-70.64860427 19.59355614 -73.29197322 19.74209269 -76 20 C-75.95875 21.0725 -75.9175 22.145 -75.875 23.25 C-75.9885825 26.65747485 -76.21273364 28.20739631 -78 31 C-77.34 31 -76.68 31 -76 31 C-76.71428571 39.57142857 -76.71428571 39.57142857 -80 43 C-79.979375 42.030625 -79.95875 41.06125 -79.9375 40.0625 C-79.64381501 37.12534105 -79.64381501 37.12534105 -81 36 C-80.93500791 33.02808895 -80.80774104 30.08997344 -80.625 27.125 C-80.58117187 26.29613281 -80.53734375 25.46726562 -80.4921875 24.61328125 C-80.29119108 21.15725954 -80.10221537 18.3066461 -79 15 C-73.35005005 12.54448855 -66.81483621 11.74271387 -60.7890625 10.62890625 C-59.37003568 10.36539783 -57.95100899 10.10188869 -56.53198242 9.83837891 C-55.42250748 9.63320648 -55.42250748 9.63320648 -54.2906189 9.42388916 C-47.98176306 8.25640748 -41.67532384 7.07594323 -35.36938477 5.89282227 C-33.73223641 5.58629866 -32.09486153 5.28098274 -30.45727539 4.97680664 C-28.04253576 4.52802438 -25.62863 4.07497225 -23.21484375 3.62109375 C-22.49183578 3.48771103 -21.76882782 3.35432831 -21.02391052 3.21690369 C-17.67758654 2.58363944 -14.40867992 1.86734818 -11.13867188 0.91088867 C-7.19403479 -0.23390294 -4.07666665 -0.14304093 0 0 Z " fill="#FDE255" transform="translate(164,1)"/>
<path d="M0 0 C2.31 0 4.62 0 7 0 C5.68583212 4.30950905 4.01679325 8.05876579 1.8125 11.984375 C1.19632813 13.08394531 0.58015625 14.18351563 -0.0546875 15.31640625 C-1.01761719 17.01603516 -1.01761719 17.01603516 -2 18.75 C-2.64195313 19.89855469 -3.28390625 21.04710937 -3.9453125 22.23046875 C-8.73155323 30.73155323 -8.73155323 30.73155323 -11 33 C-14.1392512 33.30355061 -15.27065796 33.3837065 -18 32 C-20.82897584 28.64585256 -22.84605862 24.90681417 -24.9375 21.0625 C-25.82018555 19.52045898 -25.82018555 19.52045898 -26.72070312 17.94726562 C-31 10.3777312 -31 10.3777312 -31 8 C-28.69 8 -26.38 8 -24 8 C-24 10.64 -24 13.28 -24 16 C-23.21625 15.95875 -22.4325 15.9175 -21.625 15.875 C-19 16 -19 16 -17 18 C-16.67 17.34 -16.34 16.68 -16 16 C-16 18.64 -16 21.28 -16 24 C-13.36 24 -10.72 24 -8 24 C-8 21.36 -8 18.72 -8 16 C-7.34 16 -6.68 16 -6 16 C-6.66 14.02 -7.32 12.04 -8 10 C-5.34771188 8.92474806 -2.71631546 7.90543849 0 7 C0 4.69 0 2.38 0 0 Z " fill="#BC33F8" transform="translate(128,184)"/>
<path d="M0 0 C1.26585938 0.22171875 2.53171875 0.4434375 3.8359375 0.671875 C14.0569142 2.51642493 14.0569142 2.51642493 17.75 4.625 C16.29176788 4.6520043 14.83339325 4.67139787 13.375 4.6875 C12.56289063 4.69910156 11.75078125 4.71070313 10.9140625 4.72265625 C8.75 4.625 8.75 4.625 6.75 3.625 C5.12838044 3.86148619 3.50728356 4.10278277 1.890625 4.37109375 C-1.41347953 4.76300396 -4.69410313 4.64502228 -8.015625 4.5625 C-10.42341632 4.52192883 -10.42341632 4.52192883 -13.25 5.625 C-13.41894443 7.37478157 -13.58506309 9.12483612 -13.75 10.875 C-13.8428125 11.84953125 -13.935625 12.8240625 -14.03125 13.828125 C-14.20800168 16.08802153 -14.25 18.35820193 -14.25 20.625 C-11.61 20.625 -8.97 20.625 -6.25 20.625 C-6.10714286 29.19642857 -6.10714286 29.19642857 -7.25 32.625 C-7.91 32.625 -8.57 32.625 -9.25 32.625 C-10.4074707 31.02368164 -10.4074707 31.02368164 -11.67578125 28.78515625 C-12.14306641 27.96853516 -12.61035156 27.15191406 -13.09179688 26.31054688 C-13.57712891 25.44494141 -14.06246094 24.57933594 -14.5625 23.6875 C-15.03623047 22.85669922 -15.50996094 22.02589844 -15.99804688 21.16992188 C-16.950791 19.49512542 -17.89748749 17.81687433 -18.83813477 16.13525391 C-19.78482122 14.45207387 -20.74648944 12.77723872 -21.72241211 11.11083984 C-22.18010986 10.32016113 -22.63780762 9.52948242 -23.109375 8.71484375 C-23.7295752 7.65898071 -23.7295752 7.65898071 -24.36230469 6.58178711 C-25.69500992 3.64404442 -25.36086656 1.58731082 -24.25 -1.375 C-17.40550492 -4.79724754 -7.06828072 -1.29706595 0 0 Z " fill="#49C4FA" transform="translate(30.25,27.375)"/>
<path d="M0 0 C2.31 0 4.62 0 7 0 C5.7298182 4.0973728 4.20311562 7.76379566 2.1640625 11.53515625 C1.59985596 12.58243896 1.03564941 13.62972168 0.4543457 14.70874023 C-0.45118042 16.36885132 -0.45118042 16.36885132 -1.375 18.0625 C-1.99479736 19.20468994 -2.61459473 20.34687988 -3.25317383 21.52368164 C-7.33557935 29.02961042 -11.47685201 36.50272501 -15.6875 43.9375 C-16.17976074 44.81220947 -16.67202148 45.68691895 -17.17919922 46.58813477 C-17.63955566 47.39307373 -18.09991211 48.1980127 -18.57421875 49.02734375 C-19.17109497 50.07523071 -19.17109497 50.07523071 -19.7800293 51.14428711 C-21 53 -21 53 -24 56 C-24 50.72 -24 45.44 -24 40 C-21.36 40 -18.72 40 -16 40 C-16.04640625 39.18015625 -16.0928125 38.3603125 -16.140625 37.515625 C-16.17671875 36.43796875 -16.2128125 35.3603125 -16.25 34.25 C-16.29640625 33.18265625 -16.3428125 32.1153125 -16.390625 31.015625 C-15.91178666 27.31899302 -14.87192561 26.28064681 -12 24 C-9.75 22.75 -9.75 22.75 -8 22 C-8 20.02 -8 18.04 -8 16 C-7.34 15.67 -6.68 15.34 -6 15 C-5.71125 14.34 -5.4225 13.68 -5.125 13 C-4.75375 12.34 -4.3825 11.68 -4 11 C-2.68 10.67 -1.36 10.34 0 10 C0 6.7 0 3.4 0 0 Z " fill="#AB4CF8" transform="translate(168,112)"/>
<path d="M0 0 C0.33 0 0.66 0 1 0 C1.33 1.98 1.66 3.96 2 6 C2.66 5.01 3.32 4.02 4 3 C4.97239303 5.57448766 5.08982593 6.74215249 4.17115784 9.37921143 C3.50164345 10.6982547 3.50164345 10.6982547 2.81860352 12.04394531 C2.31800919 13.04468079 1.81741486 14.04541626 1.301651 15.07647705 C0.47364235 16.68604279 0.47364235 16.68604279 -0.37109375 18.328125 C-0.92740982 19.43226746 -1.48372589 20.53640991 -2.05690002 21.67401123 C-3.53620073 24.60470058 -5.02573333 27.52987853 -6.52038574 30.45275879 C-8.04376613 33.43808148 -9.55331618 36.43033611 -11.06445312 39.421875 C-14.03045386 45.28766241 -17.01004582 51.14638941 -20 57 C-20.33 57 -20.66 57 -21 57 C-21.08090971 55.37581255 -21.13914995 53.75048255 -21.1875 52.125 C-21.22230469 51.22007812 -21.25710937 50.31515625 -21.29296875 49.3828125 C-21.19628906 48.59648437 -21.09960938 47.81015625 -21 47 C-20.01 46.34 -19.02 45.68 -18 45 C-17.22930352 41.72807336 -17.22930352 41.72807336 -16.875 38 C-16.07486631 31.14973262 -16.07486631 31.14973262 -15 29 C-13.7934375 29.0309375 -13.7934375 29.0309375 -12.5625 29.0625 C-10.06645115 29.29633621 -10.06645115 29.29633621 -9 28 C-8.92738667 24.66432524 -9.00391343 21.33967891 -9.0625 18.00390625 C-9 15 -9 15 -8 13 C-5.69 13 -3.38 13 -1 13 C-0.67 12.34 -0.34 11.68 0 11 C-0.33 10.67 -0.66 10.34 -1 10 C-1.13568319 6.33655389 -1.16461426 3.49384279 0 0 Z " fill="#F7AE17" transform="translate(153,91)"/>
<path d="M0 0 C-0.54111508 8.2368418 -2.20962664 16.09444911 -4.0625 24.125 C-4.34416016 25.36765625 -4.62582031 26.6103125 -4.91601562 27.890625 C-5.60534368 30.92834184 -6.3001118 33.9647021 -7 37 C-9.58772586 33.1184112 -8.87719799 31.46573523 -8 27 C-7.67 26.01 -7.34 25.02 -7 24 C-7.66 24 -8.32 24 -9 24 C-9 18.39 -9 12.78 -9 7 C-13.73647686 6.73647686 -13.73647686 6.73647686 -17 8 C-20.0625 7.3125 -20.0625 7.3125 -23 6 C-24.18359375 3.91796875 -24.18359375 3.91796875 -25 2 C-24.09121094 2.05220703 -24.09121094 2.05220703 -23.1640625 2.10546875 C-17.35868173 2.29302721 -12.77209072 1.58466184 -7.32421875 -0.44140625 C-4.56919936 -1.10353696 -2.71187448 -0.72476646 0 0 Z " fill="#9A5EF8" transform="translate(121,128)"/>
<path d="M0 0 C0.33 0.99 0.66 1.98 1 3 C1.99 3 2.98 3 4 3 C3.67 4.65 3.34 6.3 3 8 C3.99 8 4.98 8 6 8 C6.33 6.68 6.66 5.36 7 4 C7.33 7.96 7.66 11.92 8 16 C9.7325 15.0409375 9.7325 15.0409375 11.5 14.0625 C16.63890417 11.47935634 21.25392161 11 27 11 C27 11.99 27 12.98 27 14 C27.66 14 28.32 14 29 14 C29 13.34 29 12.68 29 12 C29.66 12 30.32 12 31 12 C31.33 12.99 31.66 13.98 32 15 C31.34 15 30.68 15 30 15 C30 15.99 30 16.98 30 18 C30.66 18 31.32 18 32 18 C32 22.62 32 27.24 32 32 C29.69 32 27.38 32 25 32 C25.33 26.39 25.66 20.78 26 15 C19.94635477 15.75670565 14.72742006 16.77184245 8.9296875 18.37890625 C6 19 6 19 0 19 C0 12.73 0 6.46 0 0 Z " fill="#FAC21B" transform="translate(80,80)"/>
<path d="M0 0 C0.33 0 0.66 0 1 0 C1.495 6.93 1.495 6.93 2 14 C1.34 13.67 0.68 13.34 0 13 C0 13.99 0 14.98 0 16 C-0.804375 15.979375 -1.60875 15.95875 -2.4375 15.9375 C-4.93354885 15.70366379 -4.93354885 15.70366379 -6 17 C-6.07258946 19.18639453 -6.08373783 21.37500389 -6.0625 23.5625 C-6.05347656 24.76003906 -6.04445312 25.95757812 -6.03515625 27.19140625 C-6.02355469 28.11824219 -6.01195312 29.04507813 -6 30 C-6.66 29.67 -7.32 29.34 -8 29 C-8.66 29.99 -9.32 30.98 -10 32 C-12.125 33.1875 -12.125 33.1875 -14 34 C-13.98839844 34.84304687 -13.97679687 35.68609375 -13.96484375 36.5546875 C-13.95130859 38.19824219 -13.95130859 38.19824219 -13.9375 39.875 C-13.92589844 40.96554688 -13.91429687 42.05609375 -13.90234375 43.1796875 C-14 46 -14 46 -15 48 C-15.66 48 -16.32 48 -17 48 C-17 47.34 -17 46.68 -17 46 C-17.66 46 -18.32 46 -19 46 C-19 46.66 -19 47.32 -19 48 C-19.99 48 -20.98 48 -22 48 C-21.48608111 42.06232551 -18.977605 37.44326497 -16.30859375 32.2265625 C-15.84389175 31.3028183 -15.37918976 30.3790741 -14.90040588 29.42733765 C-13.42026348 26.48937161 -11.92906965 23.55717833 -10.4375 20.625 C-9.42960341 18.62927734 -8.42243358 16.63318747 -7.41601562 14.63671875 C-4.95241535 9.75352631 -2.4797272 4.87502105 0 0 Z " fill="#9C5FF5" transform="translate(174,64)"/>
<path d="M0 0 C2.64 0 5.28 0 8 0 C8 3.63 8 7.26 8 11 C8.66 11.33 9.32 11.66 10 12 C10 12.99 10 13.98 10 15 C11.65 15.33 13.3 15.66 15 16 C16 19 16 19 16.5 21.5625 C16.88942398 23.99414942 16.88942398 23.99414942 18 26 C19.98 26 21.96 26 24 26 C24 30.29 24 34.58 24 39 C23.01 39 22.02 39 21 39 C20.68361572 38.41210693 20.36723145 37.82421387 20.04125977 37.21850586 C11.64170253 21.62013558 11.64170253 21.62013558 2.59204102 6.39428711 C0 2.20015767 0 2.20015767 0 0 Z " fill="#709DF7" transform="translate(24,64)"/>
<path d="M0 0 C-0.65916196 3.22400167 -1.82108744 5.76389148 -3.40625 8.640625 C-3.89899414 9.53958496 -4.39173828 10.43854492 -4.89941406 11.36474609 C-5.42760742 12.31687988 -5.95580078 13.26901367 -6.5 14.25 C-7.3038916 15.71107178 -7.3038916 15.71107178 -8.12402344 17.20166016 C-12.69683652 25.49719466 -17.32583266 33.7611899 -22 42 C-22.66 42 -23.32 42 -24 42 C-24.08927756 38.78600767 -23.8534403 36.0937211 -23 33 C-23 32.34 -23 31.68 -23 31 C-22.34 30.67 -21.68 30.34 -21 30 C-20.67 29.01 -20.34 28.02 -20 27 C-18.68 27 -17.36 27 -16 27 C-16.02320313 26.31292969 -16.04640625 25.62585938 -16.0703125 24.91796875 C-16.08835938 24.01691406 -16.10640625 23.11585937 -16.125 22.1875 C-16.14820313 21.29417969 -16.17140625 20.40085937 -16.1953125 19.48046875 C-16 17 -16 17 -14 14 C-13.34 14 -12.68 14 -12 14 C-12 14.66 -12 15.32 -12 16 C-11.34 16 -10.68 16 -10 16 C-10 14.35 -10 12.7 -10 11 C-9.34 11 -8.68 11 -8 11 C-6.9269244 7.7807732 -7.20053275 7.09793558 -8 4 C-6.4425489 0.88509781 -3.40085499 0 0 0 Z " fill="#995DF8" transform="translate(208,53)"/>
<path d="M0 0 C1.125 1.625 1.125 1.625 2 4 C0.70107362 9.01857919 -1.65023204 13.36270224 -4.125 17.875 C-4.49753906 18.56335938 -4.87007812 19.25171875 -5.25390625 19.9609375 C-6.16499526 21.64294798 -7.08190315 23.32180436 -8 25 C-9.65 24.67 -11.3 24.34 -13 24 C-12.51959659 17.83060889 -11.93106086 11.90046374 -10 6 C-7 5 -7 5 -5 5 C-4.01 4.67 -3.02 4.34 -2 4 C-1.34 4.33 -0.68 4.66 0 5 C0 3.35 0 1.7 0 0 Z " fill="#F9A512" transform="translate(124,156)"/>
<path d="M0 0 C6.58694802 -0.24856408 12.55597352 0.68452977 19 2 C19.96550781 2.19078125 20.93101563 2.3815625 21.92578125 2.578125 C24.28528478 3.04535342 26.64318339 3.51943436 29 4 C29 4.99 29 5.98 29 7 C27.35 7.33 25.7 7.66 24 8 C24 7.34 24 6.68 24 6 C23.37738281 6.32742187 22.75476563 6.65484375 22.11328125 6.9921875 C17.76976693 8.39824358 13.7195531 8.21286978 9.1875 8.125 C8.30384766 8.11597656 7.42019531 8.10695313 6.50976562 8.09765625 C4.33972641 8.07419637 2.16982753 8.03832865 0 8 C0.66 6.02 1.32 4.04 2 2 C1.34 2 0.68 2 0 2 C0 1.34 0 0.68 0 0 Z " fill="#5FAFFA" transform="translate(48,32)"/>
<path d="M0 0 C0.74056641 0.05671875 1.48113281 0.1134375 2.24414062 0.171875 C4.05943743 0.31241411 5.87361597 0.46727095 7.6875 0.625 C7.6875 0.955 7.6875 1.285 7.6875 1.625 C4.7175 2.285 1.7475 2.945 -1.3125 3.625 C-1.6425 2.635 -1.9725 1.645 -2.3125 0.625 C-3.6325 0.955 -4.9525 1.285 -6.3125 1.625 C-5.6525 1.955 -4.9925 2.285 -4.3125 2.625 C-4.3125 3.285 -4.3125 3.945 -4.3125 4.625 C-5.9625 4.625 -7.6125 4.625 -9.3125 4.625 C-8.9825 8.915 -8.6525 13.205 -8.3125 17.625 C-9.6325 17.955 -10.9525 18.285 -12.3125 18.625 C-13.3319119 19.60520375 -14.33496356 20.60303008 -15.3125 21.625 C-15.9725 21.625 -16.6325 21.625 -17.3125 21.625 C-16.43074324 7.33445946 -16.43074324 7.33445946 -13.3125 1.625 C-9.08989412 -1.0111689 -4.7648933 -0.4258171 0 0 Z " fill="#857DF7" transform="translate(168.3125,34.375)"/>
<path d="M0 0 C0 0.66 0 1.32 0 2 C-1.134375 2.12375 -2.26875 2.2475 -3.4375 2.375 C-5.2009375 2.684375 -5.2009375 2.684375 -7 3 C-7.33 3.66 -7.66 4.32 -8 5 C-10.64860427 5.59355614 -13.29197322 5.74209269 -16 6 C-15.95875 7.0725 -15.9175 8.145 -15.875 9.25 C-15.9885825 12.65747485 -16.21273364 14.20739631 -18 17 C-17.34 17 -16.68 17 -16 17 C-16.71428571 25.57142857 -16.71428571 25.57142857 -20 29 C-19.979375 28.030625 -19.95875 27.06125 -19.9375 26.0625 C-19.64381501 23.12534105 -19.64381501 23.12534105 -21 22 C-20.93500791 19.02808895 -20.80774104 16.08997344 -20.625 13.125 C-20.58117187 12.29613281 -20.53734375 11.46726562 -20.4921875 10.61328125 C-20.29119108 7.15725954 -20.10221537 4.3066461 -19 1 C-12.87409678 -1.8388332 -6.48004767 -1.62001192 0 0 Z " fill="#FDE254" transform="translate(104,15)"/>
<path d="M0 0 C0.33 0.99 0.66 1.98 1 3 C-1 6 -1 6 -4 8 C-4.32707676 10.86370649 -4.32707676 10.86370649 -4.125 14.0625 C-4.05442877 16.04084691 -4.00583092 18.02040337 -4 20 C-6.03689998 22.03689998 -9.26698767 22.34030737 -12 23 C-12 25.31 -12 27.62 -12 30 C-14.97 30 -17.94 30 -21 30 C-20.505 28.515 -20.505 28.515 -20 27 C-18.68 27 -17.36 27 -16 27 C-15.57436768 25.91078247 -15.57436768 25.91078247 -15.14013672 24.79956055 C-13.33684693 20.37165392 -11.22676719 16.1048846 -9.125 11.8125 C-8.69058594 10.89791016 -8.25617188 9.98332031 -7.80859375 9.04101562 C-7.37933594 8.16767578 -6.95007813 7.29433594 -6.5078125 6.39453125 C-6.12254395 5.59893799 -5.73727539 4.80334473 -5.34033203 3.98364258 C-3.8033022 1.70889442 -2.52437702 0.99336743 0 0 Z " fill="#B242F6" transform="translate(132,154)"/>
<path d="M0 0 C0.66 -0.33 1.32 -0.66 2 -1 C2 -0.01 2 0.98 2 2 C2.66 2 3.32 2 4 2 C4 1.34 4 0.68 4 0 C4.66 0 5.32 0 6 0 C6.33 0.99 6.66 1.98 7 3 C6.34 3 5.68 3 5 3 C5 3.99 5 4.98 5 6 C5.66 6 6.32 6 7 6 C7 10.62 7 15.24 7 20 C4.69 20 2.38 20 0 20 C0.33 14.39 0.66 8.78 1 3 C-1.97 3 -4.94 3 -8 3 C-8.33 2.01 -8.66 1.02 -9 0 C-5.55465996 -0.86133501 -3.39620354 -0.93688374 0 0 Z " fill="#F9BE17" transform="translate(105,92)"/>
<path d="M0 0 C-0.96355353 9.41002278 -0.96355353 9.41002278 -2 14 C-2.66 13.34 -3.32 12.68 -4 12 C-3.625 9.375 -3.625 9.375 -3 7 C-4.299375 7.144375 -5.59875 7.28875 -6.9375 7.4375 C-7.66839844 7.51871094 -8.39929688 7.59992187 -9.15234375 7.68359375 C-11.01140229 7.81886614 -11.01140229 7.81886614 -12 9 C-14.69654854 9.07319621 -17.36691458 9.09242537 -20.0625 9.0625 C-21.20041992 9.05573242 -21.20041992 9.05573242 -22.36132812 9.04882812 C-24.24091871 9.0370068 -26.12046899 9.01907078 -28 9 C-28 8.67 -28 8.34 -28 8 C-25.36 8 -22.72 8 -20 8 C-20 7.34 -20 6.68 -20 6 C-17.36 5.34 -14.72 4.68 -12 4 C-12 3.34 -12 2.68 -12 2 C-7.8803623 0.70756464 -4.33168317 -0.26252625 0 0 Z " fill="#FDE145" transform="translate(164,2)"/>
<path d="M0 0 C-0.33 0.99 -0.66 1.98 -1 3 C-1.66 3 -2.32 3 -3 3 C-2.78738525 3.72920654 -2.57477051 4.45841309 -2.35571289 5.2097168 C-1.92218176 8.61042189 -2.55442737 9.74720026 -4.30859375 12.64453125 C-4.80810547 13.48564453 -5.30761719 14.32675781 -5.82226562 15.19335938 C-6.35529297 16.05767578 -6.88832031 16.92199219 -7.4375 17.8125 C-7.96666016 18.69615234 -8.49582031 19.57980469 -9.04101562 20.49023438 C-10.34787894 22.66833991 -11.66768336 24.83740367 -13 27 C-14.14077657 23.57767028 -14.09815117 20.91326783 -14.0625 17.3125 C-14.05347656 16.13300781 -14.04445312 14.95351562 -14.03515625 13.73828125 C-14.02355469 12.83464844 -14.01195312 11.93101562 -14 11 C-11.36 11 -8.72 11 -6 11 C-6.0928125 9.1128125 -6.0928125 9.1128125 -6.1875 7.1875 C-6.1875 3.28571429 -6.1875 3.28571429 -4.6875 1 C-3 0 -3 0 0 0 Z " fill="#B142F7" transform="translate(158,141)"/>
<path d="M0 0 C0.66 0 1.32 0 2 0 C2 0.66 2 1.32 2 2 C3.32 1.67 4.64 1.34 6 1 C5.19500136 7.03748977 4.11517502 13.01270113 3 19 C1.35 18.67 -0.3 18.34 -2 18 C-2.10452045 12.22814851 -2.08808374 6.6822151 -1 1 C-0.67 0.67 -0.34 0.34 0 0 Z " fill="#9265F9" transform="translate(98,112)"/>
<path d="M0 0 C0.33 0 0.66 0 1 0 C0.26734562 6.93916331 -1.10627095 13.67978998 -2.5625 20.5 C-2.79646484 21.60859375 -3.03042969 22.7171875 -3.27148438 23.859375 C-3.8447367 26.57354927 -4.42097824 29.28705176 -5 32 C-7.58772586 28.1184112 -6.87719799 26.46573523 -6 22 C-5.67 21.01 -5.34 20.02 -5 19 C-5.66 19 -6.32 19 -7 19 C-6.93994409 16.89504036 -6.85114641 14.79088565 -6.75 12.6875 C-6.70359375 11.51574219 -6.6571875 10.34398437 -6.609375 9.13671875 C-6 6 -6 6 -4.078125 4.08203125 C-2 3 -2 3 0 3 C0 2.01 0 1.02 0 0 Z " fill="#A556F4" transform="translate(119,133)"/>
<path d="M0 0 C0.66 0 1.32 0 2 0 C3 7.625 3 7.625 3 11 C5.64 11 8.28 11 11 11 C11.14285714 19.57142857 11.14285714 19.57142857 10 23 C9.34 23 8.68 23 8 23 C6.76318359 21.25585938 6.76318359 21.25585938 5.3984375 18.84375 C4.90859375 17.98652344 4.41875 17.12929688 3.9140625 16.24609375 C3.40617187 15.33988281 2.89828125 14.43367188 2.375 13.5 C1.859375 12.59378906 1.34375 11.68757813 0.8125 10.75390625 C-0.46507852 8.5063144 -1.73551992 6.25497896 -3 4 C-2.01 3.67 -1.02 3.34 0 3 C0 2.01 0 1.02 0 0 Z " fill="#57B8F8" transform="translate(13,37)"/>
<path d="M0 0 C0.33 0 0.66 0 1 0 C1.33 1.98 1.66 3.96 2 6 C2.33 6 2.66 6 3 6 C2.98839844 7.19238281 2.97679688 8.38476562 2.96484375 9.61328125 C2.95546408 11.17968594 2.94636407 12.74609231 2.9375 14.3125 C2.92912109 15.09818359 2.92074219 15.88386719 2.91210938 16.69335938 C2.90727539 17.8293457 2.90727539 17.8293457 2.90234375 18.98828125 C2.89448853 20.03302612 2.89448853 20.03302612 2.88647461 21.09887695 C2.93104009 23.22497968 2.93104009 23.22497968 4 26 C3.83988879 28.70123106 3.39559392 31.31875231 3 34 C2.34 34 1.68 34 1 34 C1.33 32.35 1.66 30.7 2 29 C1.01 29 0.02 29 -1 29 C-1.12276617 19.26055028 -0.83779436 9.70943816 0 0 Z " fill="#FACB17" transform="translate(82,54)"/>
<path d="M0 0 C0.89203125 0.01804688 1.7840625 0.03609375 2.703125 0.0546875 C3.71632812 0.08949219 3.71632812 0.08949219 4.75 0.125 C4.2688509 5.89878925 2.56532819 10.08359836 -0.25 15.125 C-1.24 14.795 -2.23 14.465 -3.25 14.125 C-3.25 13.135 -3.25 12.145 -3.25 11.125 C-3.58 11.125 -3.91 11.125 -4.25 11.125 C-4.5625 8.8125 -4.5625 8.8125 -4.25 6.125 C-1.75 4.3125 -1.75 4.3125 0.75 3.125 C-2.55 2.795 -5.85 2.465 -9.25 2.125 C-5.38209997 0.19104999 -4.0999541 -0.10789353 0 0 Z " fill="#F5C82C" transform="translate(173.25,52.875)"/>
<path d="M0 0 C1.85625 0.0309375 1.85625 0.0309375 3.75 0.0625 C3.75 0.3925 3.75 0.7225 3.75 1.0625 C-0.51616316 2.20014351 -3.81486311 3.0625 -8.25 3.0625 C-8.25 3.7225 -8.25 4.3825 -8.25 5.0625 C-7.59 5.3925 -6.93 5.7225 -6.25 6.0625 C-12.12080592 7.36712354 -18.26598958 7.5719612 -24.25 7.0625 C-25.24 6.4025 -26.23 5.7425 -27.25 5.0625 C-26.69538086 4.94656494 -26.14076172 4.83062988 -25.56933594 4.71118164 C-23.04605555 4.18325566 -20.52302612 3.65413973 -18 3.125 C-17.12730469 2.94259766 -16.25460938 2.76019531 -15.35546875 2.57226562 C-14.51113281 2.39501953 -13.66679687 2.21777344 -12.796875 2.03515625 C-12.02182617 1.87281494 -11.24677734 1.71047363 -10.44824219 1.54321289 C-8.99257592 1.22488694 -7.54244708 0.87998862 -6.09960938 0.5078125 C-4.00765219 0.00415227 -2.14821802 -0.03580363 0 0 Z " fill="#FBE668" transform="translate(160.25,0.9375)"/>
<path d="M0 0 C2.31 0 4.62 0 7 0 C8.12862175 5.36095333 8.09688221 10.55306686 8 16 C3.87642062 11.14006716 0 6.55994021 0 0 Z " fill="#A258F7" transform="translate(80,160)"/>
<path d="M0 0 C1.485 0.99 1.485 0.99 3 2 C3 2.66 3 3.32 3 4 C3.66 4.33 4.32 4.66 5 5 C5 5.66 5 6.32 5 7 C6.65 7.33 8.3 7.66 10 8 C10.33 11.63 10.66 15.26 11 19 C10.01 19 9.02 19 8 19 C6.4666195 16.40251918 4.94820332 13.79812104 3.4375 11.1875 C2.78104492 10.08051758 2.78104492 10.08051758 2.11132812 8.95117188 C1.70205078 8.23896484 1.29277344 7.52675781 0.87109375 6.79296875 C0.48880615 6.1383667 0.10651855 5.48376465 -0.28735352 4.80932617 C-1 3 -1 3 0 0 Z " fill="#9961FA" transform="translate(69,140)"/>
<path d="M0 0 C0.33 0 0.66 0 1 0 C1.33 1.98 1.66 3.96 2 6 C2.66 5.01 3.32 4.02 4 3 C4.86209729 5.41673812 5.12144068 6.6410448 4.28735352 9.10644531 C3.90506592 9.83959961 3.52277832 10.57275391 3.12890625 11.328125 C2.71962891 12.12734375 2.31035156 12.9265625 1.88867188 13.75 C1.45103516 14.575 1.01339844 15.4 0.5625 16.25 C0.12873047 17.09046875 -0.30503906 17.9309375 -0.75195312 18.796875 C-1.82405388 20.87038854 -2.90694051 22.9374801 -4 25 C-4.33 25 -4.66 25 -5 25 C-5 21.7 -5 18.4 -5 15 C-4.01 15 -3.02 15 -2 15 C-1.34 13.68 -0.68 12.36 0 11 C-0.33 10.67 -0.66 10.34 -1 10 C-1.13568319 6.33655389 -1.16461426 3.49384279 0 0 Z " fill="#F5B91E" transform="translate(153,91)"/>
<path d="M0 0 C1.07169239 3.21507718 1.02006037 5.15125136 0.75 8.5 C0.68296875 9.4590625 0.6159375 10.418125 0.546875 11.40625 C-0.060653 14.28766852 -0.61065341 15.31607954 -3 17 C-3.99 17 -4.98 17 -6 17 C-6.88935377 13.696686 -7.46274105 10.37705625 -8 7 C-7.01 7 -6.02 7 -5 7 C-2.57286241 4.38148757 -2.57286241 4.38148757 -2 1 C-1.34 0.67 -0.68 0.34 0 0 Z " fill="#AD43F8" transform="translate(112,167)"/>
<path d="M0 0 C1.11761719 0.07831055 1.11761719 0.07831055 2.2578125 0.15820312 C4.08894861 0.2873217 5.91953813 0.42415114 7.75 0.5625 C7.75 0.8925 7.75 1.2225 7.75 1.5625 C4.78 2.2225 1.81 2.8825 -1.25 3.5625 C-1.58 2.5725 -1.91 1.5825 -2.25 0.5625 C-3.57 0.8925 -4.89 1.2225 -6.25 1.5625 C-5.59 1.8925 -4.93 2.2225 -4.25 2.5625 C-4.25 3.2225 -4.25 3.8825 -4.25 4.5625 C-5.9 4.5625 -7.55 4.5625 -9.25 4.5625 C-9.58 6.5425 -9.91 8.5225 -10.25 10.5625 C-10.91 9.2425 -11.57 7.9225 -12.25 6.5625 C-13.24 7.5525 -14.23 8.5425 -15.25 9.5625 C-14.85404157 8.07765588 -14.43249294 6.5996169 -14 5.125 C-13.65195313 3.88943359 -13.65195313 3.88943359 -13.296875 2.62890625 C-12.25 0.5625 -12.25 0.5625 -10.42773438 -0.07421875 C-6.94526333 -0.65515114 -3.49928749 -0.26893817 0 0 Z " fill="#8B88EC" transform="translate(168.25,34.4375)"/>
<path d="M0 0 C0.66 0.33 1.32 0.66 2 1 C1.34 2.65 0.68 4.3 0 6 C0.66 6.33 1.32 6.66 2 7 C1.34 7 0.68 7 0 7 C-0.1546875 7.8971875 -0.1546875 7.8971875 -0.3125 8.8125 C-1 11 -1 11 -2.5 12.4375 C-4.46573078 14.48513623 -4.62668561 16.23747349 -5 19 C-5.33 18.34 -5.66 17.68 -6 17 C-6.66 17 -7.32 17 -8 17 C-8.2475 18.093125 -8.495 19.18625 -8.75 20.3125 C-10.02002851 24.05908409 -10.65756352 25.10595266 -14 27 C-12.63358421 23.40252773 -11.0328614 20.07041808 -9.1796875 16.69921875 C-8.64472656 15.72275391 -8.10976562 14.74628906 -7.55859375 13.74023438 C-7.00300781 12.73283203 -6.44742188 11.72542969 -5.875 10.6875 C-5.31167969 9.66076172 -4.74835938 8.63402344 -4.16796875 7.57617188 C-2.78117107 5.04937949 -1.39177165 2.52405506 0 0 Z " fill="#F5ECF8" transform="translate(197,73)"/>
<path d="M0 0 C0 0.66 0 1.32 0 2 C1.32 2 2.64 2 4 2 C4 2.99 4 3.98 4 5 C2.44033408 5.36644578 0.87707349 5.71760862 -0.6875 6.0625 C-1.55761719 6.25972656 -2.42773438 6.45695312 -3.32421875 6.66015625 C-6.16001276 7.02032279 -8.24789982 6.70909969 -11 6 C-11.33 4.68 -11.66 3.36 -12 2 C-10.37548581 1.66430703 -8.75037083 1.3315204 -7.125 1 C-6.22007813 0.814375 -5.31515625 0.62875 -4.3828125 0.4375 C-2 0 -2 0 0 0 Z " fill="#837DF7" transform="translate(92,97)"/>
<path d="M0 0 C1.98 0.495 1.98 0.495 4 1 C4.17942163 4.94727588 4.09350689 7.5980513 2 11 C2.66 11 3.32 11 4 11 C3.28571429 19.57142857 3.28571429 19.57142857 0 23 C0.020625 22.030625 0.04125 21.06125 0.0625 20.0625 C0.35618499 17.12534105 0.35618499 17.12534105 -1 16 C-0.909084 13.29891496 -0.76259234 10.63069689 -0.5625 7.9375 C-0.51029297 7.17888672 -0.45808594 6.42027344 -0.40429688 5.63867188 C-0.27424165 3.75878278 -0.13771962 1.87934315 0 0 Z " fill="#FBDA33" transform="translate(84,21)"/>
<path d="M0 0 C0.78375 0.185625 1.5675 0.37125 2.375 0.5625 C4.97089775 1.25962266 4.97089775 1.25962266 7 0 C6.855625 0.680625 6.71125 1.36125 6.5625 2.0625 C4.98340357 8.15014236 4.98340357 8.15014236 6 14 C5.01 14.99 4.02 15.98 3 17 C2.34 14.36 1.68 11.72 1 9 C0.67 9 0.34 9 0 9 C0 6.03 0 3.06 0 0 Z " fill="#FDD939" transform="translate(152,16)"/>
<path d="M0 0 C1.8871875 0.061875 1.8871875 0.061875 3.8125 0.125 C4.1425 1.775 4.4725 3.425 4.8125 5.125 C5.4725 4.135 6.1325 3.145 6.8125 2.125 C7.4725 4.435 8.1325 6.745 8.8125 9.125 C7.4925 10.445 6.1725 11.765 4.8125 13.125 C4.4825 12.135 4.1525 11.145 3.8125 10.125 C2.8225 11.61 2.8225 11.61 1.8125 13.125 C1.1525 13.125 0.4925 13.125 -0.1875 13.125 C0.8025 9.495 1.7925 5.865 2.8125 2.125 C-0.4875 2.125 -3.7875 2.125 -7.1875 2.125 C-4.09861478 0.06574319 -3.47814073 -0.1140374 0 0 Z " fill="#9972ED" transform="translate(175.1875,50.875)"/>
<path d="M0 0 C2.64 0 5.28 0 8 0 C6.56032356 5.23518706 4.18303389 9.63026009 1 14 C0.67 14 0.34 14 0 14 C0 9.38 0 4.76 0 0 Z " fill="#B739F7" transform="translate(136,168)"/>
<path d="M0 0 C2.64 0 5.28 0 8 0 C8 4.62 8 9.24 8 14 C0 4 0 4 0 0 Z " fill="#AC4BF8" transform="translate(88,176)"/>
<path d="M0 0 C2.31 0 4.62 0 7 0 C6.67 0.99 6.34 1.98 6 3 C5.01 2.67 4.02 2.34 3 2 C3 5.63 3 9.26 3 13 C2.34 13 1.68 13 1 13 C1 13.66 1 14.32 1 15 C0.34 15 -0.32 15 -1 15 C-1.02693575 12.87506859 -1.04636628 10.75004088 -1.0625 8.625 C-1.07410156 7.44164063 -1.08570313 6.25828125 -1.09765625 5.0390625 C-1 2 -1 2 0 0 Z " fill="#FDBA0F" transform="translate(145,104)"/>
<path d="M0 0 C2.64 0 5.28 0 8 0 C6.56032356 5.23518706 4.18303389 9.63026009 1 14 C0.67 14 0.34 14 0 14 C0 9.33333333 0 4.66666667 0 0 Z " fill="#A453F8" transform="translate(176,96)"/>
<path d="M0 0 C2.33294775 -0.04241723 4.66702567 -0.04092937 7 0 C7.33 0.33 7.66 0.66 8 1 C10.33297433 1.04092937 12.66705225 1.04241723 15 1 C15 1.66 15 2.32 15 3 C12.0098145 4.72327319 9.87966022 5.25156728 6.4375 5.1875 C5.67308594 5.18105469 4.90867187 5.17460937 4.12109375 5.16796875 C2 5 2 5 -1 4 C-0.67 2.68 -0.34 1.36 0 0 Z " fill="#FDDF46" transform="translate(116,10)"/>
<path d="M0 0 C0.66 0 1.32 0 2 0 C1.52269162 1.4589426 1.04308958 2.91713496 0.5625 4.375 C0.29566406 5.18710938 0.02882812 5.99921875 -0.24609375 6.8359375 C-1 9 -1 9 -2 11 C-2.66 11 -3.32 11 -4 11 C-4 11.66 -4 12.32 -4 13 C-3.34 13 -2.68 13 -2 13 C-2.33 14.32 -2.66 15.64 -3 17 C-4.98 17 -6.96 17 -9 17 C-7.68990468 14.35295091 -6.37705236 11.7073344 -5.0625 9.0625 C-4.50272461 7.93038086 -4.50272461 7.93038086 -3.93164062 6.77539062 C-3.39506836 5.69741211 -3.39506836 5.69741211 -2.84765625 4.59765625 C-2.51773682 3.93258057 -2.18781738 3.26750488 -1.84790039 2.58227539 C-1 1 -1 1 0 0 Z " fill="#F3EBF8" transform="translate(145,167)"/>
<path d="M0 0 C2.64 0 5.28 0 8 0 C8 4.29 8 8.58 8 13 C5.61318325 10.61318325 4.05776184 8.7414492 2.3125 5.9375 C1.87550781 5.24527344 1.43851563 4.55304688 0.98828125 3.83984375 C0 2 0 2 0 0 Z " fill="#64A8F8" transform="translate(24,64)"/>
<path d="M0 0 C2.64 0.33 5.28 0.66 8 1 C8 2.98 8 4.96 8 7 C5.36 7.33 2.72 7.66 0 8 C0 5.36 0 2.72 0 0 Z " fill="#FBB50F" transform="translate(112,120)"/>
<path d="M0 0 C0.94875 0.04125 1.8975 0.0825 2.875 0.125 C1.885 0.62 1.885 0.62 0.875 1.125 C1.535 1.785 2.195 2.445 2.875 3.125 C3 5.75 3 5.75 2.875 8.125 C2.215 8.125 1.555 8.125 0.875 8.125 C0.545 9.115 0.215 10.105 -0.125 11.125 C-2.44972205 8.27193203 -3.8758258 5.58425163 -5.125 2.125 C-3.125 0.125 -3.125 0.125 0 0 Z " fill="#7E88F7" transform="translate(53.125,103.875)"/>
<path d="M0 0 C2.31 0 4.62 0 7 0 C7 2.64 7 5.28 7 8 C7.66 8 8.32 8 9 8 C9 8.66 9 9.32 9 10 C8.34 10 7.68 10 7 10 C6.67 10.66 6.34 11.32 6 12 C4.99466333 10.37829621 3.99588093 8.75252763 3 7.125 C2.443125 6.22007812 1.88625 5.31515625 1.3125 4.3828125 C0 2 0 2 0 0 Z " fill="#B641F8" transform="translate(97,192)"/>
<path d="M0 0 C0.66 0 1.32 0 2 0 C2 0.66 2 1.32 2 2 C3.32 1.67 4.64 1.34 6 1 C5.39174965 5.34464536 4.73832608 9.67551867 4 14 C3.67 13.01 3.34 12.02 3 11 C2.34 11 1.68 11 1 11 C-0.28317892 7.15046324 -0.06643637 4.05261865 0 0 Z " fill="#986FEE" transform="translate(98,112)"/>
<path d="M0 0 C0 4.29 0 8.58 0 13 C-0.99 13 -1.98 13 -3 13 C-4.65 9.7 -6.3 6.4 -8 3 C-6.68 3.33 -5.36 3.66 -4 4 C-3.67 3.01 -3.34 2.02 -3 1 C-1 0 -1 0 0 0 Z " fill="#7C94FA" transform="translate(48,90)"/>
<path d="M0 0 C0.33 0 0.66 0 1 0 C0.53044382 4.0694869 0.10290342 7.45135047 -2 11 C-2.33 11.66 -2.66 12.32 -3 13 C-5.31 12.67 -7.62 12.34 -10 12 C-10.33 10.68 -10.66 9.36 -11 8 C-10.113125 8.165 -9.22625 8.33 -8.3125 8.5 C-4.97503177 8.37229861 -4.97503177 8.37229861 -3.5234375 6.21875 C-2.63937447 4.75048157 -1.7906719 3.26028159 -0.98046875 1.75 C-0.65691406 1.1725 -0.33335938 0.595 0 0 Z " fill="#F5F4F5" transform="translate(122,208)"/>
<path d="M0 0 C0.33 1.32 0.66 2.64 1 4 C2.32 4 3.64 4 5 4 C3.35433477 9.68502535 0.70967216 14.76681636 -2 20 C-2.33 18.68 -2.66 17.36 -3 16 C-3.66 16 -4.32 16 -5 16 C-5 15.34 -5 14.68 -5 14 C-4.01 14 -3.02 14 -2 14 C0.3992233 9.35150485 0.19957409 5.08913926 0 0 Z " fill="#F8C220" transform="translate(161,76)"/>
<path d="M0 0 C-0.33 1.32 -0.66 2.64 -1 4 C-1 3.01 -1 2.02 -1 1 C-1.99 1 -2.98 1 -4 1 C-3.67 2.65 -3.34 4.3 -3 6 C-3.99 6.33 -4.98 6.66 -6 7 C-6 6.34 -6 5.68 -6 5 C-6.99 5 -7.98 5 -9 5 C-10.6875 3 -10.6875 3 -12 1 C-7.58774263 -0.47075246 -4.51718381 -1.36884358 0 0 Z " fill="#A862ED" transform="translate(121,128)"/>
<path d="M0 0 C2.31777287 2.84453943 3.89118681 5.48875822 5 9 C4.67 9.66 4.34 10.32 4 11 C2.35 11 0.7 11 -1 11 C-2.0257259 6.58937864 -2.03684712 4.07369424 0 0 Z " fill="#F8F4F7" transform="translate(90,181)"/>
<path d="M0 0 C0.66 0.66 1.32 1.32 2 2 C3.31747324 2.69748583 4.64914193 3.36959957 6 4 C4.68 4 3.36 4 2 4 C2.33 4.99 2.66 5.98 3 7 C3.99 7 4.98 7 6 7 C5.38722388 9.96175123 4.74627478 11.38058783 3 14 C-1.07877462 7.10284464 -1.07877462 7.10284464 -0.75 2.5 C-0.5025 1.675 -0.255 0.85 0 0 Z " fill="#59CBF8" transform="translate(6,26)"/>
<path d="M0 0 C0.66 -0.33 1.32 -0.66 2 -1 C2 -0.01 2 0.98 2 2 C2.66 2 3.32 2 4 2 C4 1.34 4 0.68 4 0 C4.66 0 5.32 0 6 0 C6.33 0.99 6.66 1.98 7 3 C6.34 3 5.68 3 5 3 C4.67 4.32 4.34 5.64 4 7 C3.67 5.68 3.34 4.36 3 3 C-0.63 3 -4.26 3 -8 3 C-8.33 2.01 -8.66 1.02 -9 0 C-5.55465996 -0.86133501 -3.39620354 -0.93688374 0 0 Z " fill="#FBC40A" transform="translate(105,92)"/>
<path d="M0 0 C0.99 0 1.98 0 3 0 C2.74438677 2.3431213 2.40729228 4.67843403 2 7 C1.01 7.495 1.01 7.495 0 8 C-0.99 9.485 -0.99 9.485 -2 11 C-2.33 10.67 -2.66 10.34 -3 10 C-3.33 11.65 -3.66 13.3 -4 15 C-4.33 15 -4.66 15 -5 15 C-5 12.03 -5 9.06 -5 6 C-3.35 5.67 -1.7 5.34 0 5 C0 3.35 0 1.7 0 0 Z " fill="#9C5AFB" transform="translate(117,129)"/>
<path d="M0 0 C0.66 0.66 1.32 1.32 2 2 C1.649375 2.721875 1.29875 3.44375 0.9375 4.1875 C-0.10409017 7.3122705 0.10903428 8.88161996 1 12 C0.01 12 -0.98 12 -2 12 C-3.33981486 12.3062434 -4.67511887 12.63451555 -6 13 C-4.58707905 8.1725201 -2.57025846 4.2837641 0 0 Z " fill="#F7EEFB" transform="translate(205,59)"/>
<path d="M0 0 C0.99 0 1.98 0 3 0 C3 3.63 3 7.26 3 11 C1.68 11 0.36 11 -1 11 C-1.33 9.35 -1.66 7.7 -2 6 C-1.67 6 -1.34 6 -1 6 C-0.67 4.02 -0.34 2.04 0 0 Z " fill="#FDD02E" transform="translate(84,45)"/>
<path d="M0 0 C1.65 0 3.3 0 5 0 C5 0.99 5 1.98 5 3 C4.34 2.67 3.68 2.34 3 2 C3 2.66 3 3.32 3 4 C3.66 4 4.32 4 5 4 C4.42655063 6.86724686 4.1385485 7.8614515 2 10 C0.92474806 7.34771188 -0.09456151 4.71631546 -1 2 C-0.67 1.34 -0.34 0.68 0 0 Z " fill="#FDC112" transform="translate(153,88)"/>
<path d="M0 0 C2 3 2 3 2 7 C4.64 7.33 7.28 7.66 10 8 C6.55549263 10.29633824 4.06187717 10.54016485 0 11 C-1.05404945 7.01803543 -0.84098656 4.01804691 0 0 Z " fill="#F2B517" transform="translate(102,120)"/>
<path d="M0 0 C2.41802195 0.28270406 4.8340122 0.57579264 7.25 0.875 C7.93191406 0.95363281 8.61382812 1.03226563 9.31640625 1.11328125 C12.90696311 1.56645833 15.892507 2.09385738 19 4 C17.54176788 4.0270043 16.08339325 4.04639787 14.625 4.0625 C13.81289063 4.07410156 13.00078125 4.08570313 12.1640625 4.09765625 C10 4 10 4 8 3 C5.6599583 3.28241883 3.32495277 3.61250787 1 4 C0.67 2.68 0.34 1.36 0 0 Z " fill="#5EBDF9" transform="translate(29,28)"/>
<path d="M0 0 C0.66 0 1.32 0 2 0 C2.25 6.625 2.25 6.625 0 10 C-2.125 10.6875 -2.125 10.6875 -4 11 C-4.33 10.34 -4.66 9.68 -5 9 C-4.00390625 6.8359375 -4.00390625 6.8359375 -2.5625 4.375 C-2.08941406 3.55773437 -1.61632812 2.74046875 -1.12890625 1.8984375 C-0.75636719 1.27195313 -0.38382813 0.64546875 0 0 Z " fill="#F7F3F9" transform="translate(165,131)"/>
<path d="M0 0 C3.3 0 6.6 0 10 0 C10 1.32 10 2.64 10 4 C9.01 4 8.02 4 7 4 C7.33 6.31 7.66 8.62 8 11 C6.02 11.99 6.02 11.99 4 13 C4.66 9.04 5.32 5.08 6 1 C4.02 1 2.04 1 0 1 C0 0.67 0 0.34 0 0 Z " fill="#FCF7E7" transform="translate(158,0)"/>
<path d="M0 0 C1.42944945 2.35438733 2.08661261 3.48032433 1.625 6.25 C1.41875 6.8275 1.2125 7.405 1 8 C-1.64 8 -4.28 8 -7 8 C-6.67 7.01 -6.34 6.02 -6 5 C-4.68 5 -3.36 5 -2 5 C-1.34 3.35 -0.68 1.7 0 0 Z " fill="#BB46E8" transform="translate(118,176)"/>
<path d="M0 0 C1.485 0.99 1.485 0.99 3 2 C3 2.66 3 3.32 3 4 C3.66 4.33 4.32 4.66 5 5 C5.59355614 7.64860427 5.74209269 10.29197322 6 13 C2.70032335 10.19527484 0.91540896 6.83081791 -1 3 C-0.67 2.01 -0.34 1.02 0 0 Z " fill="#926AF5" transform="translate(69,140)"/>
<path d="M0 0 C0.33 0.66 0.66 1.32 1 2 C-4.68849748 3.49697302 -9.41809068 2.3348044 -15 1 C-15 0.67 -15 0.34 -15 0 C-9.70936543 -0.83536335 -5.30788029 -1.19156496 0 0 Z " fill="#E9F6FB" transform="translate(31,25)"/>
<path d="M0 0 C0.99 0 1.98 0 3 0 C3.36567164 6.460199 3.36567164 6.460199 1.6875 8.9375 C0 10 0 10 -3 10 C-2.690625 9.0925 -2.38125 8.185 -2.0625 7.25 C-1.2727737 4.83436662 -0.57050703 2.47219715 0 0 Z " fill="#B546F1" transform="translate(109,174)"/>
<path d="M0 0 C2.4375 0.375 2.4375 0.375 5 1 C6.31625194 3.63250388 5.74813658 4.80179056 5.0625 7.625 C4.86785156 8.44226562 4.67320312 9.25953125 4.47265625 10.1015625 C4.23869141 11.04128906 4.23869141 11.04128906 4 12 C3.01 11.67 2.02 11.34 1 11 C1.32552083 9.01432292 1.65104167 7.02864583 1.9765625 5.04296875 C2.19577848 2.68244176 2.19577848 2.68244176 0 0 Z " fill="#F4F1F7" transform="translate(218,25)"/>
<path d="M0 0 C0.66 0.33 1.32 0.66 2 1 C0.35 4.3 -1.3 7.6 -3 11 C-3.33 9.68 -3.66 8.36 -4 7 C-4.66 7 -5.32 7 -6 7 C-6.33 6.01 -6.66 5.02 -7 4 C-5.35 4 -3.7 4 -2 4 C-1.34 2.68 -0.68 1.36 0 0 Z " fill="#F5C32A" transform="translate(170,69)"/>
<path d="M0 0 C0.66 0 1.32 0 2 0 C2 0.66 2 1.32 2 2 C4.97 2 7.94 2 11 2 C11 2.66 11 3.32 11 4 C9.72125 4.144375 8.4425 4.28875 7.125 4.4375 C4.74307106 4.70642746 3.15547309 4.92226346 1 6 C0.34 5.67 -0.32 5.34 -1 5 C-0.67 3.35 -0.34 1.7 0 0 Z " fill="#FDE03F" transform="translate(85,16)"/>
<path d="M0 0 C0.33 0 0.66 0 1 0 C1 1.65 1 3.3 1 5 C-0.32 4.34 -1.64 3.68 -3 3 C-2.34 3 -1.68 3 -1 3 C-0.67 2.01 -0.34 1.02 0 0 Z M-6 1 C-4.8125 2.5625 -4.8125 2.5625 -4 5 C-5.375 8.75 -5.375 8.75 -7 12 C-7.33 12 -7.66 12 -8 12 C-8.25 4.375 -8.25 4.375 -6 1 Z " fill="#FEA903" transform="translate(123,156)"/>
<path d="M0 0 C0.99 0.33 1.98 0.66 3 1 C3 1.99 3 2.98 3 4 C3.66 4 4.32 4 5 4 C5 5.32 5 6.64 5 8 C3.68 8 2.36 8 1 8 C-1 5 -1 5 -0.625 2.3125 C-0.41875 1.549375 -0.2125 0.78625 0 0 Z " fill="#FCC617" transform="translate(161,72)"/>
<path d="M0 0 C3.96 0 7.92 0 12 0 C11.67 0.66 11.34 1.32 11 2 C9.68 2 8.36 2 7 2 C7.33 2.99 7.66 3.98 8 5 C5.125 4.75 5.125 4.75 2 4 C1.34 2.68 0.68 1.36 0 0 Z " fill="#A068E9" transform="translate(96,130)"/>
<path d="M0 0 C1.32 0.33 2.64 0.66 4 1 C3.34 3.31 2.68 5.62 2 8 C1.01 8 0.02 8 -1 8 C-1.33 8.66 -1.66 9.32 -2 10 C-1.125 2.25 -1.125 2.25 0 0 Z " fill="#FCB50B" transform="translate(138,120)"/>
<path d="M0 0 C0 2.31 0 4.62 0 7 C-0.66 6.67 -1.32 6.34 -2 6 C-2 5.34 -2 4.68 -2 4 C-3.98 4 -5.96 4 -8 4 C-8 3.01 -8 2.02 -8 1 C-1.125 0 -1.125 0 0 0 Z " fill="#8486F3" transform="translate(80,92)"/>
<path d="M0 0 C2.61356717 3.92035075 2.95917544 7.33783515 3 12 C2.0625 15.0625 2.0625 15.0625 1 17 C-0.84926904 13.89435734 -1.17308168 12.05644109 -0.625 8.5 C-0.19179007 5.55820235 0 3.01155211 0 0 Z " fill="#F6D621" transform="translate(153,24)"/>
<path d="M0 0 C0.66 0 1.32 0 2 0 C2 0.66 2 1.32 2 2 C2.66 2 3.32 2 4 2 C3.67 3.32 3.34 4.64 3 6 C1.02 6 -0.96 6 -3 6 C-2.01 4.02 -1.02 2.04 0 0 Z " fill="#F8F6F4" transform="translate(139,178)"/>
<path d="M0 0 C0 0.66 0 1.32 0 2 C1.32 2 2.64 2 4 2 C4 2.99 4 3.98 4 5 C2.081875 4.8453125 2.081875 4.8453125 0.125 4.6875 C-0.95394531 4.60048828 -0.95394531 4.60048828 -2.0546875 4.51171875 C-4 4 -4 4 -6 1 C-3.92446352 0.4465236 -2.15634036 0 0 0 Z " fill="#8E7AF2" transform="translate(92,97)"/>
<path d="M0 0 C1.20628008 2.33214148 2.1654738 4.49642139 3 7 C2.01 7.99 1.02 8.98 0 10 C-2 7 -2 7 -3 5 C-1.5625 2.375 -1.5625 2.375 0 0 Z " fill="#F8F3F9" transform="translate(213,45)"/>
<path d="M0 0 C0.66 0.33 1.32 0.66 2 1 C1.731875 1.515625 1.46375 2.03125 1.1875 2.5625 C-0.32349407 5.66401415 -1.65572726 8.82262806 -3 12 C-3.66 12 -4.32 12 -5 12 C-3.68938409 7.76570244 -2.05643741 3.92592596 0 0 Z " fill="#A264F1" transform="translate(168,76)"/>
<path d="M0 0 C0.66 0.33 1.32 0.66 2 1 C0.68 3.64 -0.64 6.28 -2 9 C-2.33 8.34 -2.66 7.68 -3 7 C-3.99 7 -4.98 7 -6 7 C-6 6.34 -6 5.68 -6 5 C-4.34467377 3.98133771 -2.67739862 2.98189187 -1 2 C-0.67 1.34 -0.34 0.68 0 0 Z " fill="#F5B122" transform="translate(146,117)"/>
<path d="M0 0 C0.66 0.33 1.32 0.66 2 1 C0.35 4.3 -1.3 7.6 -3 11 C-3.33 9.68 -3.66 8.36 -4 7 C-4.66 7 -5.32 7 -6 7 C-6 6.34 -6 5.68 -6 5 C-5.01 5 -4.02 5 -3 5 C-1.28288757 2.55503957 -1.28288757 2.55503957 0 0 Z " fill="#F1BD29" transform="translate(162,85)"/>
<path d="M0 0 C1.32 0 2.64 0 4 0 C4 4.62 4 9.24 4 14 C3.67 14 3.34 14 3 14 C2.86722656 13.24074219 2.73445313 12.48148438 2.59765625 11.69921875 C2.42105469 10.70535156 2.24445313 9.71148437 2.0625 8.6875 C1.88847656 7.70136719 1.71445313 6.71523438 1.53515625 5.69921875 C1.04253153 2.91810787 1.04253153 2.91810787 0 0 Z " fill="#8FABDC" transform="translate(79,37)"/>
<path d="M0 0 C0 1.98 0 3.96 0 6 C-0.33 5.01 -0.66 4.02 -1 3 C-3.31 3 -5.62 3 -8 3 C-8 2.34 -8 1.68 -8 1 C-5.07175348 0.02391783 -3.04386724 -0.08226668 0 0 Z " fill="#FDE259" transform="translate(164,2)"/>
<path d="M0 0 C0 0.66 0 1.32 0 2 C-3.63 2.66 -7.26 3.32 -11 4 C-7.65667474 -0.27945633 -5.29105716 -0.4070044 0 0 Z " fill="#FEF8EE" transform="translate(152,1)"/>
<path d="M0 0 C0 0.66 0 1.32 0 2 C-7.38461538 3.35384615 -7.38461538 3.35384615 -10.5 1.5625 C-10.995 1.046875 -11.49 0.53125 -12 0 C-7.6835078 -0.76173392 -4.25566547 -1.16063604 0 0 Z " fill="#FCE66C" transform="translate(128,9)"/>
<path d="M0 0 C0.99 0 1.98 0 3 0 C3.33 1.65 3.66 3.3 4 5 C3.01 5.66 2.02 6.32 1 7 C1 6.01 1 5.02 1 4 C0.34 4 -0.32 4 -1 4 C-0.67 2.68 -0.34 1.36 0 0 Z " fill="#F9F8F4" transform="translate(99,201)"/>
<path d="M0 0 C2.83374881 3.20336822 3.5205537 5.78087253 4 10 C3.01 10.495 3.01 10.495 2 11 C1.01 7.7 0.02 4.4 -1 1 C-0.67 0.67 -0.34 0.34 0 0 Z " fill="#F8F5F6" transform="translate(74,153)"/>
<path d="M0 0 C0.66 0 1.32 0 2 0 C1.34 3.63 0.68 7.26 0 11 C-2 8 -2 8 -1.6875 4.375 C-1 1 -1 1 0 0 Z " fill="#AF50EF" transform="translate(114,154)"/>
<path d="M0 0 C0.66 0 1.32 0 2 0 C2.33 0.66 2.66 1.32 3 2 C3.99 2 4.98 2 6 2 C6 3.98 6 5.96 6 8 C5.67 7.34 5.34 6.68 5 6 C2.97536745 5.34786708 2.97536745 5.34786708 1 5 C0.67 3.35 0.34 1.7 0 0 Z " fill="#6A93FB" transform="translate(39,88)"/>
<path d="M0 0 C2.475 0.495 2.475 0.495 5 1 C5.33 2.32 5.66 3.64 6 5 C4.68 5.33 3.36 5.66 2 6 C2 5.01 2 4.02 2 3 C1.34 3 0.68 3 0 3 C0 2.01 0 1.02 0 0 Z " fill="#9368F5" transform="translate(208,40)"/>
<path d="M0 0 C-0.99 0.33 -1.98 0.66 -3 1 C-3 1.66 -3 2.32 -3 3 C0.465 2.505 0.465 2.505 4 2 C0.86501708 3.85776765 -1.37471432 4.20140476 -5 4 C-5 3.34 -5 2.68 -5 2 C-5.99 1.67 -6.98 1.34 -8 1 C-5.07175348 0.02391783 -3.04386724 -0.08226668 0 0 Z " fill="#FCF8E1" transform="translate(104,9)"/>
<path d="M0 0 C1.04449911 3.13349732 0.93423645 3.98968256 0 7 C-0.66 7 -1.32 7 -2 7 C-2.33 8.32 -2.66 9.64 -3 11 C-3.66 11 -4.32 11 -5 11 C-3.55049545 7.2089881 -1.84827434 3.6125362 0 0 Z " fill="#FAEBF9" transform="translate(157,145)"/>
<path d="M0 0 C3.875 0.875 3.875 0.875 5 2 C5.04080783 3.99958364 5.04254356 6.00045254 5 8 C4.67 7.01 4.34 6.02 4 5 C3.34 5 2.68 5 2 5 C2 4.34 2 3.68 2 3 C1.34 3 0.68 3 0 3 C0 2.01 0 1.02 0 0 Z " fill="#F9B403" transform="translate(121,128)"/>
<path d="M0 0 C0.33 0.99 0.66 1.98 1 3 C1.99 3 2.98 3 4 3 C3.67 4.65 3.34 6.3 3 8 C2.01 8 1.02 8 0 8 C0 5.36 0 2.72 0 0 Z " fill="#F0BE40" transform="translate(80,80)"/>
<path d="M0 0 C-0.33 0.66 -0.66 1.32 -1 2 C-3.64860427 2.59355614 -6.29197322 2.74209269 -9 3 C-8.67 2.01 -8.34 1.02 -8 0 C-4.71303767 -0.79953138 -3.28976808 -1.09658936 0 0 Z " fill="#927CEB" transform="translate(165,53)"/>
<path d="M0 0 C1.98 0.495 1.98 0.495 4 1 C3.75 3.375 3.75 3.375 3 6 C0.9375 7.3125 0.9375 7.3125 -1 8 C-0.67 5.36 -0.34 2.72 0 0 Z " fill="#FAD418" transform="translate(147,48)"/>
<path d="M0 0 C1.65 0 3.3 0 5 0 C4.01 1.485 4.01 1.485 3 3 C3 2.34 3 1.68 3 1 C2.34 1 1.68 1 1 1 C1.33 1.763125 1.66 2.52625 2 3.3125 C3 6 3 6 3 9 C1.5 7.875 1.5 7.875 0 6 C-0.1875 2.8125 -0.1875 2.8125 0 0 Z " fill="#BE3CF4" transform="translate(128,184)"/>
<path d="M0 0 C3.96 0.33 7.92 0.66 12 1 C12 1.33 12 1.66 12 2 C9.03 2.66 6.06 3.32 3 4 C2.67 3.01 2.34 2.02 2 1 C1.34 0.67 0.68 0.34 0 0 Z " fill="#807AF2" transform="translate(164,34)"/>
<path d="M0 0 C2.05078125 0.03255208 4.1015625 0.06510417 6.15234375 0.09765625 C6.15234375 0.42765625 6.15234375 0.75765625 6.15234375 1.09765625 C3.84234375 1.42765625 1.53234375 1.75765625 -0.84765625 2.09765625 C-1.17765625 4.07765625 -1.50765625 6.05765625 -1.84765625 8.09765625 C-2.17765625 8.09765625 -2.50765625 8.09765625 -2.84765625 8.09765625 C-2.89007348 5.7647085 -2.88858562 3.43063058 -2.84765625 1.09765625 C-1.84765625 0.09765625 -1.84765625 0.09765625 0 0 Z " fill="#E7F8FD" transform="translate(6.84765625,23.90234375)"/>
<path d="M0 0 C2.64 0.33 5.28 0.66 8 1 C8 1.66 8 2.32 8 3 C5.36 3.33 2.72 3.66 0 4 C0 2.68 0 1.36 0 0 Z " fill="#FEE144" transform="translate(96,14)"/>
<path d="M0 0 C0.33 0.66 0.66 1.32 1 2 C-0.32 3.65 -1.64 5.3 -3 7 C-3.66 5.68 -4.32 4.36 -5 3 C-3.35 2.01 -1.7 1.02 0 0 Z " fill="#A458FC" transform="translate(190,81)"/>
<path d="M0 0 C1.65 0 3.3 0 5 0 C5 0.99 5 1.98 5 3 C3.35 3.33 1.7 3.66 0 4 C0 2.68 0 1.36 0 0 Z " fill="#68A6F7" transform="translate(72,36)"/>
<path d="M0 0 C1.89213369 2.38573379 3.02391783 4.07175348 4 7 C2.35 7.33 0.7 7.66 -1 8 C-1 7.34 -1 6.68 -1 6 C-0.34 6 0.32 6 1 6 C0.67 4.02 0.34 2.04 0 0 Z " fill="#EEFAFC" transform="translate(5,32)"/>
<path d="M0 0 C0.33 0.66 0.66 1.32 1 2 C-1.97 2 -4.94 2 -8 2 C-6.18415346 -1.63169308 -3.37971234 -1.23922786 0 0 Z " fill="#8E85FD" transform="translate(175,33)"/>
<path d="M0 0 C0.33 0 0.66 0 1 0 C0.67 2.31 0.34 4.62 0 7 C-0.99 7 -1.98 7 -3 7 C-1.125 1.125 -1.125 1.125 0 0 Z " fill="#F6E3F9" transform="translate(122,208)"/>
<path d="M0 0 C0.33 0 0.66 0 1 0 C1 1.65 1 3.3 1 5 C0.01 5.33 -0.98 5.66 -2 6 C-2 6.66 -2 7.32 -2 8 C-2.66 7.67 -3.32 7.34 -4 7 C-2.68 4.69 -1.36 2.38 0 0 Z " fill="#F7EAF9" transform="translate(150,158)"/>
</svg>
